G04*
G04 #@! TF.GenerationSoftware,Altium Limited,Altium Designer,22.11.1 (43)*
G04*
G04 Layer_Physical_Order=1*
G04 Layer_Color=16776960*
%FSLAX43Y43*%
%MOMM*%
G71*
G04*
G04 #@! TF.SameCoordinates,FB5CEF4A-B6EA-44A6-96C9-558EDDA3D9AB*
G04*
G04*
G04 #@! TF.FilePolarity,Positive*
G04*
G01*
G75*
%ADD11C,0.200*%
%ADD22R,0.500X0.500*%
G04:AMPARAMS|DCode=23|XSize=0.8mm|YSize=0.8mm|CornerRadius=0.1mm|HoleSize=0mm|Usage=FLASHONLY|Rotation=135.000|XOffset=0mm|YOffset=0mm|HoleType=Round|Shape=RoundedRectangle|*
%AMROUNDEDRECTD23*
21,1,0.800,0.600,0,0,135.0*
21,1,0.600,0.800,0,0,135.0*
1,1,0.200,0.000,0.424*
1,1,0.200,0.424,0.000*
1,1,0.200,0.000,-0.424*
1,1,0.200,-0.424,0.000*
%
%ADD23ROUNDEDRECTD23*%
G04:AMPARAMS|DCode=24|XSize=0.8mm|YSize=0.8mm|CornerRadius=0.1mm|HoleSize=0mm|Usage=FLASHONLY|Rotation=180.000|XOffset=0mm|YOffset=0mm|HoleType=Round|Shape=RoundedRectangle|*
%AMROUNDEDRECTD24*
21,1,0.800,0.600,0,0,180.0*
21,1,0.600,0.800,0,0,180.0*
1,1,0.200,-0.300,0.300*
1,1,0.200,0.300,0.300*
1,1,0.200,0.300,-0.300*
1,1,0.200,-0.300,-0.300*
%
%ADD24ROUNDEDRECTD24*%
G04:AMPARAMS|DCode=25|XSize=0.8mm|YSize=0.8mm|CornerRadius=0.1mm|HoleSize=0mm|Usage=FLASHONLY|Rotation=45.000|XOffset=0mm|YOffset=0mm|HoleType=Round|Shape=RoundedRectangle|*
%AMROUNDEDRECTD25*
21,1,0.800,0.600,0,0,45.0*
21,1,0.600,0.800,0,0,45.0*
1,1,0.200,0.424,0.000*
1,1,0.200,0.000,-0.424*
1,1,0.200,-0.424,0.000*
1,1,0.200,0.000,0.424*
%
%ADD25ROUNDEDRECTD25*%
G04:AMPARAMS|DCode=26|XSize=0.59mm|YSize=0.6mm|CornerRadius=0.074mm|HoleSize=0mm|Usage=FLASHONLY|Rotation=180.000|XOffset=0mm|YOffset=0mm|HoleType=Round|Shape=RoundedRectangle|*
%AMROUNDEDRECTD26*
21,1,0.590,0.453,0,0,180.0*
21,1,0.443,0.600,0,0,180.0*
1,1,0.148,-0.221,0.226*
1,1,0.148,0.221,0.226*
1,1,0.148,0.221,-0.226*
1,1,0.148,-0.221,-0.226*
%
%ADD26ROUNDEDRECTD26*%
G04:AMPARAMS|DCode=27|XSize=0.61mm|YSize=0.6mm|CornerRadius=0.075mm|HoleSize=0mm|Usage=FLASHONLY|Rotation=180.000|XOffset=0mm|YOffset=0mm|HoleType=Round|Shape=RoundedRectangle|*
%AMROUNDEDRECTD27*
21,1,0.610,0.450,0,0,180.0*
21,1,0.460,0.600,0,0,180.0*
1,1,0.150,-0.230,0.225*
1,1,0.150,0.230,0.225*
1,1,0.150,0.230,-0.225*
1,1,0.150,-0.230,-0.225*
%
%ADD27ROUNDEDRECTD27*%
G04:AMPARAMS|DCode=28|XSize=0.61mm|YSize=0.6mm|CornerRadius=0.075mm|HoleSize=0mm|Usage=FLASHONLY|Rotation=45.000|XOffset=0mm|YOffset=0mm|HoleType=Round|Shape=RoundedRectangle|*
%AMROUNDEDRECTD28*
21,1,0.610,0.450,0,0,45.0*
21,1,0.460,0.600,0,0,45.0*
1,1,0.150,0.322,0.004*
1,1,0.150,-0.004,-0.322*
1,1,0.150,-0.322,-0.004*
1,1,0.150,0.004,0.322*
%
%ADD28ROUNDEDRECTD28*%
G04:AMPARAMS|DCode=29|XSize=0.61mm|YSize=0.6mm|CornerRadius=0.075mm|HoleSize=0mm|Usage=FLASHONLY|Rotation=90.000|XOffset=0mm|YOffset=0mm|HoleType=Round|Shape=RoundedRectangle|*
%AMROUNDEDRECTD29*
21,1,0.610,0.450,0,0,90.0*
21,1,0.460,0.600,0,0,90.0*
1,1,0.150,0.225,0.230*
1,1,0.150,0.225,-0.230*
1,1,0.150,-0.225,-0.230*
1,1,0.150,-0.225,0.230*
%
%ADD29ROUNDEDRECTD29*%
G04:AMPARAMS|DCode=30|XSize=0.61mm|YSize=0.6mm|CornerRadius=0.075mm|HoleSize=0mm|Usage=FLASHONLY|Rotation=135.000|XOffset=0mm|YOffset=0mm|HoleType=Round|Shape=RoundedRectangle|*
%AMROUNDEDRECTD30*
21,1,0.610,0.450,0,0,135.0*
21,1,0.460,0.600,0,0,135.0*
1,1,0.150,-0.004,0.322*
1,1,0.150,0.322,-0.004*
1,1,0.150,0.004,-0.322*
1,1,0.150,-0.322,0.004*
%
%ADD30ROUNDEDRECTD30*%
%ADD31C,0.125*%
%ADD32C,0.300*%
%ADD33C,0.500*%
%ADD34C,0.600*%
D11*
X-5038Y3947D02*
X-4508D01*
X-6229Y2756D02*
X-5038Y3947D01*
X-4508D02*
X-4030Y3470D01*
X4030D02*
X4950Y2550D01*
X5496D01*
X5820Y2227D01*
X-41Y3240D02*
Y4741D01*
X138Y4920D02*
X625D01*
X-41Y4741D02*
X138Y4920D01*
X3005Y4495D02*
X3516Y5006D01*
X3005Y4495D02*
Y4495D01*
X3516Y5006D02*
Y5508D01*
X3069Y5955D02*
X3516Y5508D01*
X2042Y5955D02*
X3069D01*
X700Y6300D02*
X1697D01*
X2042Y5955D01*
X-1766Y4799D02*
Y5458D01*
X-1775Y3689D02*
Y4790D01*
X5192Y-2308D02*
X5644D01*
X6754Y-1198D01*
X1274Y3042D02*
X1639Y3407D01*
Y3902D01*
X1644Y3907D01*
Y4914D02*
X1650Y4920D01*
X1644Y3907D02*
Y4914D01*
X-82Y5554D02*
X-43Y5515D01*
X-609Y5554D02*
X-82D01*
X-745Y4881D02*
Y5418D01*
X-609Y5554D01*
X-738Y3890D02*
Y4875D01*
Y3890D02*
X-732Y3884D01*
X-745Y4881D02*
X-738Y4875D01*
X614Y2758D02*
X801Y2571D01*
X614Y2758D02*
Y3902D01*
X619Y3907D02*
Y4914D01*
X625Y4920D01*
X614Y3902D02*
X619Y3907D01*
X-1115Y2886D02*
X-800Y2571D01*
Y2100D02*
Y2571D01*
X-1775Y4790D02*
X-1766Y4799D01*
Y5458D02*
X-1561Y5663D01*
Y5687D01*
X-2554Y5718D02*
X-1972Y6300D01*
X-700D01*
X-3005Y4495D02*
X-2554Y4946D01*
Y5718D01*
X-3005Y4495D02*
Y4495D01*
X4030Y-3470D02*
X5192Y-2308D01*
X751Y-6299D02*
X1201D01*
X1200Y-6300D02*
X1201Y-6299D01*
X1174Y-6300D02*
X1200D01*
X1201Y-6299D02*
X2970Y-4530D01*
X750Y-6300D02*
X751Y-6299D01*
X801Y2101D02*
Y2571D01*
X800Y2100D02*
X801Y2101D01*
X-800Y2100D02*
X-799Y2101D01*
X-6851Y1135D02*
X-6229Y1757D01*
Y2756D01*
X-1778Y3333D02*
X-1388Y2943D01*
X-1172D01*
X-1115Y2886D01*
X-1778Y3333D02*
Y3617D01*
X-1775Y3620D01*
X-2970Y-4568D02*
X-1238Y-6300D01*
X-2970Y-4568D02*
Y-4530D01*
X-1238Y-6300D02*
X-750D01*
X-6851Y-1441D02*
Y1135D01*
Y-1441D02*
X-5567Y-2725D01*
X-4775D01*
X-4030Y-3470D01*
X2970Y4530D02*
Y4555D01*
D22*
X0Y-1100D02*
D03*
Y2100D02*
D03*
X800Y-1100D02*
D03*
Y-300D02*
D03*
X-800Y-1100D02*
D03*
Y-300D02*
D03*
X800Y2100D02*
D03*
X-800D02*
D03*
Y1300D02*
D03*
X800D02*
D03*
Y500D02*
D03*
X-800D02*
D03*
D23*
X3005Y4495D02*
D03*
X3995Y3505D02*
D03*
X-3005Y-4495D02*
D03*
X-3995Y-3505D02*
D03*
D24*
X700Y6300D02*
D03*
X-700D02*
D03*
Y-6300D02*
D03*
X700D02*
D03*
D25*
X3995Y-3505D02*
D03*
X3005Y-4495D02*
D03*
X-3005Y4495D02*
D03*
X-3995Y3505D02*
D03*
D26*
X-1757Y3884D02*
D03*
X-732D02*
D03*
X-1770Y4881D02*
D03*
X-745D02*
D03*
X625Y4920D02*
D03*
X1650D02*
D03*
X614Y3902D02*
D03*
X1639D02*
D03*
D27*
X-2925Y2600D02*
D03*
X-1925D02*
D03*
D28*
X-2471Y-1896D02*
D03*
X-3179Y-2604D02*
D03*
D29*
X0Y-3150D02*
D03*
Y-4150D02*
D03*
D30*
X2346Y-1746D02*
D03*
X3054Y-2454D02*
D03*
D31*
X-4554Y2553D02*
X-2972D01*
X-2911Y2230D02*
Y2586D01*
X-2972Y2553D02*
X-2925Y2600D01*
X1698Y-1100D02*
X2028Y-770D01*
X2055D01*
X-3179Y-2604D02*
X-2652Y-3131D01*
Y-3584D02*
Y-3131D01*
X543Y-3702D02*
Y-3482D01*
Y-3702D02*
X1013Y-4172D01*
X393Y-3333D02*
X543Y-3482D01*
X183Y-3333D02*
X393D01*
X0Y-3150D02*
X183Y-3333D01*
X-2471Y-1896D02*
Y-1421D01*
X-2077Y849D02*
X-2048Y820D01*
X-2077Y-1027D02*
Y849D01*
X-2471Y-1421D02*
X-2077Y-1027D01*
X-3179Y-2604D02*
X-3179D01*
X-803Y-1854D02*
Y-1104D01*
Y-1854D02*
X0Y-2657D01*
X-800Y-1104D02*
Y-1100D01*
X3054Y-2454D02*
Y-2454D01*
X2562Y-3564D02*
Y-2945D01*
X3054Y-2454D01*
X1824Y-4303D02*
X2562Y-3564D01*
X-1010Y-4602D02*
X-558Y-4150D01*
X-2014Y786D02*
Y855D01*
Y786D02*
X-1728Y500D01*
X-800D01*
X-1863Y2039D02*
X-1130Y1306D01*
X-806D01*
X-800Y1300D01*
X-2720Y2039D02*
X-1863D01*
X-2911Y2230D02*
X-2720Y2039D01*
X-2925Y2600D02*
X-2911Y2586D01*
X-558Y-4150D02*
X0D01*
X-1449Y2614D02*
X-1177Y2886D01*
X-1115D01*
X-1911Y2614D02*
X-1449D01*
X-1925Y2600D02*
X-1911Y2614D01*
X1698Y-1100D02*
X2308Y-1710D01*
X0Y-3150D02*
Y-2657D01*
X800Y-1100D02*
X1698D01*
D32*
X-175Y592D02*
Y1225D01*
X0Y1400D01*
X702Y598D02*
X800Y500D01*
X-127Y598D02*
X702D01*
X0Y1400D02*
Y2100D01*
X114Y39D02*
X353Y-200D01*
X700D01*
X77Y39D02*
X114D01*
X700Y-200D02*
X800Y-300D01*
Y500D01*
X-46Y-532D02*
X-23Y-555D01*
Y-1077D02*
X0Y-1100D01*
X-23Y-1077D02*
Y-555D01*
X800Y606D02*
Y1300D01*
Y500D02*
Y606D01*
D33*
X-4554Y2553D02*
D03*
X-175Y592D02*
D03*
X77Y39D02*
D03*
X2055Y-770D02*
D03*
X-46Y-532D02*
D03*
X2773Y1893D02*
D03*
X-2652Y-3584D02*
D03*
X1824Y-4303D02*
D03*
X1013Y-4172D02*
D03*
X2331Y4976D02*
D03*
X6490Y-2244D02*
D03*
X6754Y-1198D02*
D03*
X-1010Y-4602D02*
D03*
X2051Y1014D02*
D03*
X-1561Y5687D02*
D03*
X-41Y3240D02*
D03*
X1274Y3042D02*
D03*
X-43Y5515D02*
D03*
X-2077Y849D02*
D03*
X-2507Y1569D02*
D03*
X6049Y-2856D02*
D03*
X-3960Y-5591D02*
D03*
X3300Y-6016D02*
D03*
X-1800Y-6623D02*
D03*
X-2600Y-6354D02*
D03*
X-3300Y-6016D02*
D03*
X1800Y-6623D02*
D03*
X3836Y-5688D02*
D03*
X2600Y-6354D02*
D03*
X2321Y6490D02*
D03*
X-1115Y2886D02*
D03*
X5820Y2227D02*
D03*
X327Y-2249D02*
D03*
D34*
X-1676Y-1557D02*
D03*
M02*
