G04*
G04 #@! TF.GenerationSoftware,Altium Limited,Altium Designer,22.11.1 (43)*
G04*
G04 Layer_Color=16711935*
%FSLAX43Y43*%
%MOMM*%
G71*
G04*
G04 #@! TF.SameCoordinates,FB5CEF4A-B6EA-44A6-96C9-558EDDA3D9AB*
G04*
G04*
G04 #@! TF.FilePolarity,Negative*
G04*
G01*
G75*
G04:AMPARAMS|DCode=16|XSize=0.69mm|YSize=0.7mm|CornerRadius=0.124mm|HoleSize=0mm|Usage=FLASHONLY|Rotation=180.000|XOffset=0mm|YOffset=0mm|HoleType=Round|Shape=RoundedRectangle|*
%AMROUNDEDRECTD16*
21,1,0.690,0.453,0,0,180.0*
21,1,0.443,0.700,0,0,180.0*
1,1,0.248,-0.221,0.226*
1,1,0.248,0.221,0.226*
1,1,0.248,0.221,-0.226*
1,1,0.248,-0.221,-0.226*
%
%ADD16ROUNDEDRECTD16*%
G04:AMPARAMS|DCode=17|XSize=0.71mm|YSize=0.7mm|CornerRadius=0.125mm|HoleSize=0mm|Usage=FLASHONLY|Rotation=180.000|XOffset=0mm|YOffset=0mm|HoleType=Round|Shape=RoundedRectangle|*
%AMROUNDEDRECTD17*
21,1,0.710,0.450,0,0,180.0*
21,1,0.460,0.700,0,0,180.0*
1,1,0.250,-0.230,0.225*
1,1,0.250,0.230,0.225*
1,1,0.250,0.230,-0.225*
1,1,0.250,-0.230,-0.225*
%
%ADD17ROUNDEDRECTD17*%
G04:AMPARAMS|DCode=19|XSize=0.71mm|YSize=0.7mm|CornerRadius=0.125mm|HoleSize=0mm|Usage=FLASHONLY|Rotation=90.000|XOffset=0mm|YOffset=0mm|HoleType=Round|Shape=RoundedRectangle|*
%AMROUNDEDRECTD19*
21,1,0.710,0.450,0,0,90.0*
21,1,0.460,0.700,0,0,90.0*
1,1,0.250,0.225,0.230*
1,1,0.250,0.225,-0.230*
1,1,0.250,-0.225,-0.230*
1,1,0.250,-0.225,0.230*
%
%ADD19ROUNDEDRECTD19*%
%ADD21C,1.000*%
G04:AMPARAMS|DCode=46|XSize=1.1mm|YSize=0.68mm|CornerRadius=0.123mm|HoleSize=0mm|Usage=FLASHONLY|Rotation=270.000|XOffset=0mm|YOffset=0mm|HoleType=Round|Shape=RoundedRectangle|*
%AMROUNDEDRECTD46*
21,1,1.100,0.435,0,0,270.0*
21,1,0.855,0.680,0,0,270.0*
1,1,0.245,-0.217,-0.428*
1,1,0.245,-0.217,0.428*
1,1,0.245,0.217,0.428*
1,1,0.245,0.217,-0.428*
%
%ADD46ROUNDEDRECTD46*%
G04:AMPARAMS|DCode=47|XSize=1.04mm|YSize=1.05mm|CornerRadius=0.168mm|HoleSize=0mm|Usage=FLASHONLY|Rotation=20.000|XOffset=0mm|YOffset=0mm|HoleType=Round|Shape=RoundedRectangle|*
%AMROUNDEDRECTD47*
21,1,1.040,0.715,0,0,20.0*
21,1,0.705,1.050,0,0,20.0*
1,1,0.335,0.454,-0.215*
1,1,0.335,-0.209,-0.457*
1,1,0.335,-0.454,0.215*
1,1,0.335,0.209,0.457*
%
%ADD47ROUNDEDRECTD47*%
%ADD48R,0.530X0.330*%
%ADD49R,2.840X1.900*%
G04:AMPARAMS|DCode=50|XSize=0.84mm|YSize=0.42mm|CornerRadius=0.063mm|HoleSize=0mm|Usage=FLASHONLY|Rotation=90.000|XOffset=0mm|YOffset=0mm|HoleType=Round|Shape=RoundedRectangle|*
%AMROUNDEDRECTD50*
21,1,0.840,0.294,0,0,90.0*
21,1,0.714,0.420,0,0,90.0*
1,1,0.126,0.147,0.357*
1,1,0.126,0.147,-0.357*
1,1,0.126,-0.147,-0.357*
1,1,0.126,-0.147,0.357*
%
%ADD50ROUNDEDRECTD50*%
G04:AMPARAMS|DCode=51|XSize=1.3mm|YSize=2.8mm|CornerRadius=0.2mm|HoleSize=0mm|Usage=FLASHONLY|Rotation=0.000|XOffset=0mm|YOffset=0mm|HoleType=Round|Shape=RoundedRectangle|*
%AMROUNDEDRECTD51*
21,1,1.300,2.400,0,0,0.0*
21,1,0.900,2.800,0,0,0.0*
1,1,0.400,0.450,-1.200*
1,1,0.400,-0.450,-1.200*
1,1,0.400,-0.450,1.200*
1,1,0.400,0.450,1.200*
%
%ADD51ROUNDEDRECTD51*%
D16*
X-1925Y2620D02*
D03*
X-2950D02*
D03*
D17*
X675Y2453D02*
D03*
X-325D02*
D03*
D19*
X-32Y-4895D02*
D03*
Y-3895D02*
D03*
X2070Y2694D02*
D03*
Y1694D02*
D03*
D21*
X-3500Y-3000D02*
D03*
X-5200D02*
D03*
X0Y-6200D02*
D03*
X1600Y-5500D02*
D03*
X-3100Y-5000D02*
D03*
X-5200Y3400D02*
D03*
X3101Y-5000D02*
D03*
X-1600Y-5500D02*
D03*
X5100Y-3500D02*
D03*
X-4828Y-4500D02*
D03*
X4500Y-4828D02*
D03*
X-4500Y4828D02*
D03*
X4828Y4500D02*
D03*
D46*
X2979Y5830D02*
D03*
Y3770D02*
D03*
D47*
X3471Y2536D02*
D03*
X4974Y3083D02*
D03*
D48*
X1560Y-325D02*
D03*
Y325D02*
D03*
X-1560Y-325D02*
D03*
Y325D02*
D03*
D49*
X0Y0D02*
D03*
D50*
X-975Y-1520D02*
D03*
X-325D02*
D03*
X325D02*
D03*
X975D02*
D03*
Y1520D02*
D03*
X325D02*
D03*
X-325D02*
D03*
X-975D02*
D03*
D51*
X-2907Y4920D02*
D03*
X1293D02*
D03*
M02*
