G04*
G04 #@! TF.GenerationSoftware,Altium Limited,Altium Designer,22.11.1 (43)*
G04*
G04 Layer_Color=32896*
%FSLAX43Y43*%
%MOMM*%
G71*
G04*
G04 #@! TF.SameCoordinates,FB5CEF4A-B6EA-44A6-96C9-558EDDA3D9AB*
G04*
G04*
G04 #@! TF.FilePolarity,Positive*
G04*
G01*
G75*
%ADD11C,0.200*%
%ADD52C,0.150*%
G36*
X-1352Y2758D02*
X-1338Y2757D01*
X-1327Y2752D01*
X-1315Y2748D01*
X-1294Y2737D01*
X-1285Y2732D01*
X-1277Y2725D01*
X-1269Y2718D01*
X-1263Y2712D01*
X-1257Y2707D01*
X-1252Y2702D01*
X-1248Y2697D01*
X-1246Y2694D01*
X-1244Y2692D01*
X-1243Y2691D01*
X-1235Y2677D01*
X-1228Y2662D01*
X-1222Y2645D01*
X-1217Y2627D01*
X-1208Y2591D01*
X-1203Y2554D01*
X-1201Y2537D01*
X-1199Y2521D01*
X-1198Y2507D01*
X-1198Y2493D01*
X-1197Y2483D01*
Y2475D01*
Y2470D01*
Y2469D01*
Y2468D01*
X-1198Y2441D01*
X-1198Y2415D01*
X-1201Y2392D01*
X-1203Y2370D01*
X-1208Y2350D01*
X-1211Y2332D01*
X-1215Y2316D01*
X-1219Y2302D01*
X-1223Y2289D01*
X-1228Y2279D01*
X-1232Y2270D01*
X-1235Y2262D01*
X-1238Y2257D01*
X-1240Y2253D01*
X-1241Y2251D01*
X-1242Y2250D01*
X-1251Y2238D01*
X-1260Y2228D01*
X-1269Y2220D01*
X-1279Y2213D01*
X-1288Y2206D01*
X-1298Y2201D01*
X-1308Y2197D01*
X-1317Y2193D01*
X-1333Y2188D01*
X-1339Y2187D01*
X-1345Y2186D01*
X-1350D01*
X-1353Y2185D01*
X-1357D01*
X-1368Y2186D01*
X-1379Y2188D01*
X-1390Y2190D01*
X-1400Y2193D01*
X-1418Y2201D01*
X-1433Y2210D01*
X-1446Y2219D01*
X-1451Y2223D01*
X-1455Y2227D01*
X-1458Y2230D01*
X-1461Y2232D01*
X-1462Y2234D01*
X-1463Y2235D01*
X-1470Y2245D01*
X-1477Y2256D01*
X-1483Y2267D01*
X-1488Y2278D01*
X-1495Y2302D01*
X-1501Y2323D01*
X-1503Y2334D01*
X-1503Y2343D01*
X-1504Y2352D01*
X-1505Y2360D01*
X-1506Y2366D01*
Y2370D01*
Y2373D01*
Y2374D01*
X-1505Y2389D01*
X-1504Y2404D01*
X-1503Y2417D01*
X-1499Y2431D01*
X-1497Y2442D01*
X-1493Y2453D01*
X-1489Y2463D01*
X-1486Y2472D01*
X-1482Y2481D01*
X-1478Y2488D01*
X-1474Y2494D01*
X-1472Y2499D01*
X-1469Y2503D01*
X-1467Y2506D01*
X-1466Y2507D01*
X-1465Y2508D01*
X-1458Y2517D01*
X-1449Y2525D01*
X-1442Y2532D01*
X-1433Y2537D01*
X-1426Y2542D01*
X-1418Y2547D01*
X-1403Y2552D01*
X-1390Y2557D01*
X-1385Y2557D01*
X-1380Y2558D01*
X-1376Y2559D01*
X-1371D01*
X-1362Y2558D01*
X-1353Y2557D01*
X-1345Y2555D01*
X-1338Y2553D01*
X-1333Y2551D01*
X-1328Y2548D01*
X-1326Y2547D01*
X-1325Y2547D01*
X-1318Y2542D01*
X-1311Y2536D01*
X-1305Y2530D01*
X-1299Y2524D01*
X-1295Y2519D01*
X-1292Y2515D01*
X-1289Y2512D01*
X-1288Y2511D01*
X-1289Y2528D01*
X-1291Y2544D01*
X-1293Y2558D01*
X-1294Y2571D01*
X-1296Y2582D01*
X-1298Y2593D01*
X-1300Y2602D01*
X-1303Y2611D01*
X-1304Y2617D01*
X-1306Y2623D01*
X-1308Y2628D01*
X-1309Y2632D01*
X-1311Y2635D01*
X-1312Y2637D01*
X-1313Y2638D01*
X-1320Y2649D01*
X-1328Y2657D01*
X-1336Y2662D01*
X-1343Y2666D01*
X-1350Y2668D01*
X-1355Y2669D01*
X-1359Y2670D01*
X-1360D01*
X-1368Y2669D01*
X-1375Y2667D01*
X-1381Y2664D01*
X-1387Y2660D01*
X-1396Y2650D01*
X-1402Y2639D01*
X-1407Y2627D01*
X-1409Y2617D01*
X-1410Y2613D01*
X-1411Y2610D01*
Y2608D01*
Y2607D01*
X-1497Y2619D01*
X-1492Y2644D01*
X-1486Y2665D01*
X-1478Y2683D01*
X-1471Y2698D01*
X-1463Y2709D01*
X-1458Y2717D01*
X-1453Y2722D01*
X-1452Y2724D01*
X-1438Y2736D01*
X-1423Y2744D01*
X-1409Y2751D01*
X-1395Y2755D01*
X-1383Y2757D01*
X-1373Y2758D01*
X-1370Y2759D01*
X-1365D01*
X-1352Y2758D01*
D02*
G37*
G36*
X-751Y2194D02*
X-844D01*
Y2429D01*
X-874D01*
X-884Y2428D01*
X-892Y2427D01*
X-899Y2426D01*
X-904Y2425D01*
X-907Y2423D01*
X-909Y2422D01*
X-909D01*
X-915Y2420D01*
X-920Y2416D01*
X-929Y2408D01*
X-932Y2405D01*
X-934Y2402D01*
X-936Y2400D01*
X-937Y2399D01*
X-939Y2396D01*
X-943Y2391D01*
X-947Y2386D01*
X-950Y2380D01*
X-959Y2366D01*
X-967Y2352D01*
X-974Y2338D01*
X-978Y2332D01*
X-981Y2327D01*
X-984Y2323D01*
X-985Y2320D01*
X-987Y2317D01*
Y2317D01*
X-1053Y2194D01*
X-1166D01*
X-1109Y2303D01*
X-1103Y2315D01*
X-1098Y2327D01*
X-1092Y2337D01*
X-1087Y2346D01*
X-1082Y2354D01*
X-1078Y2362D01*
X-1070Y2374D01*
X-1064Y2383D01*
X-1059Y2390D01*
X-1057Y2394D01*
X-1056Y2395D01*
X-1048Y2404D01*
X-1040Y2413D01*
X-1032Y2422D01*
X-1024Y2428D01*
X-1018Y2434D01*
X-1012Y2438D01*
X-1008Y2442D01*
X-1007Y2442D01*
X-1028Y2447D01*
X-1045Y2454D01*
X-1061Y2462D01*
X-1073Y2472D01*
X-1083Y2479D01*
X-1091Y2486D01*
X-1095Y2491D01*
X-1097Y2492D01*
Y2492D01*
X-1108Y2509D01*
X-1116Y2527D01*
X-1122Y2544D01*
X-1125Y2561D01*
X-1128Y2576D01*
X-1128Y2582D01*
Y2588D01*
X-1129Y2592D01*
Y2597D01*
Y2598D01*
Y2599D01*
X-1128Y2618D01*
X-1126Y2635D01*
X-1123Y2651D01*
X-1119Y2664D01*
X-1115Y2674D01*
X-1112Y2682D01*
X-1109Y2687D01*
X-1108Y2689D01*
X-1100Y2702D01*
X-1091Y2713D01*
X-1083Y2722D01*
X-1074Y2729D01*
X-1067Y2735D01*
X-1061Y2739D01*
X-1057Y2741D01*
X-1055Y2742D01*
X-1048Y2744D01*
X-1041Y2747D01*
X-1024Y2751D01*
X-1007Y2753D01*
X-989Y2756D01*
X-974Y2757D01*
X-966D01*
X-960Y2757D01*
X-751D01*
Y2194D01*
D02*
G37*
G36*
X-871Y-6860D02*
X-967D01*
Y-6453D01*
X-1173Y-6860D01*
X-1278D01*
Y-6235D01*
X-1181D01*
Y-6653D01*
X-971Y-6235D01*
X-871D01*
Y-6860D01*
D02*
G37*
G36*
X-666D02*
X-770D01*
Y-6235D01*
X-666D01*
Y-6860D01*
D02*
G37*
G36*
X-1349Y-6341D02*
X-1501D01*
Y-6860D01*
X-1605D01*
Y-6341D01*
X-1757D01*
Y-6235D01*
X-1349D01*
Y-6341D01*
D02*
G37*
G36*
X-3238Y-4363D02*
X-3325D01*
Y-3919D01*
X-3417Y-4363D01*
X-3506D01*
X-3599Y-3919D01*
Y-4363D01*
X-3686D01*
Y-3800D01*
X-3545D01*
X-3462Y-4185D01*
X-3378Y-3800D01*
X-3238D01*
Y-4363D01*
D02*
G37*
G36*
X-2594D02*
X-2769D01*
X-2789Y-4362D01*
X-2808Y-4360D01*
X-2823Y-4358D01*
X-2837Y-4354D01*
X-2848Y-4352D01*
X-2855Y-4349D01*
X-2860Y-4348D01*
X-2862Y-4347D01*
X-2875Y-4340D01*
X-2887Y-4333D01*
X-2897Y-4325D01*
X-2906Y-4318D01*
X-2913Y-4311D01*
X-2918Y-4305D01*
X-2922Y-4302D01*
X-2923Y-4300D01*
X-2932Y-4288D01*
X-2940Y-4274D01*
X-2948Y-4260D01*
X-2953Y-4245D01*
X-2958Y-4234D01*
X-2962Y-4224D01*
X-2963Y-4220D01*
X-2964Y-4217D01*
X-2965Y-4215D01*
Y-4215D01*
X-2971Y-4194D01*
X-2975Y-4172D01*
X-2978Y-4150D01*
X-2980Y-4130D01*
Y-4121D01*
X-2981Y-4113D01*
Y-4105D01*
X-2982Y-4100D01*
Y-4095D01*
Y-4090D01*
Y-4088D01*
Y-4087D01*
X-2981Y-4058D01*
X-2979Y-4032D01*
X-2978Y-4020D01*
X-2977Y-4009D01*
X-2975Y-3999D01*
X-2974Y-3990D01*
X-2973Y-3981D01*
X-2971Y-3974D01*
X-2969Y-3967D01*
X-2968Y-3962D01*
X-2968Y-3958D01*
X-2967Y-3955D01*
X-2966Y-3953D01*
Y-3952D01*
X-2959Y-3932D01*
X-2953Y-3915D01*
X-2945Y-3900D01*
X-2938Y-3887D01*
X-2932Y-3876D01*
X-2927Y-3869D01*
X-2923Y-3865D01*
X-2922Y-3863D01*
X-2911Y-3851D01*
X-2901Y-3841D01*
X-2890Y-3833D01*
X-2881Y-3826D01*
X-2873Y-3821D01*
X-2867Y-3817D01*
X-2863Y-3815D01*
X-2861Y-3815D01*
X-2848Y-3810D01*
X-2832Y-3806D01*
X-2816Y-3803D01*
X-2800Y-3801D01*
X-2786Y-3800D01*
X-2780D01*
X-2775Y-3800D01*
X-2594D01*
Y-4363D01*
D02*
G37*
G36*
X-3058D02*
X-3151D01*
Y-3800D01*
X-3058D01*
Y-4363D01*
D02*
G37*
G36*
X-6019Y-1861D02*
X-6005Y-1862D01*
X-5992Y-1864D01*
X-5979Y-1866D01*
X-5967Y-1869D01*
X-5955Y-1873D01*
X-5945Y-1878D01*
X-5925Y-1888D01*
X-5917Y-1892D01*
X-5910Y-1897D01*
X-5904Y-1902D01*
X-5899Y-1906D01*
X-5894Y-1910D01*
X-5889Y-1915D01*
X-5877Y-1928D01*
X-5867Y-1941D01*
X-5859Y-1954D01*
X-5851Y-1968D01*
X-5846Y-1981D01*
X-5841Y-1994D01*
X-5838Y-2007D01*
X-5835Y-2019D01*
X-5833Y-2030D01*
X-5832Y-2040D01*
X-5831Y-2049D01*
Y-2057D01*
Y-2063D01*
Y-2068D01*
X-5832Y-2071D01*
Y-2072D01*
X-5835Y-2092D01*
X-5840Y-2111D01*
X-5846Y-2129D01*
X-5854Y-2148D01*
X-5863Y-2166D01*
X-5872Y-2182D01*
X-5882Y-2198D01*
X-5893Y-2214D01*
X-5903Y-2227D01*
X-5912Y-2239D01*
X-5921Y-2251D01*
X-5929Y-2260D01*
X-5935Y-2267D01*
X-5940Y-2272D01*
X-5944Y-2276D01*
X-5944Y-2277D01*
X-5945Y-2277D01*
X-5963Y-2294D01*
X-5981Y-2310D01*
X-5999Y-2323D01*
X-6017Y-2335D01*
X-6034Y-2345D01*
X-6050Y-2354D01*
X-6065Y-2361D01*
X-6080Y-2367D01*
X-6094Y-2372D01*
X-6106Y-2376D01*
X-6117Y-2380D01*
X-6126Y-2381D01*
X-6133Y-2383D01*
X-6139Y-2384D01*
X-6142Y-2385D01*
X-6143D01*
X-6160Y-2386D01*
X-6175Y-2385D01*
X-6190Y-2383D01*
X-6205Y-2380D01*
X-6218Y-2376D01*
X-6230Y-2372D01*
X-6242Y-2367D01*
X-6253Y-2361D01*
X-6262Y-2355D01*
X-6271Y-2350D01*
X-6278Y-2344D01*
X-6285Y-2340D01*
X-6289Y-2335D01*
X-6293Y-2333D01*
X-6296Y-2330D01*
X-6305Y-2320D01*
X-6313Y-2311D01*
X-6326Y-2291D01*
X-6336Y-2271D01*
X-6339Y-2262D01*
X-6342Y-2253D01*
X-6345Y-2245D01*
X-6346Y-2237D01*
X-6348Y-2231D01*
X-6349Y-2225D01*
X-6350Y-2221D01*
Y-2217D01*
X-6351Y-2215D01*
Y-2214D01*
Y-2201D01*
X-6350Y-2189D01*
X-6345Y-2163D01*
X-6337Y-2138D01*
X-6328Y-2115D01*
X-6324Y-2105D01*
X-6319Y-2095D01*
X-6314Y-2087D01*
X-6311Y-2080D01*
X-6307Y-2074D01*
X-6305Y-2069D01*
X-6303Y-2066D01*
X-6302Y-2066D01*
X-6213Y-2105D01*
X-6226Y-2125D01*
X-6234Y-2142D01*
X-6241Y-2158D01*
X-6245Y-2171D01*
X-6248Y-2182D01*
X-6249Y-2191D01*
X-6250Y-2196D01*
X-6250Y-2198D01*
X-6250Y-2211D01*
X-6248Y-2224D01*
X-6243Y-2235D01*
X-6239Y-2245D01*
X-6234Y-2252D01*
X-6229Y-2258D01*
X-6227Y-2261D01*
X-6226Y-2262D01*
X-6219Y-2268D01*
X-6212Y-2274D01*
X-6197Y-2282D01*
X-6182Y-2286D01*
X-6168Y-2288D01*
X-6156Y-2290D01*
X-6146Y-2289D01*
X-6139Y-2289D01*
X-6137Y-2289D01*
X-6137Y-2289D01*
X-6127Y-2286D01*
X-6116Y-2282D01*
X-6105Y-2277D01*
X-6094Y-2271D01*
X-6073Y-2258D01*
X-6053Y-2242D01*
X-6043Y-2235D01*
X-6035Y-2228D01*
X-6027Y-2222D01*
X-6021Y-2216D01*
X-6015Y-2211D01*
X-6012Y-2208D01*
X-6009Y-2205D01*
X-6008Y-2204D01*
X-5995Y-2191D01*
X-5984Y-2178D01*
X-5974Y-2165D01*
X-5965Y-2154D01*
X-5958Y-2143D01*
X-5951Y-2132D01*
X-5945Y-2123D01*
X-5941Y-2114D01*
X-5937Y-2106D01*
X-5934Y-2099D01*
X-5931Y-2093D01*
X-5929Y-2087D01*
X-5929Y-2083D01*
X-5927Y-2080D01*
X-5928Y-2079D01*
X-5927Y-2078D01*
X-5926Y-2067D01*
Y-2058D01*
X-5926Y-2049D01*
X-5928Y-2041D01*
X-5932Y-2025D01*
X-5938Y-2012D01*
X-5944Y-2001D01*
X-5949Y-1994D01*
X-5951Y-1991D01*
X-5954Y-1987D01*
X-5964Y-1978D01*
X-5975Y-1973D01*
X-5984Y-1968D01*
X-5994Y-1965D01*
X-6002Y-1963D01*
X-6010Y-1961D01*
X-6014D01*
X-6015D01*
X-6029Y-1962D01*
X-6042Y-1964D01*
X-6055Y-1968D01*
X-6067Y-1973D01*
X-6076Y-1977D01*
X-6084Y-1981D01*
X-6087Y-1983D01*
X-6088Y-1985D01*
X-6090D01*
X-6090Y-1986D01*
X-6137Y-1901D01*
X-6125Y-1894D01*
X-6113Y-1888D01*
X-6102Y-1883D01*
X-6091Y-1878D01*
X-6080Y-1874D01*
X-6071Y-1871D01*
X-6062Y-1869D01*
X-6054Y-1867D01*
X-6046Y-1865D01*
X-6039Y-1864D01*
X-6033Y-1862D01*
X-6028Y-1862D01*
X-6024D01*
X-6021Y-1861D01*
X-6020Y-1861D01*
X-6019Y-1861D01*
D02*
G37*
G36*
X-6087Y-1735D02*
X-6483Y-2130D01*
X-6712Y-1901D01*
X-6645Y-1834D01*
X-6481Y-1997D01*
X-6153Y-1669D01*
X-6087Y-1735D01*
D02*
G37*
G36*
X-5681Y-2188D02*
X-5680D01*
X-5667Y-2188D01*
X-5656Y-2190D01*
X-5644Y-2193D01*
X-5634Y-2197D01*
X-5612Y-2206D01*
X-5595Y-2217D01*
X-5586Y-2222D01*
X-5579Y-2228D01*
X-5573Y-2233D01*
X-5568Y-2237D01*
X-5563Y-2241D01*
X-5558Y-2246D01*
X-5545Y-2260D01*
X-5534Y-2275D01*
X-5525Y-2287D01*
X-5518Y-2299D01*
X-5513Y-2310D01*
X-5509Y-2317D01*
X-5507Y-2322D01*
Y-2324D01*
X-5506Y-2324D01*
X-5502Y-2339D01*
X-5501Y-2353D01*
X-5501Y-2367D01*
X-5501Y-2379D01*
X-5502Y-2390D01*
X-5504Y-2397D01*
X-5505Y-2403D01*
Y-2404D01*
X-5505Y-2404D01*
X-5511Y-2419D01*
X-5517Y-2433D01*
X-5524Y-2446D01*
X-5531Y-2456D01*
X-5538Y-2465D01*
X-5544Y-2472D01*
X-5546Y-2474D01*
X-5548Y-2476D01*
X-5548Y-2477D01*
X-5549Y-2477D01*
X-5559Y-2487D01*
X-5571Y-2496D01*
X-5581Y-2503D01*
X-5591Y-2508D01*
X-5600Y-2513D01*
X-5607Y-2516D01*
X-5611Y-2518D01*
X-5612Y-2519D01*
X-5626Y-2523D01*
X-5639Y-2525D01*
X-5651Y-2526D01*
X-5661Y-2527D01*
X-5670D01*
X-5677Y-2526D01*
X-5681D01*
X-5683D01*
X-5696Y-2523D01*
X-5711Y-2519D01*
X-5726Y-2513D01*
X-5740Y-2507D01*
X-5753Y-2502D01*
X-5758Y-2499D01*
X-5763Y-2497D01*
X-5767Y-2495D01*
X-5770Y-2493D01*
X-5772Y-2493D01*
X-5772Y-2492D01*
X-5783Y-2486D01*
X-5793Y-2481D01*
X-5802Y-2476D01*
X-5810Y-2473D01*
X-5818Y-2469D01*
X-5825Y-2466D01*
X-5830Y-2463D01*
X-5835Y-2460D01*
X-5842Y-2457D01*
X-5848Y-2455D01*
X-5850Y-2454D01*
X-5852D01*
X-5858Y-2452D01*
X-5865Y-2450D01*
X-5871D01*
X-5875D01*
X-5882D01*
X-5885D01*
X-5885Y-2451D01*
X-5891Y-2452D01*
X-5896Y-2455D01*
X-5906Y-2460D01*
X-5909Y-2463D01*
X-5912Y-2465D01*
X-5914Y-2467D01*
X-5915Y-2467D01*
X-5922Y-2476D01*
X-5928Y-2486D01*
X-5932Y-2495D01*
X-5934Y-2505D01*
X-5935Y-2512D01*
X-5936Y-2518D01*
Y-2523D01*
Y-2524D01*
X-5934Y-2536D01*
X-5930Y-2548D01*
X-5925Y-2558D01*
X-5920Y-2567D01*
X-5914Y-2575D01*
X-5909Y-2581D01*
X-5905Y-2586D01*
X-5893Y-2596D01*
X-5881Y-2603D01*
X-5869Y-2608D01*
X-5856Y-2611D01*
X-5843Y-2612D01*
X-5831Y-2611D01*
X-5819Y-2609D01*
X-5808Y-2606D01*
X-5797Y-2602D01*
X-5787Y-2598D01*
X-5779Y-2594D01*
X-5771Y-2590D01*
X-5765Y-2586D01*
X-5761Y-2583D01*
X-5757Y-2581D01*
X-5757Y-2581D01*
X-5700Y-2652D01*
X-5714Y-2663D01*
X-5728Y-2673D01*
X-5741Y-2681D01*
X-5755Y-2688D01*
X-5769Y-2694D01*
X-5782Y-2698D01*
X-5793Y-2702D01*
X-5806Y-2705D01*
X-5818Y-2707D01*
X-5830Y-2708D01*
X-5852Y-2707D01*
X-5873Y-2705D01*
X-5892Y-2700D01*
X-5909Y-2694D01*
X-5925Y-2687D01*
X-5938Y-2679D01*
X-5949Y-2672D01*
X-5958Y-2665D01*
X-5965Y-2661D01*
X-5971Y-2655D01*
X-5982Y-2642D01*
X-5992Y-2630D01*
X-6002Y-2618D01*
X-6010Y-2606D01*
X-6015Y-2594D01*
X-6021Y-2583D01*
X-6025Y-2572D01*
X-6028Y-2562D01*
X-6031Y-2554D01*
X-6033Y-2546D01*
X-6034Y-2539D01*
X-6035Y-2532D01*
Y-2527D01*
X-6035Y-2525D01*
Y-2522D01*
Y-2521D01*
X-6034Y-2508D01*
X-6032Y-2496D01*
X-6030Y-2484D01*
X-6026Y-2474D01*
X-6017Y-2453D01*
X-6007Y-2436D01*
X-6002Y-2429D01*
X-5997Y-2421D01*
X-5992Y-2416D01*
X-5989Y-2411D01*
X-5985Y-2406D01*
X-5983Y-2404D01*
X-5981Y-2402D01*
X-5981Y-2401D01*
X-5967Y-2389D01*
X-5954Y-2378D01*
X-5942Y-2370D01*
X-5931Y-2363D01*
X-5921Y-2358D01*
X-5914Y-2355D01*
X-5909Y-2353D01*
X-5908Y-2352D01*
X-5894Y-2348D01*
X-5881Y-2345D01*
X-5868Y-2344D01*
X-5856Y-2343D01*
X-5846Y-2344D01*
X-5839Y-2345D01*
X-5835D01*
X-5833Y-2345D01*
X-5826Y-2347D01*
X-5817Y-2349D01*
X-5800Y-2354D01*
X-5784Y-2361D01*
X-5767Y-2368D01*
X-5753Y-2375D01*
X-5747Y-2378D01*
X-5741Y-2381D01*
X-5736Y-2383D01*
X-5733Y-2385D01*
X-5731Y-2386D01*
X-5730Y-2387D01*
X-5720Y-2393D01*
X-5710Y-2398D01*
X-5700Y-2403D01*
X-5692Y-2406D01*
X-5684Y-2410D01*
X-5677Y-2413D01*
X-5671Y-2414D01*
X-5665Y-2417D01*
X-5656Y-2420D01*
X-5650Y-2421D01*
X-5647Y-2422D01*
X-5645D01*
X-5637D01*
X-5629Y-2421D01*
X-5622Y-2419D01*
X-5617Y-2416D01*
X-5612Y-2413D01*
X-5608Y-2411D01*
X-5607Y-2409D01*
X-5606Y-2408D01*
X-5601Y-2402D01*
X-5597Y-2395D01*
X-5595Y-2388D01*
X-5593Y-2381D01*
X-5592Y-2376D01*
Y-2371D01*
X-5592Y-2368D01*
Y-2367D01*
X-5595Y-2357D01*
X-5599Y-2347D01*
X-5604Y-2339D01*
X-5608Y-2331D01*
X-5614Y-2324D01*
X-5618Y-2318D01*
X-5622Y-2314D01*
X-5633Y-2305D01*
X-5642Y-2298D01*
X-5651Y-2294D01*
X-5660Y-2290D01*
X-5667Y-2288D01*
X-5673Y-2287D01*
X-5675Y-2286D01*
X-5677D01*
X-5688Y-2287D01*
X-5698Y-2289D01*
X-5709Y-2294D01*
X-5719Y-2298D01*
X-5728Y-2303D01*
X-5734Y-2307D01*
X-5737Y-2309D01*
X-5740Y-2310D01*
X-5740Y-2311D01*
X-5741Y-2311D01*
X-5803Y-2242D01*
X-5792Y-2232D01*
X-5780Y-2224D01*
X-5770Y-2216D01*
X-5759Y-2210D01*
X-5749Y-2205D01*
X-5738Y-2200D01*
X-5728Y-2197D01*
X-5719Y-2194D01*
X-5711Y-2192D01*
X-5703Y-2190D01*
X-5696Y-2189D01*
X-5691Y-2188D01*
X-5686D01*
X-5682Y-2188D01*
X-5681D01*
D02*
G37*
G36*
X-2333Y-1418D02*
X-2322Y-1419D01*
X-2315Y-1421D01*
X-2309Y-1421D01*
X-2308D01*
X-2308Y-1422D01*
X-2293Y-1427D01*
X-2279Y-1434D01*
X-2266Y-1441D01*
X-2256Y-1448D01*
X-2247Y-1454D01*
X-2240Y-1460D01*
X-2238Y-1463D01*
X-2236Y-1464D01*
X-2235Y-1465D01*
X-2235Y-1466D01*
X-2225Y-1476D01*
X-2216Y-1487D01*
X-2209Y-1498D01*
X-2204Y-1508D01*
X-2199Y-1516D01*
X-2196Y-1523D01*
X-2194Y-1527D01*
X-2193Y-1529D01*
X-2189Y-1543D01*
X-2187Y-1556D01*
X-2186Y-1567D01*
X-2185Y-1577D01*
Y-1587D01*
X-2186Y-1593D01*
Y-1598D01*
Y-1599D01*
X-2189Y-1613D01*
X-2193Y-1628D01*
X-2199Y-1643D01*
X-2205Y-1657D01*
X-2211Y-1670D01*
X-2213Y-1675D01*
X-2215Y-1679D01*
X-2217Y-1684D01*
X-2219Y-1686D01*
X-2219Y-1688D01*
X-2220Y-1689D01*
X-2226Y-1699D01*
X-2231Y-1709D01*
X-2236Y-1719D01*
X-2239Y-1727D01*
X-2244Y-1735D01*
X-2246Y-1741D01*
X-2249Y-1747D01*
X-2252Y-1751D01*
X-2255Y-1759D01*
X-2257Y-1765D01*
X-2258Y-1767D01*
Y-1768D01*
X-2260Y-1775D01*
X-2262Y-1781D01*
Y-1787D01*
Y-1792D01*
Y-1799D01*
Y-1801D01*
X-2261Y-1802D01*
X-2260Y-1808D01*
X-2257Y-1813D01*
X-2252Y-1823D01*
X-2249Y-1826D01*
X-2247Y-1829D01*
X-2245Y-1831D01*
X-2245Y-1831D01*
X-2236Y-1839D01*
X-2226Y-1844D01*
X-2217Y-1848D01*
X-2208Y-1851D01*
X-2201Y-1852D01*
X-2194Y-1853D01*
X-2188D01*
X-2176Y-1851D01*
X-2165Y-1847D01*
X-2154Y-1842D01*
X-2145Y-1837D01*
X-2137Y-1831D01*
X-2131Y-1826D01*
X-2126Y-1821D01*
X-2116Y-1810D01*
X-2109Y-1797D01*
X-2104Y-1785D01*
X-2102Y-1773D01*
X-2100Y-1760D01*
X-2101Y-1748D01*
X-2103Y-1736D01*
X-2106Y-1725D01*
X-2110Y-1714D01*
X-2114Y-1704D01*
X-2118Y-1695D01*
X-2122Y-1688D01*
X-2126Y-1682D01*
X-2129Y-1678D01*
X-2131Y-1674D01*
X-2132Y-1673D01*
X-2060Y-1617D01*
X-2049Y-1631D01*
X-2039Y-1645D01*
X-2031Y-1658D01*
X-2024Y-1672D01*
X-2018Y-1685D01*
X-2014Y-1698D01*
X-2010Y-1710D01*
X-2007Y-1722D01*
X-2006Y-1735D01*
X-2004Y-1747D01*
X-2005Y-1768D01*
X-2007Y-1790D01*
X-2012Y-1808D01*
X-2018Y-1826D01*
X-2025Y-1841D01*
X-2033Y-1855D01*
X-2040Y-1866D01*
X-2047Y-1875D01*
X-2051Y-1882D01*
X-2057Y-1887D01*
X-2070Y-1899D01*
X-2082Y-1909D01*
X-2094Y-1919D01*
X-2106Y-1926D01*
X-2118Y-1932D01*
X-2129Y-1937D01*
X-2140Y-1942D01*
X-2150Y-1945D01*
X-2158Y-1947D01*
X-2166Y-1950D01*
X-2173Y-1951D01*
X-2180Y-1952D01*
X-2185D01*
X-2188Y-1952D01*
X-2191D01*
X-2204Y-1951D01*
X-2216Y-1949D01*
X-2228Y-1946D01*
X-2238Y-1943D01*
X-2259Y-1934D01*
X-2277Y-1923D01*
X-2284Y-1919D01*
X-2291Y-1914D01*
X-2297Y-1909D01*
X-2301Y-1906D01*
X-2306Y-1902D01*
X-2308Y-1900D01*
X-2310Y-1898D01*
X-2311Y-1897D01*
X-2323Y-1884D01*
X-2334Y-1871D01*
X-2342Y-1858D01*
X-2349Y-1847D01*
X-2354Y-1838D01*
X-2357Y-1831D01*
X-2360Y-1826D01*
X-2360Y-1824D01*
X-2364Y-1811D01*
X-2367Y-1797D01*
X-2368Y-1784D01*
X-2369Y-1773D01*
X-2368Y-1763D01*
X-2367Y-1756D01*
Y-1751D01*
X-2367Y-1749D01*
X-2365Y-1742D01*
X-2363Y-1734D01*
X-2358Y-1717D01*
X-2351Y-1701D01*
X-2344Y-1684D01*
X-2337Y-1669D01*
X-2334Y-1663D01*
X-2331Y-1658D01*
X-2329Y-1653D01*
X-2327Y-1650D01*
X-2326Y-1648D01*
X-2325Y-1647D01*
X-2320Y-1636D01*
X-2314Y-1626D01*
X-2309Y-1617D01*
X-2306Y-1609D01*
X-2302Y-1600D01*
X-2299Y-1594D01*
X-2298Y-1587D01*
X-2295Y-1582D01*
X-2292Y-1573D01*
X-2291Y-1567D01*
X-2290Y-1563D01*
Y-1562D01*
Y-1554D01*
X-2291Y-1546D01*
X-2293Y-1539D01*
X-2296Y-1534D01*
X-2299Y-1529D01*
X-2301Y-1525D01*
X-2303Y-1523D01*
X-2304Y-1523D01*
X-2310Y-1517D01*
X-2317Y-1514D01*
X-2324Y-1512D01*
X-2331Y-1510D01*
X-2337Y-1509D01*
X-2341D01*
X-2344Y-1509D01*
X-2345D01*
X-2355Y-1512D01*
X-2365Y-1516D01*
X-2373Y-1520D01*
X-2381Y-1525D01*
X-2388Y-1530D01*
X-2394Y-1535D01*
X-2398Y-1539D01*
X-2407Y-1549D01*
X-2414Y-1559D01*
X-2418Y-1568D01*
X-2422Y-1576D01*
X-2424Y-1583D01*
X-2426Y-1589D01*
X-2426Y-1592D01*
Y-1593D01*
X-2426Y-1605D01*
X-2423Y-1615D01*
X-2418Y-1626D01*
X-2414Y-1636D01*
X-2409Y-1645D01*
X-2405Y-1651D01*
X-2403Y-1654D01*
X-2402Y-1656D01*
X-2401Y-1657D01*
X-2401Y-1658D01*
X-2470Y-1720D01*
X-2480Y-1709D01*
X-2489Y-1697D01*
X-2496Y-1686D01*
X-2502Y-1675D01*
X-2507Y-1665D01*
X-2512Y-1655D01*
X-2515Y-1645D01*
X-2518Y-1636D01*
X-2520Y-1628D01*
X-2522Y-1620D01*
X-2523Y-1613D01*
X-2524Y-1608D01*
Y-1603D01*
X-2525Y-1599D01*
Y-1598D01*
Y-1596D01*
X-2524Y-1584D01*
X-2522Y-1573D01*
X-2519Y-1561D01*
X-2515Y-1550D01*
X-2506Y-1529D01*
X-2495Y-1512D01*
X-2490Y-1503D01*
X-2484Y-1496D01*
X-2479Y-1490D01*
X-2475Y-1484D01*
X-2471Y-1480D01*
X-2466Y-1474D01*
X-2452Y-1461D01*
X-2437Y-1450D01*
X-2425Y-1441D01*
X-2413Y-1434D01*
X-2403Y-1430D01*
X-2395Y-1425D01*
X-2390Y-1424D01*
X-2388D01*
X-2388Y-1423D01*
X-2373Y-1419D01*
X-2359Y-1418D01*
X-2345Y-1417D01*
X-2333Y-1418D01*
D02*
G37*
G36*
X-2251Y-2068D02*
X-2374Y-2192D01*
X-2389Y-2205D01*
X-2403Y-2217D01*
X-2416Y-2227D01*
X-2428Y-2234D01*
X-2437Y-2240D01*
X-2444Y-2243D01*
X-2449Y-2246D01*
X-2451Y-2246D01*
X-2465Y-2251D01*
X-2479Y-2254D01*
X-2491Y-2256D01*
X-2503Y-2257D01*
X-2525D01*
X-2527Y-2256D01*
X-2542Y-2254D01*
X-2558Y-2250D01*
X-2573Y-2245D01*
X-2588Y-2239D01*
X-2599Y-2234D01*
X-2609Y-2230D01*
X-2613Y-2228D01*
X-2615Y-2227D01*
X-2617Y-2226D01*
X-2618Y-2225D01*
X-2636Y-2215D01*
X-2655Y-2203D01*
X-2672Y-2189D01*
X-2688Y-2177D01*
X-2694Y-2170D01*
X-2701Y-2165D01*
X-2706Y-2160D01*
X-2711Y-2156D01*
X-2714Y-2152D01*
X-2717Y-2149D01*
X-2719Y-2148D01*
X-2720Y-2147D01*
X-2740Y-2126D01*
X-2757Y-2106D01*
X-2765Y-2097D01*
X-2771Y-2088D01*
X-2777Y-2080D01*
X-2783Y-2073D01*
X-2788Y-2066D01*
X-2792Y-2059D01*
X-2796Y-2053D01*
X-2798Y-2049D01*
X-2801Y-2046D01*
X-2803Y-2043D01*
X-2803Y-2041D01*
X-2804Y-2041D01*
X-2813Y-2022D01*
X-2821Y-2005D01*
X-2826Y-1989D01*
X-2830Y-1975D01*
X-2833Y-1963D01*
X-2835Y-1954D01*
X-2836Y-1949D01*
Y-1946D01*
X-2836Y-1930D01*
Y-1916D01*
X-2834Y-1903D01*
X-2833Y-1891D01*
X-2830Y-1882D01*
X-2829Y-1875D01*
X-2827Y-1871D01*
X-2827Y-1869D01*
X-2821Y-1856D01*
X-2812Y-1843D01*
X-2803Y-1829D01*
X-2793Y-1817D01*
X-2784Y-1806D01*
X-2780Y-1802D01*
X-2777Y-1798D01*
X-2649Y-1670D01*
X-2251Y-2068D01*
D02*
G37*
G36*
X-2547Y-2365D02*
X-2617Y-2435D01*
X-2734Y-2371D01*
X-2866Y-2503D01*
X-2804Y-2621D01*
X-2875Y-2693D01*
X-3142Y-2163D01*
X-3072Y-2093D01*
X-2547Y-2365D01*
D02*
G37*
G36*
X-5556Y2391D02*
X-5636Y2377D01*
X-5642Y2385D01*
X-5649Y2392D01*
X-5655Y2398D01*
X-5662Y2403D01*
X-5675Y2411D01*
X-5687Y2417D01*
X-5697Y2419D01*
X-5704Y2421D01*
X-5710Y2422D01*
X-5712D01*
X-5724Y2421D01*
X-5734Y2418D01*
X-5744Y2413D01*
X-5752Y2408D01*
X-5758Y2403D01*
X-5763Y2398D01*
X-5765Y2394D01*
X-5766Y2394D01*
X-5774Y2381D01*
X-5779Y2369D01*
X-5783Y2354D01*
X-5786Y2340D01*
X-5788Y2327D01*
X-5789Y2317D01*
Y2312D01*
Y2309D01*
Y2308D01*
Y2307D01*
X-5788Y2285D01*
X-5785Y2266D01*
X-5781Y2250D01*
X-5777Y2237D01*
X-5774Y2228D01*
X-5770Y2221D01*
X-5767Y2217D01*
X-5766Y2215D01*
X-5758Y2205D01*
X-5750Y2198D01*
X-5740Y2193D01*
X-5732Y2189D01*
X-5726Y2187D01*
X-5720Y2186D01*
X-5716Y2185D01*
X-5715D01*
X-5705Y2186D01*
X-5697Y2189D01*
X-5689Y2193D01*
X-5682Y2197D01*
X-5677Y2201D01*
X-5672Y2205D01*
X-5669Y2208D01*
X-5668Y2209D01*
X-5661Y2218D01*
X-5655Y2229D01*
X-5651Y2239D01*
X-5648Y2249D01*
X-5646Y2259D01*
X-5644Y2267D01*
X-5643Y2271D01*
Y2273D01*
X-5545Y2260D01*
X-5550Y2232D01*
X-5554Y2218D01*
X-5557Y2206D01*
X-5562Y2195D01*
X-5567Y2185D01*
X-5571Y2174D01*
X-5576Y2166D01*
X-5581Y2159D01*
X-5585Y2152D01*
X-5589Y2147D01*
X-5593Y2142D01*
X-5595Y2138D01*
X-5598Y2136D01*
X-5599Y2135D01*
X-5600Y2134D01*
X-5609Y2126D01*
X-5618Y2119D01*
X-5637Y2108D01*
X-5656Y2100D01*
X-5674Y2095D01*
X-5690Y2092D01*
X-5697Y2090D01*
X-5703D01*
X-5707Y2089D01*
X-5714D01*
X-5729Y2090D01*
X-5743Y2092D01*
X-5757Y2096D01*
X-5769Y2100D01*
X-5781Y2105D01*
X-5791Y2111D01*
X-5801Y2117D01*
X-5810Y2124D01*
X-5817Y2130D01*
X-5825Y2136D01*
X-5830Y2142D01*
X-5835Y2147D01*
X-5838Y2151D01*
X-5841Y2155D01*
X-5842Y2157D01*
X-5843Y2158D01*
X-5851Y2171D01*
X-5859Y2185D01*
X-5864Y2197D01*
X-5870Y2210D01*
X-5878Y2236D01*
X-5884Y2259D01*
X-5886Y2271D01*
X-5887Y2280D01*
X-5888Y2288D01*
Y2295D01*
X-5889Y2301D01*
Y2306D01*
Y2308D01*
Y2309D01*
X-5888Y2328D01*
X-5887Y2345D01*
X-5885Y2361D01*
X-5881Y2377D01*
X-5877Y2391D01*
X-5873Y2405D01*
X-5867Y2417D01*
X-5863Y2428D01*
X-5858Y2437D01*
X-5852Y2445D01*
X-5848Y2453D01*
X-5844Y2459D01*
X-5840Y2464D01*
X-5838Y2467D01*
X-5837Y2469D01*
X-5836Y2470D01*
X-5827Y2479D01*
X-5819Y2486D01*
X-5811Y2492D01*
X-5801Y2498D01*
X-5784Y2506D01*
X-5768Y2513D01*
X-5753Y2516D01*
X-5748Y2516D01*
X-5742Y2517D01*
X-5738Y2518D01*
X-5732D01*
X-5719Y2517D01*
X-5707Y2515D01*
X-5696Y2512D01*
X-5686Y2508D01*
X-5677Y2504D01*
X-5670Y2501D01*
X-5667Y2498D01*
X-5665Y2497D01*
X-5681Y2604D01*
X-5866D01*
Y2716D01*
X-5606D01*
X-5556Y2391D01*
D02*
G37*
G36*
X-5963Y2099D02*
X-6176D01*
X-6193Y2100D01*
X-6207D01*
X-6221Y2101D01*
X-6233Y2102D01*
X-6243D01*
X-6253Y2103D01*
X-6260Y2104D01*
X-6267Y2105D01*
X-6271D01*
X-6276Y2106D01*
X-6279D01*
X-6280Y2107D01*
X-6282D01*
X-6298Y2112D01*
X-6313Y2121D01*
X-6327Y2130D01*
X-6338Y2140D01*
X-6347Y2149D01*
X-6354Y2158D01*
X-6358Y2163D01*
X-6360Y2164D01*
Y2165D01*
X-6371Y2184D01*
X-6379Y2203D01*
X-6385Y2222D01*
X-6390Y2241D01*
X-6391Y2257D01*
X-6392Y2263D01*
Y2270D01*
X-6393Y2274D01*
Y2278D01*
Y2280D01*
Y2281D01*
X-6392Y2301D01*
X-6390Y2320D01*
X-6385Y2335D01*
X-6380Y2349D01*
X-6376Y2361D01*
X-6371Y2369D01*
X-6368Y2374D01*
X-6367Y2376D01*
X-6357Y2390D01*
X-6345Y2402D01*
X-6333Y2411D01*
X-6322Y2418D01*
X-6311Y2424D01*
X-6303Y2429D01*
X-6297Y2430D01*
X-6296Y2431D01*
X-6295D01*
X-6307Y2439D01*
X-6317Y2447D01*
X-6326Y2456D01*
X-6334Y2465D01*
X-6340Y2473D01*
X-6344Y2479D01*
X-6347Y2483D01*
X-6348Y2485D01*
X-6354Y2499D01*
X-6360Y2514D01*
X-6364Y2528D01*
X-6365Y2540D01*
X-6367Y2551D01*
X-6368Y2560D01*
Y2565D01*
Y2566D01*
Y2567D01*
X-6367Y2585D01*
X-6365Y2602D01*
X-6361Y2616D01*
X-6356Y2629D01*
X-6352Y2639D01*
X-6348Y2648D01*
X-6345Y2652D01*
X-6344Y2654D01*
X-6335Y2668D01*
X-6326Y2679D01*
X-6316Y2688D01*
X-6307Y2696D01*
X-6299Y2701D01*
X-6292Y2706D01*
X-6289Y2708D01*
X-6287Y2709D01*
X-6279Y2712D01*
X-6272Y2714D01*
X-6254Y2718D01*
X-6234Y2721D01*
X-6215Y2723D01*
X-6197Y2724D01*
X-6189Y2724D01*
X-5963D01*
Y2099D01*
D02*
G37*
G36*
X-1325Y-4850D02*
X-1411D01*
Y-4483D01*
X-1597Y-4850D01*
X-1691D01*
Y-4287D01*
X-1605D01*
Y-4663D01*
X-1415Y-4287D01*
X-1325D01*
Y-4850D01*
D02*
G37*
G36*
X-1008Y-4279D02*
X-986Y-4282D01*
X-966Y-4288D01*
X-948Y-4294D01*
X-941Y-4297D01*
X-934Y-4300D01*
X-928Y-4303D01*
X-924Y-4306D01*
X-920Y-4307D01*
X-917Y-4309D01*
X-916Y-4311D01*
X-915D01*
X-897Y-4324D01*
X-881Y-4340D01*
X-868Y-4356D01*
X-856Y-4372D01*
X-847Y-4387D01*
X-843Y-4392D01*
X-841Y-4398D01*
X-838Y-4402D01*
X-836Y-4406D01*
X-835Y-4408D01*
Y-4409D01*
X-825Y-4435D01*
X-817Y-4462D01*
X-811Y-4488D01*
X-808Y-4513D01*
X-806Y-4525D01*
X-806Y-4535D01*
X-805Y-4545D01*
Y-4552D01*
X-804Y-4559D01*
Y-4564D01*
Y-4567D01*
Y-4568D01*
X-806Y-4601D01*
X-809Y-4631D01*
X-811Y-4645D01*
X-813Y-4657D01*
X-816Y-4670D01*
X-819Y-4681D01*
X-821Y-4691D01*
X-825Y-4700D01*
X-827Y-4707D01*
X-829Y-4714D01*
X-831Y-4719D01*
X-832Y-4722D01*
X-834Y-4725D01*
Y-4726D01*
X-846Y-4749D01*
X-860Y-4769D01*
X-874Y-4786D01*
X-887Y-4801D01*
X-899Y-4811D01*
X-909Y-4819D01*
X-912Y-4822D01*
X-915Y-4824D01*
X-916Y-4825D01*
X-917Y-4826D01*
X-937Y-4836D01*
X-958Y-4845D01*
X-979Y-4851D01*
X-997Y-4855D01*
X-1006Y-4856D01*
X-1014Y-4857D01*
X-1021Y-4858D01*
X-1026D01*
X-1031Y-4859D01*
X-1038D01*
X-1059Y-4858D01*
X-1079Y-4855D01*
X-1098Y-4851D01*
X-1115Y-4846D01*
X-1129Y-4841D01*
X-1135Y-4840D01*
X-1141Y-4838D01*
X-1144Y-4836D01*
X-1147Y-4835D01*
X-1149Y-4834D01*
X-1150D01*
X-1170Y-4824D01*
X-1187Y-4813D01*
X-1201Y-4803D01*
X-1214Y-4793D01*
X-1224Y-4785D01*
X-1231Y-4778D01*
X-1235Y-4774D01*
X-1236Y-4772D01*
Y-4548D01*
X-1036D01*
Y-4643D01*
X-1142D01*
Y-4714D01*
X-1133Y-4722D01*
X-1124Y-4729D01*
X-1115Y-4735D01*
X-1107Y-4740D01*
X-1100Y-4744D01*
X-1094Y-4746D01*
X-1091Y-4748D01*
X-1089Y-4749D01*
X-1078Y-4753D01*
X-1068Y-4756D01*
X-1058Y-4758D01*
X-1050Y-4760D01*
X-1043Y-4761D01*
X-1038Y-4761D01*
X-1033D01*
X-1022Y-4761D01*
X-1012Y-4760D01*
X-994Y-4755D01*
X-977Y-4747D01*
X-964Y-4739D01*
X-954Y-4731D01*
X-946Y-4723D01*
X-941Y-4718D01*
X-941Y-4717D01*
X-940Y-4716D01*
X-933Y-4706D01*
X-927Y-4695D01*
X-917Y-4670D01*
X-911Y-4644D01*
X-906Y-4619D01*
X-904Y-4608D01*
X-903Y-4597D01*
X-901Y-4587D01*
Y-4579D01*
X-901Y-4572D01*
Y-4567D01*
Y-4563D01*
Y-4562D01*
X-901Y-4545D01*
X-902Y-4529D01*
X-904Y-4514D01*
X-906Y-4500D01*
X-909Y-4487D01*
X-912Y-4476D01*
X-916Y-4466D01*
X-919Y-4457D01*
X-922Y-4448D01*
X-926Y-4441D01*
X-929Y-4435D01*
X-931Y-4430D01*
X-934Y-4427D01*
X-936Y-4424D01*
X-937Y-4422D01*
Y-4422D01*
X-945Y-4413D01*
X-952Y-4406D01*
X-960Y-4400D01*
X-968Y-4395D01*
X-984Y-4387D01*
X-1000Y-4381D01*
X-1013Y-4377D01*
X-1019Y-4377D01*
X-1024Y-4376D01*
X-1028Y-4375D01*
X-1034D01*
X-1048Y-4376D01*
X-1061Y-4378D01*
X-1071Y-4382D01*
X-1081Y-4387D01*
X-1089Y-4391D01*
X-1095Y-4395D01*
X-1099Y-4397D01*
X-1100Y-4398D01*
X-1109Y-4407D01*
X-1117Y-4418D01*
X-1124Y-4430D01*
X-1129Y-4440D01*
X-1133Y-4450D01*
X-1136Y-4457D01*
X-1137Y-4463D01*
X-1138Y-4464D01*
Y-4465D01*
X-1231Y-4444D01*
X-1227Y-4429D01*
X-1224Y-4415D01*
X-1219Y-4402D01*
X-1214Y-4390D01*
X-1209Y-4379D01*
X-1203Y-4369D01*
X-1198Y-4360D01*
X-1192Y-4352D01*
X-1187Y-4344D01*
X-1182Y-4337D01*
X-1177Y-4332D01*
X-1174Y-4327D01*
X-1171Y-4324D01*
X-1168Y-4322D01*
X-1166Y-4321D01*
X-1166Y-4320D01*
X-1156Y-4312D01*
X-1146Y-4306D01*
X-1135Y-4300D01*
X-1124Y-4295D01*
X-1102Y-4287D01*
X-1081Y-4282D01*
X-1071Y-4281D01*
X-1062Y-4280D01*
X-1054Y-4279D01*
X-1047Y-4278D01*
X-1041Y-4277D01*
X-1033D01*
X-1008Y-4279D01*
D02*
G37*
G36*
X-1788Y-4850D02*
X-1963D01*
X-1983Y-4849D01*
X-2001Y-4847D01*
X-2017Y-4845D01*
X-2030Y-4841D01*
X-2041Y-4839D01*
X-2049Y-4836D01*
X-2054Y-4835D01*
X-2055Y-4834D01*
X-2069Y-4827D01*
X-2080Y-4820D01*
X-2090Y-4812D01*
X-2099Y-4805D01*
X-2106Y-4798D01*
X-2112Y-4792D01*
X-2115Y-4789D01*
X-2116Y-4787D01*
X-2125Y-4775D01*
X-2134Y-4761D01*
X-2141Y-4746D01*
X-2147Y-4732D01*
X-2152Y-4721D01*
X-2155Y-4711D01*
X-2157Y-4706D01*
X-2158Y-4704D01*
X-2159Y-4702D01*
Y-4701D01*
X-2164Y-4681D01*
X-2169Y-4659D01*
X-2171Y-4637D01*
X-2174Y-4617D01*
Y-4608D01*
X-2174Y-4600D01*
Y-4592D01*
X-2175Y-4587D01*
Y-4582D01*
Y-4577D01*
Y-4575D01*
Y-4574D01*
X-2174Y-4545D01*
X-2173Y-4519D01*
X-2172Y-4507D01*
X-2170Y-4496D01*
X-2169Y-4486D01*
X-2168Y-4477D01*
X-2166Y-4468D01*
X-2164Y-4461D01*
X-2163Y-4454D01*
X-2162Y-4449D01*
X-2161Y-4445D01*
X-2160Y-4442D01*
X-2159Y-4440D01*
Y-4439D01*
X-2153Y-4419D01*
X-2146Y-4402D01*
X-2139Y-4387D01*
X-2131Y-4374D01*
X-2125Y-4363D01*
X-2120Y-4356D01*
X-2117Y-4352D01*
X-2115Y-4350D01*
X-2104Y-4338D01*
X-2094Y-4328D01*
X-2084Y-4320D01*
X-2074Y-4313D01*
X-2066Y-4308D01*
X-2060Y-4304D01*
X-2056Y-4302D01*
X-2054Y-4302D01*
X-2041Y-4297D01*
X-2025Y-4293D01*
X-2010Y-4290D01*
X-1994Y-4288D01*
X-1980Y-4287D01*
X-1974D01*
X-1969Y-4287D01*
X-1788D01*
Y-4850D01*
D02*
G37*
G36*
X1513Y-4768D02*
X1417D01*
Y-4361D01*
X1211Y-4768D01*
X1106D01*
Y-4143D01*
X1203D01*
Y-4561D01*
X1413Y-4143D01*
X1513D01*
Y-4768D01*
D02*
G37*
G36*
X1993D02*
X1603D01*
Y-4662D01*
X1889D01*
Y-4492D01*
X1632D01*
Y-4387D01*
X1889D01*
Y-4248D01*
X1612D01*
Y-4143D01*
X1993D01*
Y-4768D01*
D02*
G37*
G36*
X3762Y-3700D02*
X3783Y-3705D01*
X3801Y-3711D01*
X3816Y-3718D01*
X3828Y-3725D01*
X3837Y-3732D01*
X3843Y-3736D01*
X3844Y-3737D01*
X3845Y-3738D01*
X3852Y-3745D01*
X3858Y-3755D01*
X3870Y-3774D01*
X3880Y-3794D01*
X3887Y-3815D01*
X3893Y-3833D01*
X3894Y-3841D01*
X3896Y-3848D01*
X3897Y-3854D01*
X3898Y-3858D01*
X3899Y-3861D01*
Y-3862D01*
X3808Y-3880D01*
X3807Y-3866D01*
X3804Y-3854D01*
X3800Y-3842D01*
X3796Y-3834D01*
X3793Y-3828D01*
X3790Y-3822D01*
X3788Y-3819D01*
X3787Y-3818D01*
X3780Y-3811D01*
X3772Y-3806D01*
X3765Y-3803D01*
X3759Y-3800D01*
X3753Y-3798D01*
X3747Y-3797D01*
X3744D01*
X3734Y-3798D01*
X3726Y-3800D01*
X3719Y-3803D01*
X3713Y-3806D01*
X3709Y-3810D01*
X3705Y-3813D01*
X3703Y-3815D01*
X3702Y-3816D01*
X3697Y-3823D01*
X3693Y-3831D01*
X3689Y-3840D01*
X3687Y-3847D01*
X3686Y-3855D01*
X3685Y-3860D01*
Y-3864D01*
Y-3866D01*
X3686Y-3879D01*
X3689Y-3891D01*
X3693Y-3902D01*
X3697Y-3910D01*
X3700Y-3916D01*
X3704Y-3922D01*
X3707Y-3925D01*
X3708Y-3926D01*
X3717Y-3932D01*
X3726Y-3938D01*
X3736Y-3940D01*
X3747Y-3943D01*
X3755Y-3944D01*
X3762Y-3945D01*
X3769D01*
X3779Y-4043D01*
X3770Y-4040D01*
X3761Y-4038D01*
X3753Y-4036D01*
X3747Y-4035D01*
X3742Y-4034D01*
X3734D01*
X3724Y-4035D01*
X3715Y-4038D01*
X3707Y-4042D01*
X3699Y-4047D01*
X3694Y-4052D01*
X3689Y-4056D01*
X3686Y-4060D01*
X3685Y-4061D01*
X3679Y-4071D01*
X3673Y-4083D01*
X3670Y-4095D01*
X3668Y-4106D01*
X3666Y-4116D01*
X3665Y-4124D01*
Y-4130D01*
Y-4131D01*
Y-4132D01*
X3666Y-4149D01*
X3669Y-4164D01*
X3672Y-4178D01*
X3675Y-4188D01*
X3680Y-4198D01*
X3683Y-4203D01*
X3685Y-4208D01*
X3686Y-4209D01*
X3695Y-4218D01*
X3703Y-4224D01*
X3712Y-4229D01*
X3721Y-4232D01*
X3727Y-4234D01*
X3733Y-4235D01*
X3738D01*
X3748Y-4234D01*
X3758Y-4232D01*
X3766Y-4228D01*
X3772Y-4223D01*
X3778Y-4220D01*
X3783Y-4216D01*
X3785Y-4213D01*
X3786Y-4212D01*
X3793Y-4203D01*
X3798Y-4192D01*
X3803Y-4181D01*
X3806Y-4170D01*
X3808Y-4160D01*
X3809Y-4152D01*
X3810Y-4147D01*
Y-4146D01*
Y-4145D01*
X3906Y-4159D01*
X3901Y-4188D01*
X3894Y-4213D01*
X3890Y-4225D01*
X3885Y-4235D01*
X3881Y-4246D01*
X3876Y-4254D01*
X3871Y-4262D01*
X3867Y-4269D01*
X3863Y-4274D01*
X3859Y-4280D01*
X3857Y-4284D01*
X3854Y-4286D01*
X3853Y-4287D01*
X3852Y-4288D01*
X3843Y-4296D01*
X3833Y-4304D01*
X3824Y-4310D01*
X3814Y-4315D01*
X3795Y-4324D01*
X3777Y-4330D01*
X3761Y-4332D01*
X3754Y-4333D01*
X3748Y-4334D01*
X3744Y-4335D01*
X3737D01*
X3724Y-4334D01*
X3712Y-4332D01*
X3700Y-4330D01*
X3688Y-4327D01*
X3668Y-4318D01*
X3650Y-4308D01*
X3636Y-4297D01*
X3630Y-4293D01*
X3625Y-4288D01*
X3622Y-4285D01*
X3618Y-4283D01*
X3617Y-4281D01*
X3616Y-4280D01*
X3607Y-4269D01*
X3599Y-4258D01*
X3592Y-4246D01*
X3587Y-4234D01*
X3577Y-4210D01*
X3571Y-4188D01*
X3569Y-4177D01*
X3567Y-4168D01*
X3566Y-4160D01*
X3565Y-4152D01*
X3564Y-4147D01*
Y-4142D01*
Y-4139D01*
Y-4138D01*
X3565Y-4117D01*
X3569Y-4098D01*
X3573Y-4081D01*
X3578Y-4067D01*
X3583Y-4056D01*
X3587Y-4048D01*
X3591Y-4042D01*
X3592Y-4040D01*
X3603Y-4026D01*
X3614Y-4015D01*
X3625Y-4007D01*
X3636Y-4000D01*
X3647Y-3995D01*
X3654Y-3992D01*
X3660Y-3990D01*
X3661Y-3989D01*
X3661D01*
X3648Y-3980D01*
X3637Y-3970D01*
X3627Y-3960D01*
X3620Y-3952D01*
X3613Y-3943D01*
X3610Y-3938D01*
X3607Y-3934D01*
X3606Y-3932D01*
X3599Y-3919D01*
X3595Y-3906D01*
X3591Y-3894D01*
X3589Y-3882D01*
X3587Y-3873D01*
X3587Y-3865D01*
Y-3860D01*
Y-3858D01*
Y-3847D01*
X3588Y-3836D01*
X3593Y-3816D01*
X3599Y-3797D01*
X3607Y-3781D01*
X3615Y-3767D01*
X3619Y-3761D01*
X3622Y-3757D01*
X3624Y-3753D01*
X3626Y-3750D01*
X3627Y-3749D01*
X3628Y-3748D01*
X3636Y-3739D01*
X3645Y-3732D01*
X3654Y-3725D01*
X3663Y-3720D01*
X3682Y-3710D01*
X3699Y-3705D01*
X3716Y-3701D01*
X3722Y-3700D01*
X3728Y-3699D01*
X3734Y-3698D01*
X3751D01*
X3762Y-3700D01*
D02*
G37*
G36*
X3165D02*
X3185Y-3705D01*
X3204Y-3711D01*
X3219Y-3718D01*
X3231Y-3725D01*
X3240Y-3732D01*
X3245Y-3736D01*
X3246Y-3737D01*
X3247Y-3738D01*
X3255Y-3745D01*
X3261Y-3755D01*
X3273Y-3774D01*
X3282Y-3794D01*
X3290Y-3815D01*
X3295Y-3833D01*
X3297Y-3841D01*
X3299Y-3848D01*
X3300Y-3854D01*
X3301Y-3858D01*
X3302Y-3861D01*
Y-3862D01*
X3211Y-3880D01*
X3209Y-3866D01*
X3207Y-3854D01*
X3203Y-3842D01*
X3199Y-3834D01*
X3195Y-3828D01*
X3193Y-3822D01*
X3191Y-3819D01*
X3190Y-3818D01*
X3183Y-3811D01*
X3175Y-3806D01*
X3168Y-3803D01*
X3161Y-3800D01*
X3156Y-3798D01*
X3150Y-3797D01*
X3146D01*
X3137Y-3798D01*
X3129Y-3800D01*
X3122Y-3803D01*
X3116Y-3806D01*
X3111Y-3810D01*
X3108Y-3813D01*
X3106Y-3815D01*
X3105Y-3816D01*
X3099Y-3823D01*
X3096Y-3831D01*
X3092Y-3840D01*
X3090Y-3847D01*
X3089Y-3855D01*
X3088Y-3860D01*
Y-3864D01*
Y-3866D01*
X3089Y-3879D01*
X3092Y-3891D01*
X3096Y-3902D01*
X3099Y-3910D01*
X3103Y-3916D01*
X3107Y-3922D01*
X3109Y-3925D01*
X3110Y-3926D01*
X3120Y-3932D01*
X3129Y-3938D01*
X3139Y-3940D01*
X3149Y-3943D01*
X3158Y-3944D01*
X3165Y-3945D01*
X3171D01*
X3182Y-4043D01*
X3172Y-4040D01*
X3164Y-4038D01*
X3156Y-4036D01*
X3149Y-4035D01*
X3145Y-4034D01*
X3137D01*
X3127Y-4035D01*
X3118Y-4038D01*
X3109Y-4042D01*
X3102Y-4047D01*
X3097Y-4052D01*
X3092Y-4056D01*
X3089Y-4060D01*
X3088Y-4061D01*
X3082Y-4071D01*
X3076Y-4083D01*
X3072Y-4095D01*
X3071Y-4106D01*
X3069Y-4116D01*
X3068Y-4124D01*
Y-4130D01*
Y-4131D01*
Y-4132D01*
X3069Y-4149D01*
X3072Y-4164D01*
X3074Y-4178D01*
X3078Y-4188D01*
X3083Y-4198D01*
X3085Y-4203D01*
X3088Y-4208D01*
X3089Y-4209D01*
X3097Y-4218D01*
X3106Y-4224D01*
X3115Y-4229D01*
X3123Y-4232D01*
X3130Y-4234D01*
X3135Y-4235D01*
X3141D01*
X3151Y-4234D01*
X3160Y-4232D01*
X3169Y-4228D01*
X3175Y-4223D01*
X3181Y-4220D01*
X3185Y-4216D01*
X3188Y-4213D01*
X3189Y-4212D01*
X3195Y-4203D01*
X3201Y-4192D01*
X3206Y-4181D01*
X3208Y-4170D01*
X3211Y-4160D01*
X3212Y-4152D01*
X3213Y-4147D01*
Y-4146D01*
Y-4145D01*
X3308Y-4159D01*
X3304Y-4188D01*
X3297Y-4213D01*
X3293Y-4225D01*
X3288Y-4235D01*
X3283Y-4246D01*
X3279Y-4254D01*
X3274Y-4262D01*
X3269Y-4269D01*
X3266Y-4274D01*
X3262Y-4280D01*
X3259Y-4284D01*
X3256Y-4286D01*
X3256Y-4287D01*
X3255Y-4288D01*
X3245Y-4296D01*
X3236Y-4304D01*
X3227Y-4310D01*
X3217Y-4315D01*
X3197Y-4324D01*
X3180Y-4330D01*
X3164Y-4332D01*
X3157Y-4333D01*
X3151Y-4334D01*
X3146Y-4335D01*
X3140D01*
X3127Y-4334D01*
X3115Y-4332D01*
X3103Y-4330D01*
X3091Y-4327D01*
X3071Y-4318D01*
X3053Y-4308D01*
X3038Y-4297D01*
X3033Y-4293D01*
X3028Y-4288D01*
X3024Y-4285D01*
X3021Y-4283D01*
X3020Y-4281D01*
X3019Y-4280D01*
X3010Y-4269D01*
X3001Y-4258D01*
X2995Y-4246D01*
X2989Y-4234D01*
X2980Y-4210D01*
X2974Y-4188D01*
X2972Y-4177D01*
X2970Y-4168D01*
X2969Y-4160D01*
X2968Y-4152D01*
X2967Y-4147D01*
Y-4142D01*
Y-4139D01*
Y-4138D01*
X2968Y-4117D01*
X2972Y-4098D01*
X2975Y-4081D01*
X2981Y-4067D01*
X2986Y-4056D01*
X2990Y-4048D01*
X2994Y-4042D01*
X2995Y-4040D01*
X3006Y-4026D01*
X3017Y-4015D01*
X3028Y-4007D01*
X3039Y-4000D01*
X3049Y-3995D01*
X3057Y-3992D01*
X3062Y-3990D01*
X3063Y-3989D01*
X3064D01*
X3051Y-3980D01*
X3040Y-3970D01*
X3030Y-3960D01*
X3023Y-3952D01*
X3016Y-3943D01*
X3012Y-3938D01*
X3010Y-3934D01*
X3009Y-3932D01*
X3002Y-3919D01*
X2998Y-3906D01*
X2994Y-3894D01*
X2992Y-3882D01*
X2990Y-3873D01*
X2989Y-3865D01*
Y-3860D01*
Y-3858D01*
Y-3847D01*
X2991Y-3836D01*
X2996Y-3816D01*
X3002Y-3797D01*
X3010Y-3781D01*
X3018Y-3767D01*
X3022Y-3761D01*
X3024Y-3757D01*
X3027Y-3753D01*
X3029Y-3750D01*
X3030Y-3749D01*
X3031Y-3748D01*
X3039Y-3739D01*
X3048Y-3732D01*
X3057Y-3725D01*
X3066Y-3720D01*
X3085Y-3710D01*
X3102Y-3705D01*
X3119Y-3701D01*
X3125Y-3700D01*
X3131Y-3699D01*
X3136Y-3698D01*
X3154D01*
X3165Y-3700D01*
D02*
G37*
G36*
X2885Y-4325D02*
X2672D01*
X2656Y-4324D01*
X2641D01*
X2627Y-4323D01*
X2615Y-4322D01*
X2605D01*
X2595Y-4321D01*
X2588Y-4320D01*
X2582Y-4320D01*
X2577D01*
X2572Y-4319D01*
X2570D01*
X2568Y-4318D01*
X2566D01*
X2550Y-4312D01*
X2535Y-4304D01*
X2521Y-4295D01*
X2510Y-4284D01*
X2501Y-4275D01*
X2494Y-4267D01*
X2490Y-4261D01*
X2488Y-4260D01*
Y-4259D01*
X2477Y-4241D01*
X2469Y-4222D01*
X2463Y-4202D01*
X2459Y-4184D01*
X2457Y-4168D01*
X2456Y-4161D01*
Y-4155D01*
X2455Y-4150D01*
Y-4147D01*
Y-4145D01*
Y-4144D01*
X2456Y-4124D01*
X2459Y-4105D01*
X2463Y-4089D01*
X2468Y-4075D01*
X2472Y-4063D01*
X2477Y-4055D01*
X2480Y-4051D01*
X2481Y-4049D01*
X2491Y-4035D01*
X2503Y-4023D01*
X2515Y-4014D01*
X2526Y-4006D01*
X2537Y-4001D01*
X2546Y-3996D01*
X2551Y-3994D01*
X2552Y-3993D01*
X2553D01*
X2541Y-3986D01*
X2531Y-3977D01*
X2522Y-3968D01*
X2514Y-3960D01*
X2509Y-3952D01*
X2504Y-3945D01*
X2501Y-3941D01*
X2500Y-3940D01*
X2494Y-3926D01*
X2488Y-3911D01*
X2484Y-3897D01*
X2483Y-3884D01*
X2481Y-3874D01*
X2480Y-3865D01*
Y-3859D01*
Y-3858D01*
Y-3857D01*
X2481Y-3840D01*
X2484Y-3823D01*
X2487Y-3808D01*
X2492Y-3795D01*
X2497Y-3785D01*
X2500Y-3777D01*
X2503Y-3772D01*
X2504Y-3770D01*
X2513Y-3757D01*
X2522Y-3745D01*
X2533Y-3736D01*
X2541Y-3729D01*
X2549Y-3723D01*
X2556Y-3719D01*
X2559Y-3717D01*
X2561Y-3716D01*
X2569Y-3713D01*
X2576Y-3710D01*
X2595Y-3707D01*
X2614Y-3704D01*
X2633Y-3702D01*
X2651Y-3701D01*
X2659Y-3700D01*
X2885D01*
Y-4325D01*
D02*
G37*
G36*
X3486D02*
X3439D01*
X3440Y-4338D01*
X3441Y-4350D01*
X3443Y-4359D01*
X3446Y-4368D01*
X3448Y-4374D01*
X3451Y-4379D01*
X3452Y-4381D01*
X3452Y-4382D01*
X3458Y-4390D01*
X3465Y-4396D01*
X3471Y-4402D01*
X3478Y-4406D01*
X3484Y-4410D01*
X3489Y-4413D01*
X3493Y-4414D01*
X3494Y-4415D01*
X3476Y-4465D01*
X3458Y-4455D01*
X3444Y-4445D01*
X3432Y-4434D01*
X3422Y-4423D01*
X3415Y-4414D01*
X3409Y-4406D01*
X3406Y-4401D01*
X3405Y-4400D01*
Y-4399D01*
X3400Y-4384D01*
X3395Y-4367D01*
X3392Y-4349D01*
X3390Y-4332D01*
X3389Y-4316D01*
Y-4308D01*
X3388Y-4303D01*
Y-4297D01*
Y-4294D01*
Y-4292D01*
Y-4291D01*
Y-4205D01*
X3486D01*
Y-4325D01*
D02*
G37*
G36*
X4129Y-2991D02*
X4043D01*
Y-2624D01*
X3857Y-2991D01*
X3763D01*
Y-2428D01*
X3849D01*
Y-2804D01*
X4039Y-2428D01*
X4129D01*
Y-2991D01*
D02*
G37*
G36*
X4446Y-2420D02*
X4468Y-2423D01*
X4488Y-2429D01*
X4506Y-2435D01*
X4513Y-2438D01*
X4520Y-2441D01*
X4526Y-2444D01*
X4530Y-2447D01*
X4534Y-2448D01*
X4537Y-2450D01*
X4538Y-2452D01*
X4539D01*
X4557Y-2465D01*
X4573Y-2481D01*
X4586Y-2497D01*
X4598Y-2513D01*
X4607Y-2528D01*
X4611Y-2533D01*
X4613Y-2539D01*
X4616Y-2543D01*
X4618Y-2547D01*
X4619Y-2549D01*
Y-2550D01*
X4629Y-2576D01*
X4637Y-2603D01*
X4642Y-2629D01*
X4646Y-2654D01*
X4648Y-2666D01*
X4648Y-2676D01*
X4649Y-2686D01*
Y-2693D01*
X4650Y-2700D01*
Y-2705D01*
Y-2708D01*
Y-2709D01*
X4648Y-2742D01*
X4645Y-2772D01*
X4643Y-2786D01*
X4641Y-2798D01*
X4637Y-2811D01*
X4635Y-2822D01*
X4633Y-2832D01*
X4629Y-2841D01*
X4627Y-2848D01*
X4625Y-2855D01*
X4623Y-2860D01*
X4622Y-2863D01*
X4620Y-2866D01*
Y-2867D01*
X4608Y-2890D01*
X4594Y-2910D01*
X4580Y-2928D01*
X4567Y-2942D01*
X4555Y-2953D01*
X4545Y-2960D01*
X4542Y-2963D01*
X4539Y-2965D01*
X4538Y-2966D01*
X4537Y-2967D01*
X4517Y-2977D01*
X4496Y-2986D01*
X4475Y-2992D01*
X4457Y-2996D01*
X4448Y-2997D01*
X4440Y-2998D01*
X4433Y-2999D01*
X4428D01*
X4423Y-3000D01*
X4416D01*
X4395Y-2999D01*
X4375Y-2996D01*
X4356Y-2992D01*
X4339Y-2987D01*
X4325Y-2983D01*
X4319Y-2981D01*
X4313Y-2979D01*
X4310Y-2977D01*
X4307Y-2976D01*
X4305Y-2975D01*
X4304D01*
X4284Y-2965D01*
X4267Y-2954D01*
X4253Y-2944D01*
X4240Y-2934D01*
X4230Y-2926D01*
X4223Y-2919D01*
X4219Y-2915D01*
X4218Y-2913D01*
Y-2689D01*
X4418D01*
Y-2784D01*
X4312D01*
Y-2855D01*
X4321Y-2863D01*
X4330Y-2870D01*
X4339Y-2876D01*
X4347Y-2881D01*
X4354Y-2885D01*
X4360Y-2888D01*
X4363Y-2889D01*
X4365Y-2890D01*
X4376Y-2894D01*
X4386Y-2898D01*
X4396Y-2899D01*
X4404Y-2901D01*
X4411Y-2902D01*
X4416Y-2903D01*
X4421D01*
X4432Y-2902D01*
X4442Y-2901D01*
X4460Y-2896D01*
X4477Y-2888D01*
X4490Y-2880D01*
X4500Y-2872D01*
X4508Y-2864D01*
X4513Y-2859D01*
X4513Y-2858D01*
X4514Y-2858D01*
X4521Y-2847D01*
X4527Y-2836D01*
X4537Y-2811D01*
X4543Y-2785D01*
X4548Y-2760D01*
X4550Y-2749D01*
X4551Y-2738D01*
X4553Y-2728D01*
Y-2720D01*
X4553Y-2713D01*
Y-2708D01*
Y-2704D01*
Y-2703D01*
X4553Y-2686D01*
X4552Y-2670D01*
X4550Y-2655D01*
X4548Y-2641D01*
X4545Y-2628D01*
X4542Y-2617D01*
X4538Y-2607D01*
X4535Y-2598D01*
X4532Y-2589D01*
X4528Y-2582D01*
X4525Y-2576D01*
X4523Y-2571D01*
X4520Y-2568D01*
X4518Y-2565D01*
X4517Y-2563D01*
Y-2563D01*
X4509Y-2554D01*
X4502Y-2547D01*
X4494Y-2541D01*
X4486Y-2536D01*
X4470Y-2528D01*
X4454Y-2522D01*
X4441Y-2518D01*
X4435Y-2518D01*
X4430Y-2517D01*
X4426Y-2516D01*
X4420D01*
X4406Y-2517D01*
X4393Y-2519D01*
X4383Y-2523D01*
X4373Y-2528D01*
X4365Y-2532D01*
X4359Y-2536D01*
X4355Y-2538D01*
X4354Y-2539D01*
X4345Y-2548D01*
X4337Y-2559D01*
X4330Y-2571D01*
X4325Y-2581D01*
X4321Y-2591D01*
X4318Y-2598D01*
X4317Y-2604D01*
X4316Y-2605D01*
Y-2606D01*
X4223Y-2585D01*
X4227Y-2570D01*
X4230Y-2556D01*
X4235Y-2543D01*
X4240Y-2531D01*
X4245Y-2520D01*
X4251Y-2510D01*
X4256Y-2501D01*
X4262Y-2493D01*
X4267Y-2485D01*
X4272Y-2478D01*
X4277Y-2473D01*
X4280Y-2468D01*
X4283Y-2465D01*
X4286Y-2463D01*
X4288Y-2462D01*
X4288Y-2461D01*
X4298Y-2453D01*
X4308Y-2447D01*
X4319Y-2441D01*
X4330Y-2436D01*
X4352Y-2428D01*
X4373Y-2423D01*
X4383Y-2422D01*
X4392Y-2421D01*
X4400Y-2420D01*
X4407Y-2419D01*
X4413Y-2418D01*
X4421D01*
X4446Y-2420D01*
D02*
G37*
G36*
X3666Y-2991D02*
X3491D01*
X3471Y-2990D01*
X3453Y-2988D01*
X3437Y-2986D01*
X3424Y-2983D01*
X3413Y-2980D01*
X3405Y-2977D01*
X3400Y-2976D01*
X3399Y-2975D01*
X3385Y-2968D01*
X3374Y-2961D01*
X3364Y-2953D01*
X3355Y-2946D01*
X3348Y-2939D01*
X3342Y-2933D01*
X3339Y-2930D01*
X3338Y-2928D01*
X3329Y-2916D01*
X3320Y-2902D01*
X3313Y-2888D01*
X3307Y-2873D01*
X3302Y-2862D01*
X3299Y-2852D01*
X3297Y-2848D01*
X3296Y-2845D01*
X3295Y-2843D01*
Y-2843D01*
X3290Y-2822D01*
X3285Y-2800D01*
X3283Y-2778D01*
X3280Y-2758D01*
Y-2749D01*
X3280Y-2741D01*
Y-2733D01*
X3279Y-2728D01*
Y-2723D01*
Y-2718D01*
Y-2716D01*
Y-2715D01*
X3280Y-2686D01*
X3281Y-2660D01*
X3282Y-2648D01*
X3284Y-2637D01*
X3285Y-2627D01*
X3286Y-2618D01*
X3288Y-2609D01*
X3290Y-2602D01*
X3291Y-2595D01*
X3292Y-2590D01*
X3293Y-2586D01*
X3294Y-2583D01*
X3295Y-2581D01*
Y-2580D01*
X3301Y-2560D01*
X3308Y-2543D01*
X3315Y-2528D01*
X3323Y-2515D01*
X3329Y-2504D01*
X3334Y-2497D01*
X3337Y-2493D01*
X3339Y-2491D01*
X3349Y-2479D01*
X3359Y-2469D01*
X3370Y-2461D01*
X3379Y-2454D01*
X3388Y-2449D01*
X3394Y-2445D01*
X3398Y-2443D01*
X3399Y-2443D01*
X3413Y-2438D01*
X3429Y-2434D01*
X3444Y-2431D01*
X3460Y-2429D01*
X3474Y-2428D01*
X3480D01*
X3485Y-2428D01*
X3666D01*
Y-2991D01*
D02*
G37*
G36*
X5964Y2366D02*
X5894Y2326D01*
X5885Y2331D01*
X5877Y2335D01*
X5869Y2339D01*
X5861Y2341D01*
X5846Y2345D01*
X5833Y2346D01*
X5822Y2345D01*
X5815Y2344D01*
X5809Y2343D01*
X5807Y2342D01*
X5796Y2337D01*
X5788Y2330D01*
X5780Y2323D01*
X5775Y2316D01*
X5771Y2308D01*
X5768Y2302D01*
X5766Y2298D01*
X5766Y2297D01*
X5763Y2283D01*
X5762Y2269D01*
X5764Y2254D01*
X5766Y2240D01*
X5769Y2227D01*
X5771Y2217D01*
X5773Y2213D01*
X5774Y2210D01*
X5774Y2208D01*
X5775Y2207D01*
X5783Y2188D01*
X5792Y2170D01*
X5801Y2157D01*
X5809Y2146D01*
X5816Y2139D01*
X5822Y2133D01*
X5825Y2130D01*
X5827Y2129D01*
X5838Y2122D01*
X5848Y2119D01*
X5859Y2117D01*
X5868Y2116D01*
X5875Y2117D01*
X5880Y2118D01*
X5885Y2119D01*
X5886Y2119D01*
X5894Y2123D01*
X5901Y2128D01*
X5907Y2135D01*
X5912Y2141D01*
X5916Y2147D01*
X5919Y2152D01*
X5921Y2155D01*
X5921Y2156D01*
X5925Y2168D01*
X5926Y2180D01*
X5927Y2191D01*
X5926Y2202D01*
X5925Y2211D01*
X5924Y2219D01*
X5923Y2224D01*
X5923Y2226D01*
X6019Y2247D01*
X6025Y2219D01*
X6026Y2204D01*
X6026Y2192D01*
X6026Y2180D01*
X6025Y2169D01*
X6024Y2158D01*
X6023Y2148D01*
X6021Y2140D01*
X6019Y2132D01*
X6017Y2125D01*
X6015Y2120D01*
X6014Y2115D01*
X6012Y2112D01*
X6012Y2111D01*
X6011Y2109D01*
X6005Y2099D01*
X5999Y2089D01*
X5985Y2073D01*
X5970Y2059D01*
X5955Y2048D01*
X5941Y2040D01*
X5935Y2035D01*
X5930Y2034D01*
X5926Y2031D01*
X5919Y2029D01*
X5904Y2024D01*
X5891Y2021D01*
X5876Y2020D01*
X5864Y2020D01*
X5851Y2021D01*
X5839Y2022D01*
X5827Y2025D01*
X5817Y2028D01*
X5808Y2032D01*
X5799Y2035D01*
X5792Y2039D01*
X5786Y2041D01*
X5781Y2044D01*
X5777Y2047D01*
X5776Y2048D01*
X5774Y2049D01*
X5762Y2058D01*
X5750Y2069D01*
X5741Y2079D01*
X5731Y2089D01*
X5715Y2111D01*
X5701Y2131D01*
X5696Y2140D01*
X5692Y2149D01*
X5687Y2156D01*
X5685Y2163D01*
X5682Y2168D01*
X5680Y2172D01*
X5679Y2175D01*
X5679Y2176D01*
X5674Y2193D01*
X5669Y2210D01*
X5666Y2226D01*
X5664Y2242D01*
X5663Y2256D01*
X5662Y2271D01*
X5663Y2284D01*
X5664Y2296D01*
X5665Y2306D01*
X5667Y2316D01*
X5669Y2324D01*
X5670Y2332D01*
X5672Y2337D01*
X5673Y2342D01*
X5674Y2344D01*
X5674Y2345D01*
X5679Y2356D01*
X5685Y2366D01*
X5690Y2374D01*
X5697Y2383D01*
X5711Y2397D01*
X5723Y2408D01*
X5736Y2416D01*
X5741Y2419D01*
X5746Y2421D01*
X5750Y2424D01*
X5755Y2426D01*
X5768Y2429D01*
X5780Y2431D01*
X5791Y2432D01*
X5802Y2432D01*
X5813Y2431D01*
X5820Y2430D01*
X5824Y2429D01*
X5826Y2429D01*
X5774Y2524D01*
X5600Y2461D01*
X5562Y2566D01*
X5806Y2655D01*
X5964Y2366D01*
D02*
G37*
G36*
X6202Y2799D02*
X6217Y2797D01*
X6232Y2795D01*
X6245Y2793D01*
X6257Y2789D01*
X6268Y2785D01*
X6277Y2782D01*
X6285Y2778D01*
X6291Y2775D01*
X6296Y2773D01*
X6299Y2771D01*
X6300Y2770D01*
X6318Y2758D01*
X6335Y2744D01*
X6350Y2729D01*
X6365Y2713D01*
X6379Y2695D01*
X6392Y2678D01*
X6403Y2660D01*
X6413Y2643D01*
X6422Y2626D01*
X6431Y2611D01*
X6438Y2597D01*
X6443Y2585D01*
X6447Y2575D01*
X6451Y2568D01*
X6452Y2562D01*
X6453Y2561D01*
X6453Y2561D01*
X6462Y2534D01*
X6469Y2509D01*
X6474Y2485D01*
X6477Y2461D01*
X6479Y2439D01*
X6481Y2419D01*
X6481Y2400D01*
X6480Y2382D01*
X6479Y2366D01*
X6477Y2352D01*
X6475Y2339D01*
X6473Y2330D01*
X6471Y2321D01*
X6470Y2315D01*
X6469Y2312D01*
X6468Y2310D01*
X6462Y2293D01*
X6453Y2278D01*
X6445Y2264D01*
X6435Y2251D01*
X6424Y2239D01*
X6414Y2229D01*
X6404Y2220D01*
X6393Y2211D01*
X6383Y2204D01*
X6373Y2198D01*
X6364Y2194D01*
X6357Y2189D01*
X6350Y2187D01*
X6346Y2184D01*
X6342Y2183D01*
X6327Y2178D01*
X6314Y2175D01*
X6288Y2171D01*
X6264Y2170D01*
X6253Y2171D01*
X6242Y2172D01*
X6233Y2173D01*
X6224Y2175D01*
X6217Y2177D01*
X6211Y2178D01*
X6206Y2179D01*
X6203Y2181D01*
X6200Y2181D01*
X6199Y2182D01*
X6186Y2188D01*
X6174Y2194D01*
X6151Y2212D01*
X6129Y2231D01*
X6110Y2251D01*
X6102Y2261D01*
X6095Y2270D01*
X6088Y2278D01*
X6083Y2285D01*
X6079Y2292D01*
X6075Y2296D01*
X6073Y2299D01*
X6073Y2300D01*
X6154Y2371D01*
X6168Y2350D01*
X6182Y2333D01*
X6194Y2319D01*
X6205Y2308D01*
X6215Y2300D01*
X6223Y2295D01*
X6228Y2292D01*
X6230Y2290D01*
X6244Y2285D01*
X6258Y2281D01*
X6271Y2280D01*
X6283Y2280D01*
X6292Y2282D01*
X6300Y2284D01*
X6305Y2284D01*
X6306Y2285D01*
X6316Y2289D01*
X6324Y2293D01*
X6340Y2305D01*
X6351Y2318D01*
X6360Y2331D01*
X6367Y2342D01*
X6371Y2353D01*
X6374Y2360D01*
X6375Y2361D01*
X6375Y2362D01*
X6377Y2373D01*
X6378Y2386D01*
X6378Y2399D01*
X6377Y2413D01*
X6374Y2441D01*
X6368Y2468D01*
X6365Y2481D01*
X6362Y2493D01*
X6359Y2504D01*
X6355Y2512D01*
X6354Y2520D01*
X6352Y2526D01*
X6350Y2530D01*
X6350Y2531D01*
X6343Y2550D01*
X6334Y2568D01*
X6327Y2583D01*
X6320Y2598D01*
X6312Y2611D01*
X6305Y2623D01*
X6298Y2633D01*
X6291Y2641D01*
X6284Y2649D01*
X6279Y2656D01*
X6274Y2661D01*
X6269Y2665D01*
X6266Y2667D01*
X6263Y2671D01*
X6261Y2671D01*
X6261Y2672D01*
X6251Y2678D01*
X6241Y2682D01*
X6232Y2686D01*
X6223Y2689D01*
X6206Y2692D01*
X6190Y2692D01*
X6176Y2691D01*
X6166Y2689D01*
X6162Y2689D01*
X6157Y2687D01*
X6144Y2681D01*
X6133Y2673D01*
X6123Y2666D01*
X6116Y2657D01*
X6110Y2650D01*
X6105Y2644D01*
X6103Y2639D01*
X6102Y2638D01*
X6097Y2624D01*
X6093Y2610D01*
X6090Y2595D01*
X6090Y2581D01*
X6090Y2569D01*
X6090Y2559D01*
X6091Y2556D01*
X6092Y2553D01*
X6091Y2552D01*
X6091Y2551D01*
X5985Y2544D01*
X5983Y2559D01*
X5983Y2573D01*
X5983Y2587D01*
X5983Y2601D01*
X5984Y2613D01*
X5985Y2624D01*
X5987Y2634D01*
X5989Y2644D01*
X5991Y2652D01*
X5993Y2660D01*
X5994Y2666D01*
X5996Y2672D01*
X5998Y2675D01*
X5999Y2679D01*
X5999Y2681D01*
X6000Y2681D01*
X6007Y2694D01*
X6015Y2707D01*
X6023Y2719D01*
X6032Y2730D01*
X6042Y2739D01*
X6051Y2748D01*
X6070Y2763D01*
X6079Y2769D01*
X6087Y2774D01*
X6095Y2777D01*
X6101Y2781D01*
X6107Y2784D01*
X6115Y2787D01*
X6133Y2793D01*
X6152Y2796D01*
X6169Y2799D01*
X6186Y2800D01*
X6202Y2799D01*
D02*
G37*
G36*
X1668Y2826D02*
X1433D01*
Y2796D01*
X1434Y2787D01*
X1435Y2779D01*
X1436Y2772D01*
X1437Y2767D01*
X1439Y2764D01*
X1440Y2762D01*
Y2761D01*
X1442Y2756D01*
X1446Y2751D01*
X1454Y2742D01*
X1457Y2739D01*
X1460Y2736D01*
X1462Y2735D01*
X1463Y2734D01*
X1466Y2731D01*
X1471Y2728D01*
X1476Y2724D01*
X1482Y2721D01*
X1496Y2712D01*
X1510Y2704D01*
X1524Y2696D01*
X1530Y2693D01*
X1535Y2690D01*
X1539Y2687D01*
X1542Y2686D01*
X1544Y2684D01*
X1545D01*
X1668Y2617D01*
Y2505D01*
X1559Y2561D01*
X1547Y2567D01*
X1535Y2573D01*
X1525Y2579D01*
X1516Y2584D01*
X1508Y2589D01*
X1500Y2593D01*
X1488Y2601D01*
X1479Y2606D01*
X1472Y2611D01*
X1468Y2614D01*
X1467Y2615D01*
X1458Y2622D01*
X1449Y2631D01*
X1440Y2639D01*
X1434Y2646D01*
X1428Y2653D01*
X1424Y2659D01*
X1420Y2662D01*
X1420Y2664D01*
X1415Y2643D01*
X1408Y2626D01*
X1400Y2610D01*
X1390Y2597D01*
X1383Y2587D01*
X1376Y2580D01*
X1371Y2576D01*
X1370Y2574D01*
X1370D01*
X1353Y2563D01*
X1335Y2555D01*
X1318Y2549D01*
X1301Y2546D01*
X1286Y2543D01*
X1280Y2542D01*
X1274D01*
X1270Y2541D01*
X1265D01*
X1264D01*
X1263D01*
X1244Y2542D01*
X1227Y2545D01*
X1211Y2548D01*
X1198Y2551D01*
X1188Y2556D01*
X1180Y2559D01*
X1175Y2561D01*
X1173Y2562D01*
X1160Y2571D01*
X1149Y2580D01*
X1140Y2588D01*
X1133Y2596D01*
X1127Y2604D01*
X1123Y2610D01*
X1121Y2614D01*
X1120Y2616D01*
X1118Y2622D01*
X1115Y2630D01*
X1111Y2646D01*
X1109Y2664D01*
X1106Y2681D01*
X1105Y2697D01*
Y2705D01*
X1105Y2711D01*
Y2920D01*
X1668D01*
Y2826D01*
D02*
G37*
G36*
X1212Y2273D02*
X1249Y2296D01*
X1287Y2315D01*
X1323Y2332D01*
X1340Y2340D01*
X1356Y2347D01*
X1372Y2352D01*
X1385Y2358D01*
X1398Y2362D01*
X1409Y2367D01*
X1417Y2369D01*
X1424Y2372D01*
X1427Y2372D01*
X1429Y2373D01*
X1473Y2386D01*
X1516Y2395D01*
X1537Y2398D01*
X1557Y2402D01*
X1575Y2404D01*
X1593Y2407D01*
X1609Y2408D01*
X1624Y2410D01*
X1636Y2411D01*
X1647Y2412D01*
X1656D01*
X1663Y2412D01*
X1666D01*
X1668D01*
Y2327D01*
X1639Y2327D01*
X1609Y2324D01*
X1579Y2321D01*
X1566Y2319D01*
X1553Y2317D01*
X1541Y2315D01*
X1530Y2313D01*
X1520Y2312D01*
X1512Y2310D01*
X1505Y2308D01*
X1500Y2307D01*
X1497Y2307D01*
X1496D01*
X1461Y2298D01*
X1429Y2288D01*
X1413Y2283D01*
X1398Y2279D01*
X1385Y2274D01*
X1372Y2269D01*
X1360Y2265D01*
X1350Y2261D01*
X1340Y2257D01*
X1333Y2254D01*
X1327Y2251D01*
X1322Y2249D01*
X1320Y2247D01*
X1319D01*
X1304Y2240D01*
X1290Y2233D01*
X1276Y2226D01*
X1264Y2219D01*
X1253Y2212D01*
X1242Y2207D01*
X1233Y2201D01*
X1224Y2195D01*
X1216Y2190D01*
X1210Y2186D01*
X1205Y2182D01*
X1200Y2178D01*
X1196Y2175D01*
X1193Y2173D01*
X1192Y2172D01*
X1191D01*
X1112D01*
Y2474D01*
X1212D01*
Y2273D01*
D02*
G37*
G36*
X250Y-2679D02*
X-11D01*
Y-2712D01*
X-10Y-2722D01*
X-9Y-2731D01*
X-7Y-2739D01*
X-6Y-2744D01*
X-4Y-2748D01*
X-3Y-2750D01*
Y-2751D01*
X-1Y-2757D01*
X4Y-2763D01*
X12Y-2772D01*
X16Y-2776D01*
X20Y-2778D01*
X22Y-2780D01*
X23Y-2781D01*
X26Y-2784D01*
X32Y-2788D01*
X37Y-2792D01*
X44Y-2796D01*
X60Y-2805D01*
X75Y-2814D01*
X90Y-2823D01*
X97Y-2826D01*
X102Y-2830D01*
X107Y-2833D01*
X110Y-2835D01*
X113Y-2837D01*
X114D01*
X250Y-2911D01*
Y-3035D01*
X129Y-2973D01*
X116Y-2966D01*
X103Y-2960D01*
X92Y-2953D01*
X82Y-2948D01*
X72Y-2942D01*
X64Y-2937D01*
X50Y-2929D01*
X40Y-2923D01*
X33Y-2917D01*
X28Y-2914D01*
X27Y-2913D01*
X17Y-2905D01*
X7Y-2896D01*
X-2Y-2887D01*
X-10Y-2878D01*
X-16Y-2871D01*
X-21Y-2864D01*
X-25Y-2861D01*
X-26Y-2859D01*
X-31Y-2882D01*
X-38Y-2901D01*
X-48Y-2919D01*
X-58Y-2933D01*
X-66Y-2944D01*
X-74Y-2952D01*
X-79Y-2957D01*
X-80Y-2959D01*
X-81D01*
X-99Y-2971D01*
X-119Y-2980D01*
X-138Y-2986D01*
X-157Y-2990D01*
X-173Y-2993D01*
X-181Y-2994D01*
X-187D01*
X-192Y-2995D01*
X-197D01*
X-198D01*
X-199D01*
X-221Y-2994D01*
X-239Y-2991D01*
X-257Y-2987D01*
X-271Y-2984D01*
X-283Y-2979D01*
X-292Y-2975D01*
X-297Y-2973D01*
X-299Y-2972D01*
X-314Y-2962D01*
X-326Y-2952D01*
X-336Y-2943D01*
X-344Y-2934D01*
X-350Y-2925D01*
X-355Y-2919D01*
X-357Y-2914D01*
X-357Y-2912D01*
X-360Y-2905D01*
X-363Y-2897D01*
X-368Y-2878D01*
X-370Y-2859D01*
X-373Y-2839D01*
X-374Y-2822D01*
Y-2814D01*
X-375Y-2807D01*
Y-2575D01*
X250D01*
Y-2679D01*
D02*
G37*
G36*
X118Y-3076D02*
X132Y-3080D01*
X144Y-3084D01*
X155Y-3088D01*
X165Y-3093D01*
X175Y-3097D01*
X183Y-3102D01*
X191Y-3107D01*
X197Y-3111D01*
X203Y-3115D01*
X207Y-3119D01*
X211Y-3121D01*
X214Y-3124D01*
X215Y-3125D01*
X216Y-3126D01*
X223Y-3135D01*
X231Y-3145D01*
X242Y-3163D01*
X249Y-3182D01*
X255Y-3200D01*
X257Y-3216D01*
X259Y-3223D01*
Y-3229D01*
X260Y-3233D01*
Y-3240D01*
X259Y-3255D01*
X257Y-3269D01*
X254Y-3283D01*
X249Y-3295D01*
X244Y-3307D01*
X239Y-3317D01*
X232Y-3328D01*
X226Y-3336D01*
X219Y-3343D01*
X213Y-3351D01*
X207Y-3356D01*
X203Y-3361D01*
X198Y-3365D01*
X195Y-3367D01*
X193Y-3368D01*
X192Y-3369D01*
X179Y-3378D01*
X165Y-3385D01*
X152Y-3390D01*
X139Y-3396D01*
X113Y-3404D01*
X90Y-3410D01*
X79Y-3412D01*
X70Y-3413D01*
X61Y-3414D01*
X54D01*
X48Y-3415D01*
X44D01*
X41D01*
X40D01*
X22Y-3414D01*
X4Y-3414D01*
X-12Y-3411D01*
X-27Y-3407D01*
X-41Y-3403D01*
X-55Y-3399D01*
X-67Y-3393D01*
X-78Y-3389D01*
X-87Y-3384D01*
X-96Y-3378D01*
X-103Y-3374D01*
X-110Y-3370D01*
X-114Y-3366D01*
X-118Y-3365D01*
X-120Y-3363D01*
X-121Y-3362D01*
X-129Y-3353D01*
X-136Y-3345D01*
X-143Y-3337D01*
X-148Y-3328D01*
X-157Y-3310D01*
X-163Y-3294D01*
X-166Y-3280D01*
X-167Y-3274D01*
X-168Y-3268D01*
X-169Y-3264D01*
Y-3258D01*
X-168Y-3245D01*
X-165Y-3233D01*
X-162Y-3222D01*
X-159Y-3212D01*
X-154Y-3203D01*
X-151Y-3196D01*
X-148Y-3193D01*
X-148Y-3191D01*
X-255Y-3207D01*
Y-3392D01*
X-367D01*
Y-3133D01*
X-41Y-3083D01*
X-27Y-3162D01*
X-36Y-3169D01*
X-42Y-3175D01*
X-49Y-3182D01*
X-53Y-3188D01*
X-62Y-3201D01*
X-67Y-3213D01*
X-70Y-3223D01*
X-72Y-3231D01*
X-73Y-3236D01*
Y-3238D01*
X-72Y-3250D01*
X-68Y-3260D01*
X-63Y-3270D01*
X-59Y-3278D01*
X-53Y-3284D01*
X-49Y-3289D01*
X-45Y-3292D01*
X-44Y-3292D01*
X-32Y-3300D01*
X-19Y-3305D01*
X-4Y-3309D01*
X10Y-3312D01*
X23Y-3314D01*
X33Y-3315D01*
X37D01*
X40D01*
X42D01*
X43D01*
X64Y-3314D01*
X84Y-3311D01*
X99Y-3307D01*
X112Y-3304D01*
X121Y-3300D01*
X129Y-3296D01*
X133Y-3293D01*
X134Y-3292D01*
X145Y-3284D01*
X151Y-3276D01*
X157Y-3267D01*
X160Y-3258D01*
X162Y-3252D01*
X163Y-3246D01*
X164Y-3242D01*
Y-3241D01*
X163Y-3231D01*
X160Y-3223D01*
X157Y-3215D01*
X152Y-3208D01*
X148Y-3203D01*
X145Y-3198D01*
X142Y-3195D01*
X141Y-3194D01*
X132Y-3187D01*
X121Y-3182D01*
X110Y-3177D01*
X100Y-3174D01*
X91Y-3172D01*
X83Y-3170D01*
X78Y-3169D01*
X76D01*
X89Y-3071D01*
X118Y-3076D01*
D02*
G37*
G36*
X-315Y6844D02*
X-306Y6826D01*
X-296Y6809D01*
X-285Y6795D01*
X-276Y6783D01*
X-269Y6774D01*
X-263Y6768D01*
X-262Y6767D01*
X-261Y6767D01*
X-245Y6752D01*
X-229Y6740D01*
X-215Y6730D01*
X-202Y6721D01*
X-191Y6716D01*
X-184Y6711D01*
X-178Y6709D01*
X-177Y6708D01*
X-176D01*
Y6599D01*
X-202Y6611D01*
X-227Y6625D01*
X-249Y6641D01*
X-267Y6656D01*
X-275Y6662D01*
X-283Y6669D01*
X-289Y6675D01*
X-294Y6680D01*
X-298Y6684D01*
X-301Y6687D01*
X-303Y6689D01*
X-304Y6690D01*
Y6238D01*
X-403D01*
Y6865D01*
X-322D01*
X-315Y6844D01*
D02*
G37*
G36*
X263Y6238D02*
X-98D01*
Y6343D01*
X159D01*
Y6858D01*
X263D01*
Y6238D01*
D02*
G37*
G36*
X-4054Y2964D02*
X-4039Y2962D01*
X-4026Y2958D01*
X-4013Y2953D01*
X-3990Y2941D01*
X-3980Y2934D01*
X-3970Y2927D01*
X-3962Y2920D01*
X-3955Y2913D01*
X-3948Y2907D01*
X-3943Y2901D01*
X-3939Y2897D01*
X-3936Y2893D01*
X-3934Y2890D01*
X-3933Y2889D01*
X-3924Y2874D01*
X-3917Y2857D01*
X-3909Y2838D01*
X-3904Y2819D01*
X-3894Y2778D01*
X-3888Y2737D01*
X-3886Y2718D01*
X-3884Y2701D01*
X-3883Y2685D01*
X-3882Y2670D01*
X-3882Y2659D01*
Y2650D01*
Y2644D01*
Y2643D01*
Y2642D01*
X-3882Y2612D01*
X-3883Y2583D01*
X-3886Y2557D01*
X-3889Y2533D01*
X-3894Y2511D01*
X-3897Y2492D01*
X-3902Y2473D01*
X-3907Y2457D01*
X-3911Y2443D01*
X-3916Y2432D01*
X-3920Y2422D01*
X-3924Y2414D01*
X-3927Y2408D01*
X-3930Y2404D01*
X-3931Y2401D01*
X-3931Y2400D01*
X-3942Y2387D01*
X-3952Y2376D01*
X-3962Y2367D01*
X-3973Y2358D01*
X-3983Y2351D01*
X-3994Y2345D01*
X-4004Y2341D01*
X-4015Y2337D01*
X-4032Y2332D01*
X-4040Y2330D01*
X-4046Y2329D01*
X-4052D01*
X-4055Y2328D01*
X-4059D01*
X-4072Y2329D01*
X-4084Y2331D01*
X-4096Y2333D01*
X-4107Y2336D01*
X-4127Y2345D01*
X-4144Y2356D01*
X-4158Y2366D01*
X-4164Y2370D01*
X-4168Y2375D01*
X-4172Y2378D01*
X-4175Y2381D01*
X-4176Y2382D01*
X-4176Y2383D01*
X-4185Y2394D01*
X-4192Y2407D01*
X-4199Y2419D01*
X-4204Y2431D01*
X-4213Y2457D01*
X-4219Y2481D01*
X-4221Y2493D01*
X-4222Y2504D01*
X-4223Y2514D01*
X-4224Y2522D01*
X-4225Y2529D01*
Y2533D01*
Y2537D01*
Y2538D01*
X-4224Y2554D01*
X-4223Y2571D01*
X-4221Y2586D01*
X-4217Y2601D01*
X-4214Y2614D01*
X-4211Y2626D01*
X-4206Y2637D01*
X-4202Y2647D01*
X-4198Y2656D01*
X-4194Y2664D01*
X-4189Y2671D01*
X-4187Y2676D01*
X-4184Y2681D01*
X-4181Y2684D01*
X-4180Y2686D01*
X-4179Y2687D01*
X-4171Y2697D01*
X-4162Y2705D01*
X-4153Y2713D01*
X-4144Y2719D01*
X-4136Y2725D01*
X-4127Y2729D01*
X-4111Y2736D01*
X-4096Y2740D01*
X-4090Y2741D01*
X-4085Y2742D01*
X-4080Y2743D01*
X-4075D01*
X-4065Y2742D01*
X-4055Y2741D01*
X-4046Y2738D01*
X-4039Y2737D01*
X-4033Y2734D01*
X-4028Y2731D01*
X-4025Y2730D01*
X-4024Y2729D01*
X-4016Y2724D01*
X-4008Y2717D01*
X-4002Y2711D01*
X-3995Y2704D01*
X-3991Y2699D01*
X-3987Y2694D01*
X-3984Y2690D01*
X-3983Y2689D01*
X-3984Y2709D01*
X-3986Y2726D01*
X-3988Y2742D01*
X-3990Y2756D01*
X-3992Y2769D01*
X-3994Y2781D01*
X-3996Y2791D01*
X-3999Y2800D01*
X-4001Y2808D01*
X-4003Y2814D01*
X-4005Y2820D01*
X-4006Y2823D01*
X-4008Y2827D01*
X-4009Y2829D01*
X-4010Y2831D01*
X-4018Y2843D01*
X-4028Y2851D01*
X-4036Y2858D01*
X-4044Y2861D01*
X-4052Y2864D01*
X-4057Y2865D01*
X-4062Y2866D01*
X-4063D01*
X-4071Y2865D01*
X-4079Y2863D01*
X-4086Y2860D01*
X-4092Y2855D01*
X-4103Y2844D01*
X-4109Y2832D01*
X-4115Y2819D01*
X-4117Y2808D01*
X-4118Y2803D01*
X-4119Y2799D01*
Y2798D01*
Y2797D01*
X-4214Y2810D01*
X-4209Y2837D01*
X-4202Y2860D01*
X-4194Y2881D01*
X-4186Y2897D01*
X-4177Y2909D01*
X-4171Y2919D01*
X-4166Y2924D01*
X-4164Y2926D01*
X-4150Y2939D01*
X-4133Y2948D01*
X-4117Y2956D01*
X-4102Y2960D01*
X-4089Y2963D01*
X-4078Y2964D01*
X-4074Y2965D01*
X-4068D01*
X-4054Y2964D01*
D02*
G37*
G36*
X-3589Y2972D02*
X-3571Y2970D01*
X-3554Y2966D01*
X-3538Y2961D01*
X-3523Y2955D01*
X-3509Y2948D01*
X-3496Y2941D01*
X-3485Y2934D01*
X-3475Y2927D01*
X-3465Y2920D01*
X-3458Y2913D01*
X-3452Y2907D01*
X-3447Y2902D01*
X-3443Y2898D01*
X-3441Y2896D01*
X-3441Y2895D01*
X-3428Y2877D01*
X-3416Y2858D01*
X-3407Y2838D01*
X-3399Y2818D01*
X-3392Y2797D01*
X-3386Y2776D01*
X-3381Y2756D01*
X-3378Y2736D01*
X-3375Y2717D01*
X-3372Y2701D01*
X-3370Y2685D01*
X-3369Y2671D01*
Y2661D01*
X-3368Y2652D01*
Y2647D01*
Y2646D01*
Y2645D01*
X-3369Y2617D01*
X-3371Y2591D01*
X-3375Y2566D01*
X-3379Y2543D01*
X-3385Y2522D01*
X-3391Y2503D01*
X-3397Y2484D01*
X-3404Y2468D01*
X-3411Y2454D01*
X-3417Y2441D01*
X-3423Y2430D01*
X-3428Y2421D01*
X-3433Y2414D01*
X-3437Y2408D01*
X-3439Y2406D01*
X-3440Y2405D01*
X-3452Y2391D01*
X-3465Y2380D01*
X-3477Y2370D01*
X-3491Y2360D01*
X-3505Y2353D01*
X-3518Y2346D01*
X-3531Y2342D01*
X-3544Y2337D01*
X-3556Y2334D01*
X-3567Y2332D01*
X-3577Y2331D01*
X-3586Y2329D01*
X-3593D01*
X-3598Y2328D01*
X-3602D01*
X-3617Y2329D01*
X-3631Y2330D01*
X-3657Y2335D01*
X-3680Y2343D01*
X-3690Y2347D01*
X-3699Y2352D01*
X-3708Y2357D01*
X-3715Y2361D01*
X-3722Y2365D01*
X-3726Y2369D01*
X-3731Y2371D01*
X-3734Y2374D01*
X-3735Y2375D01*
X-3736Y2376D01*
X-3747Y2386D01*
X-3756Y2396D01*
X-3772Y2420D01*
X-3785Y2446D01*
X-3796Y2471D01*
X-3801Y2483D01*
X-3805Y2494D01*
X-3808Y2504D01*
X-3810Y2513D01*
X-3812Y2520D01*
X-3814Y2526D01*
X-3815Y2529D01*
Y2530D01*
X-3714Y2569D01*
X-3709Y2544D01*
X-3701Y2524D01*
X-3695Y2506D01*
X-3687Y2492D01*
X-3681Y2481D01*
X-3675Y2474D01*
X-3672Y2469D01*
X-3671Y2468D01*
X-3660Y2457D01*
X-3648Y2449D01*
X-3636Y2443D01*
X-3625Y2440D01*
X-3615Y2438D01*
X-3607Y2437D01*
X-3602Y2436D01*
X-3600D01*
X-3590Y2437D01*
X-3581Y2438D01*
X-3563Y2443D01*
X-3548Y2452D01*
X-3535Y2461D01*
X-3524Y2469D01*
X-3516Y2478D01*
X-3512Y2483D01*
X-3510Y2484D01*
Y2485D01*
X-3504Y2495D01*
X-3499Y2506D01*
X-3494Y2519D01*
X-3490Y2532D01*
X-3484Y2560D01*
X-3480Y2588D01*
X-3478Y2601D01*
X-3477Y2613D01*
X-3477Y2624D01*
Y2633D01*
X-3476Y2641D01*
Y2647D01*
Y2652D01*
Y2652D01*
Y2673D01*
X-3477Y2692D01*
X-3479Y2710D01*
X-3481Y2725D01*
X-3484Y2740D01*
X-3487Y2754D01*
X-3490Y2766D01*
X-3493Y2776D01*
X-3497Y2786D01*
X-3500Y2794D01*
X-3502Y2800D01*
X-3505Y2806D01*
X-3508Y2810D01*
X-3509Y2813D01*
X-3511Y2814D01*
Y2815D01*
X-3518Y2824D01*
X-3526Y2832D01*
X-3533Y2838D01*
X-3540Y2844D01*
X-3556Y2853D01*
X-3571Y2859D01*
X-3584Y2862D01*
X-3594Y2864D01*
X-3598Y2865D01*
X-3603D01*
X-3618Y2864D01*
X-3631Y2860D01*
X-3642Y2857D01*
X-3652Y2851D01*
X-3661Y2847D01*
X-3667Y2842D01*
X-3671Y2838D01*
X-3672Y2837D01*
X-3682Y2826D01*
X-3690Y2814D01*
X-3698Y2801D01*
X-3703Y2788D01*
X-3707Y2777D01*
X-3710Y2768D01*
X-3710Y2764D01*
Y2762D01*
X-3711Y2761D01*
Y2760D01*
X-3814Y2789D01*
X-3810Y2804D01*
X-3806Y2818D01*
X-3801Y2831D01*
X-3796Y2844D01*
X-3791Y2855D01*
X-3786Y2865D01*
X-3781Y2873D01*
X-3776Y2882D01*
X-3772Y2889D01*
X-3767Y2896D01*
X-3763Y2901D01*
X-3759Y2906D01*
X-3757Y2909D01*
X-3755Y2911D01*
X-3754Y2913D01*
X-3753D01*
X-3742Y2923D01*
X-3730Y2933D01*
X-3718Y2941D01*
X-3706Y2948D01*
X-3694Y2954D01*
X-3682Y2958D01*
X-3659Y2966D01*
X-3649Y2969D01*
X-3639Y2970D01*
X-3631Y2971D01*
X-3624Y2972D01*
X-3617Y2973D01*
X-3609D01*
X-3589Y2972D01*
D02*
G37*
%LPC*%
G36*
X-1353Y2479D02*
X-1358D01*
X-1367Y2478D01*
X-1375Y2475D01*
X-1383Y2471D01*
X-1389Y2467D01*
X-1394Y2462D01*
X-1398Y2457D01*
X-1400Y2454D01*
X-1401Y2453D01*
X-1407Y2442D01*
X-1412Y2431D01*
X-1415Y2417D01*
X-1417Y2404D01*
X-1418Y2392D01*
X-1419Y2383D01*
Y2379D01*
Y2377D01*
Y2375D01*
Y2374D01*
X-1418Y2356D01*
X-1417Y2340D01*
X-1414Y2327D01*
X-1411Y2316D01*
X-1408Y2307D01*
X-1405Y2302D01*
X-1403Y2298D01*
X-1403Y2297D01*
X-1396Y2290D01*
X-1389Y2284D01*
X-1383Y2281D01*
X-1376Y2277D01*
X-1370Y2276D01*
X-1366Y2275D01*
X-1362D01*
X-1353Y2276D01*
X-1343Y2279D01*
X-1336Y2283D01*
X-1329Y2289D01*
X-1323Y2294D01*
X-1319Y2298D01*
X-1317Y2302D01*
X-1316Y2302D01*
X-1309Y2314D01*
X-1305Y2327D01*
X-1302Y2341D01*
X-1299Y2353D01*
X-1298Y2365D01*
X-1297Y2375D01*
Y2378D01*
Y2381D01*
Y2382D01*
Y2383D01*
X-1298Y2400D01*
X-1299Y2415D01*
X-1303Y2427D01*
X-1306Y2437D01*
X-1308Y2445D01*
X-1312Y2451D01*
X-1313Y2454D01*
X-1314Y2455D01*
X-1321Y2463D01*
X-1328Y2469D01*
X-1336Y2473D01*
X-1343Y2476D01*
X-1348Y2478D01*
X-1353Y2479D01*
D02*
G37*
G36*
X-844Y2662D02*
X-938D01*
X-947Y2662D01*
X-962D01*
X-969Y2661D01*
X-974D01*
X-979Y2660D01*
X-985Y2659D01*
X-989Y2658D01*
X-992Y2657D01*
X-993D01*
X-999Y2655D01*
X-1005Y2652D01*
X-1010Y2647D01*
X-1014Y2644D01*
X-1018Y2641D01*
X-1020Y2637D01*
X-1021Y2636D01*
X-1022Y2635D01*
X-1025Y2628D01*
X-1028Y2622D01*
X-1031Y2607D01*
X-1032Y2601D01*
X-1033Y2596D01*
Y2592D01*
Y2592D01*
X-1032Y2582D01*
X-1031Y2573D01*
X-1029Y2565D01*
X-1028Y2559D01*
X-1025Y2553D01*
X-1023Y2550D01*
X-1023Y2547D01*
X-1022Y2547D01*
X-1018Y2541D01*
X-1013Y2536D01*
X-1008Y2532D01*
X-1003Y2529D01*
X-999Y2527D01*
X-997Y2525D01*
X-994Y2524D01*
X-993D01*
X-989Y2523D01*
X-985Y2522D01*
X-974Y2522D01*
X-960Y2520D01*
X-947D01*
X-934Y2519D01*
X-844D01*
Y2662D01*
D02*
G37*
G36*
X-2688Y-3895D02*
X-2749D01*
X-2765Y-3895D01*
X-2778Y-3896D01*
X-2789Y-3897D01*
X-2796Y-3898D01*
X-2801Y-3899D01*
X-2804Y-3900D01*
X-2805D01*
X-2814Y-3903D01*
X-2823Y-3906D01*
X-2830Y-3911D01*
X-2837Y-3915D01*
X-2842Y-3920D01*
X-2846Y-3924D01*
X-2849Y-3926D01*
X-2849Y-3927D01*
X-2856Y-3935D01*
X-2861Y-3945D01*
X-2866Y-3955D01*
X-2869Y-3964D01*
X-2873Y-3972D01*
X-2874Y-3979D01*
X-2876Y-3983D01*
Y-3984D01*
Y-3985D01*
X-2879Y-3999D01*
X-2881Y-4015D01*
X-2883Y-4031D01*
X-2884Y-4047D01*
Y-4061D01*
X-2885Y-4067D01*
Y-4073D01*
Y-4077D01*
Y-4080D01*
Y-4082D01*
Y-4083D01*
Y-4105D01*
X-2883Y-4124D01*
X-2883Y-4140D01*
X-2881Y-4155D01*
X-2879Y-4165D01*
X-2878Y-4174D01*
X-2877Y-4179D01*
X-2876Y-4180D01*
Y-4180D01*
X-2873Y-4193D01*
X-2869Y-4205D01*
X-2865Y-4214D01*
X-2862Y-4221D01*
X-2859Y-4227D01*
X-2857Y-4231D01*
X-2855Y-4234D01*
X-2854Y-4235D01*
X-2844Y-4245D01*
X-2833Y-4253D01*
X-2829Y-4256D01*
X-2825Y-4258D01*
X-2823Y-4259D01*
X-2822Y-4260D01*
X-2814Y-4262D01*
X-2804Y-4265D01*
X-2793Y-4266D01*
X-2782Y-4267D01*
X-2772D01*
X-2764Y-4268D01*
X-2688D01*
Y-3895D01*
D02*
G37*
G36*
X-2648Y-1803D02*
X-2691Y-1846D01*
X-2702Y-1858D01*
X-2710Y-1868D01*
X-2717Y-1876D01*
X-2722Y-1882D01*
X-2725Y-1886D01*
X-2727Y-1889D01*
X-2727Y-1890D01*
X-2731Y-1899D01*
X-2735Y-1907D01*
X-2737Y-1916D01*
X-2738Y-1923D01*
Y-1930D01*
X-2739Y-1936D01*
Y-1939D01*
Y-1940D01*
X-2738Y-1951D01*
X-2735Y-1961D01*
X-2731Y-1972D01*
X-2727Y-1980D01*
X-2724Y-1989D01*
X-2720Y-1995D01*
X-2718Y-1999D01*
X-2718Y-1999D01*
X-2717Y-2000D01*
X-2710Y-2012D01*
X-2699Y-2025D01*
X-2689Y-2038D01*
X-2679Y-2050D01*
X-2669Y-2060D01*
X-2665Y-2065D01*
X-2661Y-2069D01*
X-2658Y-2072D01*
X-2656Y-2074D01*
X-2655Y-2075D01*
X-2654Y-2076D01*
X-2639Y-2091D01*
X-2624Y-2104D01*
X-2612Y-2115D01*
X-2601Y-2124D01*
X-2592Y-2130D01*
X-2585Y-2135D01*
X-2580Y-2138D01*
X-2579D01*
X-2579Y-2138D01*
X-2568Y-2145D01*
X-2557Y-2151D01*
X-2547Y-2154D01*
X-2540Y-2157D01*
X-2534Y-2160D01*
X-2529Y-2161D01*
X-2526Y-2161D01*
X-2525D01*
X-2510Y-2162D01*
X-2497Y-2160D01*
X-2492Y-2158D01*
X-2488Y-2157D01*
X-2486Y-2156D01*
X-2484D01*
X-2477Y-2152D01*
X-2468Y-2147D01*
X-2459Y-2140D01*
X-2451Y-2133D01*
X-2444Y-2126D01*
X-2438Y-2121D01*
X-2384Y-2067D01*
X-2648Y-1803D01*
D02*
G37*
G36*
X-3013Y-2221D02*
X-2911Y-2414D01*
X-2821Y-2324D01*
X-3013Y-2221D01*
D02*
G37*
G36*
X-6067Y2620D02*
X-6166D01*
X-6176Y2619D01*
X-6185D01*
X-6194Y2618D01*
X-6206D01*
X-6211Y2617D01*
X-6216D01*
X-6221Y2616D01*
X-6224Y2615D01*
X-6225D01*
X-6231Y2614D01*
X-6237Y2610D01*
X-6246Y2602D01*
X-6250Y2599D01*
X-6253Y2596D01*
X-6254Y2594D01*
X-6255Y2593D01*
X-6259Y2587D01*
X-6262Y2579D01*
X-6266Y2565D01*
X-6267Y2559D01*
X-6267Y2554D01*
Y2551D01*
Y2550D01*
X-6267Y2539D01*
X-6265Y2528D01*
X-6263Y2520D01*
X-6260Y2513D01*
X-6256Y2507D01*
X-6255Y2504D01*
X-6253Y2501D01*
X-6252Y2500D01*
X-6246Y2494D01*
X-6239Y2489D01*
X-6232Y2485D01*
X-6226Y2482D01*
X-6220Y2480D01*
X-6216Y2479D01*
X-6212Y2479D01*
X-6207D01*
X-6204Y2478D01*
X-6181D01*
X-6168Y2477D01*
X-6067D01*
Y2620D01*
D02*
G37*
G36*
Y2372D02*
X-6173D01*
X-6183Y2371D01*
X-6192D01*
X-6207Y2369D01*
X-6219Y2369D01*
X-6228Y2367D01*
X-6233Y2365D01*
X-6237Y2364D01*
X-6238D01*
X-6245Y2360D01*
X-6253Y2357D01*
X-6258Y2352D01*
X-6263Y2347D01*
X-6267Y2343D01*
X-6269Y2340D01*
X-6271Y2337D01*
X-6272Y2336D01*
X-6277Y2329D01*
X-6280Y2320D01*
X-6282Y2312D01*
X-6284Y2304D01*
X-6285Y2297D01*
X-6286Y2292D01*
Y2287D01*
Y2286D01*
X-6285Y2276D01*
X-6284Y2266D01*
X-6282Y2258D01*
X-6279Y2251D01*
X-6277Y2245D01*
X-6275Y2241D01*
X-6274Y2238D01*
X-6273Y2237D01*
X-6268Y2231D01*
X-6263Y2225D01*
X-6258Y2221D01*
X-6254Y2217D01*
X-6249Y2214D01*
X-6245Y2212D01*
X-6243Y2211D01*
X-6242D01*
X-6239Y2210D01*
X-6234Y2210D01*
X-6222Y2208D01*
X-6209Y2207D01*
X-6195Y2206D01*
X-6183Y2205D01*
X-6067D01*
Y2372D01*
D02*
G37*
G36*
X-1881Y-4382D02*
X-1942D01*
X-1959Y-4382D01*
X-1971Y-4383D01*
X-1982Y-4384D01*
X-1990Y-4385D01*
X-1995Y-4386D01*
X-1998Y-4387D01*
X-1999D01*
X-2008Y-4390D01*
X-2016Y-4393D01*
X-2024Y-4398D01*
X-2030Y-4402D01*
X-2035Y-4407D01*
X-2039Y-4411D01*
X-2042Y-4413D01*
X-2043Y-4414D01*
X-2049Y-4422D01*
X-2054Y-4432D01*
X-2059Y-4442D01*
X-2063Y-4451D01*
X-2066Y-4459D01*
X-2068Y-4466D01*
X-2069Y-4470D01*
Y-4471D01*
Y-4472D01*
X-2073Y-4486D01*
X-2074Y-4502D01*
X-2076Y-4518D01*
X-2078Y-4534D01*
Y-4548D01*
X-2079Y-4554D01*
Y-4560D01*
Y-4564D01*
Y-4567D01*
Y-4569D01*
Y-4570D01*
Y-4592D01*
X-2077Y-4611D01*
X-2076Y-4627D01*
X-2074Y-4641D01*
X-2073Y-4652D01*
X-2071Y-4661D01*
X-2070Y-4666D01*
X-2069Y-4666D01*
Y-4667D01*
X-2066Y-4680D01*
X-2063Y-4691D01*
X-2059Y-4701D01*
X-2055Y-4708D01*
X-2053Y-4714D01*
X-2050Y-4718D01*
X-2049Y-4721D01*
X-2048Y-4721D01*
X-2038Y-4732D01*
X-2027Y-4740D01*
X-2022Y-4743D01*
X-2019Y-4745D01*
X-2016Y-4746D01*
X-2015Y-4746D01*
X-2007Y-4749D01*
X-1997Y-4751D01*
X-1986Y-4753D01*
X-1975Y-4754D01*
X-1965D01*
X-1958Y-4755D01*
X-1881D01*
Y-4382D01*
D02*
G37*
G36*
X2781Y-3805D02*
X2682D01*
X2672Y-3806D01*
X2663D01*
X2655Y-3806D01*
X2642D01*
X2637Y-3807D01*
X2632D01*
X2627Y-3808D01*
X2624Y-3809D01*
X2623D01*
X2617Y-3811D01*
X2611Y-3815D01*
X2602Y-3822D01*
X2598Y-3826D01*
X2595Y-3829D01*
X2595Y-3830D01*
X2594Y-3831D01*
X2589Y-3838D01*
X2586Y-3845D01*
X2582Y-3859D01*
X2582Y-3866D01*
X2581Y-3870D01*
Y-3874D01*
Y-3875D01*
X2582Y-3886D01*
X2583Y-3896D01*
X2585Y-3904D01*
X2588Y-3912D01*
X2592Y-3917D01*
X2594Y-3921D01*
X2595Y-3924D01*
X2596Y-3925D01*
X2602Y-3930D01*
X2609Y-3936D01*
X2616Y-3940D01*
X2622Y-3942D01*
X2628Y-3944D01*
X2632Y-3945D01*
X2636Y-3946D01*
X2641D01*
X2644Y-3947D01*
X2668D01*
X2680Y-3948D01*
X2781D01*
Y-3805D01*
D02*
G37*
G36*
Y-4052D02*
X2675D01*
X2665Y-4053D01*
X2656D01*
X2641Y-4055D01*
X2629Y-4056D01*
X2620Y-4058D01*
X2615Y-4060D01*
X2611Y-4061D01*
X2610D01*
X2603Y-4064D01*
X2595Y-4068D01*
X2590Y-4073D01*
X2585Y-4077D01*
X2582Y-4082D01*
X2579Y-4085D01*
X2577Y-4087D01*
X2576Y-4088D01*
X2571Y-4096D01*
X2568Y-4104D01*
X2566Y-4112D01*
X2564Y-4121D01*
X2563Y-4127D01*
X2562Y-4133D01*
Y-4137D01*
Y-4138D01*
X2563Y-4149D01*
X2564Y-4159D01*
X2566Y-4167D01*
X2569Y-4173D01*
X2571Y-4180D01*
X2573Y-4184D01*
X2574Y-4186D01*
X2575Y-4187D01*
X2580Y-4194D01*
X2585Y-4199D01*
X2590Y-4204D01*
X2595Y-4208D01*
X2599Y-4210D01*
X2603Y-4212D01*
X2605Y-4213D01*
X2606D01*
X2609Y-4214D01*
X2614Y-4215D01*
X2626Y-4217D01*
X2639Y-4218D01*
X2653Y-4219D01*
X2665Y-4220D01*
X2781D01*
Y-4052D01*
D02*
G37*
G36*
X3573Y-2523D02*
X3512D01*
X3495Y-2523D01*
X3483Y-2524D01*
X3472Y-2525D01*
X3464Y-2526D01*
X3459Y-2527D01*
X3456Y-2528D01*
X3455D01*
X3446Y-2531D01*
X3438Y-2534D01*
X3430Y-2539D01*
X3424Y-2543D01*
X3419Y-2548D01*
X3414Y-2552D01*
X3412Y-2554D01*
X3411Y-2555D01*
X3404Y-2563D01*
X3399Y-2573D01*
X3394Y-2583D01*
X3391Y-2592D01*
X3388Y-2600D01*
X3386Y-2607D01*
X3384Y-2611D01*
Y-2612D01*
Y-2613D01*
X3381Y-2627D01*
X3379Y-2643D01*
X3378Y-2659D01*
X3376Y-2675D01*
Y-2689D01*
X3375Y-2695D01*
Y-2701D01*
Y-2705D01*
Y-2708D01*
Y-2710D01*
Y-2711D01*
Y-2733D01*
X3377Y-2752D01*
X3378Y-2768D01*
X3379Y-2783D01*
X3381Y-2793D01*
X3383Y-2802D01*
X3384Y-2807D01*
X3384Y-2808D01*
Y-2808D01*
X3388Y-2821D01*
X3391Y-2833D01*
X3395Y-2842D01*
X3399Y-2849D01*
X3401Y-2855D01*
X3404Y-2859D01*
X3405Y-2862D01*
X3406Y-2863D01*
X3416Y-2873D01*
X3427Y-2881D01*
X3432Y-2884D01*
X3435Y-2886D01*
X3438Y-2887D01*
X3439Y-2888D01*
X3447Y-2890D01*
X3457Y-2893D01*
X3468Y-2894D01*
X3479Y-2895D01*
X3489D01*
X3496Y-2896D01*
X3573D01*
Y-2523D01*
D02*
G37*
G36*
X1343Y2826D02*
X1200D01*
Y2733D01*
X1200Y2724D01*
Y2709D01*
X1201Y2702D01*
Y2697D01*
X1202Y2692D01*
X1203Y2686D01*
X1204Y2681D01*
X1205Y2679D01*
Y2678D01*
X1207Y2671D01*
X1210Y2666D01*
X1215Y2661D01*
X1218Y2656D01*
X1221Y2653D01*
X1225Y2651D01*
X1226Y2650D01*
X1227Y2649D01*
X1234Y2646D01*
X1240Y2642D01*
X1255Y2640D01*
X1261Y2639D01*
X1266Y2638D01*
X1270D01*
X1270D01*
X1280Y2639D01*
X1289Y2640D01*
X1297Y2641D01*
X1303Y2643D01*
X1309Y2646D01*
X1312Y2647D01*
X1315Y2648D01*
X1315Y2649D01*
X1321Y2653D01*
X1326Y2658D01*
X1330Y2662D01*
X1333Y2667D01*
X1335Y2671D01*
X1337Y2674D01*
X1338Y2676D01*
Y2677D01*
X1339Y2681D01*
X1340Y2686D01*
X1340Y2697D01*
X1342Y2711D01*
Y2724D01*
X1343Y2737D01*
Y2826D01*
D02*
G37*
G36*
X-111Y-2679D02*
X-270D01*
Y-2782D01*
X-269Y-2792D01*
Y-2809D01*
X-268Y-2816D01*
Y-2822D01*
X-267Y-2827D01*
X-266Y-2835D01*
X-265Y-2839D01*
X-264Y-2842D01*
Y-2843D01*
X-261Y-2851D01*
X-258Y-2857D01*
X-253Y-2863D01*
X-249Y-2867D01*
X-246Y-2871D01*
X-242Y-2874D01*
X-240Y-2875D01*
X-239Y-2875D01*
X-232Y-2879D01*
X-224Y-2883D01*
X-209Y-2886D01*
X-201Y-2887D01*
X-196Y-2888D01*
X-192D01*
X-191D01*
X-180Y-2887D01*
X-171Y-2886D01*
X-161Y-2884D01*
X-155Y-2882D01*
X-148Y-2879D01*
X-145Y-2877D01*
X-142Y-2876D01*
X-141Y-2875D01*
X-135Y-2871D01*
X-129Y-2865D01*
X-125Y-2861D01*
X-122Y-2855D01*
X-119Y-2851D01*
X-117Y-2848D01*
X-116Y-2845D01*
Y-2844D01*
X-115Y-2839D01*
X-114Y-2835D01*
X-113Y-2822D01*
X-112Y-2807D01*
Y-2792D01*
X-111Y-2777D01*
Y-2679D01*
D02*
G37*
G36*
X-4055Y2654D02*
X-4060D01*
X-4070Y2653D01*
X-4079Y2650D01*
X-4088Y2645D01*
X-4095Y2640D01*
X-4101Y2635D01*
X-4104Y2630D01*
X-4107Y2627D01*
X-4108Y2626D01*
X-4115Y2614D01*
X-4120Y2601D01*
X-4124Y2586D01*
X-4126Y2571D01*
X-4127Y2558D01*
X-4128Y2548D01*
Y2543D01*
Y2541D01*
Y2539D01*
Y2538D01*
X-4127Y2517D01*
X-4126Y2500D01*
X-4123Y2485D01*
X-4119Y2473D01*
X-4115Y2464D01*
X-4113Y2457D01*
X-4111Y2454D01*
X-4110Y2453D01*
X-4103Y2444D01*
X-4095Y2438D01*
X-4088Y2434D01*
X-4080Y2431D01*
X-4074Y2429D01*
X-4069Y2428D01*
X-4065D01*
X-4054Y2429D01*
X-4044Y2432D01*
X-4036Y2437D01*
X-4029Y2443D01*
X-4022Y2449D01*
X-4017Y2454D01*
X-4015Y2457D01*
X-4014Y2458D01*
X-4006Y2471D01*
X-4002Y2486D01*
X-3998Y2501D01*
X-3995Y2515D01*
X-3993Y2528D01*
X-3992Y2539D01*
Y2542D01*
Y2545D01*
Y2547D01*
Y2548D01*
X-3993Y2566D01*
X-3995Y2583D01*
X-3999Y2596D01*
X-4003Y2607D01*
X-4005Y2616D01*
X-4009Y2623D01*
X-4011Y2627D01*
X-4012Y2627D01*
X-4019Y2637D01*
X-4028Y2643D01*
X-4036Y2648D01*
X-4043Y2651D01*
X-4050Y2653D01*
X-4055Y2654D01*
D02*
G37*
%LPD*%
D11*
X-1426Y1793D02*
G03*
X-1426Y1793I-100J0D01*
G01*
X2154Y3900D02*
Y5800D01*
X3804Y3900D02*
Y5800D01*
X2179Y4675D02*
X3804D01*
X5564Y3608D02*
X5782Y3004D01*
X2682Y2558D02*
X2903Y1956D01*
D52*
X3704Y3675D02*
G03*
X3711Y3675I0J-70D01*
G01*
M02*
