G04*
G04 #@! TF.GenerationSoftware,Altium Limited,Altium Designer,22.11.1 (43)*
G04*
G04 Layer_Physical_Order=4*
G04 Layer_Color=16711680*
%FSLAX43Y43*%
%MOMM*%
G71*
G04*
G04 #@! TF.SameCoordinates,FB5CEF4A-B6EA-44A6-96C9-558EDDA3D9AB*
G04*
G04*
G04 #@! TF.FilePolarity,Positive*
G04*
G01*
G75*
%ADD11C,0.200*%
G04:AMPARAMS|DCode=26|XSize=0.59mm|YSize=0.6mm|CornerRadius=0.074mm|HoleSize=0mm|Usage=FLASHONLY|Rotation=180.000|XOffset=0mm|YOffset=0mm|HoleType=Round|Shape=RoundedRectangle|*
%AMROUNDEDRECTD26*
21,1,0.590,0.453,0,0,180.0*
21,1,0.443,0.600,0,0,180.0*
1,1,0.148,-0.221,0.226*
1,1,0.148,0.221,0.226*
1,1,0.148,0.221,-0.226*
1,1,0.148,-0.221,-0.226*
%
%ADD26ROUNDEDRECTD26*%
G04:AMPARAMS|DCode=27|XSize=0.61mm|YSize=0.6mm|CornerRadius=0.075mm|HoleSize=0mm|Usage=FLASHONLY|Rotation=180.000|XOffset=0mm|YOffset=0mm|HoleType=Round|Shape=RoundedRectangle|*
%AMROUNDEDRECTD27*
21,1,0.610,0.450,0,0,180.0*
21,1,0.460,0.600,0,0,180.0*
1,1,0.150,-0.230,0.225*
1,1,0.150,0.230,0.225*
1,1,0.150,0.230,-0.225*
1,1,0.150,-0.230,-0.225*
%
%ADD27ROUNDEDRECTD27*%
G04:AMPARAMS|DCode=29|XSize=0.61mm|YSize=0.6mm|CornerRadius=0.075mm|HoleSize=0mm|Usage=FLASHONLY|Rotation=90.000|XOffset=0mm|YOffset=0mm|HoleType=Round|Shape=RoundedRectangle|*
%AMROUNDEDRECTD29*
21,1,0.610,0.450,0,0,90.0*
21,1,0.460,0.600,0,0,90.0*
1,1,0.150,0.225,0.230*
1,1,0.150,0.225,-0.230*
1,1,0.150,-0.225,-0.230*
1,1,0.150,-0.225,0.230*
%
%ADD29ROUNDEDRECTD29*%
%ADD31C,0.125*%
%ADD32C,0.300*%
%ADD33C,0.500*%
%ADD34C,0.600*%
%ADD35C,0.500*%
G04:AMPARAMS|DCode=36|XSize=1mm|YSize=0.58mm|CornerRadius=0.072mm|HoleSize=0mm|Usage=FLASHONLY|Rotation=270.000|XOffset=0mm|YOffset=0mm|HoleType=Round|Shape=RoundedRectangle|*
%AMROUNDEDRECTD36*
21,1,1.000,0.435,0,0,270.0*
21,1,0.855,0.580,0,0,270.0*
1,1,0.145,-0.217,-0.428*
1,1,0.145,-0.217,0.428*
1,1,0.145,0.217,0.428*
1,1,0.145,0.217,-0.428*
%
%ADD36ROUNDEDRECTD36*%
G04:AMPARAMS|DCode=37|XSize=0.94mm|YSize=0.95mm|CornerRadius=0.118mm|HoleSize=0mm|Usage=FLASHONLY|Rotation=20.000|XOffset=0mm|YOffset=0mm|HoleType=Round|Shape=RoundedRectangle|*
%AMROUNDEDRECTD37*
21,1,0.940,0.715,0,0,20.0*
21,1,0.705,0.950,0,0,20.0*
1,1,0.235,0.454,-0.215*
1,1,0.235,-0.209,-0.457*
1,1,0.235,-0.454,0.215*
1,1,0.235,0.209,0.457*
%
%ADD37ROUNDEDRECTD37*%
%ADD38C,0.900*%
%ADD39R,0.430X0.230*%
%ADD40R,2.740X1.800*%
G04:AMPARAMS|DCode=41|XSize=0.74mm|YSize=0.32mm|CornerRadius=0.013mm|HoleSize=0mm|Usage=FLASHONLY|Rotation=90.000|XOffset=0mm|YOffset=0mm|HoleType=Round|Shape=RoundedRectangle|*
%AMROUNDEDRECTD41*
21,1,0.740,0.294,0,0,90.0*
21,1,0.714,0.320,0,0,90.0*
1,1,0.026,0.147,0.357*
1,1,0.026,0.147,-0.357*
1,1,0.026,-0.147,-0.357*
1,1,0.026,-0.147,0.357*
%
%ADD41ROUNDEDRECTD41*%
G04:AMPARAMS|DCode=42|XSize=1.2mm|YSize=2.7mm|CornerRadius=0.15mm|HoleSize=0mm|Usage=FLASHONLY|Rotation=0.000|XOffset=0mm|YOffset=0mm|HoleType=Round|Shape=RoundedRectangle|*
%AMROUNDEDRECTD42*
21,1,1.200,2.400,0,0,0.0*
21,1,0.900,2.700,0,0,0.0*
1,1,0.300,0.450,-1.200*
1,1,0.300,-0.450,-1.200*
1,1,0.300,-0.450,1.200*
1,1,0.300,0.450,1.200*
%
%ADD42ROUNDEDRECTD42*%
%ADD43C,0.250*%
%ADD44C,0.750*%
%ADD45C,0.450*%
G36*
X-2212Y-5250D02*
X-1600D01*
Y-5500D01*
X-1350D01*
Y-6100D01*
X-1272Y-6068D01*
X-1264Y-6061D01*
X-1150Y-6118D01*
Y-6956D01*
X-1248Y-7037D01*
X-1738Y-6939D01*
X-2410Y-6736D01*
X-3059Y-6467D01*
X-3678Y-6136D01*
X-4261Y-5746D01*
X-4682Y-5401D01*
Y-5238D01*
X-4579Y-5168D01*
X-3825Y-5168D01*
X-3593Y-5549D01*
X-3285Y-5696D01*
X-2798Y-5698D01*
X-2713Y-5522D01*
X-2636Y-5464D01*
X-2532Y-5328D01*
X-2490Y-5226D01*
X-2299Y-5158D01*
X-2212Y-5250D01*
D02*
G37*
G36*
X3351Y-5600D02*
X3429Y-5568D01*
X3565Y-5464D01*
X3669Y-5328D01*
X3734Y-5170D01*
X3742Y-5112D01*
X3872Y-5094D01*
X4174Y-5804D01*
X3678Y-6136D01*
X3059Y-6467D01*
X2410Y-6736D01*
X1726Y-6943D01*
X1721Y-6946D01*
X1489Y-6987D01*
X1392Y-6905D01*
X1392Y-6449D01*
X1454Y-6366D01*
X2287Y-5945D01*
Y-5032D01*
X2321Y-5012D01*
X2456Y-5077D01*
X2468Y-5170D01*
X2533Y-5328D01*
X2637Y-5464D01*
X2773Y-5568D01*
X2851Y-5600D01*
Y-5000D01*
X3351D01*
Y-5600D01*
D02*
G37*
G36*
X6899Y-1873D02*
X6736Y-2410D01*
X6467Y-3059D01*
X6136Y-3678D01*
X5746Y-4261D01*
X5621Y-4413D01*
X5005D01*
X4899Y-4308D01*
X4751Y-4222D01*
X4586Y-4178D01*
X4414D01*
X4249Y-4222D01*
X4101Y-4308D01*
X4031Y-4377D01*
X3714Y-4060D01*
Y-2363D01*
X3897Y-2180D01*
X4259Y-2251D01*
X4284Y-2251D01*
X4309Y-2255D01*
X4506Y-2255D01*
X4506Y-2255D01*
X4703Y-2254D01*
X4727Y-2249D01*
X4752Y-2249D01*
X5138Y-2172D01*
X5161Y-2162D01*
X5186Y-2157D01*
X5549Y-2006D01*
X5569Y-1992D01*
X5593Y-1982D01*
X5908Y-1771D01*
X6823D01*
X6899Y-1873D01*
D02*
G37*
G36*
X1050Y7076D02*
X1738Y6939D01*
X2410Y6736D01*
X2639Y6641D01*
X2648Y6573D01*
X2639Y6503D01*
X2565Y6454D01*
X2505Y6364D01*
X2484Y6258D01*
Y5930D01*
X2979D01*
Y5830D01*
X3079D01*
Y5125D01*
X3129D01*
Y4969D01*
X2825Y4475D01*
X2761D01*
X2655Y4454D01*
X2655Y4454D01*
X2100D01*
Y4545D01*
X1293D01*
Y4920D01*
X918D01*
Y6477D01*
X843D01*
X820Y6472D01*
X693Y6577D01*
Y7017D01*
X787Y7102D01*
X1050Y7076D01*
D02*
G37*
%LPC*%
G36*
X-1850Y-5750D02*
X-2200D01*
X-2168Y-5828D01*
X-2064Y-5964D01*
X-1928Y-6068D01*
X-1850Y-6100D01*
Y-5750D01*
D02*
G37*
G36*
X5350Y-2894D02*
Y-3250D01*
X5706D01*
X5706Y-3249D01*
X5620Y-3101D01*
X5499Y-2980D01*
X5351Y-2894D01*
X5350Y-2894D01*
D02*
G37*
G36*
X4850Y-2894D02*
X4849Y-2894D01*
X4701Y-2980D01*
X4580Y-3101D01*
X4494Y-3249D01*
X4494Y-3250D01*
X4850D01*
Y-2894D01*
D02*
G37*
G36*
Y-3750D02*
X4494D01*
X4494Y-3751D01*
X4580Y-3899D01*
X4701Y-4020D01*
X4849Y-4106D01*
X4850Y-4106D01*
Y-3750D01*
D02*
G37*
G36*
X5706D02*
X5350D01*
Y-4106D01*
X5351Y-4106D01*
X5499Y-4020D01*
X5620Y-3899D01*
X5706Y-3751D01*
X5706Y-3750D01*
D02*
G37*
G36*
X1743Y6477D02*
X1668D01*
Y5295D01*
X2100D01*
Y6120D01*
X2073Y6257D01*
X1995Y6372D01*
X1880Y6450D01*
X1743Y6477D01*
D02*
G37*
G36*
X2879Y5730D02*
X2484D01*
Y5403D01*
X2505Y5296D01*
X2565Y5206D01*
X2655Y5146D01*
X2761Y5125D01*
X2879D01*
Y5730D01*
D02*
G37*
%LPD*%
D11*
X39Y39D02*
X77D01*
X-325Y-325D02*
X39Y39D01*
X233Y-325D02*
X1540D01*
X-235Y-397D02*
Y-325D01*
X-1540D02*
X-325D01*
X-235Y-397D02*
X-116Y-516D01*
X-100Y-532D02*
X-46D01*
X325Y325D02*
X1540D01*
X4974Y3083D02*
X5184Y2873D01*
Y2434D02*
X5392Y2227D01*
X5820D02*
X5820Y2227D01*
X5184Y2434D02*
Y2873D01*
X5392Y2227D02*
X5820D01*
X3840Y3901D02*
X4366D01*
X4806Y3290D02*
Y3461D01*
X4366Y3901D02*
X4806Y3461D01*
X-1913Y2609D02*
X-1913D01*
X-1925Y2620D02*
X-1913Y2609D01*
X-1540Y325D02*
X-256D01*
X2276Y6446D02*
X2321Y6490D01*
X3589Y3650D02*
X3840Y3901D01*
X3029Y3650D02*
X3589D01*
D26*
X-1925Y2620D02*
D03*
X-2950D02*
D03*
D27*
X675Y2453D02*
D03*
X-325D02*
D03*
D29*
X-32Y-4895D02*
D03*
Y-3895D02*
D03*
X2070Y2694D02*
D03*
Y1694D02*
D03*
D31*
X-5560Y2553D02*
X-4554D01*
X2055Y-1736D02*
Y-770D01*
X2773Y1893D02*
X2802D01*
X3445Y2536D02*
X3471D01*
X2802Y1893D02*
X3445Y2536D01*
X423Y1617D02*
Y1910D01*
X552Y2039D02*
Y2227D01*
X675Y2350D01*
X325Y1520D02*
X423Y1617D01*
Y1910D02*
X552Y2039D01*
X1600Y-5263D02*
X1842Y-5021D01*
Y-5020D02*
X2442Y-4420D01*
Y-3689D01*
X1600Y-5500D02*
Y-5263D01*
X1842Y-5021D02*
Y-5020D01*
X0Y-6200D02*
X592Y-5608D01*
Y-4593D02*
X1013Y-4172D01*
X592Y-5608D02*
Y-4593D01*
X1274Y3042D02*
X1622Y2694D01*
X2070D01*
X-701Y-5057D02*
X-539Y-4895D01*
X-32D01*
X-965Y-5500D02*
X-701Y-5236D01*
Y-5057D01*
X-1600Y-5500D02*
X-965D01*
X350Y-2227D02*
X358Y-2235D01*
X350Y-2227D02*
X350Y-2227D01*
X350Y-2227D02*
X350Y-2227D01*
X328Y-2205D02*
X350Y-2227D01*
X2051Y1014D02*
Y1625D01*
X2115Y1689D01*
X-6911Y1202D02*
X-5560Y2553D01*
X-2077Y-1077D02*
Y849D01*
X-3333Y-2333D02*
X-2077Y-1077D01*
X-3333Y-2833D02*
Y-2333D01*
X-3500Y-3000D02*
X-3333Y-2833D01*
X2445Y-3686D02*
Y-3685D01*
X2442Y-3689D02*
X2445Y-3686D01*
Y-3685D02*
X2724Y-3406D01*
X-3100Y-5000D02*
X-2186Y-4086D01*
X-866D01*
X350Y-2227D02*
X358Y-2218D01*
X327Y-2249D02*
X350Y-2227D01*
X1596Y1689D02*
X2115D01*
Y1694D01*
X2724Y-3406D02*
Y-2405D01*
X2055Y-1736D02*
X2724Y-2405D01*
X-866Y-4086D02*
X-675Y-3895D01*
X-6911Y-1289D02*
X-5200Y-3000D01*
X-6911Y-1289D02*
Y1202D01*
X-325Y-2329D02*
Y-1450D01*
X-32Y-3895D02*
Y-2622D01*
X-325Y-2329D02*
X-32Y-2622D01*
X327Y-2249D02*
X344D01*
X358Y-2235D01*
X328Y-2205D02*
Y-1453D01*
X325Y-1450D02*
X328Y-1453D01*
X358Y-2235D02*
Y-2218D01*
X-675Y-3895D02*
X-32D01*
X1357Y1450D02*
X1596Y1689D01*
X975Y1450D02*
X1357D01*
X-325D02*
Y2368D01*
X-330Y2373D02*
X-325Y2368D01*
D32*
X-187Y580D02*
X-175Y592D01*
X-187Y325D02*
Y580D01*
X77Y39D02*
X325Y287D01*
Y325D01*
Y1440D01*
X2898Y4946D02*
X3029Y5076D01*
Y5950D01*
X2370Y5952D02*
X2372Y5950D01*
X3029D01*
X6011Y-3168D02*
Y-2894D01*
X6049Y-2856D01*
X5813Y-3366D02*
X6011Y-3168D01*
X5234Y-3366D02*
X5813D01*
X5100Y-3500D02*
X5234Y-3366D01*
D33*
X-4554Y2553D02*
D03*
X-175Y592D02*
D03*
X77Y39D02*
D03*
X2055Y-770D02*
D03*
X-46Y-532D02*
D03*
X2773Y1893D02*
D03*
X-2652Y-3584D02*
D03*
X1824Y-4303D02*
D03*
X1013Y-4172D02*
D03*
X2331Y4976D02*
D03*
X6490Y-2244D02*
D03*
X6754Y-1198D02*
D03*
X-1010Y-4602D02*
D03*
X2051Y1014D02*
D03*
X-1561Y5687D02*
D03*
X-41Y3240D02*
D03*
X1274Y3042D02*
D03*
X-43Y5515D02*
D03*
X-2077Y849D02*
D03*
X-2507Y1569D02*
D03*
X6049Y-2856D02*
D03*
X-3960Y-5591D02*
D03*
X3300Y-6016D02*
D03*
X-1800Y-6623D02*
D03*
X-2600Y-6354D02*
D03*
X-3300Y-6016D02*
D03*
X1800Y-6623D02*
D03*
X3836Y-5688D02*
D03*
X2600Y-6354D02*
D03*
X2321Y6490D02*
D03*
X-1115Y2886D02*
D03*
X5820Y2227D02*
D03*
X327Y-2249D02*
D03*
D34*
X-1676Y-1557D02*
D03*
D35*
X3101Y-5000D02*
G03*
X2691Y-5170I0J-579D01*
G01*
X3100Y-5001D02*
X3101Y-5000D01*
X2533Y-5328D02*
X2533D01*
X2691Y-5170D01*
X-1657Y-1538D02*
X-1065D01*
X-1676Y-1557D02*
X-1657Y-1538D01*
X1293Y4920D02*
X1308Y4935D01*
X1193Y5020D02*
X1293Y4920D01*
D36*
X2979Y5830D02*
D03*
Y3770D02*
D03*
D37*
X3471Y2536D02*
D03*
X4974Y3083D02*
D03*
D38*
X-3500Y-3000D02*
D03*
X-5200D02*
D03*
X0Y-6200D02*
D03*
X1600Y-5500D02*
D03*
X-3100Y-5000D02*
D03*
X-5200Y3400D02*
D03*
X3101Y-5000D02*
D03*
X-1600Y-5500D02*
D03*
X5100Y-3500D02*
D03*
D39*
X1560Y-325D02*
D03*
Y325D02*
D03*
X-1560Y-325D02*
D03*
Y325D02*
D03*
D40*
X0Y0D02*
D03*
D41*
X-975Y-1520D02*
D03*
X-325D02*
D03*
X325D02*
D03*
X975D02*
D03*
Y1520D02*
D03*
X325D02*
D03*
X-325D02*
D03*
X-975D02*
D03*
D42*
X-2907Y4920D02*
D03*
X1293D02*
D03*
D43*
X-2907Y3892D02*
X-2670D01*
X-2475Y3460D02*
Y3697D01*
X-2071Y2766D02*
X-1925Y2620D01*
X-2475Y3460D02*
X-2071Y3056D01*
Y2766D02*
Y3056D01*
X-2670Y3892D02*
X-2475Y3697D01*
X-2907Y3892D02*
Y4920D01*
X-1525Y1450D02*
X-975D01*
X-1925Y2597D02*
X-1913Y2609D01*
X-2962Y2024D02*
Y2608D01*
Y2024D02*
X-2507Y1569D01*
X-2962Y2608D02*
X-2950Y2620D01*
X-1925Y1850D02*
X-1525Y1450D01*
X-1925Y1850D02*
Y2597D01*
D44*
X-3648Y3429D02*
X-2907Y4170D01*
X-5171Y3429D02*
X-3648D01*
X-5200Y3400D02*
X-5171Y3429D01*
D45*
X-1800Y-6623D02*
Y-6609D01*
M02*
