G04*
G04 #@! TF.GenerationSoftware,Altium Limited,Altium Designer,22.11.1 (43)*
G04*
G04 Layer_Physical_Order=3*
G04 Layer_Color=204*
%FSLAX43Y43*%
%MOMM*%
G71*
G04*
G04 #@! TF.SameCoordinates,FB5CEF4A-B6EA-44A6-96C9-558EDDA3D9AB*
G04*
G04*
G04 #@! TF.FilePolarity,Positive*
G04*
G01*
G75*
%ADD11C,0.200*%
%ADD33C,0.500*%
%ADD34C,0.600*%
G36*
X380Y7142D02*
X386Y7140D01*
X416Y7117D01*
X474Y7035D01*
X478Y7018D01*
Y5773D01*
X351Y5734D01*
X281Y5839D01*
X132Y5939D01*
X-43Y5974D01*
X-219Y5939D01*
X-368Y5839D01*
X-467Y5691D01*
X-502Y5515D01*
X-467Y5339D01*
X-368Y5191D01*
X-219Y5091D01*
X-43Y5056D01*
X132Y5091D01*
X281Y5191D01*
X351Y5296D01*
X478Y5257D01*
Y3164D01*
X-1759Y1241D01*
X-1764Y1235D01*
X-1770Y1231D01*
X-1895Y1269D01*
X-1901Y1273D01*
X-1998Y1292D01*
X-2076Y1385D01*
X-2076Y1427D01*
X-2048Y1569D01*
X-2083Y1745D01*
X-2183Y1893D01*
X-2331Y1993D01*
X-2507Y2028D01*
X-2683Y1993D01*
X-2831Y1893D01*
X-2909Y1777D01*
X-3009Y1745D01*
X-3015Y1744D01*
X-3060Y1744D01*
X-3066Y1748D01*
X-3083Y1765D01*
X-3411Y1984D01*
X-3434Y1994D01*
X-3455Y2008D01*
X-3819Y2159D01*
X-3844Y2164D01*
X-3867Y2173D01*
X-4108Y2221D01*
X-4156Y2338D01*
X-4130Y2377D01*
X-4095Y2553D01*
X-4130Y2729D01*
X-4230Y2877D01*
X-4378Y2977D01*
X-4554Y3012D01*
X-4730Y2977D01*
X-4878Y2877D01*
X-4978Y2729D01*
X-5013Y2553D01*
X-4978Y2377D01*
X-4953Y2340D01*
X-5011Y2198D01*
X-5138Y2173D01*
X-5161Y2163D01*
X-5186Y2158D01*
X-5549Y2008D01*
X-5570Y1994D01*
X-5594Y1984D01*
X-5921Y1765D01*
X-5938Y1747D01*
X-5959Y1733D01*
X-6237Y1455D01*
X-6251Y1434D01*
X-6269Y1416D01*
X-6487Y1088D01*
X-6497Y1065D01*
X-6510Y1044D01*
X-6660Y680D01*
X-6665Y655D01*
X-6675Y632D01*
X-6751Y246D01*
X-6751Y221D01*
X-6755Y196D01*
X-6755Y-1D01*
X-6755Y-1D01*
X-6755Y-197D01*
X-6750Y-222D01*
X-6750Y-247D01*
X-6673Y-634D01*
X-6663Y-657D01*
X-6658Y-682D01*
X-6507Y-1047D01*
X-6493Y-1067D01*
X-6483Y-1091D01*
X-6264Y-1419D01*
X-6246Y-1436D01*
X-6232Y-1457D01*
X-5953Y-1736D01*
X-5932Y-1750D01*
X-5914Y-1768D01*
X-5585Y-1986D01*
X-5562Y-1996D01*
X-5541Y-2010D01*
X-5176Y-2160D01*
X-5152Y-2165D01*
X-5128Y-2175D01*
X-4741Y-2251D01*
X-4716Y-2251D01*
X-4691Y-2255D01*
X-4494Y-2255D01*
X-4494Y-2255D01*
X-4297Y-2254D01*
X-4273Y-2249D01*
X-4248Y-2249D01*
X-3862Y-2172D01*
X-3839Y-2162D01*
X-3814Y-2157D01*
X-3451Y-2006D01*
X-3431Y-1992D01*
X-3407Y-1982D01*
X-3081Y-1763D01*
X-3063Y-1745D01*
X-3042Y-1732D01*
X-2765Y-1453D01*
X-2751Y-1432D01*
X-2733Y-1414D01*
X-2515Y-1087D01*
X-2505Y-1064D01*
X-2491Y-1043D01*
X-2466Y-982D01*
X-2339Y-1007D01*
Y-1997D01*
X-2323Y-2075D01*
X-2279Y-2141D01*
X-2257Y-2156D01*
X-2228Y-2284D01*
X-2232Y-2311D01*
X-2263Y-2342D01*
X-2277Y-2363D01*
X-2294Y-2380D01*
X-2376Y-2503D01*
X-2386Y-2526D01*
X-2400Y-2547D01*
X-2457Y-2684D01*
X-2461Y-2708D01*
X-2471Y-2732D01*
X-2500Y-2876D01*
X-2500Y-2902D01*
X-2505Y-2926D01*
X-2505Y-3000D01*
X-2505Y-3074D01*
X-2500Y-3098D01*
X-2500Y-3124D01*
X-2471Y-3269D01*
X-2461Y-3292D01*
X-2457Y-3316D01*
X-2400Y-3453D01*
X-2386Y-3474D01*
X-2376Y-3497D01*
X-2294Y-3620D01*
X-2277Y-3638D01*
X-2263Y-3658D01*
X-2158Y-3763D01*
X-2137Y-3777D01*
X-2120Y-3795D01*
X-1997Y-3877D01*
X-1974Y-3886D01*
X-1953Y-3900D01*
X-1816Y-3957D01*
X-1791Y-3962D01*
X-1768Y-3971D01*
X-1623Y-4000D01*
X-1598Y-4000D01*
X-1574Y-4005D01*
X-1500Y-4005D01*
X-1426Y-4005D01*
X-1401Y-4000D01*
X-1376Y-4000D01*
X-1231Y-3971D01*
X-1208Y-3961D01*
X-1184Y-3957D01*
X-1047Y-3900D01*
X-1026Y-3886D01*
X-1003Y-3876D01*
X-880Y-3794D01*
X-862Y-3777D01*
X-842Y-3763D01*
X-737Y-3658D01*
X-723Y-3637D01*
X-705Y-3620D01*
X-623Y-3497D01*
X-614Y-3474D01*
X-600Y-3453D01*
X-543Y-3316D01*
X-538Y-3292D01*
X-529Y-3268D01*
X-500Y-3124D01*
X-500Y-3099D01*
X-495Y-3074D01*
X-495Y-3000D01*
X-495Y-2926D01*
X-500Y-2902D01*
X-500Y-2876D01*
X-529Y-2732D01*
X-538Y-2708D01*
X-543Y-2684D01*
X-600Y-2547D01*
X-614Y-2526D01*
X-623Y-2503D01*
X-705Y-2380D01*
X-723Y-2363D01*
X-737Y-2342D01*
X-751Y-2328D01*
X-698Y-2201D01*
X-171D01*
X-132Y-2249D01*
X-97Y-2425D01*
X3Y-2573D01*
X151Y-2673D01*
X327Y-2708D01*
X412Y-2691D01*
X418Y-2693D01*
X515Y-2800D01*
X500Y-2876D01*
X500Y-2902D01*
X495Y-2926D01*
X495Y-3000D01*
X495Y-3074D01*
X500Y-3098D01*
X500Y-3124D01*
X529Y-3269D01*
X539Y-3292D01*
X543Y-3316D01*
X600Y-3453D01*
X614Y-3474D01*
X624Y-3497D01*
X706Y-3620D01*
X723Y-3638D01*
X737Y-3658D01*
X760Y-3682D01*
X748Y-3808D01*
X689Y-3848D01*
X589Y-3996D01*
X554Y-4172D01*
X589Y-4348D01*
X689Y-4496D01*
X837Y-4596D01*
X1013Y-4631D01*
X1189Y-4596D01*
X1337Y-4496D01*
X1437Y-4348D01*
X1472Y-4172D01*
X1461Y-4115D01*
X1568Y-4005D01*
X1574Y-4005D01*
X1599Y-4000D01*
X1624Y-4000D01*
X1769Y-3971D01*
X1792Y-3961D01*
X1816Y-3957D01*
X1953Y-3900D01*
X1974Y-3886D01*
X1997Y-3876D01*
X2120Y-3794D01*
X2138Y-3777D01*
X2158Y-3763D01*
X2263Y-3658D01*
X2277Y-3637D01*
X2295Y-3620D01*
X2377Y-3497D01*
X2386Y-3474D01*
X2400Y-3453D01*
X2457Y-3316D01*
X2462Y-3292D01*
X2471Y-3268D01*
X2500Y-3124D01*
X2500Y-3099D01*
X2505Y-3074D01*
X2505Y-3000D01*
X2505Y-2926D01*
X2500Y-2902D01*
X2500Y-2876D01*
X2480Y-2775D01*
X2501Y-2730D01*
X2542Y-2681D01*
X2569Y-2661D01*
X2580Y-2656D01*
X5500D01*
X5605Y-2782D01*
X5590Y-2856D01*
X5625Y-3032D01*
X5650Y-3069D01*
Y-4378D01*
X5301Y-4804D01*
X5277Y-4827D01*
X5149Y-4776D01*
X5133Y-4658D01*
X5068Y-4500D01*
X4964Y-4364D01*
X4828Y-4260D01*
X4670Y-4195D01*
X4500Y-4172D01*
X4330Y-4195D01*
X4172Y-4260D01*
X4036Y-4364D01*
X3932Y-4500D01*
X3867Y-4658D01*
X3844Y-4828D01*
X3867Y-4998D01*
X3932Y-5156D01*
X4036Y-5292D01*
X4172Y-5396D01*
X4330Y-5461D01*
X4397Y-5470D01*
X4435Y-5603D01*
X4261Y-5746D01*
X3678Y-6136D01*
X3059Y-6467D01*
X2410Y-6736D01*
X1738Y-6939D01*
X1050Y-7076D01*
X351Y-7145D01*
X-351D01*
X-1050Y-7076D01*
X-1367Y-7013D01*
X-1425Y-6872D01*
X-1376Y-6799D01*
X-1341Y-6623D01*
X-1376Y-6447D01*
X-1476Y-6299D01*
X-1624Y-6199D01*
X-1800Y-6164D01*
X-1976Y-6199D01*
X-2035Y-6239D01*
X-2176Y-6180D01*
X-2176Y-6178D01*
X-2276Y-6030D01*
X-2424Y-5930D01*
X-2600Y-5895D01*
X-2731Y-5921D01*
X-2873Y-5854D01*
X-2876Y-5840D01*
X-2976Y-5692D01*
X-3124Y-5592D01*
X-3300Y-5557D01*
X-3385Y-5574D01*
X-3478Y-5588D01*
X-3523Y-5482D01*
X-3536Y-5415D01*
X-3636Y-5267D01*
X-3784Y-5167D01*
X-3960Y-5132D01*
X-4136Y-5167D01*
X-4284Y-5267D01*
X-4384Y-5415D01*
X-4395Y-5472D01*
X-4535Y-5522D01*
X-4804Y-5301D01*
X-4827Y-5277D01*
X-4776Y-5149D01*
X-4658Y-5133D01*
X-4500Y-5068D01*
X-4364Y-4964D01*
X-4260Y-4828D01*
X-4195Y-4670D01*
X-4172Y-4500D01*
X-4195Y-4330D01*
X-4260Y-4172D01*
X-4364Y-4036D01*
X-4500Y-3932D01*
X-4658Y-3867D01*
X-4828Y-3844D01*
X-4998Y-3867D01*
X-5156Y-3932D01*
X-5292Y-4036D01*
X-5396Y-4172D01*
X-5461Y-4330D01*
X-5470Y-4397D01*
X-5603Y-4435D01*
X-5746Y-4261D01*
X-6136Y-3678D01*
X-6467Y-3059D01*
X-6736Y-2410D01*
X-6939Y-1738D01*
X-7076Y-1050D01*
X-7145Y-351D01*
Y351D01*
X-7076Y1050D01*
X-6939Y1738D01*
X-6736Y2410D01*
X-6467Y3059D01*
X-6136Y3678D01*
X-5746Y4261D01*
X-5301Y4804D01*
X-5277Y4827D01*
X-5149Y4776D01*
X-5133Y4658D01*
X-5068Y4500D01*
X-4964Y4364D01*
X-4828Y4260D01*
X-4670Y4195D01*
X-4500Y4172D01*
X-4330Y4195D01*
X-4172Y4260D01*
X-4036Y4364D01*
X-3932Y4500D01*
X-3867Y4658D01*
X-3844Y4828D01*
X-3867Y4998D01*
X-3932Y5156D01*
X-4036Y5292D01*
X-4172Y5396D01*
X-4330Y5461D01*
X-4397Y5470D01*
X-4435Y5603D01*
X-4261Y5746D01*
X-3678Y6136D01*
X-3059Y6467D01*
X-2410Y6736D01*
X-1738Y6939D01*
X-1050Y7076D01*
X-351Y7145D01*
X351D01*
X380Y7142D01*
D02*
G37*
G36*
X1050Y7076D02*
X1738Y6939D01*
X2410Y6736D01*
X3059Y6467D01*
X3678Y6136D01*
X4180Y5800D01*
Y4593D01*
X4178Y4586D01*
Y4414D01*
X4180Y4407D01*
Y4294D01*
X2717Y2831D01*
X2664D01*
X2664Y2831D01*
X2547Y2808D01*
X2448Y2741D01*
X920Y1213D01*
X853Y1114D01*
X830Y997D01*
X830Y997D01*
Y-1108D01*
X-59Y-1997D01*
X-1416D01*
X-1426Y-1995D01*
X-1500Y-1995D01*
X-1574Y-1995D01*
X-1583Y-1997D01*
X-2135D01*
Y337D01*
X-2075Y397D01*
X-1626D01*
Y1087D01*
X682Y3070D01*
Y7018D01*
X777Y7103D01*
X1050Y7076D01*
D02*
G37*
%LPC*%
G36*
X1364Y3492D02*
X1184D01*
X1019Y3423D01*
X893Y3297D01*
X824Y3132D01*
Y2952D01*
X893Y2787D01*
X1019Y2661D01*
X1184Y2592D01*
X1364D01*
X1529Y2661D01*
X1655Y2787D01*
X1724Y2952D01*
Y3132D01*
X1655Y3297D01*
X1529Y3423D01*
X1364Y3492D01*
D02*
G37*
G36*
X-85Y1042D02*
X-265D01*
X-430Y974D01*
X-556Y847D01*
X-625Y682D01*
Y503D01*
X-556Y337D01*
X-430Y211D01*
X-352Y178D01*
X-373Y128D01*
Y-51D01*
X-323Y-172D01*
X-428Y-277D01*
X-496Y-443D01*
Y-622D01*
X-428Y-787D01*
X-301Y-914D01*
X-136Y-982D01*
X43D01*
X209Y-914D01*
X335Y-787D01*
X404Y-622D01*
Y-443D01*
X353Y-321D01*
X458Y-216D01*
X527Y-51D01*
Y128D01*
X458Y294D01*
X332Y420D01*
X254Y453D01*
X275Y503D01*
Y682D01*
X206Y847D01*
X80Y974D01*
X-85Y1042D01*
D02*
G37*
%LPD*%
D11*
X1461Y-1276D02*
Y423D01*
X2051Y1014D01*
X5521Y2525D02*
X5820Y2227D01*
X2664Y2525D02*
X5521D01*
X1136Y997D02*
X2664Y2525D01*
X1461Y-1276D02*
X2536Y-2351D01*
X327Y-2249D02*
X1136Y-1440D01*
Y997D01*
X2536Y-2351D02*
X5601D01*
X6754Y-1198D01*
D33*
X-2652Y-3584D02*
D03*
X1824Y-4303D02*
D03*
X2331Y4976D02*
D03*
X6754Y-1198D02*
D03*
X-1010Y-4602D02*
D03*
X2051Y1014D02*
D03*
X-1561Y5687D02*
D03*
X-41Y3240D02*
D03*
X3300Y-6016D02*
D03*
X1800Y-6623D02*
D03*
X3836Y-5688D02*
D03*
X2600Y-6354D02*
D03*
X2321Y6490D02*
D03*
X-1115Y2886D02*
D03*
X5820Y2227D02*
D03*
X327Y-2249D02*
D03*
D34*
X-1676Y-1557D02*
D03*
M02*
