G04*
G04 #@! TF.GenerationSoftware,Altium Limited,Altium Designer,22.11.1 (43)*
G04*
G04 Layer_Color=8388736*
%FSLAX43Y43*%
%MOMM*%
G71*
G04*
G04 #@! TF.SameCoordinates,FB5CEF4A-B6EA-44A6-96C9-558EDDA3D9AB*
G04*
G04*
G04 #@! TF.FilePolarity,Negative*
G04*
G01*
G75*
%ADD12R,0.620X0.620*%
G04:AMPARAMS|DCode=13|XSize=0.9mm|YSize=0.9mm|CornerRadius=0.15mm|HoleSize=0mm|Usage=FLASHONLY|Rotation=135.000|XOffset=0mm|YOffset=0mm|HoleType=Round|Shape=RoundedRectangle|*
%AMROUNDEDRECTD13*
21,1,0.900,0.600,0,0,135.0*
21,1,0.600,0.900,0,0,135.0*
1,1,0.300,0.000,0.424*
1,1,0.300,0.424,0.000*
1,1,0.300,0.000,-0.424*
1,1,0.300,-0.424,0.000*
%
%ADD13ROUNDEDRECTD13*%
G04:AMPARAMS|DCode=14|XSize=0.9mm|YSize=0.9mm|CornerRadius=0.15mm|HoleSize=0mm|Usage=FLASHONLY|Rotation=180.000|XOffset=0mm|YOffset=0mm|HoleType=Round|Shape=RoundedRectangle|*
%AMROUNDEDRECTD14*
21,1,0.900,0.600,0,0,180.0*
21,1,0.600,0.900,0,0,180.0*
1,1,0.300,-0.300,0.300*
1,1,0.300,0.300,0.300*
1,1,0.300,0.300,-0.300*
1,1,0.300,-0.300,-0.300*
%
%ADD14ROUNDEDRECTD14*%
G04:AMPARAMS|DCode=15|XSize=0.9mm|YSize=0.9mm|CornerRadius=0.15mm|HoleSize=0mm|Usage=FLASHONLY|Rotation=45.000|XOffset=0mm|YOffset=0mm|HoleType=Round|Shape=RoundedRectangle|*
%AMROUNDEDRECTD15*
21,1,0.900,0.600,0,0,45.0*
21,1,0.600,0.900,0,0,45.0*
1,1,0.300,0.424,0.000*
1,1,0.300,0.000,-0.424*
1,1,0.300,-0.424,0.000*
1,1,0.300,0.000,0.424*
%
%ADD15ROUNDEDRECTD15*%
G04:AMPARAMS|DCode=16|XSize=0.69mm|YSize=0.7mm|CornerRadius=0.124mm|HoleSize=0mm|Usage=FLASHONLY|Rotation=180.000|XOffset=0mm|YOffset=0mm|HoleType=Round|Shape=RoundedRectangle|*
%AMROUNDEDRECTD16*
21,1,0.690,0.453,0,0,180.0*
21,1,0.443,0.700,0,0,180.0*
1,1,0.248,-0.221,0.226*
1,1,0.248,0.221,0.226*
1,1,0.248,0.221,-0.226*
1,1,0.248,-0.221,-0.226*
%
%ADD16ROUNDEDRECTD16*%
G04:AMPARAMS|DCode=17|XSize=0.71mm|YSize=0.7mm|CornerRadius=0.125mm|HoleSize=0mm|Usage=FLASHONLY|Rotation=180.000|XOffset=0mm|YOffset=0mm|HoleType=Round|Shape=RoundedRectangle|*
%AMROUNDEDRECTD17*
21,1,0.710,0.450,0,0,180.0*
21,1,0.460,0.700,0,0,180.0*
1,1,0.250,-0.230,0.225*
1,1,0.250,0.230,0.225*
1,1,0.250,0.230,-0.225*
1,1,0.250,-0.230,-0.225*
%
%ADD17ROUNDEDRECTD17*%
G04:AMPARAMS|DCode=18|XSize=0.71mm|YSize=0.7mm|CornerRadius=0.125mm|HoleSize=0mm|Usage=FLASHONLY|Rotation=45.000|XOffset=0mm|YOffset=0mm|HoleType=Round|Shape=RoundedRectangle|*
%AMROUNDEDRECTD18*
21,1,0.710,0.450,0,0,45.0*
21,1,0.460,0.700,0,0,45.0*
1,1,0.250,0.322,0.004*
1,1,0.250,-0.004,-0.322*
1,1,0.250,-0.322,-0.004*
1,1,0.250,0.004,0.322*
%
%ADD18ROUNDEDRECTD18*%
G04:AMPARAMS|DCode=19|XSize=0.71mm|YSize=0.7mm|CornerRadius=0.125mm|HoleSize=0mm|Usage=FLASHONLY|Rotation=90.000|XOffset=0mm|YOffset=0mm|HoleType=Round|Shape=RoundedRectangle|*
%AMROUNDEDRECTD19*
21,1,0.710,0.450,0,0,90.0*
21,1,0.460,0.700,0,0,90.0*
1,1,0.250,0.225,0.230*
1,1,0.250,0.225,-0.230*
1,1,0.250,-0.225,-0.230*
1,1,0.250,-0.225,0.230*
%
%ADD19ROUNDEDRECTD19*%
G04:AMPARAMS|DCode=20|XSize=0.71mm|YSize=0.7mm|CornerRadius=0.125mm|HoleSize=0mm|Usage=FLASHONLY|Rotation=135.000|XOffset=0mm|YOffset=0mm|HoleType=Round|Shape=RoundedRectangle|*
%AMROUNDEDRECTD20*
21,1,0.710,0.450,0,0,135.0*
21,1,0.460,0.700,0,0,135.0*
1,1,0.250,-0.004,0.322*
1,1,0.250,0.322,-0.004*
1,1,0.250,0.004,-0.322*
1,1,0.250,-0.322,0.004*
%
%ADD20ROUNDEDRECTD20*%
%ADD21C,1.000*%
D12*
X0Y-1100D02*
D03*
Y2100D02*
D03*
X800Y-1100D02*
D03*
Y-300D02*
D03*
X-800Y-1100D02*
D03*
Y-300D02*
D03*
X800Y2100D02*
D03*
X-800D02*
D03*
Y1300D02*
D03*
X800D02*
D03*
Y500D02*
D03*
X-800D02*
D03*
D13*
X3005Y4495D02*
D03*
X3995Y3505D02*
D03*
X-3005Y-4495D02*
D03*
X-3995Y-3505D02*
D03*
D14*
X700Y6300D02*
D03*
X-700D02*
D03*
Y-6300D02*
D03*
X700D02*
D03*
D15*
X3995Y-3505D02*
D03*
X3005Y-4495D02*
D03*
X-3005Y4495D02*
D03*
X-3995Y3505D02*
D03*
D16*
X-1757Y3884D02*
D03*
X-732D02*
D03*
X-1770Y4881D02*
D03*
X-745D02*
D03*
X625Y4920D02*
D03*
X1650D02*
D03*
X614Y3902D02*
D03*
X1639D02*
D03*
D17*
X-2925Y2600D02*
D03*
X-1925D02*
D03*
D18*
X-2471Y-1896D02*
D03*
X-3179Y-2604D02*
D03*
D19*
X0Y-3150D02*
D03*
Y-4150D02*
D03*
D20*
X2346Y-1746D02*
D03*
X3054Y-2454D02*
D03*
D21*
X-4828Y-4500D02*
D03*
X4500Y-4828D02*
D03*
X-4500Y4828D02*
D03*
X4828Y4500D02*
D03*
M02*
