G04*
G04 #@! TF.GenerationSoftware,Altium Limited,Altium Designer,21.8.1 (53)*
G04*
G04 Layer_Color=65535*
%FSLAX43Y43*%
%MOMM*%
G71*
G04*
G04 #@! TF.SameCoordinates,1D73D155-7DD3-43B3-A4AD-18309685674C*
G04*
G04*
G04 #@! TF.FilePolarity,Positive*
G04*
G01*
G75*
%ADD10C,0.240*%
%ADD11C,0.200*%
G36*
X-4007Y-4985D02*
X-4103Y-5207D01*
X-4137Y-5279D01*
X-4071Y-5234D01*
X-3867Y-5102D01*
X-3790Y-5167D01*
X-4195Y-5418D01*
X-4263Y-5361D01*
X-4086Y-4918D01*
X-4007Y-4985D01*
D02*
G37*
G36*
X-2998Y-5605D02*
X-3401Y-6085D01*
X-3477Y-6021D01*
X-3186Y-5675D01*
X-3187Y-5675D01*
X-3190Y-5675D01*
X-3194Y-5675D01*
X-3200Y-5676D01*
X-3207Y-5677D01*
X-3216Y-5677D01*
X-3226Y-5678D01*
X-3236Y-5677D01*
X-3260Y-5677D01*
X-3286Y-5675D01*
X-3314Y-5670D01*
X-3342Y-5662D01*
X-3272Y-5579D01*
X-3271Y-5579D01*
X-3270Y-5579D01*
X-3264Y-5581D01*
X-3256Y-5582D01*
X-3244Y-5585D01*
X-3228Y-5587D01*
X-3211Y-5588D01*
X-3191Y-5589D01*
X-3169Y-5589D01*
X-3168Y-5589D01*
X-3167Y-5588D01*
X-3159Y-5588D01*
X-3147Y-5585D01*
X-3132Y-5582D01*
X-3116Y-5578D01*
X-3097Y-5572D01*
X-3078Y-5564D01*
X-3059Y-5553D01*
X-2998Y-5605D01*
D02*
G37*
G36*
X-3590Y-5137D02*
X-3567Y-5141D01*
X-3556Y-5145D01*
X-3544Y-5150D01*
X-3533Y-5157D01*
X-3522Y-5165D01*
X-3516Y-5170D01*
X-3513Y-5173D01*
X-3509Y-5178D01*
X-3504Y-5184D01*
X-3495Y-5200D01*
X-3490Y-5209D01*
X-3485Y-5219D01*
X-3482Y-5229D01*
X-3478Y-5240D01*
X-3475Y-5253D01*
X-3474Y-5268D01*
X-3474Y-5281D01*
X-3475Y-5297D01*
X-3475Y-5298D01*
X-3476Y-5301D01*
X-3476Y-5306D01*
X-3478Y-5313D01*
X-3481Y-5321D01*
X-3484Y-5331D01*
X-3489Y-5342D01*
X-3494Y-5356D01*
X-3501Y-5372D01*
X-3510Y-5387D01*
X-3520Y-5405D01*
X-3532Y-5426D01*
X-3545Y-5446D01*
X-3561Y-5469D01*
X-3579Y-5491D01*
X-3599Y-5517D01*
X-3599Y-5517D01*
X-3600Y-5518D01*
X-3602Y-5520D01*
X-3603Y-5522D01*
X-3609Y-5529D01*
X-3618Y-5538D01*
X-3627Y-5549D01*
X-3639Y-5560D01*
X-3651Y-5574D01*
X-3665Y-5587D01*
X-3696Y-5615D01*
X-3729Y-5642D01*
X-3746Y-5653D01*
X-3761Y-5663D01*
X-3778Y-5671D01*
X-3793Y-5677D01*
X-3795Y-5677D01*
X-3797Y-5678D01*
X-3801Y-5679D01*
X-3807Y-5680D01*
X-3814Y-5681D01*
X-3822Y-5682D01*
X-3841Y-5683D01*
X-3863Y-5682D01*
X-3885Y-5677D01*
X-3897Y-5673D01*
X-3908Y-5668D01*
X-3919Y-5662D01*
X-3931Y-5653D01*
X-3933Y-5651D01*
X-3936Y-5648D01*
X-3939Y-5645D01*
X-3944Y-5640D01*
X-3948Y-5634D01*
X-3959Y-5619D01*
X-3963Y-5610D01*
X-3968Y-5600D01*
X-3972Y-5590D01*
X-3975Y-5578D01*
X-3978Y-5566D01*
X-3980Y-5552D01*
X-3980Y-5538D01*
X-3979Y-5522D01*
X-3979Y-5521D01*
X-3978Y-5518D01*
X-3977Y-5514D01*
X-3976Y-5507D01*
X-3972Y-5499D01*
X-3969Y-5489D01*
X-3965Y-5477D01*
X-3959Y-5464D01*
X-3952Y-5448D01*
X-3943Y-5433D01*
X-3934Y-5414D01*
X-3921Y-5395D01*
X-3907Y-5374D01*
X-3892Y-5351D01*
X-3873Y-5327D01*
X-3853Y-5302D01*
X-3853Y-5301D01*
X-3852Y-5301D01*
X-3850Y-5298D01*
X-3848Y-5296D01*
X-3842Y-5289D01*
X-3834Y-5281D01*
X-3824Y-5271D01*
X-3813Y-5258D01*
X-3800Y-5245D01*
X-3786Y-5231D01*
X-3756Y-5204D01*
X-3724Y-5178D01*
X-3708Y-5166D01*
X-3691Y-5157D01*
X-3676Y-5148D01*
X-3660Y-5142D01*
X-3658Y-5142D01*
X-3657Y-5141D01*
X-3652Y-5140D01*
X-3646Y-5139D01*
X-3639Y-5138D01*
X-3631Y-5137D01*
X-3612Y-5135D01*
X-3590Y-5137D01*
D02*
G37*
G36*
X-3578Y-5779D02*
X-3656Y-5871D01*
X-3731Y-5808D01*
X-3654Y-5716D01*
X-3578Y-5779D01*
D02*
G37*
G36*
X-2540Y-5988D02*
X-2943Y-6469D01*
X-3019Y-6405D01*
X-2728Y-6059D01*
X-2730Y-6059D01*
X-2732Y-6059D01*
X-2736Y-6059D01*
X-2743Y-6060D01*
X-2749Y-6061D01*
X-2758Y-6061D01*
X-2768Y-6062D01*
X-2779Y-6061D01*
X-2802Y-6061D01*
X-2829Y-6059D01*
X-2857Y-6054D01*
X-2884Y-6046D01*
X-2814Y-5963D01*
X-2813Y-5963D01*
X-2812Y-5963D01*
X-2807Y-5965D01*
X-2798Y-5966D01*
X-2786Y-5969D01*
X-2771Y-5971D01*
X-2754Y-5972D01*
X-2734Y-5973D01*
X-2712Y-5973D01*
X-2710Y-5972D01*
X-2709Y-5972D01*
X-2701Y-5972D01*
X-2690Y-5969D01*
X-2675Y-5966D01*
X-2658Y-5962D01*
X-2640Y-5956D01*
X-2621Y-5948D01*
X-2602Y-5937D01*
X-2540Y-5988D01*
D02*
G37*
G36*
X-3121Y-6163D02*
X-3198Y-6255D01*
X-3273Y-6192D01*
X-3196Y-6100D01*
X-3121Y-6163D01*
D02*
G37*
G36*
X1863Y-5967D02*
X1870D01*
X1885Y-5968D01*
X1903Y-5969D01*
X1920Y-5973D01*
X1938Y-5977D01*
X1953Y-5982D01*
X1955Y-5983D01*
X1959Y-5985D01*
X1966Y-5990D01*
X1975Y-5995D01*
X1985Y-6003D01*
X1997Y-6012D01*
X2008Y-6023D01*
X2020Y-6036D01*
X2022Y-6038D01*
X2026Y-6042D01*
X2031Y-6051D01*
X2038Y-6063D01*
X2046Y-6077D01*
X2054Y-6093D01*
X2062Y-6113D01*
X2069Y-6135D01*
Y-6136D01*
X2070Y-6138D01*
X2071Y-6141D01*
X2072Y-6146D01*
X2073Y-6151D01*
X2075Y-6159D01*
X2077Y-6167D01*
X2078Y-6176D01*
X2079Y-6187D01*
X2081Y-6198D01*
X2083Y-6210D01*
X2084Y-6224D01*
X2086Y-6252D01*
X2087Y-6285D01*
Y-6286D01*
Y-6288D01*
Y-6293D01*
Y-6298D01*
X2086Y-6305D01*
Y-6313D01*
X2085Y-6323D01*
Y-6333D01*
X2082Y-6355D01*
X2079Y-6379D01*
X2075Y-6403D01*
X2068Y-6426D01*
Y-6427D01*
X2067Y-6429D01*
X2066Y-6432D01*
X2065Y-6436D01*
X2061Y-6447D01*
X2055Y-6460D01*
X2049Y-6476D01*
X2041Y-6492D01*
X2031Y-6507D01*
X2021Y-6521D01*
X2020Y-6523D01*
X2017Y-6527D01*
X2010Y-6533D01*
X2003Y-6541D01*
X1993Y-6549D01*
X1981Y-6557D01*
X1968Y-6566D01*
X1954Y-6573D01*
X1952Y-6574D01*
X1946Y-6576D01*
X1938Y-6579D01*
X1926Y-6581D01*
X1911Y-6585D01*
X1894Y-6588D01*
X1873Y-6590D01*
X1851Y-6591D01*
X1657D01*
Y-5966D01*
X1858D01*
X1863Y-5967D01*
D02*
G37*
G36*
X2331Y-5965D02*
X2337Y-5966D01*
X2345Y-5967D01*
X2361Y-5969D01*
X2380Y-5975D01*
X2398Y-5983D01*
X2408Y-5989D01*
X2417Y-5995D01*
X2425Y-6003D01*
X2433Y-6011D01*
X2434Y-6012D01*
X2434Y-6013D01*
X2436Y-6016D01*
X2439Y-6019D01*
X2442Y-6024D01*
X2446Y-6029D01*
X2453Y-6042D01*
X2459Y-6059D01*
X2466Y-6078D01*
X2471Y-6100D01*
X2472Y-6112D01*
Y-6124D01*
Y-6125D01*
Y-6126D01*
Y-6131D01*
X2471Y-6139D01*
X2470Y-6151D01*
X2468Y-6163D01*
X2464Y-6176D01*
X2459Y-6189D01*
X2453Y-6202D01*
X2452Y-6204D01*
X2449Y-6208D01*
X2446Y-6213D01*
X2439Y-6221D01*
X2432Y-6229D01*
X2423Y-6237D01*
X2412Y-6246D01*
X2401Y-6253D01*
X2402D01*
X2403Y-6254D01*
X2409Y-6257D01*
X2416Y-6262D01*
X2426Y-6269D01*
X2436Y-6277D01*
X2447Y-6287D01*
X2458Y-6299D01*
X2467Y-6313D01*
X2468Y-6315D01*
X2471Y-6320D01*
X2474Y-6328D01*
X2478Y-6339D01*
X2482Y-6353D01*
X2485Y-6369D01*
X2488Y-6387D01*
X2489Y-6408D01*
Y-6409D01*
Y-6410D01*
Y-6413D01*
Y-6418D01*
X2488Y-6422D01*
Y-6428D01*
X2486Y-6442D01*
X2483Y-6458D01*
X2480Y-6475D01*
X2474Y-6493D01*
X2467Y-6510D01*
Y-6511D01*
X2466Y-6512D01*
X2463Y-6518D01*
X2458Y-6525D01*
X2451Y-6535D01*
X2443Y-6546D01*
X2433Y-6557D01*
X2421Y-6568D01*
X2408Y-6578D01*
X2406Y-6579D01*
X2401Y-6581D01*
X2393Y-6585D01*
X2383Y-6589D01*
X2371Y-6593D01*
X2356Y-6597D01*
X2340Y-6600D01*
X2323Y-6601D01*
X2315D01*
X2311Y-6600D01*
X2304Y-6599D01*
X2297Y-6598D01*
X2280Y-6594D01*
X2261Y-6589D01*
X2240Y-6580D01*
X2230Y-6573D01*
X2220Y-6567D01*
X2210Y-6559D01*
X2201Y-6550D01*
X2200Y-6549D01*
X2199Y-6547D01*
X2196Y-6544D01*
X2193Y-6541D01*
X2189Y-6535D01*
X2186Y-6529D01*
X2181Y-6521D01*
X2177Y-6513D01*
X2172Y-6504D01*
X2167Y-6494D01*
X2164Y-6482D01*
X2160Y-6470D01*
X2154Y-6442D01*
X2153Y-6427D01*
X2152Y-6411D01*
Y-6410D01*
Y-6409D01*
Y-6406D01*
Y-6402D01*
X2153Y-6392D01*
X2155Y-6378D01*
X2158Y-6363D01*
X2162Y-6347D01*
X2166Y-6331D01*
X2174Y-6315D01*
Y-6314D01*
X2175Y-6313D01*
X2177Y-6309D01*
X2183Y-6301D01*
X2190Y-6292D01*
X2199Y-6282D01*
X2210Y-6272D01*
X2223Y-6262D01*
X2238Y-6253D01*
X2236Y-6252D01*
X2232Y-6249D01*
X2226Y-6246D01*
X2217Y-6240D01*
X2208Y-6233D01*
X2200Y-6224D01*
X2190Y-6213D01*
X2183Y-6202D01*
X2182Y-6200D01*
X2180Y-6197D01*
X2177Y-6189D01*
X2175Y-6180D01*
X2171Y-6169D01*
X2168Y-6156D01*
X2166Y-6141D01*
X2165Y-6125D01*
Y-6124D01*
Y-6121D01*
Y-6117D01*
X2166Y-6113D01*
Y-6106D01*
X2167Y-6099D01*
X2171Y-6083D01*
X2176Y-6064D01*
X2183Y-6044D01*
X2193Y-6026D01*
X2200Y-6016D01*
X2207Y-6008D01*
X2208Y-6007D01*
X2209Y-6006D01*
X2212Y-6004D01*
X2214Y-6001D01*
X2224Y-5994D01*
X2237Y-5986D01*
X2252Y-5978D01*
X2272Y-5970D01*
X2294Y-5966D01*
X2306Y-5965D01*
X2319Y-5964D01*
X2326D01*
X2331Y-5965D01*
D02*
G37*
G36*
X-3395Y5797D02*
X-3354Y5838D01*
X-3287Y5770D01*
X-3328Y5730D01*
X-3247Y5650D01*
X-3308Y5589D01*
X-3388Y5669D01*
X-3522Y5535D01*
X-3589Y5602D01*
X-3700Y5996D01*
X-3647Y6049D01*
X-3395Y5797D01*
D02*
G37*
G36*
X-3868Y5736D02*
X-3866D01*
X-3861Y5735D01*
X-3852Y5733D01*
X-3840Y5730D01*
X-3826Y5726D01*
X-3810Y5721D01*
X-3793Y5713D01*
X-3774Y5704D01*
X-3774Y5703D01*
X-3772Y5703D01*
X-3769Y5701D01*
X-3765Y5699D01*
X-3761Y5696D01*
X-3755Y5692D01*
X-3749Y5688D01*
X-3742Y5683D01*
X-3735Y5677D01*
X-3726Y5671D01*
X-3718Y5665D01*
X-3708Y5657D01*
X-3689Y5640D01*
X-3668Y5620D01*
X-3667Y5619D01*
X-3665Y5617D01*
X-3662Y5614D01*
X-3659Y5611D01*
X-3655Y5606D01*
X-3650Y5601D01*
X-3645Y5594D01*
X-3638Y5588D01*
X-3626Y5572D01*
X-3612Y5555D01*
X-3600Y5536D01*
X-3589Y5518D01*
X-3589Y5517D01*
X-3588Y5515D01*
X-3587Y5513D01*
X-3585Y5509D01*
X-3580Y5499D01*
X-3576Y5488D01*
X-3570Y5473D01*
X-3565Y5458D01*
X-3561Y5442D01*
X-3559Y5427D01*
X-3558Y5425D01*
Y5420D01*
Y5412D01*
Y5403D01*
X-3559Y5391D01*
X-3561Y5379D01*
X-3564Y5365D01*
X-3569Y5351D01*
X-3569Y5349D01*
X-3571Y5344D01*
X-3575Y5337D01*
X-3581Y5328D01*
X-3588Y5316D01*
X-3597Y5303D01*
X-3609Y5289D01*
X-3623Y5274D01*
X-3746Y5151D01*
X-4145Y5549D01*
X-4017Y5677D01*
X-4013Y5680D01*
X-4009Y5684D01*
X-3998Y5693D01*
X-3986Y5703D01*
X-3972Y5712D01*
X-3959Y5721D01*
X-3946Y5727D01*
X-3944Y5727D01*
X-3940Y5729D01*
X-3933Y5730D01*
X-3923Y5733D01*
X-3912Y5734D01*
X-3898Y5736D01*
X-3884D01*
X-3868Y5736D01*
D02*
G37*
G36*
X-2776Y5850D02*
X-2768Y5849D01*
X-2760Y5848D01*
X-2751Y5846D01*
X-2741Y5844D01*
X-2718Y5836D01*
X-2706Y5832D01*
X-2694Y5826D01*
X-2681Y5819D01*
X-2669Y5810D01*
X-2657Y5801D01*
X-2646Y5791D01*
X-2645D01*
X-2645Y5789D01*
X-2643Y5786D01*
X-2640Y5784D01*
X-2636Y5779D01*
X-2632Y5773D01*
X-2628Y5767D01*
X-2623Y5760D01*
X-2619Y5751D01*
X-2613Y5743D01*
X-2608Y5733D01*
X-2603Y5722D01*
X-2598Y5709D01*
X-2594Y5696D01*
X-2589Y5682D01*
X-2585Y5667D01*
X-2688Y5638D01*
Y5638D01*
X-2689Y5639D01*
Y5642D01*
X-2690Y5646D01*
X-2693Y5655D01*
X-2696Y5666D01*
X-2702Y5679D01*
X-2709Y5692D01*
X-2718Y5704D01*
X-2728Y5715D01*
X-2729Y5716D01*
X-2732Y5720D01*
X-2739Y5724D01*
X-2747Y5729D01*
X-2757Y5735D01*
X-2768Y5738D01*
X-2781Y5742D01*
X-2796Y5743D01*
X-2802D01*
X-2805Y5742D01*
X-2816Y5740D01*
X-2828Y5736D01*
X-2843Y5731D01*
X-2859Y5722D01*
X-2866Y5716D01*
X-2874Y5710D01*
X-2881Y5702D01*
X-2889Y5693D01*
Y5692D01*
X-2890Y5691D01*
X-2891Y5687D01*
X-2894Y5684D01*
X-2897Y5678D01*
X-2900Y5672D01*
X-2902Y5663D01*
X-2906Y5654D01*
X-2910Y5644D01*
X-2913Y5632D01*
X-2915Y5618D01*
X-2918Y5603D01*
X-2920Y5588D01*
X-2922Y5570D01*
X-2924Y5551D01*
Y5530D01*
Y5529D01*
Y5525D01*
Y5519D01*
X-2923Y5511D01*
Y5502D01*
X-2922Y5491D01*
X-2921Y5478D01*
X-2919Y5466D01*
X-2915Y5438D01*
X-2909Y5410D01*
X-2905Y5397D01*
X-2901Y5384D01*
X-2895Y5373D01*
X-2890Y5363D01*
Y5362D01*
X-2888Y5361D01*
X-2883Y5356D01*
X-2876Y5347D01*
X-2865Y5339D01*
X-2852Y5330D01*
X-2837Y5321D01*
X-2818Y5316D01*
X-2809Y5315D01*
X-2799Y5314D01*
X-2797D01*
X-2792Y5315D01*
X-2784Y5316D01*
X-2775Y5318D01*
X-2764Y5321D01*
X-2752Y5327D01*
X-2740Y5335D01*
X-2729Y5345D01*
X-2728Y5347D01*
X-2724Y5352D01*
X-2718Y5359D01*
X-2712Y5370D01*
X-2705Y5384D01*
X-2698Y5402D01*
X-2691Y5422D01*
X-2685Y5447D01*
X-2584Y5408D01*
Y5407D01*
X-2585Y5404D01*
X-2587Y5398D01*
X-2589Y5391D01*
X-2592Y5382D01*
X-2595Y5372D01*
X-2598Y5361D01*
X-2603Y5349D01*
X-2614Y5324D01*
X-2628Y5298D01*
X-2644Y5274D01*
X-2653Y5264D01*
X-2663Y5254D01*
X-2664Y5253D01*
X-2666Y5252D01*
X-2669Y5249D01*
X-2673Y5246D01*
X-2678Y5243D01*
X-2684Y5239D01*
X-2692Y5234D01*
X-2700Y5230D01*
X-2709Y5225D01*
X-2719Y5221D01*
X-2743Y5213D01*
X-2768Y5208D01*
X-2782Y5207D01*
X-2797Y5206D01*
X-2802D01*
X-2806Y5207D01*
X-2814D01*
X-2822Y5209D01*
X-2832Y5209D01*
X-2843Y5212D01*
X-2855Y5215D01*
X-2868Y5220D01*
X-2881Y5224D01*
X-2894Y5231D01*
X-2908Y5238D01*
X-2922Y5247D01*
X-2935Y5258D01*
X-2948Y5269D01*
X-2960Y5282D01*
X-2961Y5283D01*
X-2963Y5286D01*
X-2966Y5292D01*
X-2971Y5299D01*
X-2976Y5307D01*
X-2982Y5319D01*
X-2988Y5331D01*
X-2995Y5346D01*
X-3002Y5362D01*
X-3009Y5380D01*
X-3014Y5400D01*
X-3020Y5421D01*
X-3024Y5444D01*
X-3028Y5469D01*
X-3030Y5495D01*
X-3031Y5523D01*
Y5524D01*
Y5525D01*
Y5530D01*
X-3030Y5539D01*
Y5549D01*
X-3029Y5563D01*
X-3027Y5578D01*
X-3024Y5595D01*
X-3022Y5613D01*
X-3018Y5634D01*
X-3013Y5654D01*
X-3008Y5674D01*
X-3000Y5696D01*
X-2992Y5716D01*
X-2983Y5736D01*
X-2972Y5755D01*
X-2959Y5773D01*
X-2958Y5773D01*
X-2956Y5776D01*
X-2952Y5780D01*
X-2948Y5785D01*
X-2941Y5791D01*
X-2934Y5797D01*
X-2925Y5805D01*
X-2914Y5812D01*
X-2903Y5819D01*
X-2890Y5826D01*
X-2877Y5833D01*
X-2862Y5839D01*
X-2845Y5844D01*
X-2828Y5847D01*
X-2810Y5850D01*
X-2791Y5851D01*
X-2782D01*
X-2776Y5850D01*
D02*
G37*
G36*
X-2230Y5447D02*
X-2167D01*
Y5342D01*
X-2230D01*
Y5216D01*
X-2326D01*
Y5342D01*
X-2535D01*
Y5446D01*
X-2314Y5843D01*
X-2230D01*
Y5447D01*
D02*
G37*
G36*
X-2762Y3696D02*
X-2755Y3695D01*
X-2746Y3694D01*
X-2737Y3692D01*
X-2727Y3690D01*
X-2704Y3682D01*
X-2692Y3678D01*
X-2680Y3672D01*
X-2668Y3665D01*
X-2656Y3656D01*
X-2644Y3647D01*
X-2633Y3637D01*
X-2632D01*
X-2631Y3635D01*
X-2629Y3632D01*
X-2626Y3630D01*
X-2623Y3625D01*
X-2619Y3619D01*
X-2614Y3613D01*
X-2610Y3606D01*
X-2605Y3597D01*
X-2599Y3589D01*
X-2595Y3579D01*
X-2589Y3568D01*
X-2585Y3555D01*
X-2580Y3542D01*
X-2575Y3528D01*
X-2572Y3513D01*
X-2674Y3483D01*
Y3484D01*
X-2675Y3485D01*
Y3488D01*
X-2676Y3492D01*
X-2679Y3501D01*
X-2683Y3512D01*
X-2688Y3525D01*
X-2696Y3538D01*
X-2704Y3550D01*
X-2714Y3561D01*
X-2715Y3562D01*
X-2719Y3566D01*
X-2725Y3570D01*
X-2733Y3575D01*
X-2744Y3581D01*
X-2755Y3584D01*
X-2768Y3588D01*
X-2782Y3589D01*
X-2788D01*
X-2792Y3588D01*
X-2802Y3586D01*
X-2815Y3582D01*
X-2830Y3577D01*
X-2845Y3568D01*
X-2853Y3562D01*
X-2860Y3556D01*
X-2868Y3548D01*
X-2875Y3539D01*
Y3538D01*
X-2877Y3537D01*
X-2878Y3533D01*
X-2880Y3530D01*
X-2883Y3524D01*
X-2886Y3518D01*
X-2889Y3509D01*
X-2892Y3500D01*
X-2896Y3490D01*
X-2899Y3478D01*
X-2902Y3464D01*
X-2905Y3449D01*
X-2906Y3434D01*
X-2908Y3416D01*
X-2910Y3397D01*
Y3376D01*
Y3375D01*
Y3371D01*
Y3365D01*
X-2909Y3357D01*
Y3348D01*
X-2908Y3336D01*
X-2907Y3324D01*
X-2905Y3312D01*
X-2902Y3284D01*
X-2895Y3256D01*
X-2892Y3243D01*
X-2887Y3230D01*
X-2881Y3219D01*
X-2876Y3209D01*
Y3208D01*
X-2874Y3207D01*
X-2869Y3201D01*
X-2862Y3193D01*
X-2851Y3185D01*
X-2838Y3176D01*
X-2823Y3167D01*
X-2805Y3162D01*
X-2795Y3161D01*
X-2785Y3160D01*
X-2783D01*
X-2779Y3161D01*
X-2770Y3162D01*
X-2761Y3164D01*
X-2750Y3167D01*
X-2738Y3173D01*
X-2726Y3181D01*
X-2715Y3191D01*
X-2714Y3193D01*
X-2710Y3198D01*
X-2705Y3205D01*
X-2698Y3216D01*
X-2691Y3230D01*
X-2684Y3248D01*
X-2677Y3268D01*
X-2672Y3293D01*
X-2571Y3254D01*
Y3253D01*
X-2572Y3250D01*
X-2574Y3244D01*
X-2575Y3237D01*
X-2578Y3228D01*
X-2581Y3218D01*
X-2585Y3207D01*
X-2589Y3195D01*
X-2600Y3170D01*
X-2614Y3144D01*
X-2630Y3120D01*
X-2639Y3110D01*
X-2649Y3100D01*
X-2650Y3099D01*
X-2652Y3098D01*
X-2655Y3095D01*
X-2660Y3092D01*
X-2664Y3089D01*
X-2671Y3085D01*
X-2678Y3080D01*
X-2686Y3076D01*
X-2696Y3071D01*
X-2706Y3066D01*
X-2729Y3059D01*
X-2755Y3054D01*
X-2769Y3053D01*
X-2783Y3052D01*
X-2788D01*
X-2793Y3053D01*
X-2800D01*
X-2808Y3054D01*
X-2819Y3055D01*
X-2830Y3058D01*
X-2842Y3061D01*
X-2855Y3066D01*
X-2868Y3070D01*
X-2880Y3077D01*
X-2894Y3084D01*
X-2908Y3093D01*
X-2921Y3103D01*
X-2934Y3115D01*
X-2946Y3128D01*
X-2947Y3129D01*
X-2949Y3132D01*
X-2953Y3138D01*
X-2957Y3145D01*
X-2963Y3153D01*
X-2968Y3164D01*
X-2975Y3177D01*
X-2981Y3192D01*
X-2989Y3208D01*
X-2995Y3226D01*
X-3001Y3246D01*
X-3006Y3267D01*
X-3011Y3290D01*
X-3015Y3315D01*
X-3016Y3341D01*
X-3017Y3369D01*
Y3370D01*
Y3371D01*
Y3376D01*
X-3016Y3385D01*
Y3395D01*
X-3015Y3409D01*
X-3014Y3424D01*
X-3011Y3441D01*
X-3008Y3459D01*
X-3004Y3480D01*
X-3000Y3500D01*
X-2994Y3520D01*
X-2987Y3542D01*
X-2978Y3562D01*
X-2969Y3581D01*
X-2958Y3601D01*
X-2945Y3618D01*
X-2944Y3619D01*
X-2942Y3622D01*
X-2939Y3626D01*
X-2934Y3630D01*
X-2928Y3637D01*
X-2920Y3643D01*
X-2911Y3651D01*
X-2901Y3658D01*
X-2890Y3665D01*
X-2877Y3672D01*
X-2863Y3679D01*
X-2848Y3685D01*
X-2831Y3690D01*
X-2815Y3693D01*
X-2796Y3696D01*
X-2777Y3697D01*
X-2769D01*
X-2762Y3696D01*
D02*
G37*
G36*
X-2330Y3688D02*
X-2325Y3687D01*
X-2318Y3686D01*
X-2302Y3682D01*
X-2284Y3677D01*
X-2266Y3667D01*
X-2256Y3662D01*
X-2247Y3655D01*
X-2239Y3648D01*
X-2231Y3639D01*
X-2230Y3638D01*
X-2229Y3637D01*
X-2227Y3634D01*
X-2224Y3630D01*
X-2221Y3626D01*
X-2218Y3620D01*
X-2209Y3606D01*
X-2202Y3590D01*
X-2195Y3571D01*
X-2191Y3551D01*
X-2189Y3540D01*
Y3529D01*
Y3527D01*
Y3522D01*
X-2190Y3514D01*
X-2192Y3505D01*
X-2194Y3493D01*
X-2197Y3481D01*
X-2202Y3468D01*
X-2208Y3455D01*
X-2209Y3453D01*
X-2212Y3449D01*
X-2216Y3444D01*
X-2222Y3435D01*
X-2230Y3427D01*
X-2240Y3417D01*
X-2251Y3407D01*
X-2264Y3397D01*
X-2263D01*
X-2262Y3397D01*
X-2256Y3395D01*
X-2249Y3392D01*
X-2239Y3387D01*
X-2228Y3380D01*
X-2217Y3372D01*
X-2206Y3361D01*
X-2194Y3347D01*
X-2194Y3345D01*
X-2190Y3339D01*
X-2185Y3331D01*
X-2181Y3320D01*
X-2175Y3306D01*
X-2171Y3289D01*
X-2168Y3270D01*
X-2167Y3249D01*
Y3248D01*
Y3245D01*
Y3240D01*
X-2168Y3235D01*
X-2169Y3227D01*
X-2170Y3219D01*
X-2171Y3210D01*
X-2173Y3199D01*
X-2180Y3177D01*
X-2189Y3153D01*
X-2194Y3141D01*
X-2201Y3129D01*
X-2209Y3118D01*
X-2218Y3107D01*
X-2219Y3106D01*
X-2220Y3104D01*
X-2224Y3102D01*
X-2228Y3099D01*
X-2232Y3094D01*
X-2238Y3090D01*
X-2253Y3079D01*
X-2270Y3069D01*
X-2291Y3060D01*
X-2303Y3057D01*
X-2315Y3054D01*
X-2327Y3053D01*
X-2340Y3052D01*
X-2346D01*
X-2351Y3053D01*
X-2356Y3054D01*
X-2364Y3054D01*
X-2379Y3057D01*
X-2397Y3063D01*
X-2416Y3072D01*
X-2427Y3077D01*
X-2436Y3083D01*
X-2445Y3091D01*
X-2454Y3099D01*
X-2455Y3100D01*
X-2456Y3101D01*
X-2459Y3103D01*
X-2462Y3107D01*
X-2465Y3113D01*
X-2469Y3118D01*
X-2474Y3125D01*
X-2478Y3133D01*
X-2483Y3141D01*
X-2488Y3152D01*
X-2492Y3162D01*
X-2497Y3174D01*
X-2503Y3199D01*
X-2508Y3228D01*
X-2413Y3242D01*
Y3241D01*
Y3240D01*
X-2412Y3235D01*
X-2411Y3227D01*
X-2408Y3217D01*
X-2405Y3206D01*
X-2401Y3195D01*
X-2395Y3184D01*
X-2389Y3175D01*
X-2388Y3174D01*
X-2385Y3171D01*
X-2380Y3167D01*
X-2375Y3164D01*
X-2368Y3159D01*
X-2360Y3155D01*
X-2351Y3152D01*
X-2341Y3152D01*
X-2335D01*
X-2329Y3153D01*
X-2323Y3155D01*
X-2315Y3158D01*
X-2305Y3163D01*
X-2297Y3169D01*
X-2289Y3178D01*
X-2288Y3179D01*
X-2285Y3184D01*
X-2282Y3189D01*
X-2278Y3199D01*
X-2274Y3209D01*
X-2271Y3223D01*
X-2268Y3238D01*
X-2267Y3255D01*
Y3256D01*
Y3257D01*
Y3263D01*
X-2268Y3271D01*
X-2270Y3281D01*
X-2272Y3292D01*
X-2276Y3304D01*
X-2281Y3316D01*
X-2288Y3326D01*
X-2289Y3327D01*
X-2292Y3331D01*
X-2296Y3335D01*
X-2302Y3340D01*
X-2309Y3345D01*
X-2317Y3349D01*
X-2327Y3352D01*
X-2337Y3353D01*
X-2344D01*
X-2349Y3352D01*
X-2355Y3351D01*
X-2364Y3349D01*
X-2372Y3347D01*
X-2381Y3344D01*
X-2371Y3442D01*
X-2365D01*
X-2357Y3443D01*
X-2349Y3444D01*
X-2339Y3447D01*
X-2329Y3449D01*
X-2319Y3455D01*
X-2310Y3461D01*
X-2309Y3462D01*
X-2306Y3465D01*
X-2303Y3471D01*
X-2299Y3477D01*
X-2295Y3485D01*
X-2292Y3496D01*
X-2289Y3508D01*
X-2288Y3521D01*
Y3523D01*
Y3527D01*
X-2289Y3532D01*
X-2290Y3540D01*
X-2292Y3547D01*
X-2295Y3556D01*
X-2299Y3564D01*
X-2304Y3571D01*
X-2305Y3572D01*
X-2307Y3574D01*
X-2311Y3577D01*
X-2316Y3581D01*
X-2321Y3584D01*
X-2329Y3587D01*
X-2337Y3589D01*
X-2346Y3590D01*
X-2350D01*
X-2355Y3589D01*
X-2361Y3587D01*
X-2367Y3584D01*
X-2375Y3581D01*
X-2382Y3576D01*
X-2390Y3569D01*
X-2390Y3568D01*
X-2392Y3565D01*
X-2395Y3559D01*
X-2399Y3553D01*
X-2402Y3545D01*
X-2406Y3533D01*
X-2409Y3521D01*
X-2411Y3507D01*
X-2501Y3525D01*
Y3526D01*
X-2500Y3529D01*
X-2500Y3533D01*
X-2499Y3539D01*
X-2497Y3546D01*
X-2495Y3554D01*
X-2489Y3572D01*
X-2482Y3593D01*
X-2473Y3613D01*
X-2461Y3632D01*
X-2454Y3642D01*
X-2447Y3649D01*
X-2446Y3650D01*
X-2445Y3651D01*
X-2439Y3655D01*
X-2430Y3662D01*
X-2418Y3669D01*
X-2403Y3676D01*
X-2385Y3682D01*
X-2365Y3687D01*
X-2353Y3689D01*
X-2336D01*
X-2330Y3688D01*
D02*
G37*
G36*
X-1655Y-968D02*
X-1610Y-923D01*
X-1535Y-998D01*
X-1580Y-1043D01*
X-1491Y-1132D01*
X-1559Y-1199D01*
X-1647Y-1110D01*
X-1796Y-1259D01*
X-1870Y-1185D01*
X-1993Y-747D01*
X-1934Y-689D01*
X-1655Y-968D01*
D02*
G37*
G36*
X-2185Y-1011D02*
X-2169Y-1012D01*
X-2152Y-1016D01*
X-2150Y-1017D01*
X-2144Y-1019D01*
X-2135Y-1023D01*
X-2124Y-1027D01*
X-2111Y-1035D01*
X-2096Y-1045D01*
X-2081Y-1056D01*
X-2065Y-1070D01*
X-2065Y-1071D01*
X-2063Y-1072D01*
X-2060Y-1076D01*
X-2057Y-1080D01*
X-2053Y-1084D01*
X-2048Y-1090D01*
X-2038Y-1104D01*
X-2028Y-1119D01*
X-2019Y-1138D01*
X-2012Y-1158D01*
X-2007Y-1180D01*
X-2006Y-1180D01*
X-2007Y-1182D01*
X-2006Y-1189D01*
X-2007Y-1200D01*
X-2009Y-1214D01*
X-2012Y-1231D01*
X-2018Y-1250D01*
X-2026Y-1269D01*
X-2038Y-1289D01*
X-2036Y-1289D01*
X-2031D01*
X-2023Y-1287D01*
X-2014Y-1287D01*
X-2002Y-1286D01*
X-1989D01*
X-1976Y-1287D01*
X-1963Y-1288D01*
X-1961D01*
X-1956Y-1289D01*
X-1947Y-1291D01*
X-1935Y-1293D01*
X-1919Y-1297D01*
X-1910Y-1300D01*
X-1900Y-1302D01*
X-1889Y-1306D01*
X-1876Y-1309D01*
X-1863Y-1314D01*
X-1849Y-1318D01*
X-1719Y-1359D01*
X-1807Y-1448D01*
X-1955Y-1404D01*
X-1956Y-1403D01*
X-1959Y-1402D01*
X-1963Y-1401D01*
X-1968Y-1400D01*
X-1975Y-1399D01*
X-1982Y-1397D01*
X-1999Y-1392D01*
X-2016Y-1387D01*
X-2034Y-1383D01*
X-2041Y-1381D01*
X-2048Y-1380D01*
X-2055Y-1379D01*
X-2059Y-1378D01*
X-2063D01*
X-2068Y-1378D01*
X-2073D01*
X-2086Y-1378D01*
X-2093Y-1379D01*
X-2099Y-1382D01*
X-2100Y-1382D01*
X-2102Y-1383D01*
X-2106Y-1384D01*
X-2110Y-1387D01*
X-2117Y-1391D01*
X-2124Y-1397D01*
X-2132Y-1404D01*
X-2155Y-1427D01*
X-1971Y-1612D01*
X-2044Y-1685D01*
X-2486Y-1243D01*
X-2322Y-1079D01*
X-2317Y-1075D01*
X-2311Y-1069D01*
X-2298Y-1057D01*
X-2282Y-1046D01*
X-2267Y-1034D01*
X-2250Y-1024D01*
X-2242Y-1020D01*
X-2235Y-1017D01*
X-2233Y-1016D01*
X-2229Y-1014D01*
X-2221Y-1013D01*
X-2210Y-1012D01*
X-2199Y-1010D01*
X-2185Y-1011D01*
D02*
G37*
G36*
X-2087Y2121D02*
X-2081Y2120D01*
X-2075Y2119D01*
X-2058Y2115D01*
X-2041Y2110D01*
X-2022Y2100D01*
X-2013Y2095D01*
X-2004Y2088D01*
X-1995Y2081D01*
X-1987Y2072D01*
X-1986Y2071D01*
X-1985Y2070D01*
X-1983Y2067D01*
X-1981Y2063D01*
X-1978Y2059D01*
X-1974Y2053D01*
X-1966Y2039D01*
X-1958Y2023D01*
X-1952Y2004D01*
X-1947Y1984D01*
X-1945Y1973D01*
Y1962D01*
Y1960D01*
Y1955D01*
X-1946Y1947D01*
X-1948Y1938D01*
X-1950Y1926D01*
X-1954Y1914D01*
X-1958Y1901D01*
X-1965Y1888D01*
X-1966Y1886D01*
X-1969Y1882D01*
X-1972Y1877D01*
X-1979Y1868D01*
X-1986Y1860D01*
X-1996Y1850D01*
X-2007Y1840D01*
X-2020Y1830D01*
X-2019D01*
X-2018Y1829D01*
X-2013Y1828D01*
X-2006Y1825D01*
X-1995Y1820D01*
X-1984Y1813D01*
X-1973Y1804D01*
X-1962Y1793D01*
X-1951Y1780D01*
X-1950Y1778D01*
X-1946Y1772D01*
X-1942Y1764D01*
X-1937Y1753D01*
X-1932Y1739D01*
X-1928Y1722D01*
X-1924Y1703D01*
X-1923Y1682D01*
Y1681D01*
Y1678D01*
Y1673D01*
X-1924Y1668D01*
X-1925Y1660D01*
X-1926Y1652D01*
X-1928Y1643D01*
X-1930Y1632D01*
X-1936Y1609D01*
X-1945Y1586D01*
X-1951Y1574D01*
X-1957Y1562D01*
X-1966Y1551D01*
X-1975Y1540D01*
X-1976Y1539D01*
X-1977Y1537D01*
X-1981Y1535D01*
X-1984Y1532D01*
X-1989Y1527D01*
X-1994Y1523D01*
X-2009Y1512D01*
X-2027Y1502D01*
X-2047Y1493D01*
X-2059Y1490D01*
X-2071Y1487D01*
X-2083Y1486D01*
X-2096Y1485D01*
X-2103D01*
X-2107Y1486D01*
X-2113Y1486D01*
X-2120Y1487D01*
X-2136Y1490D01*
X-2153Y1496D01*
X-2173Y1505D01*
X-2183Y1510D01*
X-2192Y1516D01*
X-2202Y1523D01*
X-2211Y1532D01*
X-2212Y1533D01*
X-2213Y1534D01*
X-2215Y1536D01*
X-2218Y1540D01*
X-2222Y1546D01*
X-2226Y1551D01*
X-2230Y1558D01*
X-2235Y1566D01*
X-2239Y1574D01*
X-2244Y1584D01*
X-2249Y1595D01*
X-2253Y1607D01*
X-2260Y1632D01*
X-2264Y1661D01*
X-2169Y1675D01*
Y1674D01*
Y1673D01*
X-2168Y1668D01*
X-2167Y1660D01*
X-2165Y1650D01*
X-2162Y1639D01*
X-2157Y1628D01*
X-2152Y1617D01*
X-2145Y1608D01*
X-2144Y1607D01*
X-2141Y1604D01*
X-2137Y1600D01*
X-2131Y1596D01*
X-2125Y1592D01*
X-2116Y1588D01*
X-2107Y1585D01*
X-2097Y1584D01*
X-2092D01*
X-2086Y1586D01*
X-2079Y1588D01*
X-2071Y1591D01*
X-2062Y1596D01*
X-2054Y1602D01*
X-2045Y1611D01*
X-2044Y1612D01*
X-2042Y1617D01*
X-2039Y1622D01*
X-2034Y1632D01*
X-2030Y1642D01*
X-2028Y1656D01*
X-2025Y1670D01*
X-2024Y1688D01*
Y1689D01*
Y1690D01*
Y1695D01*
X-2025Y1704D01*
X-2027Y1714D01*
X-2029Y1725D01*
X-2032Y1737D01*
X-2038Y1749D01*
X-2044Y1759D01*
X-2045Y1760D01*
X-2048Y1764D01*
X-2053Y1768D01*
X-2058Y1773D01*
X-2066Y1778D01*
X-2074Y1782D01*
X-2083Y1785D01*
X-2093Y1786D01*
X-2101D01*
X-2105Y1785D01*
X-2112Y1784D01*
X-2120Y1782D01*
X-2128Y1780D01*
X-2138Y1777D01*
X-2128Y1875D01*
X-2121D01*
X-2114Y1876D01*
X-2105Y1877D01*
X-2095Y1879D01*
X-2085Y1882D01*
X-2076Y1888D01*
X-2067Y1894D01*
X-2066Y1895D01*
X-2063Y1898D01*
X-2059Y1903D01*
X-2055Y1910D01*
X-2052Y1918D01*
X-2048Y1928D01*
X-2045Y1940D01*
X-2044Y1954D01*
Y1956D01*
Y1960D01*
X-2045Y1965D01*
X-2046Y1973D01*
X-2048Y1980D01*
X-2052Y1988D01*
X-2055Y1997D01*
X-2061Y2004D01*
X-2062Y2005D01*
X-2064Y2007D01*
X-2067Y2010D01*
X-2072Y2013D01*
X-2078Y2017D01*
X-2085Y2020D01*
X-2093Y2022D01*
X-2103Y2023D01*
X-2106D01*
X-2112Y2022D01*
X-2117Y2020D01*
X-2124Y2017D01*
X-2131Y2013D01*
X-2139Y2009D01*
X-2146Y2001D01*
X-2147Y2000D01*
X-2149Y1998D01*
X-2152Y1992D01*
X-2155Y1986D01*
X-2159Y1977D01*
X-2163Y1966D01*
X-2165Y1954D01*
X-2167Y1939D01*
X-2258Y1958D01*
Y1959D01*
X-2257Y1962D01*
X-2256Y1966D01*
X-2255Y1972D01*
X-2253Y1979D01*
X-2251Y1987D01*
X-2246Y2005D01*
X-2239Y2025D01*
X-2229Y2046D01*
X-2217Y2065D01*
X-2211Y2074D01*
X-2203Y2082D01*
X-2202Y2083D01*
X-2202Y2084D01*
X-2196Y2088D01*
X-2187Y2095D01*
X-2175Y2102D01*
X-2160Y2109D01*
X-2141Y2115D01*
X-2121Y2120D01*
X-2110Y2122D01*
X-2092D01*
X-2087Y2121D01*
D02*
G37*
G36*
X-2517Y2119D02*
X-2508D01*
X-2491Y2118D01*
X-2471Y2115D01*
X-2452Y2112D01*
X-2434Y2108D01*
X-2425Y2105D01*
X-2418Y2102D01*
X-2416Y2101D01*
X-2411Y2099D01*
X-2405Y2095D01*
X-2397Y2088D01*
X-2387Y2081D01*
X-2378Y2071D01*
X-2368Y2059D01*
X-2359Y2044D01*
X-2358Y2042D01*
X-2355Y2037D01*
X-2351Y2027D01*
X-2347Y2016D01*
X-2343Y2001D01*
X-2339Y1984D01*
X-2337Y1965D01*
X-2336Y1944D01*
Y1943D01*
Y1941D01*
Y1937D01*
X-2337Y1932D01*
Y1926D01*
X-2337Y1918D01*
X-2340Y1902D01*
X-2344Y1883D01*
X-2350Y1864D01*
X-2360Y1844D01*
X-2372Y1826D01*
Y1825D01*
X-2373Y1824D01*
X-2378Y1818D01*
X-2386Y1811D01*
X-2398Y1803D01*
X-2411Y1792D01*
X-2429Y1783D01*
X-2448Y1776D01*
X-2471Y1770D01*
X-2470Y1769D01*
X-2466Y1766D01*
X-2459Y1761D01*
X-2452Y1755D01*
X-2444Y1747D01*
X-2435Y1738D01*
X-2425Y1728D01*
X-2417Y1718D01*
X-2416Y1717D01*
X-2413Y1712D01*
X-2408Y1705D01*
X-2401Y1694D01*
X-2393Y1681D01*
X-2388Y1672D01*
X-2383Y1663D01*
X-2377Y1653D01*
X-2371Y1642D01*
X-2364Y1629D01*
X-2358Y1616D01*
X-2295Y1495D01*
X-2420D01*
X-2494Y1631D01*
Y1632D01*
X-2496Y1634D01*
X-2497Y1638D01*
X-2500Y1643D01*
X-2504Y1648D01*
X-2508Y1655D01*
X-2516Y1669D01*
X-2525Y1685D01*
X-2534Y1701D01*
X-2538Y1707D01*
X-2543Y1713D01*
X-2546Y1719D01*
X-2549Y1722D01*
X-2550Y1723D01*
X-2552Y1725D01*
X-2555Y1729D01*
X-2558Y1732D01*
X-2568Y1741D01*
X-2573Y1745D01*
X-2580Y1748D01*
X-2581D01*
X-2582Y1749D01*
X-2586Y1751D01*
X-2592Y1752D01*
X-2599Y1754D01*
X-2608Y1755D01*
X-2618Y1755D01*
X-2652D01*
Y1495D01*
X-2755D01*
Y2120D01*
X-2523D01*
X-2517Y2119D01*
D02*
G37*
G36*
X2395Y-4740D02*
X2411Y-4742D01*
X2413D01*
X2415Y-4743D01*
X2420Y-4744D01*
X2427Y-4746D01*
X2436Y-4749D01*
X2445Y-4754D01*
X2457Y-4758D01*
X2470Y-4764D01*
X2485Y-4772D01*
X2501Y-4782D01*
X2517Y-4793D01*
X2536Y-4806D01*
X2555Y-4820D01*
X2576Y-4837D01*
X2596Y-4856D01*
X2619Y-4877D01*
X2619Y-4878D01*
X2620Y-4879D01*
X2624Y-4883D01*
X2630Y-4889D01*
X2638Y-4898D01*
X2647Y-4909D01*
X2658Y-4921D01*
X2669Y-4934D01*
X2681Y-4949D01*
X2706Y-4983D01*
X2717Y-5000D01*
X2728Y-5018D01*
X2737Y-5036D01*
X2746Y-5054D01*
X2752Y-5072D01*
X2756Y-5089D01*
Y-5090D01*
Y-5093D01*
X2757Y-5098D01*
X2758Y-5104D01*
Y-5112D01*
Y-5121D01*
X2757Y-5131D01*
X2756Y-5141D01*
X2755Y-5153D01*
X2752Y-5165D01*
X2744Y-5190D01*
X2738Y-5202D01*
X2731Y-5215D01*
X2723Y-5226D01*
X2713Y-5238D01*
X2709Y-5242D01*
X2706Y-5244D01*
X2697Y-5251D01*
X2685Y-5259D01*
X2672Y-5266D01*
X2656Y-5273D01*
X2638Y-5278D01*
X2618Y-5279D01*
X2615D01*
X2608Y-5279D01*
X2597Y-5277D01*
X2591Y-5276D01*
X2583Y-5274D01*
X2575Y-5270D01*
X2566Y-5268D01*
X2557Y-5264D01*
X2546Y-5259D01*
X2536Y-5253D01*
X2524Y-5247D01*
X2513Y-5240D01*
X2501Y-5230D01*
X2559Y-5154D01*
X2560Y-5155D01*
X2561Y-5156D01*
X2564Y-5158D01*
X2568Y-5160D01*
X2578Y-5166D01*
X2590Y-5172D01*
X2604Y-5175D01*
X2619Y-5177D01*
X2627Y-5175D01*
X2634Y-5174D01*
X2641Y-5169D01*
X2647Y-5164D01*
X2649Y-5162D01*
X2651Y-5159D01*
X2654Y-5155D01*
X2657Y-5147D01*
X2661Y-5139D01*
X2662Y-5128D01*
Y-5116D01*
X2661Y-5102D01*
X2660Y-5100D01*
X2659Y-5098D01*
X2658Y-5094D01*
X2657Y-5090D01*
X2654Y-5085D01*
X2651Y-5079D01*
X2647Y-5073D01*
X2642Y-5064D01*
X2636Y-5056D01*
X2630Y-5046D01*
X2623Y-5036D01*
X2614Y-5023D01*
X2604Y-5011D01*
X2593Y-4997D01*
X2581Y-4983D01*
Y-4985D01*
X2582Y-4989D01*
Y-4995D01*
X2583Y-5002D01*
Y-5011D01*
X2582Y-5020D01*
X2581Y-5030D01*
X2579Y-5040D01*
Y-5041D01*
X2578Y-5044D01*
X2575Y-5049D01*
X2573Y-5055D01*
X2569Y-5063D01*
X2564Y-5070D01*
X2558Y-5078D01*
X2551Y-5086D01*
X2547Y-5090D01*
X2543Y-5092D01*
X2540Y-5095D01*
X2535Y-5098D01*
X2521Y-5106D01*
X2506Y-5112D01*
X2496Y-5115D01*
X2487Y-5118D01*
X2476Y-5119D01*
X2464Y-5121D01*
X2452Y-5121D01*
X2439Y-5120D01*
X2438D01*
X2436Y-5119D01*
X2432Y-5119D01*
X2427Y-5117D01*
X2421Y-5116D01*
X2413Y-5114D01*
X2405Y-5111D01*
X2395Y-5107D01*
X2386Y-5104D01*
X2375Y-5099D01*
X2363Y-5092D01*
X2352Y-5085D01*
X2340Y-5078D01*
X2328Y-5069D01*
X2315Y-5058D01*
X2303Y-5047D01*
X2302Y-5046D01*
X2300Y-5043D01*
X2296Y-5040D01*
X2292Y-5034D01*
X2287Y-5028D01*
X2281Y-5021D01*
X2274Y-5013D01*
X2267Y-5003D01*
X2254Y-4982D01*
X2242Y-4957D01*
X2236Y-4945D01*
X2232Y-4932D01*
X2229Y-4918D01*
X2227Y-4904D01*
Y-4903D01*
X2226Y-4901D01*
Y-4897D01*
Y-4892D01*
X2227Y-4886D01*
Y-4878D01*
X2230Y-4861D01*
X2234Y-4842D01*
X2242Y-4821D01*
X2247Y-4811D01*
X2253Y-4801D01*
X2260Y-4791D01*
X2269Y-4781D01*
X2274Y-4776D01*
X2279Y-4773D01*
X2284Y-4769D01*
X2291Y-4764D01*
X2307Y-4756D01*
X2317Y-4751D01*
X2328Y-4747D01*
X2340Y-4745D01*
X2352Y-4741D01*
X2366Y-4739D01*
X2380D01*
X2395Y-4740D01*
D02*
G37*
G36*
X2117Y-5036D02*
X2119D01*
X2125Y-5036D01*
X2135Y-5038D01*
X2148Y-5042D01*
X2164Y-5046D01*
X2181Y-5052D01*
X2200Y-5060D01*
X2221Y-5071D01*
X2222Y-5072D01*
X2224Y-5072D01*
X2227Y-5074D01*
X2231Y-5077D01*
X2236Y-5080D01*
X2242Y-5084D01*
X2249Y-5089D01*
X2257Y-5094D01*
X2265Y-5100D01*
X2274Y-5107D01*
X2284Y-5114D01*
X2294Y-5123D01*
X2316Y-5142D01*
X2340Y-5164D01*
X2340Y-5165D01*
X2342Y-5167D01*
X2345Y-5170D01*
X2349Y-5174D01*
X2353Y-5179D01*
X2359Y-5185D01*
X2365Y-5192D01*
X2372Y-5200D01*
X2386Y-5217D01*
X2401Y-5236D01*
X2415Y-5257D01*
X2426Y-5277D01*
X2427Y-5278D01*
X2428Y-5280D01*
X2429Y-5283D01*
X2431Y-5287D01*
X2436Y-5298D01*
X2442Y-5311D01*
X2448Y-5326D01*
X2453Y-5344D01*
X2458Y-5361D01*
X2460Y-5378D01*
X2461Y-5380D01*
Y-5385D01*
Y-5394D01*
Y-5405D01*
X2460Y-5418D01*
X2458Y-5432D01*
X2455Y-5447D01*
X2449Y-5462D01*
X2449Y-5464D01*
X2446Y-5470D01*
X2442Y-5478D01*
X2436Y-5488D01*
X2428Y-5501D01*
X2417Y-5515D01*
X2404Y-5531D01*
X2389Y-5547D01*
X2252Y-5685D01*
X1810Y-5243D01*
X1952Y-5101D01*
X1956Y-5098D01*
X1961Y-5093D01*
X1973Y-5083D01*
X1987Y-5072D01*
X2002Y-5062D01*
X2017Y-5052D01*
X2031Y-5045D01*
X2033Y-5045D01*
X2037Y-5043D01*
X2045Y-5041D01*
X2056Y-5039D01*
X2068Y-5037D01*
X2083Y-5035D01*
X2099D01*
X2117Y-5036D01*
D02*
G37*
G36*
X-1959Y-5074D02*
X-1956Y-5078D01*
X-1952Y-5083D01*
X-1941Y-5094D01*
X-1930Y-5108D01*
X-1920Y-5123D01*
X-1910Y-5138D01*
X-1904Y-5153D01*
X-1903Y-5155D01*
X-1901Y-5159D01*
X-1900Y-5167D01*
X-1897Y-5177D01*
X-1895Y-5190D01*
X-1893Y-5205D01*
Y-5221D01*
X-1894Y-5238D01*
Y-5241D01*
X-1895Y-5247D01*
X-1897Y-5257D01*
X-1901Y-5270D01*
X-1904Y-5285D01*
X-1910Y-5303D01*
X-1919Y-5322D01*
X-1929Y-5343D01*
X-1930Y-5344D01*
X-1931Y-5346D01*
X-1933Y-5349D01*
X-1935Y-5353D01*
X-1938Y-5357D01*
X-1942Y-5364D01*
X-1947Y-5371D01*
X-1952Y-5379D01*
X-1959Y-5387D01*
X-1965Y-5396D01*
X-1972Y-5406D01*
X-1982Y-5416D01*
X-2001Y-5438D01*
X-2023Y-5461D01*
X-2023Y-5462D01*
X-2025Y-5464D01*
X-2029Y-5467D01*
X-2033Y-5471D01*
X-2038Y-5475D01*
X-2044Y-5481D01*
X-2051Y-5487D01*
X-2058Y-5494D01*
X-2076Y-5508D01*
X-2095Y-5523D01*
X-2115Y-5536D01*
X-2136Y-5548D01*
X-2137Y-5549D01*
X-2139Y-5549D01*
X-2141Y-5551D01*
X-2146Y-5553D01*
X-2156Y-5558D01*
X-2169Y-5563D01*
X-2185Y-5570D01*
X-2202Y-5575D01*
X-2220Y-5580D01*
X-2237Y-5582D01*
X-2239Y-5583D01*
X-2244D01*
X-2253D01*
X-2263D01*
X-2276Y-5582D01*
X-2290Y-5580D01*
X-2305Y-5576D01*
X-2321Y-5571D01*
X-2323Y-5570D01*
X-2328Y-5568D01*
X-2336Y-5564D01*
X-2346Y-5557D01*
X-2359Y-5549D01*
X-2374Y-5539D01*
X-2390Y-5526D01*
X-2406Y-5511D01*
X-2543Y-5374D01*
X-2101Y-4932D01*
X-1959Y-5074D01*
D02*
G37*
G36*
X-1519Y-5525D02*
X-1582Y-5587D01*
X-1582Y-5588D01*
X-1584Y-5587D01*
X-1588Y-5589D01*
X-1593D01*
X-1600Y-5590D01*
X-1607Y-5591D01*
X-1615Y-5593D01*
X-1625Y-5595D01*
X-1637Y-5597D01*
X-1649Y-5600D01*
X-1662Y-5604D01*
X-1676Y-5607D01*
X-1691Y-5612D01*
X-1707Y-5616D01*
X-1723Y-5622D01*
X-1741Y-5628D01*
X-1742Y-5629D01*
X-1745Y-5629D01*
X-1750Y-5632D01*
X-1757Y-5634D01*
X-1765Y-5638D01*
X-1776Y-5642D01*
X-1787Y-5647D01*
X-1800Y-5653D01*
X-1814Y-5659D01*
X-1828Y-5665D01*
X-1843Y-5674D01*
X-1859Y-5682D01*
X-1893Y-5700D01*
X-1927Y-5721D01*
X-1927Y-5721D01*
X-1931Y-5723D01*
X-1935Y-5727D01*
X-1942Y-5731D01*
X-1950Y-5736D01*
X-1959Y-5742D01*
X-1969Y-5750D01*
X-1979Y-5757D01*
X-1991Y-5766D01*
X-2003Y-5775D01*
X-2029Y-5795D01*
X-2054Y-5817D01*
X-2078Y-5839D01*
X-2144Y-5772D01*
X-2143Y-5771D01*
X-2140Y-5768D01*
X-2135Y-5764D01*
X-2127Y-5757D01*
X-2118Y-5749D01*
X-2108Y-5740D01*
X-2095Y-5729D01*
X-2081Y-5718D01*
X-2065Y-5706D01*
X-2049Y-5694D01*
X-2031Y-5681D01*
X-2012Y-5667D01*
X-1970Y-5640D01*
X-1926Y-5616D01*
X-1924Y-5615D01*
X-1921Y-5613D01*
X-1914Y-5610D01*
X-1905Y-5605D01*
X-1893Y-5600D01*
X-1880Y-5593D01*
X-1865Y-5587D01*
X-1848Y-5580D01*
X-1831Y-5572D01*
X-1811Y-5565D01*
X-1769Y-5550D01*
X-1724Y-5535D01*
X-1678Y-5524D01*
X-1835Y-5366D01*
X-1757Y-5288D01*
X-1519Y-5525D01*
D02*
G37*
G36*
X-1757Y6615D02*
X-1752Y6614D01*
X-1745Y6613D01*
X-1729Y6610D01*
X-1711Y6604D01*
X-1693Y6595D01*
X-1684Y6589D01*
X-1674Y6583D01*
X-1666Y6575D01*
X-1658Y6566D01*
X-1657Y6565D01*
X-1656Y6564D01*
X-1654Y6562D01*
X-1651Y6558D01*
X-1648Y6553D01*
X-1645Y6548D01*
X-1636Y6534D01*
X-1629Y6517D01*
X-1622Y6499D01*
X-1618Y6478D01*
X-1616Y6467D01*
Y6456D01*
Y6454D01*
Y6450D01*
X-1617Y6441D01*
X-1619Y6432D01*
X-1621Y6420D01*
X-1624Y6408D01*
X-1629Y6395D01*
X-1635Y6382D01*
X-1636Y6380D01*
X-1639Y6377D01*
X-1643Y6371D01*
X-1649Y6363D01*
X-1657Y6354D01*
X-1667Y6344D01*
X-1678Y6334D01*
X-1691Y6325D01*
X-1690D01*
X-1689Y6324D01*
X-1684Y6322D01*
X-1676Y6319D01*
X-1666Y6315D01*
X-1655Y6307D01*
X-1644Y6299D01*
X-1633Y6288D01*
X-1622Y6274D01*
X-1621Y6272D01*
X-1617Y6267D01*
X-1612Y6258D01*
X-1608Y6247D01*
X-1602Y6233D01*
X-1598Y6217D01*
X-1595Y6197D01*
X-1594Y6176D01*
Y6175D01*
Y6172D01*
Y6168D01*
X-1595Y6162D01*
X-1596Y6155D01*
X-1597Y6146D01*
X-1598Y6137D01*
X-1600Y6126D01*
X-1607Y6104D01*
X-1616Y6081D01*
X-1622Y6069D01*
X-1628Y6057D01*
X-1636Y6046D01*
X-1646Y6035D01*
X-1647Y6034D01*
X-1647Y6032D01*
X-1651Y6029D01*
X-1655Y6026D01*
X-1659Y6022D01*
X-1665Y6017D01*
X-1680Y6007D01*
X-1697Y5997D01*
X-1718Y5987D01*
X-1730Y5985D01*
X-1742Y5982D01*
X-1754Y5980D01*
X-1767Y5979D01*
X-1773D01*
X-1778Y5980D01*
X-1783Y5981D01*
X-1791Y5982D01*
X-1806Y5985D01*
X-1824Y5990D01*
X-1843Y5999D01*
X-1854Y6004D01*
X-1863Y6011D01*
X-1872Y6018D01*
X-1881Y6026D01*
X-1882Y6027D01*
X-1883Y6028D01*
X-1886Y6031D01*
X-1889Y6035D01*
X-1892Y6040D01*
X-1896Y6046D01*
X-1901Y6052D01*
X-1905Y6060D01*
X-1910Y6069D01*
X-1915Y6079D01*
X-1919Y6089D01*
X-1924Y6101D01*
X-1930Y6126D01*
X-1935Y6156D01*
X-1840Y6170D01*
Y6169D01*
Y6168D01*
X-1839Y6162D01*
X-1838Y6155D01*
X-1835Y6145D01*
X-1832Y6133D01*
X-1828Y6122D01*
X-1822Y6111D01*
X-1816Y6102D01*
X-1815Y6101D01*
X-1812Y6098D01*
X-1807Y6095D01*
X-1802Y6091D01*
X-1795Y6086D01*
X-1787Y6083D01*
X-1778Y6080D01*
X-1768Y6079D01*
X-1762D01*
X-1757Y6081D01*
X-1750Y6083D01*
X-1742Y6085D01*
X-1733Y6090D01*
X-1724Y6097D01*
X-1716Y6106D01*
X-1715Y6107D01*
X-1712Y6111D01*
X-1709Y6117D01*
X-1705Y6126D01*
X-1701Y6136D01*
X-1698Y6150D01*
X-1696Y6165D01*
X-1695Y6182D01*
Y6183D01*
Y6184D01*
Y6190D01*
X-1696Y6198D01*
X-1697Y6208D01*
X-1699Y6219D01*
X-1703Y6231D01*
X-1708Y6244D01*
X-1715Y6254D01*
X-1716Y6255D01*
X-1719Y6258D01*
X-1723Y6262D01*
X-1729Y6268D01*
X-1736Y6272D01*
X-1745Y6277D01*
X-1754Y6280D01*
X-1764Y6280D01*
X-1771D01*
X-1776Y6280D01*
X-1782Y6279D01*
X-1791Y6277D01*
X-1799Y6274D01*
X-1808Y6271D01*
X-1798Y6369D01*
X-1792D01*
X-1784Y6370D01*
X-1776Y6371D01*
X-1766Y6374D01*
X-1756Y6377D01*
X-1746Y6382D01*
X-1737Y6389D01*
X-1736Y6390D01*
X-1733Y6392D01*
X-1730Y6398D01*
X-1726Y6404D01*
X-1722Y6413D01*
X-1719Y6423D01*
X-1716Y6435D01*
X-1715Y6449D01*
Y6451D01*
Y6454D01*
X-1716Y6460D01*
X-1717Y6467D01*
X-1719Y6475D01*
X-1722Y6483D01*
X-1726Y6491D01*
X-1732Y6499D01*
X-1733Y6500D01*
X-1734Y6501D01*
X-1738Y6504D01*
X-1743Y6508D01*
X-1748Y6512D01*
X-1756Y6514D01*
X-1764Y6516D01*
X-1773Y6517D01*
X-1777D01*
X-1782Y6516D01*
X-1788Y6514D01*
X-1794Y6512D01*
X-1802Y6508D01*
X-1809Y6503D01*
X-1817Y6496D01*
X-1818Y6495D01*
X-1819Y6492D01*
X-1822Y6487D01*
X-1826Y6480D01*
X-1830Y6472D01*
X-1833Y6461D01*
X-1836Y6449D01*
X-1838Y6434D01*
X-1929Y6452D01*
Y6453D01*
X-1928Y6456D01*
X-1927Y6461D01*
X-1926Y6466D01*
X-1924Y6474D01*
X-1922Y6481D01*
X-1916Y6500D01*
X-1909Y6520D01*
X-1900Y6540D01*
X-1888Y6560D01*
X-1881Y6569D01*
X-1874Y6576D01*
X-1873Y6577D01*
X-1872Y6578D01*
X-1867Y6583D01*
X-1857Y6589D01*
X-1845Y6597D01*
X-1831Y6603D01*
X-1812Y6610D01*
X-1792Y6614D01*
X-1781Y6616D01*
X-1763D01*
X-1757Y6615D01*
D02*
G37*
G36*
X-2221Y6613D02*
X-2214D01*
X-2198Y6612D01*
X-2181Y6611D01*
X-2163Y6607D01*
X-2146Y6603D01*
X-2131Y6598D01*
X-2129Y6597D01*
X-2125Y6595D01*
X-2118Y6590D01*
X-2109Y6585D01*
X-2099Y6577D01*
X-2087Y6568D01*
X-2076Y6557D01*
X-2064Y6544D01*
X-2062Y6542D01*
X-2058Y6538D01*
X-2052Y6529D01*
X-2046Y6517D01*
X-2038Y6503D01*
X-2029Y6487D01*
X-2022Y6467D01*
X-2014Y6445D01*
Y6444D01*
X-2014Y6442D01*
X-2013Y6439D01*
X-2012Y6434D01*
X-2011Y6428D01*
X-2009Y6421D01*
X-2007Y6413D01*
X-2005Y6403D01*
X-2004Y6393D01*
X-2002Y6382D01*
X-2001Y6370D01*
X-2000Y6356D01*
X-1998Y6328D01*
X-1997Y6295D01*
Y6294D01*
Y6292D01*
Y6287D01*
Y6281D01*
X-1998Y6275D01*
Y6267D01*
X-1999Y6257D01*
Y6247D01*
X-2002Y6225D01*
X-2004Y6201D01*
X-2009Y6177D01*
X-2015Y6154D01*
Y6153D01*
X-2016Y6151D01*
X-2017Y6148D01*
X-2019Y6144D01*
X-2023Y6133D01*
X-2028Y6120D01*
X-2035Y6104D01*
X-2043Y6088D01*
X-2052Y6072D01*
X-2063Y6059D01*
X-2064Y6057D01*
X-2067Y6053D01*
X-2074Y6047D01*
X-2081Y6039D01*
X-2091Y6031D01*
X-2102Y6023D01*
X-2115Y6014D01*
X-2130Y6007D01*
X-2132Y6006D01*
X-2137Y6004D01*
X-2146Y6001D01*
X-2158Y5998D01*
X-2173Y5995D01*
X-2190Y5992D01*
X-2211Y5990D01*
X-2233Y5989D01*
X-2427D01*
Y6614D01*
X-2226D01*
X-2221Y6613D01*
D02*
G37*
G36*
X3804Y5637D02*
X3808Y5633D01*
X3812Y5628D01*
X3823Y5616D01*
X3834Y5603D01*
X3844Y5588D01*
X3853Y5572D01*
X3860Y5558D01*
X3861Y5556D01*
X3863Y5552D01*
X3864Y5544D01*
X3867Y5533D01*
X3869Y5521D01*
X3870Y5506D01*
Y5490D01*
X3870Y5472D01*
Y5470D01*
X3869Y5464D01*
X3867Y5454D01*
X3863Y5441D01*
X3859Y5425D01*
X3853Y5408D01*
X3845Y5389D01*
X3835Y5368D01*
X3834Y5367D01*
X3833Y5365D01*
X3831Y5362D01*
X3829Y5358D01*
X3825Y5353D01*
X3821Y5347D01*
X3817Y5340D01*
X3812Y5332D01*
X3805Y5324D01*
X3799Y5315D01*
X3791Y5305D01*
X3782Y5295D01*
X3763Y5273D01*
X3741Y5249D01*
X3740Y5249D01*
X3738Y5247D01*
X3735Y5244D01*
X3731Y5240D01*
X3726Y5236D01*
X3720Y5230D01*
X3713Y5224D01*
X3706Y5217D01*
X3688Y5203D01*
X3669Y5188D01*
X3649Y5174D01*
X3628Y5163D01*
X3627Y5162D01*
X3625Y5161D01*
X3623Y5160D01*
X3618Y5158D01*
X3608Y5153D01*
X3595Y5148D01*
X3579Y5141D01*
X3562Y5136D01*
X3544Y5131D01*
X3527Y5129D01*
X3525Y5128D01*
X3520D01*
X3511D01*
X3500D01*
X3487Y5129D01*
X3474Y5131D01*
X3459Y5134D01*
X3443Y5140D01*
X3441Y5140D01*
X3436Y5143D01*
X3428Y5147D01*
X3417Y5153D01*
X3404Y5161D01*
X3390Y5172D01*
X3374Y5185D01*
X3358Y5200D01*
X3221Y5337D01*
X3663Y5779D01*
X3804Y5637D01*
D02*
G37*
G36*
X4020Y5362D02*
X4021D01*
X4025D01*
X4029Y5361D01*
X4035Y5360D01*
X4041D01*
X4057Y5356D01*
X4074Y5350D01*
X4093Y5340D01*
X4114Y5328D01*
X4123Y5319D01*
X4133Y5311D01*
X4139Y5306D01*
X4142Y5301D01*
X4146Y5295D01*
X4151Y5289D01*
X4161Y5274D01*
X4171Y5255D01*
X4175Y5246D01*
X4178Y5234D01*
X4181Y5223D01*
X4183Y5212D01*
Y5200D01*
X4182Y5187D01*
Y5186D01*
X4182Y5184D01*
X4181Y5181D01*
X4180Y5176D01*
X4179Y5171D01*
X4177Y5164D01*
X4173Y5148D01*
X4165Y5130D01*
X4156Y5111D01*
X4143Y5092D01*
X4136Y5082D01*
X4127Y5073D01*
X4125Y5072D01*
X4122Y5068D01*
X4116Y5064D01*
X4109Y5057D01*
X4100Y5050D01*
X4089Y5042D01*
X4078Y5035D01*
X4066Y5028D01*
X4065Y5027D01*
X4060Y5025D01*
X4054Y5022D01*
X4045Y5017D01*
X4034Y5013D01*
X4022Y5008D01*
X4007Y5004D01*
X3992Y5000D01*
X3990Y4999D01*
X3985Y4998D01*
X3975Y4996D01*
X3963Y4994D01*
X3946Y4991D01*
X3925Y4989D01*
X3902Y4987D01*
X3875Y4985D01*
X3874D01*
X3872D01*
X3869D01*
X3864Y4984D01*
X3852Y4983D01*
X3837Y4982D01*
X3821Y4981D01*
X3806Y4980D01*
X3793Y4979D01*
X3783Y4978D01*
X3782D01*
X3780Y4977D01*
X3775Y4976D01*
X3770Y4976D01*
X3759Y4973D01*
X3746Y4969D01*
X3884Y4830D01*
X3806Y4752D01*
X3562Y4996D01*
X3563Y4997D01*
X3564Y4998D01*
X3567Y5000D01*
X3570Y5003D01*
X3575Y5006D01*
X3581Y5010D01*
X3594Y5019D01*
X3609Y5029D01*
X3628Y5038D01*
X3648Y5048D01*
X3670Y5057D01*
X3670Y5057D01*
X3673D01*
X3676Y5059D01*
X3681Y5060D01*
X3687Y5061D01*
X3695Y5064D01*
X3704Y5065D01*
X3716Y5067D01*
X3727Y5070D01*
X3741Y5072D01*
X3755Y5074D01*
X3772Y5077D01*
X3790Y5079D01*
X3810Y5080D01*
X3831Y5083D01*
X3853Y5084D01*
X3854D01*
X3857Y5085D01*
X3863D01*
X3869Y5085D01*
X3876D01*
X3886Y5087D01*
X3906Y5089D01*
X3927Y5091D01*
X3948Y5093D01*
X3966Y5095D01*
X3974Y5097D01*
X3980Y5098D01*
X3982Y5098D01*
X3987Y5100D01*
X3995Y5102D01*
X4005Y5107D01*
X4016Y5112D01*
X4027Y5119D01*
X4039Y5127D01*
X4050Y5136D01*
X4050Y5136D01*
X4051Y5137D01*
X4054Y5140D01*
X4059Y5146D01*
X4065Y5153D01*
X4070Y5163D01*
X4075Y5172D01*
X4079Y5182D01*
X4080Y5193D01*
Y5194D01*
Y5198D01*
X4080Y5202D01*
X4079Y5210D01*
X4077Y5217D01*
X4073Y5225D01*
X4068Y5234D01*
X4061Y5242D01*
X4059Y5244D01*
X4056Y5246D01*
X4053Y5248D01*
X4042Y5253D01*
X4037Y5255D01*
X4029Y5257D01*
X4021Y5257D01*
X4012D01*
X4003Y5256D01*
X3991Y5253D01*
X3980Y5248D01*
X3969Y5242D01*
X3956Y5233D01*
X3942Y5222D01*
X3882Y5300D01*
X3883Y5301D01*
X3886Y5303D01*
X3889Y5306D01*
X3895Y5310D01*
X3901Y5314D01*
X3908Y5320D01*
X3918Y5325D01*
X3927Y5331D01*
X3948Y5342D01*
X3971Y5352D01*
X3995Y5359D01*
X4006Y5361D01*
X4018Y5362D01*
X4020D01*
D02*
G37*
G36*
X1711Y5992D02*
X1718Y5991D01*
X1726Y5990D01*
X1735Y5988D01*
X1746Y5985D01*
X1769Y5978D01*
X1781Y5973D01*
X1793Y5968D01*
X1805Y5960D01*
X1817Y5952D01*
X1829Y5943D01*
X1840Y5933D01*
X1841D01*
X1842Y5931D01*
X1844Y5928D01*
X1846Y5925D01*
X1850Y5921D01*
X1854Y5915D01*
X1858Y5909D01*
X1863Y5901D01*
X1868Y5893D01*
X1873Y5885D01*
X1878Y5874D01*
X1883Y5863D01*
X1888Y5850D01*
X1893Y5838D01*
X1897Y5824D01*
X1901Y5809D01*
X1798Y5779D01*
Y5780D01*
X1797Y5781D01*
Y5784D01*
X1796Y5788D01*
X1794Y5797D01*
X1790Y5808D01*
X1784Y5821D01*
X1777Y5834D01*
X1769Y5846D01*
X1759Y5857D01*
X1758Y5858D01*
X1754Y5862D01*
X1747Y5866D01*
X1739Y5871D01*
X1729Y5876D01*
X1718Y5880D01*
X1705Y5884D01*
X1690Y5885D01*
X1685D01*
X1681Y5884D01*
X1671Y5882D01*
X1658Y5878D01*
X1643Y5873D01*
X1627Y5863D01*
X1620Y5858D01*
X1613Y5851D01*
X1605Y5844D01*
X1598Y5835D01*
Y5834D01*
X1596Y5833D01*
X1595Y5829D01*
X1592Y5825D01*
X1589Y5820D01*
X1587Y5813D01*
X1584Y5805D01*
X1580Y5796D01*
X1576Y5786D01*
X1574Y5774D01*
X1571Y5760D01*
X1568Y5745D01*
X1566Y5729D01*
X1564Y5712D01*
X1563Y5692D01*
Y5672D01*
Y5671D01*
Y5666D01*
Y5661D01*
X1564Y5653D01*
Y5643D01*
X1564Y5632D01*
X1565Y5620D01*
X1567Y5607D01*
X1571Y5580D01*
X1577Y5552D01*
X1581Y5539D01*
X1586Y5526D01*
X1591Y5515D01*
X1597Y5505D01*
Y5504D01*
X1599Y5503D01*
X1603Y5497D01*
X1611Y5489D01*
X1622Y5481D01*
X1635Y5471D01*
X1650Y5463D01*
X1668Y5457D01*
X1677Y5457D01*
X1687Y5456D01*
X1689D01*
X1694Y5457D01*
X1702Y5457D01*
X1711Y5459D01*
X1723Y5463D01*
X1735Y5469D01*
X1747Y5477D01*
X1758Y5487D01*
X1759Y5489D01*
X1762Y5494D01*
X1768Y5501D01*
X1774Y5512D01*
X1782Y5526D01*
X1788Y5543D01*
X1796Y5564D01*
X1801Y5589D01*
X1902Y5550D01*
Y5549D01*
X1901Y5545D01*
X1899Y5540D01*
X1897Y5532D01*
X1895Y5524D01*
X1892Y5514D01*
X1888Y5503D01*
X1883Y5491D01*
X1872Y5466D01*
X1858Y5440D01*
X1843Y5416D01*
X1833Y5406D01*
X1823Y5396D01*
X1822Y5395D01*
X1821Y5394D01*
X1818Y5391D01*
X1813Y5388D01*
X1809Y5384D01*
X1802Y5381D01*
X1795Y5376D01*
X1786Y5372D01*
X1777Y5367D01*
X1767Y5362D01*
X1744Y5355D01*
X1718Y5349D01*
X1704Y5348D01*
X1689Y5347D01*
X1685D01*
X1680Y5348D01*
X1673D01*
X1664Y5350D01*
X1654Y5351D01*
X1643Y5354D01*
X1631Y5357D01*
X1618Y5361D01*
X1605Y5366D01*
X1592Y5372D01*
X1578Y5380D01*
X1564Y5389D01*
X1551Y5399D01*
X1539Y5410D01*
X1527Y5424D01*
X1526Y5425D01*
X1524Y5428D01*
X1520Y5433D01*
X1515Y5441D01*
X1510Y5449D01*
X1504Y5460D01*
X1498Y5473D01*
X1491Y5488D01*
X1484Y5504D01*
X1478Y5522D01*
X1472Y5542D01*
X1466Y5563D01*
X1462Y5586D01*
X1458Y5611D01*
X1456Y5637D01*
X1455Y5665D01*
Y5666D01*
Y5666D01*
Y5672D01*
X1456Y5680D01*
Y5690D01*
X1457Y5704D01*
X1459Y5720D01*
X1462Y5737D01*
X1465Y5755D01*
X1468Y5776D01*
X1473Y5796D01*
X1478Y5816D01*
X1486Y5838D01*
X1494Y5858D01*
X1503Y5877D01*
X1515Y5897D01*
X1527Y5914D01*
X1528Y5915D01*
X1530Y5918D01*
X1534Y5922D01*
X1539Y5926D01*
X1545Y5933D01*
X1552Y5939D01*
X1562Y5947D01*
X1572Y5954D01*
X1583Y5960D01*
X1596Y5968D01*
X1610Y5974D01*
X1625Y5981D01*
X1641Y5985D01*
X1658Y5989D01*
X1676Y5992D01*
X1696Y5993D01*
X1704D01*
X1711Y5992D01*
D02*
G37*
G36*
X2150Y5984D02*
X2157Y5983D01*
X2164Y5982D01*
X2183Y5978D01*
X2202Y5972D01*
X2213Y5968D01*
X2223Y5962D01*
X2233Y5956D01*
X2242Y5949D01*
X2250Y5941D01*
X2259Y5932D01*
X2260Y5931D01*
X2261Y5929D01*
X2262Y5926D01*
X2265Y5923D01*
X2268Y5918D01*
X2272Y5911D01*
X2280Y5897D01*
X2287Y5879D01*
X2294Y5859D01*
X2299Y5837D01*
X2300Y5825D01*
Y5812D01*
Y5810D01*
Y5805D01*
X2299Y5798D01*
Y5788D01*
X2298Y5776D01*
X2296Y5764D01*
X2293Y5751D01*
X2289Y5737D01*
Y5735D01*
X2287Y5730D01*
X2285Y5724D01*
X2282Y5715D01*
X2277Y5703D01*
X2272Y5691D01*
X2264Y5678D01*
X2257Y5665D01*
X2256Y5663D01*
X2253Y5658D01*
X2248Y5650D01*
X2240Y5640D01*
X2230Y5626D01*
X2217Y5610D01*
X2202Y5592D01*
X2185Y5571D01*
X2184Y5570D01*
X2183Y5569D01*
X2180Y5567D01*
X2177Y5563D01*
X2169Y5554D01*
X2160Y5543D01*
X2150Y5531D01*
X2140Y5519D01*
X2131Y5509D01*
X2125Y5501D01*
X2124Y5500D01*
X2123Y5498D01*
X2120Y5494D01*
X2117Y5491D01*
X2111Y5481D01*
X2104Y5469D01*
X2300D01*
Y5358D01*
X1956D01*
Y5359D01*
Y5360D01*
X1956Y5364D01*
Y5369D01*
X1957Y5374D01*
X1959Y5381D01*
X1962Y5396D01*
X1966Y5414D01*
X1972Y5434D01*
X1980Y5456D01*
X1989Y5477D01*
Y5478D01*
X1991Y5480D01*
X1992Y5482D01*
X1994Y5487D01*
X1998Y5493D01*
X2002Y5500D01*
X2007Y5507D01*
X2014Y5517D01*
X2020Y5527D01*
X2029Y5538D01*
X2037Y5550D01*
X2047Y5564D01*
X2058Y5578D01*
X2071Y5592D01*
X2084Y5609D01*
X2099Y5626D01*
X2100Y5627D01*
X2102Y5629D01*
X2105Y5633D01*
X2109Y5638D01*
X2115Y5643D01*
X2120Y5651D01*
X2133Y5666D01*
X2147Y5683D01*
X2160Y5699D01*
X2171Y5714D01*
X2176Y5720D01*
X2179Y5726D01*
X2180Y5727D01*
X2183Y5732D01*
X2187Y5740D01*
X2190Y5750D01*
X2194Y5761D01*
X2198Y5774D01*
X2201Y5788D01*
X2201Y5801D01*
Y5802D01*
Y5803D01*
Y5808D01*
X2201Y5815D01*
X2200Y5825D01*
X2197Y5835D01*
X2194Y5845D01*
X2189Y5855D01*
X2183Y5863D01*
X2182Y5864D01*
X2179Y5867D01*
X2176Y5870D01*
X2170Y5874D01*
X2164Y5878D01*
X2155Y5881D01*
X2145Y5884D01*
X2135Y5885D01*
X2132D01*
X2128Y5884D01*
X2125Y5883D01*
X2114Y5879D01*
X2108Y5876D01*
X2102Y5873D01*
X2095Y5867D01*
X2089Y5861D01*
X2083Y5853D01*
X2078Y5843D01*
X2073Y5832D01*
X2069Y5819D01*
X2066Y5804D01*
X2065Y5787D01*
X1967Y5800D01*
Y5801D01*
X1968Y5804D01*
Y5809D01*
X1968Y5815D01*
X1970Y5823D01*
X1971Y5832D01*
X1974Y5842D01*
X1977Y5853D01*
X1983Y5875D01*
X1993Y5899D01*
X2005Y5921D01*
X2011Y5930D01*
X2019Y5939D01*
X2020Y5940D01*
X2021Y5941D01*
X2024Y5944D01*
X2028Y5947D01*
X2032Y5949D01*
X2037Y5954D01*
X2051Y5962D01*
X2067Y5971D01*
X2088Y5977D01*
X2111Y5983D01*
X2124Y5984D01*
X2137Y5984D01*
X2144D01*
X2150Y5984D01*
D02*
G37*
G36*
X1791Y3462D02*
X1798Y3461D01*
X1806Y3460D01*
X1815Y3458D01*
X1826Y3455D01*
X1849Y3448D01*
X1861Y3443D01*
X1873Y3438D01*
X1885Y3430D01*
X1897Y3422D01*
X1909Y3413D01*
X1920Y3402D01*
X1921D01*
X1922Y3401D01*
X1924Y3398D01*
X1926Y3395D01*
X1930Y3390D01*
X1934Y3385D01*
X1938Y3378D01*
X1943Y3371D01*
X1948Y3363D01*
X1953Y3354D01*
X1958Y3344D01*
X1963Y3333D01*
X1968Y3320D01*
X1973Y3307D01*
X1977Y3293D01*
X1981Y3279D01*
X1878Y3249D01*
Y3250D01*
X1877Y3251D01*
Y3254D01*
X1876Y3257D01*
X1874Y3267D01*
X1870Y3278D01*
X1864Y3291D01*
X1857Y3303D01*
X1849Y3316D01*
X1839Y3327D01*
X1838Y3328D01*
X1834Y3331D01*
X1827Y3336D01*
X1819Y3340D01*
X1809Y3346D01*
X1798Y3350D01*
X1785Y3353D01*
X1770Y3354D01*
X1765D01*
X1761Y3353D01*
X1751Y3352D01*
X1738Y3348D01*
X1723Y3342D01*
X1707Y3333D01*
X1700Y3328D01*
X1692Y3321D01*
X1685Y3314D01*
X1678Y3304D01*
Y3303D01*
X1676Y3303D01*
X1675Y3299D01*
X1672Y3295D01*
X1669Y3290D01*
X1667Y3283D01*
X1664Y3275D01*
X1660Y3266D01*
X1656Y3255D01*
X1654Y3243D01*
X1651Y3230D01*
X1648Y3215D01*
X1646Y3199D01*
X1644Y3181D01*
X1643Y3162D01*
Y3142D01*
Y3141D01*
Y3136D01*
Y3131D01*
X1643Y3122D01*
Y3113D01*
X1644Y3102D01*
X1645Y3090D01*
X1647Y3077D01*
X1651Y3049D01*
X1657Y3022D01*
X1661Y3009D01*
X1666Y2996D01*
X1671Y2985D01*
X1677Y2974D01*
Y2973D01*
X1679Y2973D01*
X1683Y2967D01*
X1691Y2959D01*
X1702Y2950D01*
X1715Y2941D01*
X1729Y2933D01*
X1748Y2927D01*
X1757Y2926D01*
X1767Y2925D01*
X1769D01*
X1774Y2926D01*
X1782Y2927D01*
X1791Y2929D01*
X1803Y2933D01*
X1815Y2938D01*
X1827Y2947D01*
X1838Y2957D01*
X1839Y2959D01*
X1842Y2963D01*
X1848Y2971D01*
X1854Y2982D01*
X1862Y2996D01*
X1868Y3013D01*
X1876Y3034D01*
X1881Y3058D01*
X1982Y3020D01*
Y3019D01*
X1981Y3015D01*
X1979Y3009D01*
X1977Y3002D01*
X1974Y2994D01*
X1972Y2984D01*
X1968Y2973D01*
X1963Y2960D01*
X1952Y2936D01*
X1938Y2910D01*
X1923Y2886D01*
X1913Y2875D01*
X1903Y2865D01*
X1902Y2864D01*
X1901Y2863D01*
X1898Y2861D01*
X1893Y2858D01*
X1888Y2854D01*
X1882Y2850D01*
X1875Y2846D01*
X1866Y2841D01*
X1857Y2837D01*
X1847Y2832D01*
X1824Y2825D01*
X1798Y2819D01*
X1784Y2818D01*
X1769Y2817D01*
X1765D01*
X1760Y2818D01*
X1753D01*
X1744Y2820D01*
X1734Y2821D01*
X1723Y2824D01*
X1711Y2826D01*
X1698Y2831D01*
X1685Y2836D01*
X1672Y2842D01*
X1658Y2850D01*
X1644Y2859D01*
X1631Y2869D01*
X1619Y2880D01*
X1607Y2894D01*
X1606Y2895D01*
X1604Y2898D01*
X1600Y2903D01*
X1595Y2911D01*
X1590Y2919D01*
X1584Y2930D01*
X1578Y2943D01*
X1571Y2958D01*
X1564Y2973D01*
X1558Y2992D01*
X1552Y3011D01*
X1546Y3033D01*
X1542Y3056D01*
X1538Y3081D01*
X1536Y3107D01*
X1535Y3134D01*
Y3135D01*
Y3136D01*
Y3142D01*
X1536Y3150D01*
Y3160D01*
X1537Y3174D01*
X1539Y3190D01*
X1542Y3206D01*
X1545Y3225D01*
X1548Y3245D01*
X1553Y3266D01*
X1558Y3286D01*
X1566Y3307D01*
X1574Y3328D01*
X1583Y3347D01*
X1594Y3366D01*
X1607Y3384D01*
X1608Y3385D01*
X1610Y3388D01*
X1614Y3391D01*
X1619Y3396D01*
X1625Y3402D01*
X1632Y3409D01*
X1642Y3416D01*
X1652Y3424D01*
X1663Y3430D01*
X1676Y3438D01*
X1690Y3444D01*
X1705Y3451D01*
X1721Y3455D01*
X1738Y3459D01*
X1756Y3462D01*
X1776Y3463D01*
X1784D01*
X1791Y3462D01*
D02*
G37*
G36*
X2301Y2827D02*
X2202D01*
Y3279D01*
X2201Y3279D01*
X2199Y3277D01*
X2196Y3274D01*
X2192Y3269D01*
X2187Y3265D01*
X2181Y3258D01*
X2173Y3252D01*
X2165Y3245D01*
X2146Y3230D01*
X2125Y3215D01*
X2100Y3201D01*
X2074Y3189D01*
Y3298D01*
X2075D01*
X2076Y3299D01*
X2082Y3301D01*
X2089Y3305D01*
X2100Y3311D01*
X2113Y3319D01*
X2127Y3329D01*
X2143Y3341D01*
X2159Y3356D01*
X2160Y3357D01*
X2161Y3358D01*
X2167Y3364D01*
X2174Y3373D01*
X2183Y3385D01*
X2194Y3399D01*
X2204Y3415D01*
X2213Y3434D01*
X2220Y3454D01*
X2301D01*
Y2827D01*
D02*
G37*
%LPC*%
G36*
X-3610Y-5233D02*
X-3621Y-5234D01*
X-3632Y-5236D01*
X-3646Y-5242D01*
X-3648Y-5243D01*
X-3650Y-5244D01*
X-3653Y-5246D01*
X-3657Y-5249D01*
X-3662Y-5253D01*
X-3669Y-5259D01*
X-3676Y-5265D01*
X-3684Y-5272D01*
X-3693Y-5281D01*
X-3704Y-5292D01*
X-3716Y-5304D01*
X-3728Y-5317D01*
X-3742Y-5332D01*
X-3758Y-5349D01*
X-3774Y-5369D01*
X-3776Y-5371D01*
X-3779Y-5374D01*
X-3783Y-5379D01*
X-3789Y-5387D01*
X-3796Y-5396D01*
X-3804Y-5406D01*
X-3812Y-5417D01*
X-3822Y-5429D01*
X-3840Y-5453D01*
X-3849Y-5466D01*
X-3856Y-5478D01*
X-3864Y-5490D01*
X-3870Y-5500D01*
X-3874Y-5510D01*
X-3878Y-5518D01*
X-3878Y-5520D01*
X-3879Y-5524D01*
X-3880Y-5531D01*
X-3880Y-5540D01*
X-3880Y-5550D01*
X-3878Y-5560D01*
X-3873Y-5569D01*
X-3866Y-5577D01*
X-3866Y-5577D01*
X-3862Y-5579D01*
X-3857Y-5582D01*
X-3851Y-5584D01*
X-3842Y-5585D01*
X-3832Y-5585D01*
X-3821Y-5583D01*
X-3807Y-5577D01*
X-3807Y-5576D01*
X-3806Y-5576D01*
X-3803Y-5575D01*
X-3800Y-5572D01*
X-3796Y-5569D01*
X-3791Y-5566D01*
X-3784Y-5560D01*
X-3777Y-5555D01*
X-3769Y-5547D01*
X-3759Y-5538D01*
X-3748Y-5528D01*
X-3737Y-5516D01*
X-3724Y-5502D01*
X-3710Y-5487D01*
X-3695Y-5470D01*
X-3678Y-5450D01*
X-3677Y-5449D01*
X-3674Y-5445D01*
X-3669Y-5439D01*
X-3663Y-5432D01*
X-3657Y-5423D01*
X-3648Y-5413D01*
X-3640Y-5402D01*
X-3631Y-5391D01*
X-3613Y-5366D01*
X-3604Y-5353D01*
X-3596Y-5341D01*
X-3589Y-5329D01*
X-3583Y-5318D01*
X-3579Y-5309D01*
X-3576Y-5301D01*
X-3575Y-5299D01*
X-3574Y-5294D01*
X-3573Y-5287D01*
X-3572Y-5278D01*
X-3573Y-5268D01*
X-3575Y-5259D01*
X-3579Y-5250D01*
X-3585Y-5242D01*
X-3586Y-5241D01*
X-3590Y-5240D01*
X-3594Y-5237D01*
X-3601Y-5235D01*
X-3610Y-5233D01*
D02*
G37*
G36*
X1828Y-6071D02*
X1760D01*
Y-6485D01*
X1845D01*
X1854Y-6484D01*
X1865D01*
X1877Y-6483D01*
X1889Y-6482D01*
X1900Y-6479D01*
X1909Y-6476D01*
X1910Y-6475D01*
X1913Y-6474D01*
X1917Y-6472D01*
X1922Y-6469D01*
X1934Y-6460D01*
X1945Y-6448D01*
X1946Y-6447D01*
X1948Y-6445D01*
X1951Y-6440D01*
X1954Y-6433D01*
X1957Y-6425D01*
X1962Y-6415D01*
X1966Y-6402D01*
X1969Y-6388D01*
Y-6387D01*
X1970Y-6386D01*
X1971Y-6381D01*
X1973Y-6372D01*
X1975Y-6360D01*
X1977Y-6344D01*
X1978Y-6325D01*
X1980Y-6304D01*
Y-6280D01*
Y-6279D01*
Y-6277D01*
Y-6274D01*
Y-6269D01*
Y-6262D01*
X1979Y-6256D01*
Y-6240D01*
X1977Y-6223D01*
X1975Y-6205D01*
X1973Y-6187D01*
X1969Y-6171D01*
Y-6170D01*
Y-6169D01*
X1968Y-6164D01*
X1966Y-6157D01*
X1962Y-6148D01*
X1958Y-6138D01*
X1953Y-6127D01*
X1947Y-6116D01*
X1940Y-6107D01*
X1939Y-6106D01*
X1936Y-6103D01*
X1931Y-6100D01*
X1926Y-6094D01*
X1919Y-6090D01*
X1910Y-6084D01*
X1901Y-6080D01*
X1891Y-6077D01*
X1890D01*
X1886Y-6076D01*
X1881Y-6075D01*
X1872Y-6074D01*
X1860Y-6073D01*
X1846Y-6072D01*
X1828Y-6071D01*
D02*
G37*
G36*
X2320Y-6059D02*
X2315D01*
X2311Y-6060D01*
X2304Y-6062D01*
X2298Y-6064D01*
X2290Y-6067D01*
X2283Y-6073D01*
X2275Y-6079D01*
X2274Y-6080D01*
X2273Y-6083D01*
X2270Y-6088D01*
X2267Y-6093D01*
X2264Y-6101D01*
X2262Y-6110D01*
X2260Y-6121D01*
X2259Y-6133D01*
Y-6135D01*
Y-6139D01*
X2260Y-6146D01*
X2261Y-6154D01*
X2262Y-6163D01*
X2266Y-6173D01*
X2270Y-6181D01*
X2275Y-6189D01*
X2276Y-6190D01*
X2278Y-6192D01*
X2282Y-6195D01*
X2287Y-6199D01*
X2293Y-6202D01*
X2300Y-6205D01*
X2310Y-6207D01*
X2319Y-6208D01*
X2323D01*
X2328Y-6207D01*
X2334Y-6205D01*
X2341Y-6203D01*
X2348Y-6200D01*
X2356Y-6196D01*
X2362Y-6189D01*
X2363Y-6188D01*
X2365Y-6186D01*
X2368Y-6181D01*
X2372Y-6175D01*
X2374Y-6167D01*
X2377Y-6157D01*
X2379Y-6146D01*
X2380Y-6133D01*
Y-6131D01*
Y-6127D01*
X2379Y-6121D01*
X2378Y-6113D01*
X2375Y-6104D01*
X2372Y-6095D01*
X2368Y-6087D01*
X2362Y-6078D01*
X2361Y-6078D01*
X2360Y-6076D01*
X2356Y-6072D01*
X2351Y-6068D01*
X2345Y-6065D01*
X2337Y-6062D01*
X2329Y-6060D01*
X2320Y-6059D01*
D02*
G37*
G36*
X2319Y-6304D02*
X2314D01*
X2309Y-6305D01*
X2301Y-6308D01*
X2294Y-6311D01*
X2286Y-6315D01*
X2277Y-6322D01*
X2269Y-6331D01*
X2268Y-6332D01*
X2266Y-6335D01*
X2262Y-6341D01*
X2259Y-6349D01*
X2255Y-6360D01*
X2251Y-6371D01*
X2250Y-6384D01*
X2249Y-6400D01*
Y-6401D01*
Y-6402D01*
Y-6405D01*
Y-6409D01*
X2250Y-6418D01*
X2251Y-6429D01*
X2253Y-6442D01*
X2257Y-6455D01*
X2262Y-6467D01*
X2269Y-6478D01*
X2270Y-6479D01*
X2273Y-6482D01*
X2277Y-6486D01*
X2284Y-6491D01*
X2291Y-6496D01*
X2299Y-6500D01*
X2310Y-6504D01*
X2321Y-6505D01*
X2325D01*
X2331Y-6503D01*
X2338Y-6501D01*
X2346Y-6498D01*
X2354Y-6494D01*
X2362Y-6487D01*
X2371Y-6479D01*
X2372Y-6478D01*
X2373Y-6474D01*
X2377Y-6468D01*
X2381Y-6459D01*
X2385Y-6448D01*
X2388Y-6435D01*
X2390Y-6420D01*
X2391Y-6401D01*
Y-6400D01*
Y-6399D01*
Y-6394D01*
X2390Y-6385D01*
X2388Y-6375D01*
X2385Y-6364D01*
X2382Y-6353D01*
X2377Y-6341D01*
X2370Y-6331D01*
X2369Y-6330D01*
X2366Y-6326D01*
X2361Y-6323D01*
X2356Y-6317D01*
X2348Y-6312D01*
X2340Y-6308D01*
X2330Y-6305D01*
X2319Y-6304D01*
D02*
G37*
G36*
X-3591Y5872D02*
X-3531Y5661D01*
X-3455Y5736D01*
X-3591Y5872D01*
D02*
G37*
G36*
X-3874Y5639D02*
X-3879D01*
X-3884Y5638D01*
X-3891D01*
X-3899Y5637D01*
X-3908Y5635D01*
X-3916Y5631D01*
X-3925Y5627D01*
X-3926Y5627D01*
X-3928Y5625D01*
X-3933Y5622D01*
X-3938Y5617D01*
X-3947Y5610D01*
X-3956Y5602D01*
X-3969Y5591D01*
X-4012Y5548D01*
X-3748Y5284D01*
X-3693Y5338D01*
X-3689Y5344D01*
X-3682Y5351D01*
X-3675Y5359D01*
X-3668Y5368D01*
X-3663Y5377D01*
X-3659Y5385D01*
Y5386D01*
X-3657Y5388D01*
X-3656Y5392D01*
X-3655Y5397D01*
X-3653Y5410D01*
X-3653Y5425D01*
Y5426D01*
X-3654Y5429D01*
X-3655Y5434D01*
X-3657Y5440D01*
X-3660Y5448D01*
X-3664Y5457D01*
X-3670Y5468D01*
X-3676Y5479D01*
X-3677Y5479D01*
Y5481D01*
X-3680Y5485D01*
X-3685Y5492D01*
X-3691Y5501D01*
X-3700Y5512D01*
X-3711Y5524D01*
X-3723Y5539D01*
X-3739Y5554D01*
X-3739Y5555D01*
X-3741Y5556D01*
X-3743Y5558D01*
X-3746Y5561D01*
X-3750Y5565D01*
X-3755Y5569D01*
X-3765Y5579D01*
X-3777Y5589D01*
X-3789Y5599D01*
X-3802Y5610D01*
X-3815Y5617D01*
X-3815Y5618D01*
X-3816Y5618D01*
X-3820Y5620D01*
X-3826Y5624D01*
X-3834Y5627D01*
X-3843Y5631D01*
X-3854Y5635D01*
X-3864Y5638D01*
X-3874Y5639D01*
D02*
G37*
G36*
X-2326Y5660D02*
X-2444Y5447D01*
X-2326D01*
Y5660D01*
D02*
G37*
G36*
X-1872Y-885D02*
X-1806Y-1119D01*
X-1722Y-1036D01*
X-1872Y-885D01*
D02*
G37*
G36*
X-2186Y-1125D02*
X-2191D01*
X-2197Y-1126D01*
X-2204Y-1127D01*
X-2211Y-1129D01*
X-2218Y-1132D01*
X-2219Y-1132D01*
X-2221Y-1134D01*
X-2225Y-1136D01*
X-2231Y-1141D01*
X-2236Y-1144D01*
X-2240Y-1148D01*
X-2246Y-1153D01*
X-2257Y-1165D01*
X-2265Y-1171D01*
X-2339Y-1244D01*
X-2226Y-1357D01*
X-2156Y-1287D01*
X-2146Y-1276D01*
X-2136Y-1265D01*
X-2127Y-1253D01*
X-2118Y-1244D01*
X-2116Y-1240D01*
X-2113Y-1236D01*
X-2112Y-1235D01*
X-2111Y-1233D01*
X-2110Y-1229D01*
X-2109Y-1224D01*
X-2108Y-1217D01*
X-2107Y-1212D01*
Y-1204D01*
X-2108Y-1196D01*
Y-1195D01*
X-2110Y-1192D01*
X-2111Y-1188D01*
X-2114Y-1182D01*
X-2117Y-1176D01*
X-2122Y-1168D01*
X-2128Y-1161D01*
X-2135Y-1152D01*
X-2136Y-1151D01*
X-2138Y-1149D01*
X-2143Y-1146D01*
X-2149Y-1141D01*
X-2162Y-1132D01*
X-2170Y-1129D01*
X-2178Y-1127D01*
X-2179D01*
X-2181Y-1126D01*
X-2186Y-1125D01*
D02*
G37*
G36*
X-2548Y2014D02*
X-2652D01*
Y1855D01*
X-2553D01*
X-2538Y1856D01*
X-2523D01*
X-2508Y1858D01*
X-2496Y1859D01*
X-2491Y1860D01*
X-2486Y1861D01*
X-2485D01*
X-2483Y1862D01*
X-2480Y1864D01*
X-2475Y1866D01*
X-2470Y1870D01*
X-2465Y1874D01*
X-2459Y1879D01*
X-2455Y1886D01*
X-2454Y1887D01*
X-2453Y1890D01*
X-2451Y1893D01*
X-2448Y1900D01*
X-2447Y1906D01*
X-2445Y1915D01*
X-2444Y1925D01*
X-2443Y1936D01*
Y1937D01*
Y1940D01*
X-2444Y1946D01*
X-2445Y1953D01*
X-2447Y1969D01*
X-2451Y1976D01*
X-2455Y1984D01*
X-2456Y1985D01*
X-2457Y1987D01*
X-2459Y1990D01*
X-2463Y1994D01*
X-2468Y1998D01*
X-2473Y2002D01*
X-2480Y2006D01*
X-2487Y2009D01*
X-2488D01*
X-2491Y2010D01*
X-2496Y2011D01*
X-2503Y2012D01*
X-2508Y2013D01*
X-2514D01*
X-2521Y2013D01*
X-2538D01*
X-2548Y2014D01*
D02*
G37*
G36*
X2381Y-4840D02*
X2373Y-4841D01*
X2364Y-4842D01*
X2354Y-4844D01*
X2345Y-4848D01*
X2337Y-4854D01*
X2334Y-4858D01*
X2330Y-4862D01*
X2328Y-4868D01*
X2325Y-4875D01*
X2323Y-4885D01*
X2322Y-4894D01*
X2323Y-4905D01*
Y-4907D01*
X2324Y-4911D01*
X2326Y-4917D01*
X2331Y-4926D01*
X2337Y-4937D01*
X2345Y-4949D01*
X2357Y-4963D01*
X2371Y-4979D01*
X2372Y-4979D01*
X2373Y-4981D01*
X2375Y-4983D01*
X2378Y-4986D01*
X2386Y-4992D01*
X2396Y-5000D01*
X2408Y-5009D01*
X2421Y-5017D01*
X2434Y-5023D01*
X2447Y-5027D01*
X2448D01*
X2453Y-5028D01*
X2459Y-5027D01*
X2466D01*
X2475Y-5025D01*
X2484Y-5023D01*
X2493Y-5019D01*
X2501Y-5012D01*
X2504Y-5009D01*
X2507Y-5004D01*
X2510Y-4998D01*
X2513Y-4990D01*
X2516Y-4981D01*
X2517Y-4972D01*
Y-4960D01*
Y-4958D01*
X2515Y-4955D01*
X2513Y-4947D01*
X2510Y-4938D01*
X2504Y-4928D01*
X2497Y-4915D01*
X2487Y-4902D01*
X2474Y-4888D01*
X2474Y-4888D01*
X2472Y-4887D01*
X2470Y-4885D01*
X2468Y-4882D01*
X2459Y-4875D01*
X2449Y-4867D01*
X2437Y-4859D01*
X2423Y-4851D01*
X2409Y-4845D01*
X2394Y-4841D01*
X2393D01*
X2389Y-4841D01*
X2381Y-4840D01*
D02*
G37*
G36*
X2110Y-5143D02*
X2105D01*
X2099Y-5143D01*
X2091D01*
X2083Y-5145D01*
X2073Y-5147D01*
X2064Y-5151D01*
X2054Y-5156D01*
X2053Y-5157D01*
X2050Y-5158D01*
X2045Y-5162D01*
X2039Y-5167D01*
X2030Y-5175D01*
X2019Y-5184D01*
X2005Y-5196D01*
X1958Y-5244D01*
X2251Y-5537D01*
X2311Y-5477D01*
X2316Y-5470D01*
X2324Y-5462D01*
X2332Y-5453D01*
X2339Y-5444D01*
X2345Y-5434D01*
X2349Y-5425D01*
Y-5424D01*
X2351Y-5421D01*
X2352Y-5417D01*
X2353Y-5411D01*
X2356Y-5396D01*
X2355Y-5380D01*
Y-5379D01*
X2355Y-5376D01*
X2353Y-5370D01*
X2351Y-5364D01*
X2347Y-5355D01*
X2343Y-5345D01*
X2337Y-5333D01*
X2330Y-5321D01*
X2329Y-5320D01*
Y-5319D01*
X2326Y-5314D01*
X2321Y-5306D01*
X2313Y-5296D01*
X2304Y-5284D01*
X2291Y-5270D01*
X2277Y-5254D01*
X2260Y-5237D01*
X2260Y-5236D01*
X2258Y-5235D01*
X2256Y-5232D01*
X2253Y-5229D01*
X2248Y-5225D01*
X2243Y-5221D01*
X2232Y-5209D01*
X2218Y-5198D01*
X2204Y-5187D01*
X2190Y-5175D01*
X2176Y-5167D01*
X2175Y-5166D01*
X2175Y-5166D01*
X2170Y-5164D01*
X2164Y-5160D01*
X2155Y-5156D01*
X2145Y-5151D01*
X2133Y-5147D01*
X2122Y-5144D01*
X2110Y-5143D01*
D02*
G37*
G36*
X-2103Y-5079D02*
X-2395Y-5372D01*
X-2335Y-5432D01*
X-2329Y-5438D01*
X-2321Y-5446D01*
X-2312Y-5453D01*
X-2302Y-5461D01*
X-2292Y-5466D01*
X-2284Y-5471D01*
X-2282D01*
X-2280Y-5472D01*
X-2276Y-5474D01*
X-2269Y-5475D01*
X-2255Y-5478D01*
X-2239Y-5477D01*
X-2237D01*
X-2234Y-5476D01*
X-2229Y-5475D01*
X-2222Y-5472D01*
X-2214Y-5469D01*
X-2203Y-5465D01*
X-2191Y-5459D01*
X-2179Y-5451D01*
X-2178Y-5451D01*
X-2177D01*
X-2173Y-5448D01*
X-2165Y-5442D01*
X-2155Y-5435D01*
X-2142Y-5425D01*
X-2129Y-5413D01*
X-2112Y-5399D01*
X-2095Y-5382D01*
X-2095Y-5381D01*
X-2093Y-5380D01*
X-2091Y-5378D01*
X-2088Y-5374D01*
X-2083Y-5370D01*
X-2079Y-5364D01*
X-2068Y-5353D01*
X-2057Y-5340D01*
X-2046Y-5326D01*
X-2034Y-5312D01*
X-2025Y-5298D01*
X-2025Y-5297D01*
X-2024Y-5296D01*
X-2022Y-5292D01*
X-2018Y-5285D01*
X-2014Y-5276D01*
X-2010Y-5266D01*
X-2006Y-5255D01*
X-2003Y-5244D01*
X-2001Y-5232D01*
Y-5230D01*
Y-5227D01*
X-2002Y-5221D01*
Y-5213D01*
X-2004Y-5204D01*
X-2006Y-5194D01*
X-2010Y-5185D01*
X-2014Y-5176D01*
X-2015Y-5175D01*
X-2017Y-5172D01*
X-2020Y-5167D01*
X-2025Y-5161D01*
X-2033Y-5151D01*
X-2042Y-5141D01*
X-2055Y-5127D01*
X-2103Y-5079D01*
D02*
G37*
G36*
X-2256Y6509D02*
X-2323D01*
Y6095D01*
X-2238D01*
X-2230Y6096D01*
X-2219D01*
X-2207Y6097D01*
X-2195Y6098D01*
X-2184Y6101D01*
X-2174Y6104D01*
X-2174Y6105D01*
X-2171Y6106D01*
X-2167Y6108D01*
X-2162Y6111D01*
X-2149Y6120D01*
X-2138Y6132D01*
X-2137Y6133D01*
X-2136Y6135D01*
X-2133Y6140D01*
X-2130Y6146D01*
X-2126Y6155D01*
X-2122Y6165D01*
X-2118Y6178D01*
X-2114Y6192D01*
Y6193D01*
X-2113Y6194D01*
X-2113Y6199D01*
X-2111Y6208D01*
X-2109Y6220D01*
X-2107Y6236D01*
X-2106Y6255D01*
X-2104Y6276D01*
Y6300D01*
Y6301D01*
Y6303D01*
Y6306D01*
Y6311D01*
Y6317D01*
X-2105Y6324D01*
Y6340D01*
X-2107Y6357D01*
X-2109Y6375D01*
X-2111Y6393D01*
X-2114Y6409D01*
Y6410D01*
Y6411D01*
X-2116Y6415D01*
X-2118Y6423D01*
X-2122Y6432D01*
X-2125Y6442D01*
X-2131Y6453D01*
X-2137Y6464D01*
X-2144Y6473D01*
X-2145Y6474D01*
X-2148Y6477D01*
X-2152Y6480D01*
X-2158Y6486D01*
X-2165Y6490D01*
X-2174Y6496D01*
X-2183Y6500D01*
X-2193Y6503D01*
X-2194D01*
X-2198Y6504D01*
X-2203Y6505D01*
X-2211Y6506D01*
X-2223Y6507D01*
X-2237Y6508D01*
X-2256Y6509D01*
D02*
G37*
G36*
X3661Y5631D02*
X3368Y5338D01*
X3429Y5278D01*
X3435Y5273D01*
X3443Y5265D01*
X3452Y5257D01*
X3462Y5250D01*
X3472Y5244D01*
X3480Y5240D01*
X3481D01*
X3484Y5238D01*
X3488Y5237D01*
X3495Y5236D01*
X3509Y5233D01*
X3525Y5234D01*
X3527D01*
X3530Y5234D01*
X3535Y5236D01*
X3542Y5238D01*
X3550Y5242D01*
X3561Y5246D01*
X3572Y5252D01*
X3585Y5259D01*
X3585Y5260D01*
X3587D01*
X3591Y5263D01*
X3599Y5268D01*
X3609Y5276D01*
X3621Y5285D01*
X3635Y5298D01*
X3651Y5312D01*
X3668Y5329D01*
X3669Y5329D01*
X3670Y5331D01*
X3673Y5333D01*
X3676Y5336D01*
X3681Y5341D01*
X3685Y5346D01*
X3696Y5357D01*
X3707Y5371D01*
X3718Y5385D01*
X3730Y5399D01*
X3738Y5413D01*
X3739Y5414D01*
X3740Y5414D01*
X3742Y5419D01*
X3746Y5425D01*
X3750Y5435D01*
X3754Y5444D01*
X3758Y5456D01*
X3761Y5467D01*
X3763Y5479D01*
Y5480D01*
Y5484D01*
X3762Y5490D01*
Y5498D01*
X3760Y5506D01*
X3758Y5516D01*
X3754Y5525D01*
X3750Y5535D01*
X3749Y5536D01*
X3747Y5539D01*
X3744Y5544D01*
X3738Y5550D01*
X3731Y5559D01*
X3721Y5570D01*
X3709Y5584D01*
X3661Y5631D01*
D02*
G37*
%LPD*%
D10*
X1866Y2127D02*
G03*
X1866Y2127I-120J0D01*
G01*
D11*
X1375Y-6800D02*
Y-5800D01*
X-1280Y2898D02*
X1280D01*
X-1280Y-1899D02*
Y2898D01*
X1280Y-1899D02*
Y2898D01*
X-1280Y-1899D02*
X1280D01*
X2174Y4619D02*
X2881Y5326D01*
X-1375Y5800D02*
Y6800D01*
X-2881Y-5326D02*
X-2174Y-4619D01*
X4119Y-2674D02*
X4826Y-3381D01*
X-4726Y3481D02*
X-4019Y2774D01*
M02*
