G04*
G04 #@! TF.GenerationSoftware,Altium Limited,Altium Designer,21.8.1 (53)*
G04*
G04 Layer_Physical_Order=4*
G04 Layer_Color=16711680*
%FSLAX43Y43*%
%MOMM*%
G71*
G04*
G04 #@! TF.SameCoordinates,1D73D155-7DD3-43B3-A4AD-18309685674C*
G04*
G04*
G04 #@! TF.FilePolarity,Positive*
G04*
G01*
G75*
%ADD11C,0.200*%
G04:AMPARAMS|DCode=26|XSize=0.61mm|YSize=0.6mm|CornerRadius=0.075mm|HoleSize=0mm|Usage=FLASHONLY|Rotation=180.000|XOffset=0mm|YOffset=0mm|HoleType=Round|Shape=RoundedRectangle|*
%AMROUNDEDRECTD26*
21,1,0.610,0.450,0,0,180.0*
21,1,0.460,0.600,0,0,180.0*
1,1,0.150,-0.230,0.225*
1,1,0.150,0.230,0.225*
1,1,0.150,0.230,-0.225*
1,1,0.150,-0.230,-0.225*
%
%ADD26ROUNDEDRECTD26*%
%ADD29C,0.150*%
%ADD31C,1.100*%
%ADD32C,0.500*%
D11*
X-588Y488D02*
X-500Y400D01*
X-1500Y1000D02*
X-988Y488D01*
X-588D01*
X-1900Y1000D02*
X-1500D01*
X-1345Y-1157D02*
X-507D01*
X-1741Y-1553D02*
X-1345Y-1157D01*
X-507D02*
X-500Y-1150D01*
D26*
Y400D02*
D03*
X500D02*
D03*
X-500Y-1150D02*
D03*
X500D02*
D03*
D29*
X413Y-1237D02*
X500Y-1150D01*
X-286Y-2286D02*
X413Y-1587D01*
Y-1237D01*
X-286Y-3164D02*
Y-2286D01*
X-1846Y-875D02*
Y186D01*
X-3500Y-2529D02*
X-1846Y-875D01*
X-286Y-3164D02*
X1150Y-4600D01*
X1003Y400D02*
X1172Y231D01*
Y-574D02*
X1698Y-1100D01*
X1172Y-574D02*
Y231D01*
X500Y400D02*
X1003D01*
X-3500Y-4000D02*
Y-2529D01*
X-2900Y-4600D02*
X-1150D01*
X-3500Y-4000D02*
X-2900Y-4600D01*
D31*
X1150D02*
D03*
X3000Y-2500D02*
D03*
X-1150Y-4600D02*
D03*
X-5246Y2756D02*
D03*
X5500Y3000D02*
D03*
Y-3000D02*
D03*
X-5641Y-3120D02*
D03*
X3000Y2500D02*
D03*
X-4828Y-4500D02*
D03*
X4500Y-4828D02*
D03*
X-4500Y4828D02*
D03*
X4828Y4500D02*
D03*
D32*
X334Y-2423D02*
D03*
X-1383Y3200D02*
D03*
X1699Y3031D02*
D03*
X-2835Y-3484D02*
D03*
X-38Y3352D02*
D03*
X1513Y5636D02*
D03*
X-1900Y1000D02*
D03*
X-1741Y-1553D02*
D03*
X-1846Y198D02*
D03*
X1698Y-1100D02*
D03*
X1800Y-300D02*
D03*
Y500D02*
D03*
Y1300D02*
D03*
X-1561Y5687D02*
D03*
X-43Y5515D02*
D03*
M02*
