G04*
G04 #@! TF.GenerationSoftware,Altium Limited,Altium Designer,21.8.1 (53)*
G04*
G04 Layer_Physical_Order=3*
G04 Layer_Color=204*
%FSLAX43Y43*%
%MOMM*%
G71*
G04*
G04 #@! TF.SameCoordinates,1D73D155-7DD3-43B3-A4AD-18309685674C*
G04*
G04*
G04 #@! TF.FilePolarity,Positive*
G04*
G01*
G75*
%ADD31C,1.100*%
%ADD32C,0.500*%
G36*
X1050Y7076D02*
X1738Y6939D01*
X2410Y6736D01*
X3059Y6467D01*
X3678Y6136D01*
X4261Y5746D01*
X4719Y5370D01*
X4681Y5237D01*
X4632Y5231D01*
X4450Y5155D01*
X4293Y5035D01*
X4173Y4878D01*
X4097Y4696D01*
X4072Y4500D01*
X4097Y4304D01*
X4173Y4122D01*
X4293Y3965D01*
X4450Y3845D01*
X4632Y3769D01*
X4828Y3744D01*
X5024Y3769D01*
X5206Y3845D01*
X5363Y3965D01*
X5483Y4122D01*
X5555Y4294D01*
X5624Y4324D01*
X5681Y4341D01*
X5746Y4261D01*
X6136Y3678D01*
X6252Y3460D01*
X6145Y3391D01*
X6098Y3453D01*
X6035Y3535D01*
X5878Y3655D01*
X5696Y3731D01*
X5500Y3756D01*
X5304Y3731D01*
X5122Y3655D01*
X4965Y3535D01*
X4845Y3378D01*
X4769Y3196D01*
X4744Y3000D01*
X4769Y2804D01*
X4845Y2622D01*
X4965Y2465D01*
X5122Y2345D01*
X5304Y2269D01*
X5500Y2244D01*
X5696Y2269D01*
X5878Y2345D01*
X6035Y2465D01*
X6155Y2622D01*
X6231Y2804D01*
X6256Y3000D01*
X6231Y3196D01*
X6166Y3353D01*
X6281Y3407D01*
X6467Y3059D01*
X6736Y2410D01*
X6939Y1738D01*
X7076Y1050D01*
X7145Y351D01*
Y-351D01*
X7076Y-1050D01*
X6939Y-1738D01*
X6736Y-2410D01*
X6467Y-3059D01*
X6281Y-3407D01*
X6166Y-3353D01*
X6231Y-3196D01*
X6256Y-3000D01*
X6231Y-2804D01*
X6155Y-2622D01*
X6035Y-2465D01*
X5878Y-2345D01*
X5696Y-2269D01*
X5500Y-2244D01*
X5304Y-2269D01*
X5122Y-2345D01*
X4965Y-2465D01*
X4845Y-2622D01*
X4769Y-2804D01*
X4744Y-3000D01*
X4769Y-3196D01*
X4845Y-3378D01*
X4965Y-3535D01*
X5122Y-3655D01*
X5304Y-3731D01*
X5500Y-3756D01*
X5696Y-3731D01*
X5878Y-3655D01*
X6035Y-3535D01*
X6145Y-3391D01*
X6252Y-3460D01*
X6136Y-3678D01*
X5746Y-4261D01*
X5370Y-4719D01*
X5237Y-4681D01*
X5231Y-4632D01*
X5155Y-4450D01*
X5035Y-4293D01*
X4878Y-4173D01*
X4696Y-4097D01*
X4500Y-4072D01*
X4304Y-4097D01*
X4122Y-4173D01*
X3965Y-4293D01*
X3845Y-4450D01*
X3769Y-4632D01*
X3744Y-4828D01*
X3769Y-5024D01*
X3845Y-5206D01*
X3965Y-5363D01*
X4122Y-5483D01*
X4294Y-5555D01*
X4324Y-5624D01*
X4341Y-5681D01*
X4261Y-5746D01*
X3678Y-6136D01*
X3059Y-6467D01*
X2410Y-6736D01*
X1738Y-6939D01*
X1050Y-7076D01*
X351Y-7145D01*
X-351D01*
X-1050Y-7076D01*
X-1738Y-6939D01*
X-2410Y-6736D01*
X-3059Y-6467D01*
X-3678Y-6136D01*
X-4261Y-5746D01*
X-4719Y-5370D01*
X-4681Y-5237D01*
X-4632Y-5231D01*
X-4450Y-5155D01*
X-4293Y-5035D01*
X-4173Y-4878D01*
X-4097Y-4696D01*
X-4072Y-4500D01*
X-4097Y-4304D01*
X-4173Y-4122D01*
X-4293Y-3965D01*
X-4450Y-3845D01*
X-4632Y-3769D01*
X-4828Y-3744D01*
X-5024Y-3769D01*
X-5074Y-3790D01*
X-5138Y-3679D01*
X-5106Y-3655D01*
X-4986Y-3498D01*
X-4985Y-3495D01*
X-5641D01*
Y-3120D01*
X-6016D01*
Y-2464D01*
X-6020Y-2465D01*
X-6176Y-2585D01*
X-6297Y-2742D01*
X-6372Y-2924D01*
X-6375Y-2948D01*
X-6506Y-2965D01*
X-6736Y-2410D01*
X-6939Y-1738D01*
X-7076Y-1050D01*
X-7145Y-351D01*
Y351D01*
X-7076Y1050D01*
X-6939Y1738D01*
X-6736Y2410D01*
X-6467Y3059D01*
X-6136Y3678D01*
X-5746Y4261D01*
X-5370Y4719D01*
X-5237Y4681D01*
X-5231Y4632D01*
X-5155Y4450D01*
X-5035Y4293D01*
X-4878Y4173D01*
X-4696Y4097D01*
X-4500Y4072D01*
X-4304Y4097D01*
X-4122Y4173D01*
X-3965Y4293D01*
X-3845Y4450D01*
X-3769Y4632D01*
X-3744Y4828D01*
X-3769Y5024D01*
X-3845Y5206D01*
X-3965Y5363D01*
X-4122Y5483D01*
X-4294Y5555D01*
X-4324Y5624D01*
X-4341Y5681D01*
X-4261Y5746D01*
X-3678Y6136D01*
X-3059Y6467D01*
X-2410Y6736D01*
X-1738Y6939D01*
X-1050Y7076D01*
X-351Y7145D01*
X351D01*
X1050Y7076D01*
D02*
G37*
%LPC*%
G36*
X-43Y5974D02*
X-219Y5939D01*
X-368Y5839D01*
X-467Y5691D01*
X-502Y5515D01*
X-467Y5339D01*
X-368Y5191D01*
X-219Y5091D01*
X-43Y5056D01*
X132Y5091D01*
X281Y5191D01*
X381Y5339D01*
X415Y5515D01*
X381Y5691D01*
X281Y5839D01*
X132Y5939D01*
X-43Y5974D01*
D02*
G37*
G36*
X-38Y3811D02*
X-213Y3776D01*
X-362Y3676D01*
X-461Y3527D01*
X-496Y3352D01*
X-461Y3176D01*
X-362Y3027D01*
X-213Y2928D01*
X-38Y2893D01*
X138Y2928D01*
X287Y3027D01*
X386Y3176D01*
X421Y3352D01*
X386Y3527D01*
X287Y3676D01*
X138Y3776D01*
X-38Y3811D01*
D02*
G37*
G36*
X1699Y3490D02*
X1523Y3455D01*
X1374Y3356D01*
X1275Y3207D01*
X1240Y3031D01*
X1275Y2855D01*
X1374Y2707D01*
X1523Y2607D01*
X1699Y2572D01*
X1874Y2607D01*
X2023Y2707D01*
X2123Y2855D01*
X2157Y3031D01*
X2123Y3207D01*
X2023Y3356D01*
X1874Y3455D01*
X1699Y3490D01*
D02*
G37*
G36*
X3000Y3256D02*
X2804Y3231D01*
X2622Y3155D01*
X2465Y3035D01*
X2345Y2878D01*
X2269Y2696D01*
X2244Y2500D01*
X2269Y2304D01*
X2345Y2122D01*
X2465Y1965D01*
X2622Y1845D01*
X2804Y1769D01*
X2887Y1758D01*
X2932Y1624D01*
X2763Y1455D01*
X2749Y1434D01*
X2731Y1416D01*
X2513Y1088D01*
X2503Y1065D01*
X2490Y1044D01*
X2348Y701D01*
X2276Y686D01*
X2213Y692D01*
X2125Y823D01*
X2106Y853D01*
Y947D01*
X2125Y977D01*
X2224Y1124D01*
X2259Y1300D01*
X2224Y1476D01*
X2124Y1624D01*
X1976Y1724D01*
X1800Y1759D01*
X1624Y1724D01*
X1476Y1624D01*
X1376Y1476D01*
X1341Y1300D01*
X1376Y1124D01*
X1475Y977D01*
X1494Y947D01*
Y853D01*
X1475Y823D01*
X1376Y676D01*
X1341Y500D01*
X1376Y324D01*
X1475Y177D01*
X1494Y147D01*
Y53D01*
X1475Y23D01*
X1376Y-124D01*
X1341Y-300D01*
X1376Y-476D01*
X1476Y-624D01*
X1423Y-742D01*
X1374Y-776D01*
X1274Y-924D01*
X1239Y-1100D01*
X1274Y-1276D01*
X1374Y-1424D01*
X1522Y-1524D01*
X1698Y-1559D01*
X1874Y-1524D01*
X2022Y-1424D01*
X2122Y-1276D01*
X2157Y-1100D01*
X2122Y-924D01*
X2022Y-776D01*
X2075Y-658D01*
X2124Y-624D01*
X2179Y-542D01*
X2314Y-569D01*
X2327Y-634D01*
X2337Y-657D01*
X2342Y-682D01*
X2493Y-1047D01*
X2507Y-1067D01*
X2517Y-1091D01*
X2736Y-1419D01*
X2754Y-1436D01*
X2768Y-1457D01*
X2935Y-1624D01*
X2890Y-1758D01*
X2804Y-1769D01*
X2622Y-1845D01*
X2465Y-1965D01*
X2345Y-2122D01*
X2309Y-2208D01*
X2159Y-2238D01*
X2158Y-2237D01*
X2138Y-2223D01*
X2120Y-2206D01*
X1997Y-2123D01*
X1974Y-2114D01*
X1953Y-2100D01*
X1816Y-2043D01*
X1792Y-2038D01*
X1769Y-2029D01*
X1624Y-2000D01*
X1599Y-2000D01*
X1574Y-1995D01*
X1500Y-1995D01*
X1426Y-1995D01*
X1402Y-2000D01*
X1377Y-2000D01*
X1232Y-2029D01*
X1208Y-2038D01*
X1184Y-2043D01*
X1047Y-2100D01*
X1026Y-2114D01*
X1003Y-2123D01*
X880Y-2205D01*
X875Y-2211D01*
X863Y-2215D01*
X819Y-2216D01*
X771Y-2207D01*
X716Y-2184D01*
X659Y-2098D01*
X510Y-1999D01*
X334Y-1964D01*
X159Y-1999D01*
X10Y-2098D01*
X-90Y-2247D01*
X-125Y-2423D01*
X-90Y-2598D01*
X10Y-2747D01*
X159Y-2847D01*
X334Y-2882D01*
X374Y-2874D01*
X385Y-2876D01*
X406Y-2886D01*
X495Y-2979D01*
X495Y-3000D01*
X495Y-3074D01*
X500Y-3098D01*
X500Y-3124D01*
X529Y-3269D01*
X539Y-3292D01*
X543Y-3316D01*
X600Y-3453D01*
X614Y-3474D01*
X624Y-3497D01*
X706Y-3620D01*
X723Y-3638D01*
X737Y-3658D01*
X842Y-3763D01*
X856Y-3772D01*
X861Y-3800D01*
X857Y-3859D01*
X837Y-3918D01*
X772Y-3945D01*
X615Y-4065D01*
X495Y-4222D01*
X419Y-4404D01*
X394Y-4600D01*
X419Y-4796D01*
X495Y-4978D01*
X615Y-5135D01*
X772Y-5255D01*
X954Y-5331D01*
X1150Y-5356D01*
X1346Y-5331D01*
X1528Y-5255D01*
X1685Y-5135D01*
X1805Y-4978D01*
X1881Y-4796D01*
X1906Y-4600D01*
X1881Y-4404D01*
X1805Y-4222D01*
X1720Y-4110D01*
X1757Y-3982D01*
X1766Y-3972D01*
X1769Y-3971D01*
X1792Y-3961D01*
X1816Y-3957D01*
X1953Y-3900D01*
X1974Y-3886D01*
X1997Y-3876D01*
X2120Y-3794D01*
X2138Y-3777D01*
X2158Y-3763D01*
X2263Y-3658D01*
X2277Y-3637D01*
X2295Y-3620D01*
X2377Y-3497D01*
X2386Y-3474D01*
X2400Y-3453D01*
X2457Y-3316D01*
X2462Y-3292D01*
X2471Y-3268D01*
X2483Y-3209D01*
X2622Y-3155D01*
X2804Y-3231D01*
X3000Y-3256D01*
X3196Y-3231D01*
X3378Y-3155D01*
X3535Y-3035D01*
X3655Y-2878D01*
X3731Y-2696D01*
X3756Y-2500D01*
X3731Y-2304D01*
X3708Y-2250D01*
X3805Y-2153D01*
X3824Y-2160D01*
X3849Y-2165D01*
X3872Y-2175D01*
X4259Y-2251D01*
X4284Y-2251D01*
X4309Y-2255D01*
X4506Y-2255D01*
X4506Y-2255D01*
X4703Y-2254D01*
X4727Y-2249D01*
X4752Y-2249D01*
X5138Y-2172D01*
X5161Y-2162D01*
X5186Y-2157D01*
X5549Y-2006D01*
X5569Y-1992D01*
X5593Y-1982D01*
X5919Y-1763D01*
X5937Y-1745D01*
X5958Y-1732D01*
X6235Y-1453D01*
X6249Y-1432D01*
X6267Y-1414D01*
X6485Y-1087D01*
X6495Y-1064D01*
X6509Y-1043D01*
X6659Y-680D01*
X6664Y-655D01*
X6673Y-632D01*
X6750Y-246D01*
X6750Y-221D01*
X6755Y-197D01*
X6755Y-0D01*
X6755Y197D01*
X6750Y222D01*
Y247D01*
X6673Y633D01*
X6664Y656D01*
X6659Y681D01*
X6508Y1045D01*
X6494Y1066D01*
X6484Y1089D01*
X6265Y1417D01*
X6248Y1434D01*
X6234Y1455D01*
X5955Y1734D01*
X5934Y1748D01*
X5917Y1765D01*
X5589Y1984D01*
X5566Y1994D01*
X5545Y2008D01*
X5181Y2159D01*
X5156Y2164D01*
X5133Y2173D01*
X4747Y2250D01*
X4722D01*
X4697Y2255D01*
X4500D01*
X4500Y2255D01*
X4500Y2255D01*
X4494Y2255D01*
X4298Y2255D01*
X4273Y2250D01*
X4248Y2250D01*
X3862Y2173D01*
X3839Y2163D01*
X3814Y2158D01*
X3807Y2155D01*
X3709Y2253D01*
X3731Y2304D01*
X3756Y2500D01*
X3731Y2696D01*
X3655Y2878D01*
X3535Y3035D01*
X3378Y3155D01*
X3196Y3231D01*
X3000Y3256D01*
D02*
G37*
G36*
X-5246Y3512D02*
X-5442Y3486D01*
X-5624Y3411D01*
X-5781Y3290D01*
X-5901Y3134D01*
X-5977Y2951D01*
X-6003Y2756D01*
X-5977Y2560D01*
X-5901Y2377D01*
X-5781Y2221D01*
X-5631Y2106D01*
X-5621Y2071D01*
X-5625Y1963D01*
X-5921Y1765D01*
X-5938Y1747D01*
X-5959Y1733D01*
X-6237Y1455D01*
X-6251Y1434D01*
X-6269Y1416D01*
X-6487Y1088D01*
X-6497Y1065D01*
X-6510Y1044D01*
X-6660Y680D01*
X-6665Y655D01*
X-6675Y632D01*
X-6751Y246D01*
X-6751Y221D01*
X-6755Y196D01*
X-6755Y-1D01*
X-6755Y-1D01*
X-6755Y-197D01*
X-6750Y-222D01*
X-6750Y-247D01*
X-6673Y-634D01*
X-6663Y-657D01*
X-6658Y-682D01*
X-6507Y-1047D01*
X-6493Y-1067D01*
X-6483Y-1091D01*
X-6264Y-1419D01*
X-6246Y-1436D01*
X-6232Y-1457D01*
X-5953Y-1736D01*
X-5932Y-1750D01*
X-5914Y-1768D01*
X-5585Y-1986D01*
X-5562Y-1996D01*
X-5541Y-2010D01*
X-5176Y-2160D01*
X-5152Y-2165D01*
X-5128Y-2175D01*
X-4741Y-2251D01*
X-4716Y-2251D01*
X-4691Y-2255D01*
X-4494Y-2255D01*
X-4494Y-2255D01*
X-4297Y-2254D01*
X-4273Y-2249D01*
X-4248Y-2249D01*
X-3862Y-2172D01*
X-3839Y-2162D01*
X-3814Y-2157D01*
X-3451Y-2006D01*
X-3431Y-1992D01*
X-3407Y-1982D01*
X-3081Y-1763D01*
X-3063Y-1745D01*
X-3042Y-1732D01*
X-2765Y-1453D01*
X-2751Y-1432D01*
X-2733Y-1414D01*
X-2515Y-1087D01*
X-2505Y-1064D01*
X-2491Y-1043D01*
X-2341Y-680D01*
X-2336Y-655D01*
X-2327Y-632D01*
X-2250Y-246D01*
X-2250Y-221D01*
X-2250Y-219D01*
X-2183Y-179D01*
X-2118Y-162D01*
X-2022Y-226D01*
X-1846Y-261D01*
X-1671Y-226D01*
X-1522Y-126D01*
X-1422Y22D01*
X-1387Y198D01*
X-1422Y374D01*
X-1522Y522D01*
X-1671Y622D01*
X-1846Y657D01*
X-2022Y622D01*
X-2171Y522D01*
X-2174Y517D01*
X-2309Y544D01*
X-2327Y633D01*
X-2336Y656D01*
X-2341Y681D01*
X-2492Y1045D01*
X-2506Y1066D01*
X-2516Y1089D01*
X-2735Y1417D01*
X-2752Y1434D01*
X-2766Y1455D01*
X-3045Y1734D01*
X-3066Y1748D01*
X-3083Y1765D01*
X-3411Y1984D01*
X-3434Y1994D01*
X-3455Y2008D01*
X-3819Y2159D01*
X-3844Y2164D01*
X-3867Y2173D01*
X-4253Y2250D01*
X-4278D01*
X-4303Y2255D01*
X-4500D01*
X-4500Y2255D01*
X-4500Y2255D01*
X-4506Y2255D01*
X-4541D01*
X-4598Y2369D01*
X-4591Y2377D01*
X-4515Y2560D01*
X-4490Y2756D01*
X-4515Y2951D01*
X-4591Y3134D01*
X-4711Y3290D01*
X-4868Y3411D01*
X-5050Y3486D01*
X-5246Y3512D01*
D02*
G37*
G36*
X-1574Y-1995D02*
X-1598Y-2000D01*
X-1623Y-2000D01*
X-1768Y-2029D01*
X-1792Y-2038D01*
X-1816Y-2043D01*
X-1953Y-2100D01*
X-1974Y-2114D01*
X-1997Y-2123D01*
X-2120Y-2205D01*
X-2137Y-2223D01*
X-2158Y-2237D01*
X-2263Y-2342D01*
X-2277Y-2363D01*
X-2294Y-2380D01*
X-2376Y-2503D01*
X-2386Y-2526D01*
X-2400Y-2547D01*
X-2457Y-2684D01*
X-2461Y-2708D01*
X-2471Y-2732D01*
X-2500Y-2876D01*
X-2500Y-2902D01*
X-2505Y-2926D01*
X-2505Y-3000D01*
X-2505Y-3074D01*
X-2500Y-3098D01*
X-2500Y-3124D01*
X-2471Y-3269D01*
X-2461Y-3292D01*
X-2457Y-3316D01*
X-2400Y-3453D01*
X-2386Y-3474D01*
X-2376Y-3497D01*
X-2294Y-3620D01*
X-2277Y-3638D01*
X-2263Y-3658D01*
X-2158Y-3763D01*
X-2137Y-3777D01*
X-2120Y-3795D01*
X-1997Y-3877D01*
X-1974Y-3886D01*
X-1953Y-3900D01*
X-1816Y-3957D01*
X-1791Y-3962D01*
X-1768Y-3971D01*
X-1766Y-3972D01*
X-1757Y-3982D01*
X-1720Y-4110D01*
X-1805Y-4222D01*
X-1881Y-4404D01*
X-1906Y-4600D01*
X-1881Y-4796D01*
X-1805Y-4978D01*
X-1685Y-5135D01*
X-1528Y-5255D01*
X-1346Y-5331D01*
X-1150Y-5356D01*
X-954Y-5331D01*
X-772Y-5255D01*
X-615Y-5135D01*
X-495Y-4978D01*
X-419Y-4796D01*
X-394Y-4600D01*
X-419Y-4404D01*
X-495Y-4222D01*
X-615Y-4065D01*
X-772Y-3945D01*
X-837Y-3918D01*
X-857Y-3859D01*
X-861Y-3798D01*
X-856Y-3772D01*
X-842Y-3763D01*
X-737Y-3658D01*
X-723Y-3637D01*
X-705Y-3620D01*
X-623Y-3497D01*
X-614Y-3474D01*
X-600Y-3453D01*
X-543Y-3316D01*
X-538Y-3292D01*
X-529Y-3268D01*
X-500Y-3124D01*
X-500Y-3099D01*
X-495Y-3074D01*
X-495Y-3000D01*
X-495Y-2926D01*
X-500Y-2902D01*
X-500Y-2876D01*
X-529Y-2732D01*
X-538Y-2708D01*
X-543Y-2684D01*
X-600Y-2547D01*
X-614Y-2526D01*
X-623Y-2503D01*
X-705Y-2380D01*
X-723Y-2363D01*
X-737Y-2342D01*
X-842Y-2237D01*
X-862Y-2223D01*
X-880Y-2206D01*
X-1003Y-2123D01*
X-1026Y-2114D01*
X-1047Y-2100D01*
X-1184Y-2043D01*
X-1208Y-2038D01*
X-1231Y-2029D01*
X-1376Y-2000D01*
X-1401Y-2000D01*
X-1426Y-1995D01*
X-1500Y-1995D01*
X-1574Y-1995D01*
D02*
G37*
G36*
X-5266Y-2464D02*
Y-2745D01*
X-4985D01*
X-4986Y-2742D01*
X-5106Y-2585D01*
X-5263Y-2465D01*
X-5266Y-2464D01*
D02*
G37*
%LPD*%
D31*
X-5641Y-3120D02*
D03*
D32*
X-1383Y3200D02*
D03*
X-2835Y-3484D02*
D03*
X1513Y5636D02*
D03*
X-1900Y1000D02*
D03*
X-1741Y-1553D02*
D03*
X-1561Y5687D02*
D03*
M02*
