G04*
G04 #@! TF.GenerationSoftware,Altium Limited,Altium Designer,21.8.1 (53)*
G04*
G04 Layer_Color=32896*
%FSLAX43Y43*%
%MOMM*%
G71*
G04*
G04 #@! TF.SameCoordinates,1D73D155-7DD3-43B3-A4AD-18309685674C*
G04*
G04*
G04 #@! TF.FilePolarity,Positive*
G04*
G01*
G75*
G36*
X-3937Y3081D02*
X-3921Y3078D01*
X-3906Y3075D01*
X-3891Y3071D01*
X-3877Y3065D01*
X-3865Y3059D01*
X-3853Y3052D01*
X-3843Y3047D01*
X-3834Y3040D01*
X-3826Y3033D01*
X-3819Y3027D01*
X-3813Y3022D01*
X-3809Y3017D01*
X-3806Y3014D01*
X-3804Y3012D01*
X-3803Y3011D01*
X-3792Y2995D01*
X-3782Y2977D01*
X-3773Y2960D01*
X-3766Y2942D01*
X-3759Y2922D01*
X-3754Y2904D01*
X-3750Y2886D01*
X-3747Y2867D01*
X-3744Y2851D01*
X-3742Y2836D01*
X-3740Y2822D01*
X-3739Y2809D01*
Y2800D01*
X-3738Y2792D01*
Y2787D01*
Y2787D01*
Y2786D01*
X-3739Y2761D01*
X-3741Y2737D01*
X-3744Y2715D01*
X-3748Y2694D01*
X-3753Y2675D01*
X-3758Y2657D01*
X-3764Y2641D01*
X-3771Y2627D01*
X-3777Y2613D01*
X-3782Y2602D01*
X-3787Y2592D01*
X-3792Y2584D01*
X-3797Y2577D01*
X-3800Y2572D01*
X-3802Y2570D01*
X-3802Y2569D01*
X-3813Y2557D01*
X-3825Y2547D01*
X-3837Y2537D01*
X-3849Y2529D01*
X-3862Y2522D01*
X-3873Y2517D01*
X-3885Y2513D01*
X-3897Y2508D01*
X-3907Y2506D01*
X-3917Y2503D01*
X-3927Y2503D01*
X-3934Y2501D01*
X-3941D01*
X-3945Y2500D01*
X-3949D01*
X-3962Y2501D01*
X-3975Y2502D01*
X-3998Y2507D01*
X-4019Y2513D01*
X-4028Y2517D01*
X-4036Y2522D01*
X-4044Y2526D01*
X-4051Y2530D01*
X-4056Y2533D01*
X-4061Y2537D01*
X-4065Y2539D01*
X-4067Y2542D01*
X-4069Y2542D01*
X-4070Y2543D01*
X-4079Y2552D01*
X-4087Y2562D01*
X-4101Y2583D01*
X-4114Y2607D01*
X-4124Y2629D01*
X-4128Y2640D01*
X-4131Y2650D01*
X-4134Y2659D01*
X-4136Y2667D01*
X-4138Y2673D01*
X-4140Y2678D01*
X-4141Y2682D01*
Y2682D01*
X-4050Y2717D01*
X-4045Y2695D01*
X-4038Y2677D01*
X-4032Y2661D01*
X-4026Y2648D01*
X-4020Y2638D01*
X-4015Y2632D01*
X-4011Y2627D01*
X-4011Y2626D01*
X-4001Y2617D01*
X-3990Y2609D01*
X-3979Y2604D01*
X-3969Y2601D01*
X-3961Y2599D01*
X-3953Y2598D01*
X-3949Y2597D01*
X-3947D01*
X-3938Y2598D01*
X-3930Y2599D01*
X-3913Y2604D01*
X-3900Y2612D01*
X-3888Y2620D01*
X-3878Y2627D01*
X-3872Y2635D01*
X-3867Y2640D01*
X-3866Y2641D01*
Y2642D01*
X-3861Y2651D01*
X-3856Y2661D01*
X-3852Y2672D01*
X-3848Y2684D01*
X-3842Y2709D01*
X-3839Y2734D01*
X-3837Y2746D01*
X-3837Y2757D01*
X-3836Y2767D01*
Y2775D01*
X-3835Y2782D01*
Y2787D01*
Y2792D01*
Y2792D01*
Y2811D01*
X-3837Y2828D01*
X-3838Y2844D01*
X-3840Y2858D01*
X-3842Y2872D01*
X-3845Y2884D01*
X-3847Y2895D01*
X-3851Y2904D01*
X-3854Y2912D01*
X-3857Y2920D01*
X-3859Y2926D01*
X-3862Y2931D01*
X-3864Y2934D01*
X-3865Y2937D01*
X-3867Y2938D01*
Y2939D01*
X-3873Y2947D01*
X-3880Y2954D01*
X-3887Y2960D01*
X-3893Y2965D01*
X-3907Y2973D01*
X-3921Y2978D01*
X-3932Y2982D01*
X-3941Y2983D01*
X-3945Y2984D01*
X-3950D01*
X-3963Y2983D01*
X-3975Y2980D01*
X-3985Y2977D01*
X-3994Y2972D01*
X-4001Y2967D01*
X-4007Y2963D01*
X-4011Y2960D01*
X-4011Y2959D01*
X-4021Y2949D01*
X-4028Y2938D01*
X-4035Y2927D01*
X-4040Y2915D01*
X-4043Y2905D01*
X-4046Y2897D01*
X-4046Y2893D01*
Y2891D01*
X-4047Y2890D01*
Y2889D01*
X-4140Y2916D01*
X-4136Y2929D01*
X-4132Y2942D01*
X-4128Y2953D01*
X-4124Y2965D01*
X-4119Y2975D01*
X-4115Y2984D01*
X-4110Y2992D01*
X-4106Y2999D01*
X-4101Y3006D01*
X-4097Y3012D01*
X-4094Y3017D01*
X-4091Y3021D01*
X-4088Y3023D01*
X-4086Y3026D01*
X-4086Y3027D01*
X-4085D01*
X-4075Y3037D01*
X-4064Y3045D01*
X-4053Y3052D01*
X-4042Y3059D01*
X-4031Y3064D01*
X-4021Y3068D01*
X-4000Y3075D01*
X-3991Y3077D01*
X-3982Y3079D01*
X-3975Y3080D01*
X-3968Y3081D01*
X-3962Y3082D01*
X-3955D01*
X-3937Y3081D01*
D02*
G37*
G36*
X-4222Y2509D02*
X-4547D01*
Y2604D01*
X-4316D01*
Y3068D01*
X-4222D01*
Y2509D01*
D02*
G37*
G36*
X-3467Y3081D02*
X-3449Y3078D01*
X-3434Y3076D01*
X-3421Y3072D01*
X-3410Y3068D01*
X-3402Y3066D01*
X-3397Y3063D01*
X-3396Y3062D01*
X-3395D01*
X-3382Y3055D01*
X-3371Y3046D01*
X-3361Y3037D01*
X-3352Y3027D01*
X-3346Y3019D01*
X-3342Y3012D01*
X-3338Y3008D01*
X-3337Y3007D01*
Y3007D01*
X-3331Y2992D01*
X-3326Y2978D01*
X-3322Y2964D01*
X-3319Y2952D01*
X-3318Y2941D01*
X-3317Y2932D01*
Y2928D01*
Y2926D01*
Y2925D01*
Y2924D01*
X-3318Y2910D01*
X-3319Y2896D01*
X-3322Y2883D01*
X-3325Y2872D01*
X-3327Y2863D01*
X-3330Y2856D01*
X-3332Y2852D01*
X-3332Y2850D01*
X-3339Y2837D01*
X-3347Y2827D01*
X-3354Y2817D01*
X-3361Y2810D01*
X-3367Y2803D01*
X-3372Y2799D01*
X-3376Y2796D01*
X-3377Y2795D01*
X-3388Y2787D01*
X-3402Y2780D01*
X-3417Y2773D01*
X-3431Y2767D01*
X-3444Y2762D01*
X-3449Y2761D01*
X-3454Y2759D01*
X-3458Y2757D01*
X-3462Y2757D01*
X-3463Y2756D01*
X-3464D01*
X-3476Y2752D01*
X-3487Y2749D01*
X-3497Y2746D01*
X-3505Y2742D01*
X-3513Y2740D01*
X-3520Y2737D01*
X-3526Y2736D01*
X-3531Y2734D01*
X-3538Y2731D01*
X-3544Y2728D01*
X-3547Y2727D01*
X-3547Y2727D01*
X-3553Y2723D01*
X-3559Y2720D01*
X-3563Y2716D01*
X-3567Y2712D01*
X-3572Y2707D01*
X-3573Y2706D01*
Y2705D01*
X-3577Y2700D01*
X-3578Y2694D01*
X-3582Y2684D01*
Y2679D01*
X-3582Y2676D01*
Y2673D01*
Y2672D01*
X-3582Y2661D01*
X-3578Y2650D01*
X-3575Y2641D01*
X-3570Y2632D01*
X-3566Y2627D01*
X-3562Y2622D01*
X-3558Y2618D01*
X-3557Y2617D01*
X-3547Y2610D01*
X-3537Y2605D01*
X-3526Y2601D01*
X-3516Y2598D01*
X-3506Y2597D01*
X-3498Y2596D01*
X-3492D01*
X-3477Y2597D01*
X-3462Y2601D01*
X-3451Y2606D01*
X-3440Y2612D01*
X-3430Y2621D01*
X-3422Y2630D01*
X-3415Y2640D01*
X-3409Y2650D01*
X-3404Y2660D01*
X-3400Y2670D01*
X-3397Y2679D01*
X-3394Y2687D01*
X-3392Y2694D01*
X-3392Y2699D01*
X-3391Y2703D01*
Y2704D01*
X-3300Y2693D01*
X-3303Y2676D01*
X-3305Y2659D01*
X-3309Y2644D01*
X-3313Y2629D01*
X-3319Y2616D01*
X-3325Y2603D01*
X-3331Y2592D01*
X-3337Y2582D01*
X-3345Y2572D01*
X-3352Y2562D01*
X-3368Y2547D01*
X-3385Y2534D01*
X-3402Y2524D01*
X-3418Y2516D01*
X-3434Y2510D01*
X-3449Y2506D01*
X-3462Y2503D01*
X-3473Y2502D01*
X-3482Y2500D01*
X-3489D01*
X-3507Y2501D01*
X-3522Y2503D01*
X-3537Y2504D01*
X-3552Y2507D01*
X-3564Y2512D01*
X-3576Y2516D01*
X-3587Y2520D01*
X-3596Y2525D01*
X-3603Y2529D01*
X-3611Y2533D01*
X-3617Y2537D01*
X-3622Y2542D01*
X-3625Y2545D01*
X-3627Y2547D01*
X-3629Y2548D01*
X-3630Y2549D01*
X-3638Y2559D01*
X-3645Y2569D01*
X-3652Y2579D01*
X-3657Y2589D01*
X-3665Y2610D01*
X-3670Y2630D01*
X-3672Y2638D01*
X-3673Y2647D01*
X-3674Y2654D01*
X-3675Y2660D01*
X-3676Y2666D01*
Y2669D01*
Y2672D01*
Y2672D01*
X-3675Y2691D01*
X-3673Y2707D01*
X-3671Y2722D01*
X-3667Y2735D01*
X-3664Y2745D01*
X-3662Y2752D01*
X-3660Y2757D01*
X-3659Y2759D01*
X-3652Y2772D01*
X-3645Y2783D01*
X-3637Y2793D01*
X-3629Y2802D01*
X-3622Y2808D01*
X-3616Y2812D01*
X-3612Y2816D01*
X-3611Y2817D01*
X-3605Y2821D01*
X-3597Y2825D01*
X-3582Y2833D01*
X-3565Y2840D01*
X-3548Y2847D01*
X-3533Y2852D01*
X-3527Y2854D01*
X-3521Y2857D01*
X-3516Y2858D01*
X-3512Y2859D01*
X-3510Y2860D01*
X-3509D01*
X-3497Y2863D01*
X-3487Y2867D01*
X-3477Y2870D01*
X-3468Y2873D01*
X-3460Y2877D01*
X-3453Y2879D01*
X-3447Y2882D01*
X-3442Y2885D01*
X-3433Y2889D01*
X-3428Y2892D01*
X-3425Y2894D01*
X-3424Y2895D01*
X-3418Y2901D01*
X-3413Y2907D01*
X-3410Y2913D01*
X-3408Y2919D01*
X-3407Y2925D01*
X-3406Y2929D01*
Y2932D01*
Y2932D01*
X-3407Y2941D01*
X-3409Y2948D01*
X-3412Y2955D01*
X-3416Y2961D01*
X-3419Y2966D01*
X-3422Y2969D01*
X-3425Y2971D01*
X-3426Y2972D01*
X-3434Y2977D01*
X-3444Y2981D01*
X-3453Y2983D01*
X-3462Y2986D01*
X-3471Y2987D01*
X-3478Y2987D01*
X-3484D01*
X-3497Y2987D01*
X-3509Y2985D01*
X-3519Y2982D01*
X-3527Y2978D01*
X-3534Y2975D01*
X-3539Y2972D01*
X-3542Y2970D01*
X-3542Y2969D01*
X-3550Y2961D01*
X-3556Y2952D01*
X-3560Y2941D01*
X-3564Y2931D01*
X-3567Y2921D01*
X-3568Y2913D01*
X-3569Y2910D01*
X-3570Y2907D01*
Y2907D01*
Y2906D01*
X-3663Y2911D01*
X-3662Y2926D01*
X-3660Y2940D01*
X-3657Y2952D01*
X-3654Y2965D01*
X-3651Y2976D01*
X-3647Y2987D01*
X-3642Y2996D01*
X-3637Y3004D01*
X-3633Y3012D01*
X-3629Y3018D01*
X-3625Y3024D01*
X-3622Y3028D01*
X-3618Y3032D01*
X-3616Y3035D01*
X-3615Y3036D01*
X-3614Y3037D01*
X-3605Y3045D01*
X-3596Y3052D01*
X-3585Y3057D01*
X-3575Y3062D01*
X-3553Y3071D01*
X-3533Y3076D01*
X-3523Y3078D01*
X-3515Y3079D01*
X-3507Y3080D01*
X-3500Y3081D01*
X-3494Y3082D01*
X-3487D01*
X-3467Y3081D01*
D02*
G37*
G36*
X1792Y2246D02*
X1705D01*
Y2613D01*
X1519Y2246D01*
X1425D01*
Y2810D01*
X1512D01*
Y2433D01*
X1702Y2810D01*
X1792D01*
Y2246D01*
D02*
G37*
G36*
X2108Y2817D02*
X2131Y2814D01*
X2151Y2808D01*
X2168Y2802D01*
X2176Y2799D01*
X2182Y2796D01*
X2188Y2793D01*
X2192Y2790D01*
X2197Y2789D01*
X2199Y2787D01*
X2201Y2785D01*
X2202D01*
X2219Y2772D01*
X2235Y2756D01*
X2248Y2740D01*
X2260Y2724D01*
X2269Y2710D01*
X2273Y2704D01*
X2276Y2698D01*
X2278Y2694D01*
X2280Y2690D01*
X2282Y2688D01*
Y2687D01*
X2292Y2661D01*
X2299Y2635D01*
X2305Y2608D01*
X2308Y2583D01*
X2310Y2571D01*
X2311Y2561D01*
X2312Y2551D01*
Y2544D01*
X2312Y2537D01*
Y2532D01*
Y2529D01*
Y2528D01*
X2311Y2495D01*
X2307Y2465D01*
X2306Y2451D01*
X2303Y2439D01*
X2300Y2426D01*
X2297Y2415D01*
X2295Y2405D01*
X2292Y2396D01*
X2289Y2389D01*
X2287Y2382D01*
X2285Y2377D01*
X2284Y2374D01*
X2282Y2371D01*
Y2370D01*
X2270Y2347D01*
X2257Y2327D01*
X2242Y2310D01*
X2229Y2295D01*
X2217Y2285D01*
X2207Y2277D01*
X2204Y2274D01*
X2202Y2272D01*
X2200Y2271D01*
X2199Y2270D01*
X2179Y2260D01*
X2158Y2251D01*
X2137Y2246D01*
X2119Y2241D01*
X2111Y2240D01*
X2102Y2239D01*
X2096Y2238D01*
X2090D01*
X2085Y2237D01*
X2078D01*
X2057Y2238D01*
X2038Y2241D01*
X2018Y2246D01*
X2002Y2250D01*
X1988Y2255D01*
X1982Y2256D01*
X1976Y2258D01*
X1973Y2260D01*
X1969Y2261D01*
X1968Y2262D01*
X1967D01*
X1947Y2272D01*
X1929Y2283D01*
X1915Y2293D01*
X1903Y2303D01*
X1893Y2311D01*
X1886Y2318D01*
X1882Y2322D01*
X1880Y2324D01*
Y2548D01*
X2081D01*
Y2453D01*
X1974D01*
Y2382D01*
X1983Y2374D01*
X1993Y2367D01*
X2002Y2361D01*
X2009Y2356D01*
X2017Y2352D01*
X2023Y2350D01*
X2026Y2348D01*
X2028Y2347D01*
X2038Y2343D01*
X2048Y2340D01*
X2058Y2338D01*
X2067Y2336D01*
X2073Y2335D01*
X2078Y2335D01*
X2083D01*
X2094Y2335D01*
X2104Y2336D01*
X2122Y2341D01*
X2139Y2349D01*
X2152Y2357D01*
X2162Y2365D01*
X2170Y2373D01*
X2175Y2378D01*
X2176Y2379D01*
X2177Y2380D01*
X2183Y2390D01*
X2189Y2401D01*
X2199Y2426D01*
X2206Y2452D01*
X2211Y2477D01*
X2212Y2488D01*
X2213Y2499D01*
X2215Y2509D01*
Y2517D01*
X2216Y2524D01*
Y2530D01*
Y2533D01*
Y2534D01*
X2215Y2551D01*
X2214Y2567D01*
X2212Y2582D01*
X2210Y2596D01*
X2207Y2609D01*
X2204Y2620D01*
X2201Y2630D01*
X2197Y2640D01*
X2194Y2648D01*
X2191Y2655D01*
X2187Y2661D01*
X2185Y2666D01*
X2182Y2670D01*
X2181Y2672D01*
X2179Y2674D01*
Y2675D01*
X2172Y2683D01*
X2164Y2690D01*
X2157Y2696D01*
X2148Y2701D01*
X2132Y2710D01*
X2117Y2715D01*
X2103Y2719D01*
X2097Y2720D01*
X2092Y2720D01*
X2088Y2721D01*
X2082D01*
X2068Y2720D01*
X2056Y2718D01*
X2045Y2714D01*
X2035Y2710D01*
X2028Y2705D01*
X2022Y2701D01*
X2018Y2699D01*
X2017Y2698D01*
X2008Y2689D01*
X1999Y2678D01*
X1993Y2666D01*
X1988Y2656D01*
X1983Y2646D01*
X1981Y2639D01*
X1979Y2633D01*
X1978Y2632D01*
Y2631D01*
X1886Y2652D01*
X1889Y2667D01*
X1893Y2681D01*
X1898Y2694D01*
X1903Y2706D01*
X1908Y2717D01*
X1913Y2727D01*
X1918Y2736D01*
X1924Y2745D01*
X1929Y2752D01*
X1934Y2759D01*
X1939Y2764D01*
X1943Y2769D01*
X1946Y2772D01*
X1948Y2775D01*
X1950Y2775D01*
X1951Y2776D01*
X1960Y2784D01*
X1971Y2790D01*
X1982Y2796D01*
X1993Y2801D01*
X2014Y2809D01*
X2036Y2814D01*
X2045Y2815D01*
X2054Y2816D01*
X2062Y2817D01*
X2069Y2818D01*
X2075Y2819D01*
X2083D01*
X2108Y2817D01*
D02*
G37*
G36*
X1329Y2246D02*
X1154D01*
X1134Y2247D01*
X1115Y2249D01*
X1099Y2251D01*
X1086Y2255D01*
X1075Y2257D01*
X1068Y2260D01*
X1063Y2261D01*
X1061Y2262D01*
X1048Y2269D01*
X1036Y2276D01*
X1026Y2284D01*
X1017Y2291D01*
X1010Y2298D01*
X1004Y2304D01*
X1001Y2307D01*
X1000Y2309D01*
X991Y2321D01*
X983Y2335D01*
X975Y2350D01*
X969Y2364D01*
X964Y2375D01*
X961Y2385D01*
X959Y2390D01*
X959Y2392D01*
X958Y2394D01*
Y2395D01*
X952Y2415D01*
X948Y2437D01*
X945Y2459D01*
X943Y2479D01*
Y2488D01*
X942Y2496D01*
Y2504D01*
X941Y2510D01*
Y2515D01*
Y2519D01*
Y2521D01*
Y2522D01*
X942Y2551D01*
X944Y2577D01*
X944Y2590D01*
X946Y2600D01*
X948Y2610D01*
X949Y2620D01*
X950Y2628D01*
X952Y2635D01*
X954Y2642D01*
X954Y2647D01*
X955Y2651D01*
X956Y2655D01*
X957Y2656D01*
Y2657D01*
X964Y2677D01*
X970Y2695D01*
X978Y2710D01*
X985Y2722D01*
X991Y2733D01*
X996Y2740D01*
X999Y2745D01*
X1001Y2746D01*
X1012Y2758D01*
X1022Y2768D01*
X1033Y2776D01*
X1042Y2783D01*
X1050Y2788D01*
X1056Y2792D01*
X1060Y2794D01*
X1062Y2795D01*
X1075Y2800D01*
X1091Y2803D01*
X1107Y2806D01*
X1123Y2808D01*
X1137Y2809D01*
X1143D01*
X1148Y2810D01*
X1329D01*
Y2246D01*
D02*
G37*
G36*
X4784Y-3811D02*
X4459D01*
Y-3716D01*
X4690D01*
Y-3252D01*
X4784D01*
Y-3811D01*
D02*
G37*
G36*
X4391D02*
X4040D01*
Y-3716D01*
X4298D01*
Y-3563D01*
X4065D01*
Y-3468D01*
X4298D01*
Y-3343D01*
X4048D01*
Y-3248D01*
X4391D01*
Y-3811D01*
D02*
G37*
G36*
X3961D02*
X3786D01*
X3766Y-3811D01*
X3748Y-3809D01*
X3732Y-3806D01*
X3719Y-3803D01*
X3708Y-3801D01*
X3701Y-3798D01*
X3696Y-3796D01*
X3694Y-3796D01*
X3681Y-3789D01*
X3669Y-3781D01*
X3659Y-3774D01*
X3650Y-3766D01*
X3643Y-3760D01*
X3637Y-3754D01*
X3634Y-3751D01*
X3633Y-3749D01*
X3624Y-3736D01*
X3616Y-3722D01*
X3608Y-3708D01*
X3602Y-3694D01*
X3597Y-3682D01*
X3594Y-3672D01*
X3592Y-3668D01*
X3591Y-3666D01*
X3591Y-3664D01*
Y-3663D01*
X3585Y-3642D01*
X3581Y-3621D01*
X3578Y-3599D01*
X3576Y-3579D01*
Y-3570D01*
X3575Y-3562D01*
Y-3554D01*
X3574Y-3548D01*
Y-3543D01*
Y-3539D01*
Y-3537D01*
Y-3536D01*
X3575Y-3507D01*
X3576Y-3481D01*
X3577Y-3468D01*
X3579Y-3457D01*
X3581Y-3447D01*
X3581Y-3438D01*
X3583Y-3430D01*
X3585Y-3422D01*
X3586Y-3416D01*
X3587Y-3411D01*
X3588Y-3407D01*
X3589Y-3403D01*
X3590Y-3402D01*
Y-3401D01*
X3596Y-3381D01*
X3603Y-3363D01*
X3611Y-3348D01*
X3618Y-3336D01*
X3624Y-3325D01*
X3629Y-3317D01*
X3632Y-3313D01*
X3634Y-3312D01*
X3645Y-3300D01*
X3655Y-3290D01*
X3666Y-3282D01*
X3675Y-3275D01*
X3683Y-3270D01*
X3689Y-3266D01*
X3693Y-3264D01*
X3695Y-3263D01*
X3708Y-3258D01*
X3724Y-3255D01*
X3740Y-3252D01*
X3756Y-3250D01*
X3770Y-3249D01*
X3776D01*
X3781Y-3248D01*
X3961D01*
Y-3811D01*
D02*
G37*
G36*
X1416Y-5900D02*
X1329D01*
Y-5533D01*
X1143Y-5900D01*
X1049D01*
Y-5337D01*
X1136D01*
Y-5713D01*
X1326Y-5337D01*
X1416D01*
Y-5900D01*
D02*
G37*
G36*
X1600D02*
X1507D01*
Y-5337D01*
X1600D01*
Y-5900D01*
D02*
G37*
G36*
X985Y-5432D02*
X848D01*
Y-5900D01*
X754D01*
Y-5432D01*
X618D01*
Y-5337D01*
X985D01*
Y-5432D01*
D02*
G37*
G36*
X4600Y-3068D02*
X4513D01*
Y-2701D01*
X4327Y-3068D01*
X4233D01*
Y-2505D01*
X4320D01*
Y-2881D01*
X4510Y-2505D01*
X4600D01*
Y-3068D01*
D02*
G37*
G36*
X4784D02*
X4690D01*
Y-2505D01*
X4784D01*
Y-3068D01*
D02*
G37*
G36*
X4849Y2386D02*
X4524D01*
Y2480D01*
X4756D01*
Y2945D01*
X4849D01*
Y2386D01*
D02*
G37*
G36*
X4457D02*
X4105D01*
Y2480D01*
X4364D01*
Y2634D01*
X4131D01*
Y2729D01*
X4364D01*
Y2854D01*
X4114D01*
Y2949D01*
X4457D01*
Y2386D01*
D02*
G37*
G36*
X4027D02*
X3852D01*
X3832Y2386D01*
X3814Y2388D01*
X3798Y2391D01*
X3784Y2394D01*
X3774Y2396D01*
X3766Y2399D01*
X3761Y2401D01*
X3760Y2401D01*
X3746Y2408D01*
X3735Y2415D01*
X3725Y2423D01*
X3715Y2431D01*
X3709Y2437D01*
X3703Y2443D01*
X3700Y2446D01*
X3699Y2448D01*
X3690Y2460D01*
X3681Y2475D01*
X3674Y2489D01*
X3668Y2503D01*
X3663Y2515D01*
X3660Y2525D01*
X3658Y2529D01*
X3657Y2531D01*
X3656Y2533D01*
Y2534D01*
X3650Y2555D01*
X3646Y2576D01*
X3644Y2598D01*
X3641Y2618D01*
Y2627D01*
X3640Y2635D01*
Y2643D01*
X3640Y2649D01*
Y2654D01*
Y2658D01*
Y2660D01*
Y2661D01*
X3640Y2690D01*
X3642Y2716D01*
X3643Y2729D01*
X3645Y2740D01*
X3646Y2750D01*
X3647Y2759D01*
X3649Y2767D01*
X3650Y2775D01*
X3652Y2781D01*
X3653Y2786D01*
X3654Y2790D01*
X3655Y2794D01*
X3655Y2795D01*
Y2796D01*
X3662Y2816D01*
X3669Y2834D01*
X3676Y2849D01*
X3684Y2861D01*
X3690Y2872D01*
X3695Y2880D01*
X3698Y2884D01*
X3700Y2885D01*
X3710Y2897D01*
X3720Y2907D01*
X3731Y2915D01*
X3740Y2922D01*
X3749Y2927D01*
X3755Y2931D01*
X3759Y2933D01*
X3760Y2934D01*
X3774Y2939D01*
X3789Y2942D01*
X3805Y2945D01*
X3821Y2947D01*
X3835Y2948D01*
X3841D01*
X3846Y2949D01*
X4027D01*
Y2386D01*
D02*
G37*
G36*
X4329Y3358D02*
Y3336D01*
X4329Y3315D01*
X4328Y3296D01*
X4327Y3278D01*
X4325Y3262D01*
X4324Y3248D01*
X4322Y3236D01*
X4320Y3224D01*
X4319Y3215D01*
X4318Y3207D01*
X4316Y3200D01*
X4314Y3194D01*
X4314Y3190D01*
X4313Y3188D01*
X4312Y3186D01*
Y3185D01*
X4304Y3168D01*
X4295Y3154D01*
X4285Y3142D01*
X4275Y3132D01*
X4267Y3123D01*
X4259Y3118D01*
X4254Y3113D01*
X4254Y3113D01*
X4253D01*
X4236Y3104D01*
X4218Y3098D01*
X4199Y3093D01*
X4181Y3090D01*
X4164Y3088D01*
X4158Y3088D01*
X4151D01*
X4146Y3087D01*
X4139D01*
X4114Y3088D01*
X4093Y3092D01*
X4074Y3097D01*
X4058Y3103D01*
X4051Y3105D01*
X4044Y3108D01*
X4039Y3110D01*
X4035Y3113D01*
X4032Y3115D01*
X4029Y3116D01*
X4029Y3118D01*
X4028D01*
X4013Y3130D01*
X4001Y3143D01*
X3992Y3158D01*
X3984Y3170D01*
X3979Y3182D01*
X3975Y3191D01*
X3974Y3194D01*
X3974Y3197D01*
X3973Y3198D01*
Y3199D01*
X3970Y3209D01*
X3969Y3221D01*
X3967Y3233D01*
X3965Y3247D01*
X3964Y3273D01*
X3962Y3300D01*
X3961Y3313D01*
Y3325D01*
X3960Y3336D01*
Y3345D01*
Y3352D01*
Y3358D01*
Y3362D01*
Y3363D01*
Y3659D01*
X4054D01*
Y3347D01*
Y3332D01*
Y3318D01*
X4054Y3306D01*
X4055Y3295D01*
Y3285D01*
X4056Y3276D01*
X4057Y3267D01*
X4058Y3261D01*
X4059Y3255D01*
X4059Y3250D01*
X4060Y3246D01*
Y3242D01*
X4062Y3239D01*
Y3237D01*
X4065Y3228D01*
X4069Y3221D01*
X4074Y3214D01*
X4079Y3208D01*
X4083Y3204D01*
X4086Y3201D01*
X4089Y3199D01*
X4089Y3198D01*
X4098Y3193D01*
X4106Y3190D01*
X4114Y3188D01*
X4123Y3186D01*
X4130Y3185D01*
X4136Y3184D01*
X4142D01*
X4155Y3185D01*
X4168Y3188D01*
X4179Y3191D01*
X4187Y3194D01*
X4194Y3197D01*
X4199Y3201D01*
X4203Y3203D01*
X4204Y3204D01*
X4212Y3213D01*
X4218Y3222D01*
X4223Y3231D01*
X4227Y3241D01*
X4229Y3249D01*
X4231Y3256D01*
X4233Y3260D01*
Y3262D01*
X4234Y3267D01*
Y3272D01*
X4234Y3285D01*
X4235Y3301D01*
Y3316D01*
X4236Y3331D01*
Y3337D01*
Y3342D01*
Y3347D01*
Y3351D01*
Y3353D01*
Y3354D01*
Y3659D01*
X4329D01*
Y3358D01*
D02*
G37*
G36*
X3895Y3564D02*
X3758D01*
Y3096D01*
X3665D01*
Y3564D01*
X3528D01*
Y3659D01*
X3895D01*
Y3564D01*
D02*
G37*
G36*
X4650Y3667D02*
X4673Y3663D01*
X4693Y3658D01*
X4710Y3652D01*
X4717Y3649D01*
X4723Y3646D01*
X4729Y3643D01*
X4734Y3641D01*
X4738Y3639D01*
X4740Y3637D01*
X4742Y3636D01*
X4743D01*
X4759Y3622D01*
X4775Y3607D01*
X4788Y3592D01*
X4799Y3576D01*
X4808Y3562D01*
X4812Y3555D01*
X4814Y3550D01*
X4817Y3545D01*
X4818Y3542D01*
X4820Y3540D01*
Y3539D01*
X4825Y3527D01*
X4830Y3513D01*
X4837Y3486D01*
X4842Y3458D01*
X4846Y3432D01*
X4847Y3420D01*
X4848Y3408D01*
X4848Y3398D01*
Y3390D01*
X4849Y3383D01*
Y3377D01*
Y3374D01*
Y3373D01*
X4848Y3348D01*
X4847Y3324D01*
X4843Y3302D01*
X4839Y3281D01*
X4834Y3262D01*
X4828Y3244D01*
X4823Y3227D01*
X4816Y3213D01*
X4810Y3200D01*
X4804Y3188D01*
X4798Y3178D01*
X4793Y3170D01*
X4789Y3164D01*
X4786Y3159D01*
X4784Y3157D01*
X4783Y3156D01*
X4772Y3143D01*
X4760Y3133D01*
X4747Y3124D01*
X4734Y3116D01*
X4721Y3109D01*
X4708Y3103D01*
X4695Y3099D01*
X4683Y3095D01*
X4671Y3093D01*
X4660Y3090D01*
X4650Y3089D01*
X4642Y3088D01*
X4635D01*
X4629Y3087D01*
X4625D01*
X4607Y3088D01*
X4590Y3090D01*
X4573Y3093D01*
X4558Y3098D01*
X4544Y3103D01*
X4532Y3109D01*
X4520Y3115D01*
X4509Y3122D01*
X4499Y3128D01*
X4491Y3134D01*
X4484Y3141D01*
X4478Y3146D01*
X4473Y3150D01*
X4470Y3153D01*
X4468Y3156D01*
X4468Y3157D01*
X4456Y3173D01*
X4446Y3189D01*
X4437Y3207D01*
X4429Y3225D01*
X4423Y3243D01*
X4417Y3262D01*
X4413Y3279D01*
X4409Y3297D01*
X4407Y3313D01*
X4404Y3328D01*
X4403Y3342D01*
X4402Y3354D01*
X4401Y3364D01*
Y3372D01*
Y3376D01*
Y3377D01*
X4402Y3402D01*
X4404Y3427D01*
X4407Y3449D01*
X4411Y3470D01*
X4415Y3489D01*
X4421Y3507D01*
X4426Y3522D01*
X4432Y3537D01*
X4438Y3550D01*
X4444Y3561D01*
X4449Y3571D01*
X4453Y3578D01*
X4458Y3585D01*
X4461Y3589D01*
X4463Y3592D01*
X4463Y3592D01*
X4476Y3606D01*
X4488Y3617D01*
X4502Y3627D01*
X4515Y3637D01*
X4528Y3643D01*
X4542Y3650D01*
X4555Y3655D01*
X4568Y3659D01*
X4579Y3662D01*
X4590Y3664D01*
X4600Y3666D01*
X4608Y3667D01*
X4615D01*
X4621Y3668D01*
X4625D01*
X4650Y3667D01*
D02*
G37*
G36*
X-954Y-5891D02*
X-1129D01*
X-1149Y-5890D01*
X-1167Y-5888D01*
X-1183Y-5886D01*
X-1196Y-5883D01*
X-1207Y-5880D01*
X-1215Y-5878D01*
X-1220Y-5876D01*
X-1221Y-5875D01*
X-1235Y-5868D01*
X-1246Y-5861D01*
X-1256Y-5853D01*
X-1266Y-5846D01*
X-1272Y-5839D01*
X-1278Y-5833D01*
X-1281Y-5830D01*
X-1282Y-5828D01*
X-1291Y-5816D01*
X-1300Y-5802D01*
X-1307Y-5788D01*
X-1313Y-5773D01*
X-1318Y-5762D01*
X-1321Y-5752D01*
X-1323Y-5748D01*
X-1324Y-5745D01*
X-1325Y-5743D01*
Y-5743D01*
X-1331Y-5722D01*
X-1335Y-5700D01*
X-1337Y-5678D01*
X-1340Y-5658D01*
Y-5649D01*
X-1341Y-5641D01*
Y-5633D01*
X-1341Y-5628D01*
Y-5623D01*
Y-5618D01*
Y-5616D01*
Y-5615D01*
X-1341Y-5586D01*
X-1339Y-5560D01*
X-1338Y-5548D01*
X-1336Y-5537D01*
X-1335Y-5527D01*
X-1334Y-5518D01*
X-1332Y-5509D01*
X-1331Y-5502D01*
X-1329Y-5495D01*
X-1328Y-5490D01*
X-1327Y-5486D01*
X-1326Y-5483D01*
X-1326Y-5481D01*
Y-5480D01*
X-1319Y-5460D01*
X-1312Y-5443D01*
X-1305Y-5428D01*
X-1297Y-5415D01*
X-1291Y-5404D01*
X-1286Y-5397D01*
X-1283Y-5393D01*
X-1281Y-5391D01*
X-1271Y-5379D01*
X-1261Y-5369D01*
X-1250Y-5361D01*
X-1241Y-5354D01*
X-1232Y-5349D01*
X-1226Y-5345D01*
X-1222Y-5343D01*
X-1221Y-5343D01*
X-1207Y-5338D01*
X-1191Y-5334D01*
X-1176Y-5331D01*
X-1160Y-5329D01*
X-1146Y-5328D01*
X-1140D01*
X-1135Y-5328D01*
X-954D01*
Y-5891D01*
D02*
G37*
G36*
X-1373D02*
X-1472D01*
X-1510Y-5763D01*
X-1696D01*
X-1736Y-5891D01*
X-1837D01*
X-1651Y-5328D01*
X-1552D01*
X-1373Y-5891D01*
D02*
G37*
G36*
X-667Y-5319D02*
X-649Y-5322D01*
X-634Y-5324D01*
X-621Y-5328D01*
X-610Y-5332D01*
X-602Y-5334D01*
X-597Y-5337D01*
X-596Y-5338D01*
X-595D01*
X-582Y-5345D01*
X-571Y-5354D01*
X-561Y-5363D01*
X-552Y-5373D01*
X-546Y-5381D01*
X-542Y-5388D01*
X-538Y-5392D01*
X-537Y-5393D01*
Y-5393D01*
X-531Y-5408D01*
X-526Y-5422D01*
X-522Y-5436D01*
X-519Y-5448D01*
X-517Y-5459D01*
X-517Y-5468D01*
Y-5472D01*
Y-5474D01*
Y-5475D01*
Y-5476D01*
X-517Y-5490D01*
X-519Y-5504D01*
X-522Y-5517D01*
X-525Y-5528D01*
X-527Y-5537D01*
X-530Y-5544D01*
X-532Y-5548D01*
X-532Y-5550D01*
X-539Y-5563D01*
X-547Y-5573D01*
X-554Y-5583D01*
X-561Y-5590D01*
X-567Y-5597D01*
X-572Y-5601D01*
X-576Y-5604D01*
X-577Y-5605D01*
X-588Y-5613D01*
X-602Y-5620D01*
X-617Y-5627D01*
X-631Y-5633D01*
X-644Y-5638D01*
X-649Y-5639D01*
X-654Y-5641D01*
X-658Y-5643D01*
X-662Y-5643D01*
X-663Y-5644D01*
X-664D01*
X-676Y-5648D01*
X-687Y-5651D01*
X-697Y-5654D01*
X-705Y-5658D01*
X-713Y-5660D01*
X-720Y-5663D01*
X-726Y-5664D01*
X-731Y-5666D01*
X-738Y-5669D01*
X-744Y-5672D01*
X-747Y-5673D01*
X-747Y-5673D01*
X-753Y-5677D01*
X-759Y-5680D01*
X-763Y-5684D01*
X-767Y-5688D01*
X-772Y-5693D01*
X-773Y-5694D01*
Y-5695D01*
X-777Y-5700D01*
X-778Y-5706D01*
X-782Y-5716D01*
Y-5721D01*
X-782Y-5724D01*
Y-5727D01*
Y-5728D01*
X-782Y-5739D01*
X-778Y-5750D01*
X-775Y-5759D01*
X-770Y-5768D01*
X-766Y-5773D01*
X-762Y-5778D01*
X-758Y-5782D01*
X-757Y-5783D01*
X-747Y-5790D01*
X-737Y-5795D01*
X-726Y-5799D01*
X-716Y-5802D01*
X-706Y-5803D01*
X-698Y-5804D01*
X-692D01*
X-677Y-5803D01*
X-662Y-5799D01*
X-651Y-5794D01*
X-640Y-5788D01*
X-630Y-5779D01*
X-622Y-5770D01*
X-615Y-5760D01*
X-609Y-5750D01*
X-604Y-5740D01*
X-600Y-5730D01*
X-597Y-5721D01*
X-594Y-5713D01*
X-592Y-5706D01*
X-592Y-5701D01*
X-591Y-5697D01*
Y-5696D01*
X-500Y-5707D01*
X-502Y-5724D01*
X-505Y-5741D01*
X-509Y-5756D01*
X-513Y-5771D01*
X-519Y-5784D01*
X-525Y-5797D01*
X-531Y-5808D01*
X-537Y-5818D01*
X-545Y-5828D01*
X-552Y-5838D01*
X-568Y-5853D01*
X-585Y-5866D01*
X-602Y-5876D01*
X-618Y-5884D01*
X-634Y-5890D01*
X-649Y-5894D01*
X-662Y-5897D01*
X-673Y-5898D01*
X-682Y-5900D01*
X-689D01*
X-707Y-5899D01*
X-722Y-5898D01*
X-737Y-5896D01*
X-752Y-5892D01*
X-764Y-5888D01*
X-776Y-5884D01*
X-787Y-5880D01*
X-796Y-5875D01*
X-803Y-5871D01*
X-811Y-5867D01*
X-817Y-5863D01*
X-822Y-5858D01*
X-825Y-5855D01*
X-827Y-5853D01*
X-829Y-5852D01*
X-830Y-5851D01*
X-838Y-5841D01*
X-845Y-5831D01*
X-852Y-5821D01*
X-857Y-5811D01*
X-865Y-5790D01*
X-870Y-5770D01*
X-872Y-5762D01*
X-873Y-5753D01*
X-874Y-5746D01*
X-875Y-5740D01*
X-876Y-5734D01*
Y-5731D01*
Y-5728D01*
Y-5728D01*
X-875Y-5709D01*
X-873Y-5693D01*
X-871Y-5678D01*
X-867Y-5665D01*
X-864Y-5655D01*
X-862Y-5648D01*
X-860Y-5643D01*
X-859Y-5641D01*
X-852Y-5628D01*
X-845Y-5617D01*
X-837Y-5607D01*
X-829Y-5598D01*
X-822Y-5592D01*
X-816Y-5588D01*
X-812Y-5584D01*
X-811Y-5583D01*
X-805Y-5579D01*
X-797Y-5575D01*
X-782Y-5567D01*
X-765Y-5560D01*
X-748Y-5553D01*
X-733Y-5548D01*
X-727Y-5546D01*
X-721Y-5543D01*
X-716Y-5542D01*
X-712Y-5541D01*
X-710Y-5540D01*
X-709D01*
X-697Y-5537D01*
X-687Y-5533D01*
X-677Y-5530D01*
X-668Y-5527D01*
X-660Y-5523D01*
X-653Y-5521D01*
X-647Y-5518D01*
X-642Y-5515D01*
X-633Y-5511D01*
X-628Y-5508D01*
X-625Y-5506D01*
X-624Y-5505D01*
X-618Y-5499D01*
X-613Y-5493D01*
X-610Y-5487D01*
X-608Y-5481D01*
X-607Y-5475D01*
X-606Y-5471D01*
Y-5468D01*
Y-5468D01*
X-607Y-5459D01*
X-609Y-5452D01*
X-612Y-5445D01*
X-616Y-5439D01*
X-619Y-5434D01*
X-622Y-5431D01*
X-625Y-5429D01*
X-626Y-5428D01*
X-634Y-5423D01*
X-644Y-5419D01*
X-653Y-5417D01*
X-662Y-5414D01*
X-671Y-5413D01*
X-678Y-5413D01*
X-684D01*
X-697Y-5413D01*
X-709Y-5415D01*
X-719Y-5418D01*
X-727Y-5422D01*
X-734Y-5425D01*
X-739Y-5428D01*
X-742Y-5430D01*
X-742Y-5431D01*
X-750Y-5439D01*
X-756Y-5448D01*
X-760Y-5459D01*
X-764Y-5469D01*
X-767Y-5479D01*
X-768Y-5487D01*
X-769Y-5490D01*
X-770Y-5493D01*
Y-5493D01*
Y-5494D01*
X-863Y-5489D01*
X-862Y-5474D01*
X-860Y-5460D01*
X-857Y-5448D01*
X-854Y-5435D01*
X-851Y-5424D01*
X-847Y-5413D01*
X-842Y-5404D01*
X-837Y-5396D01*
X-833Y-5388D01*
X-829Y-5382D01*
X-825Y-5376D01*
X-822Y-5372D01*
X-818Y-5368D01*
X-816Y-5365D01*
X-815Y-5364D01*
X-814Y-5363D01*
X-805Y-5355D01*
X-796Y-5348D01*
X-785Y-5343D01*
X-775Y-5338D01*
X-753Y-5329D01*
X-733Y-5324D01*
X-723Y-5322D01*
X-715Y-5321D01*
X-707Y-5320D01*
X-700Y-5319D01*
X-694Y-5318D01*
X-687D01*
X-667Y-5319D01*
D02*
G37*
G36*
X2127Y-1920D02*
X2031D01*
Y-1513D01*
X1825Y-1920D01*
X1720D01*
Y-1295D01*
X1816D01*
Y-1713D01*
X2027Y-1295D01*
X2127D01*
Y-1920D01*
D02*
G37*
G36*
X2607D02*
X2217D01*
Y-1814D01*
X2503D01*
Y-1644D01*
X2245D01*
Y-1539D01*
X2503D01*
Y-1400D01*
X2226D01*
Y-1295D01*
X2607D01*
Y-1920D01*
D02*
G37*
G36*
X-3643Y-2741D02*
X-3623Y-2746D01*
X-3604Y-2752D01*
X-3590Y-2759D01*
X-3578Y-2766D01*
X-3568Y-2773D01*
X-3563Y-2777D01*
X-3562Y-2778D01*
X-3561Y-2779D01*
X-3554Y-2787D01*
X-3547Y-2796D01*
X-3535Y-2815D01*
X-3526Y-2836D01*
X-3518Y-2856D01*
X-3513Y-2875D01*
X-3511Y-2882D01*
X-3509Y-2889D01*
X-3508Y-2895D01*
X-3507Y-2899D01*
X-3506Y-2902D01*
Y-2903D01*
X-3597Y-2922D01*
X-3599Y-2907D01*
X-3602Y-2895D01*
X-3605Y-2884D01*
X-3609Y-2875D01*
X-3613Y-2869D01*
X-3616Y-2863D01*
X-3617Y-2861D01*
X-3618Y-2860D01*
X-3626Y-2852D01*
X-3633Y-2848D01*
X-3641Y-2844D01*
X-3647Y-2841D01*
X-3653Y-2839D01*
X-3658Y-2838D01*
X-3662D01*
X-3671Y-2839D01*
X-3679Y-2841D01*
X-3687Y-2844D01*
X-3692Y-2848D01*
X-3697Y-2851D01*
X-3701Y-2854D01*
X-3702Y-2856D01*
X-3703Y-2857D01*
X-3709Y-2864D01*
X-3713Y-2873D01*
X-3716Y-2881D01*
X-3718Y-2888D01*
X-3719Y-2896D01*
X-3720Y-2901D01*
Y-2905D01*
Y-2907D01*
X-3719Y-2921D01*
X-3716Y-2933D01*
X-3713Y-2943D01*
X-3709Y-2951D01*
X-3705Y-2958D01*
X-3702Y-2963D01*
X-3699Y-2966D01*
X-3698Y-2967D01*
X-3689Y-2973D01*
X-3679Y-2979D01*
X-3669Y-2982D01*
X-3659Y-2985D01*
X-3651Y-2985D01*
X-3643Y-2986D01*
X-3637D01*
X-3627Y-3084D01*
X-3636Y-3082D01*
X-3644Y-3079D01*
X-3653Y-3077D01*
X-3659Y-3076D01*
X-3664Y-3075D01*
X-3671D01*
X-3681Y-3076D01*
X-3690Y-3079D01*
X-3699Y-3083D01*
X-3706Y-3088D01*
X-3712Y-3094D01*
X-3716Y-3097D01*
X-3719Y-3101D01*
X-3720Y-3102D01*
X-3727Y-3112D01*
X-3732Y-3124D01*
X-3736Y-3136D01*
X-3738Y-3147D01*
X-3739Y-3157D01*
X-3740Y-3166D01*
Y-3171D01*
Y-3172D01*
Y-3173D01*
X-3739Y-3191D01*
X-3737Y-3206D01*
X-3734Y-3219D01*
X-3730Y-3230D01*
X-3726Y-3239D01*
X-3723Y-3244D01*
X-3720Y-3249D01*
X-3719Y-3250D01*
X-3711Y-3259D01*
X-3702Y-3266D01*
X-3693Y-3270D01*
X-3685Y-3273D01*
X-3678Y-3275D01*
X-3673Y-3277D01*
X-3667D01*
X-3657Y-3276D01*
X-3648Y-3273D01*
X-3640Y-3269D01*
X-3633Y-3265D01*
X-3628Y-3261D01*
X-3623Y-3257D01*
X-3620Y-3255D01*
X-3619Y-3254D01*
X-3613Y-3244D01*
X-3607Y-3233D01*
X-3603Y-3222D01*
X-3600Y-3211D01*
X-3597Y-3201D01*
X-3596Y-3193D01*
X-3595Y-3188D01*
Y-3187D01*
Y-3186D01*
X-3500Y-3200D01*
X-3505Y-3230D01*
X-3511Y-3255D01*
X-3516Y-3267D01*
X-3520Y-3277D01*
X-3525Y-3287D01*
X-3530Y-3295D01*
X-3534Y-3304D01*
X-3539Y-3310D01*
X-3543Y-3316D01*
X-3546Y-3321D01*
X-3549Y-3325D01*
X-3552Y-3328D01*
X-3553Y-3328D01*
X-3554Y-3329D01*
X-3563Y-3338D01*
X-3572Y-3345D01*
X-3581Y-3352D01*
X-3592Y-3356D01*
X-3611Y-3365D01*
X-3629Y-3371D01*
X-3644Y-3374D01*
X-3652Y-3375D01*
X-3657Y-3376D01*
X-3662Y-3377D01*
X-3668D01*
X-3681Y-3376D01*
X-3693Y-3374D01*
X-3705Y-3371D01*
X-3717Y-3368D01*
X-3738Y-3359D01*
X-3755Y-3349D01*
X-3770Y-3339D01*
X-3776Y-3334D01*
X-3780Y-3329D01*
X-3784Y-3327D01*
X-3788Y-3324D01*
X-3788Y-3322D01*
X-3789Y-3321D01*
X-3799Y-3310D01*
X-3807Y-3299D01*
X-3813Y-3287D01*
X-3819Y-3275D01*
X-3828Y-3252D01*
X-3835Y-3230D01*
X-3837Y-3218D01*
X-3838Y-3209D01*
X-3839Y-3201D01*
X-3840Y-3193D01*
X-3841Y-3188D01*
Y-3183D01*
Y-3181D01*
Y-3180D01*
X-3840Y-3158D01*
X-3837Y-3139D01*
X-3833Y-3122D01*
X-3827Y-3108D01*
X-3823Y-3097D01*
X-3818Y-3089D01*
X-3814Y-3083D01*
X-3813Y-3082D01*
X-3802Y-3068D01*
X-3791Y-3057D01*
X-3780Y-3048D01*
X-3769Y-3041D01*
X-3759Y-3036D01*
X-3751Y-3034D01*
X-3746Y-3032D01*
X-3745Y-3031D01*
X-3744D01*
X-3757Y-3022D01*
X-3768Y-3011D01*
X-3778Y-3001D01*
X-3786Y-2993D01*
X-3792Y-2985D01*
X-3796Y-2979D01*
X-3799Y-2975D01*
X-3800Y-2973D01*
X-3806Y-2961D01*
X-3811Y-2948D01*
X-3814Y-2936D01*
X-3816Y-2924D01*
X-3818Y-2914D01*
X-3819Y-2906D01*
Y-2901D01*
Y-2899D01*
Y-2888D01*
X-3817Y-2877D01*
X-3812Y-2857D01*
X-3806Y-2838D01*
X-3799Y-2822D01*
X-3790Y-2808D01*
X-3787Y-2802D01*
X-3784Y-2798D01*
X-3781Y-2794D01*
X-3779Y-2791D01*
X-3778Y-2790D01*
X-3777Y-2789D01*
X-3769Y-2780D01*
X-3761Y-2773D01*
X-3751Y-2766D01*
X-3742Y-2761D01*
X-3724Y-2752D01*
X-3706Y-2746D01*
X-3690Y-2742D01*
X-3683Y-2741D01*
X-3678Y-2740D01*
X-3672Y-2740D01*
X-3654D01*
X-3643Y-2741D01*
D02*
G37*
G36*
X-4241D02*
X-4220Y-2746D01*
X-4202Y-2752D01*
X-4187Y-2759D01*
X-4175Y-2766D01*
X-4166Y-2773D01*
X-4160Y-2777D01*
X-4159Y-2778D01*
X-4158Y-2779D01*
X-4151Y-2787D01*
X-4144Y-2796D01*
X-4132Y-2815D01*
X-4123Y-2836D01*
X-4116Y-2856D01*
X-4110Y-2875D01*
X-4108Y-2882D01*
X-4107Y-2889D01*
X-4106Y-2895D01*
X-4105Y-2899D01*
X-4104Y-2902D01*
Y-2903D01*
X-4194Y-2922D01*
X-4196Y-2907D01*
X-4199Y-2895D01*
X-4203Y-2884D01*
X-4206Y-2875D01*
X-4210Y-2869D01*
X-4213Y-2863D01*
X-4215Y-2861D01*
X-4216Y-2860D01*
X-4223Y-2852D01*
X-4230Y-2848D01*
X-4238Y-2844D01*
X-4244Y-2841D01*
X-4250Y-2839D01*
X-4255Y-2838D01*
X-4259D01*
X-4268Y-2839D01*
X-4277Y-2841D01*
X-4284Y-2844D01*
X-4290Y-2848D01*
X-4294Y-2851D01*
X-4298Y-2854D01*
X-4300Y-2856D01*
X-4301Y-2857D01*
X-4306Y-2864D01*
X-4310Y-2873D01*
X-4314Y-2881D01*
X-4315Y-2888D01*
X-4316Y-2896D01*
X-4317Y-2901D01*
Y-2905D01*
Y-2907D01*
X-4316Y-2921D01*
X-4314Y-2933D01*
X-4310Y-2943D01*
X-4306Y-2951D01*
X-4303Y-2958D01*
X-4299Y-2963D01*
X-4296Y-2966D01*
X-4295Y-2967D01*
X-4286Y-2973D01*
X-4277Y-2979D01*
X-4266Y-2982D01*
X-4256Y-2985D01*
X-4248Y-2985D01*
X-4241Y-2986D01*
X-4234D01*
X-4224Y-3084D01*
X-4233Y-3082D01*
X-4241Y-3079D01*
X-4250Y-3077D01*
X-4256Y-3076D01*
X-4261Y-3075D01*
X-4268D01*
X-4278Y-3076D01*
X-4288Y-3079D01*
X-4296Y-3083D01*
X-4303Y-3088D01*
X-4309Y-3094D01*
X-4314Y-3097D01*
X-4316Y-3101D01*
X-4317Y-3102D01*
X-4324Y-3112D01*
X-4329Y-3124D01*
X-4333Y-3136D01*
X-4335Y-3147D01*
X-4337Y-3157D01*
X-4338Y-3166D01*
Y-3171D01*
Y-3172D01*
Y-3173D01*
X-4337Y-3191D01*
X-4334Y-3206D01*
X-4331Y-3219D01*
X-4327Y-3230D01*
X-4323Y-3239D01*
X-4320Y-3244D01*
X-4317Y-3249D01*
X-4316Y-3250D01*
X-4308Y-3259D01*
X-4300Y-3266D01*
X-4291Y-3270D01*
X-4282Y-3273D01*
X-4276Y-3275D01*
X-4270Y-3277D01*
X-4265D01*
X-4254Y-3276D01*
X-4245Y-3273D01*
X-4237Y-3269D01*
X-4230Y-3265D01*
X-4225Y-3261D01*
X-4220Y-3257D01*
X-4217Y-3255D01*
X-4217Y-3254D01*
X-4210Y-3244D01*
X-4205Y-3233D01*
X-4200Y-3222D01*
X-4197Y-3211D01*
X-4194Y-3201D01*
X-4193Y-3193D01*
X-4193Y-3188D01*
Y-3187D01*
Y-3186D01*
X-4097Y-3200D01*
X-4102Y-3230D01*
X-4108Y-3255D01*
X-4113Y-3267D01*
X-4118Y-3277D01*
X-4122Y-3287D01*
X-4127Y-3295D01*
X-4131Y-3304D01*
X-4136Y-3310D01*
X-4140Y-3316D01*
X-4143Y-3321D01*
X-4146Y-3325D01*
X-4149Y-3328D01*
X-4150Y-3328D01*
X-4151Y-3329D01*
X-4160Y-3338D01*
X-4169Y-3345D01*
X-4179Y-3352D01*
X-4189Y-3356D01*
X-4208Y-3365D01*
X-4226Y-3371D01*
X-4241Y-3374D01*
X-4249Y-3375D01*
X-4254Y-3376D01*
X-4259Y-3377D01*
X-4266D01*
X-4278Y-3376D01*
X-4291Y-3374D01*
X-4303Y-3371D01*
X-4315Y-3368D01*
X-4335Y-3359D01*
X-4352Y-3349D01*
X-4367Y-3339D01*
X-4373Y-3334D01*
X-4377Y-3329D01*
X-4381Y-3327D01*
X-4385Y-3324D01*
X-4386Y-3322D01*
X-4387Y-3321D01*
X-4396Y-3310D01*
X-4404Y-3299D01*
X-4411Y-3287D01*
X-4416Y-3275D01*
X-4425Y-3252D01*
X-4432Y-3230D01*
X-4434Y-3218D01*
X-4436Y-3209D01*
X-4437Y-3201D01*
X-4438Y-3193D01*
X-4438Y-3188D01*
Y-3183D01*
Y-3181D01*
Y-3180D01*
X-4438Y-3158D01*
X-4434Y-3139D01*
X-4430Y-3122D01*
X-4425Y-3108D01*
X-4420Y-3097D01*
X-4415Y-3089D01*
X-4412Y-3083D01*
X-4411Y-3082D01*
X-4400Y-3068D01*
X-4389Y-3057D01*
X-4377Y-3048D01*
X-4366Y-3041D01*
X-4356Y-3036D01*
X-4349Y-3034D01*
X-4343Y-3032D01*
X-4342Y-3031D01*
X-4341D01*
X-4354Y-3022D01*
X-4365Y-3011D01*
X-4376Y-3001D01*
X-4383Y-2993D01*
X-4389Y-2985D01*
X-4393Y-2979D01*
X-4396Y-2975D01*
X-4397Y-2973D01*
X-4403Y-2961D01*
X-4408Y-2948D01*
X-4412Y-2936D01*
X-4413Y-2924D01*
X-4415Y-2914D01*
X-4416Y-2906D01*
Y-2901D01*
Y-2899D01*
Y-2888D01*
X-4414Y-2877D01*
X-4410Y-2857D01*
X-4403Y-2838D01*
X-4396Y-2822D01*
X-4388Y-2808D01*
X-4384Y-2802D01*
X-4381Y-2798D01*
X-4378Y-2794D01*
X-4376Y-2791D01*
X-4376Y-2790D01*
X-4375Y-2789D01*
X-4366Y-2780D01*
X-4358Y-2773D01*
X-4349Y-2766D01*
X-4339Y-2761D01*
X-4321Y-2752D01*
X-4303Y-2746D01*
X-4287Y-2742D01*
X-4280Y-2741D01*
X-4275Y-2740D01*
X-4269Y-2740D01*
X-4252D01*
X-4241Y-2741D01*
D02*
G37*
G36*
X-4521Y-3366D02*
X-4733D01*
X-4750Y-3365D01*
X-4765D01*
X-4779Y-3365D01*
X-4791Y-3364D01*
X-4801D01*
X-4810Y-3363D01*
X-4818Y-3362D01*
X-4824Y-3361D01*
X-4829D01*
X-4833Y-3360D01*
X-4836D01*
X-4838Y-3359D01*
X-4840D01*
X-4855Y-3353D01*
X-4870Y-3345D01*
X-4884Y-3336D01*
X-4895Y-3326D01*
X-4904Y-3316D01*
X-4912Y-3308D01*
X-4916Y-3303D01*
X-4917Y-3302D01*
Y-3301D01*
X-4928Y-3282D01*
X-4937Y-3263D01*
X-4942Y-3243D01*
X-4947Y-3225D01*
X-4949Y-3209D01*
X-4950Y-3203D01*
Y-3196D01*
X-4951Y-3192D01*
Y-3188D01*
Y-3186D01*
Y-3185D01*
X-4950Y-3165D01*
X-4947Y-3146D01*
X-4942Y-3131D01*
X-4938Y-3117D01*
X-4933Y-3105D01*
X-4928Y-3096D01*
X-4926Y-3092D01*
X-4925Y-3090D01*
X-4915Y-3076D01*
X-4903Y-3064D01*
X-4891Y-3055D01*
X-4879Y-3047D01*
X-4868Y-3042D01*
X-4860Y-3037D01*
X-4854Y-3035D01*
X-4854Y-3034D01*
X-4853D01*
X-4865Y-3027D01*
X-4875Y-3019D01*
X-4883Y-3010D01*
X-4891Y-3001D01*
X-4897Y-2993D01*
X-4902Y-2986D01*
X-4904Y-2983D01*
X-4905Y-2981D01*
X-4912Y-2967D01*
X-4917Y-2952D01*
X-4921Y-2938D01*
X-4923Y-2925D01*
X-4925Y-2915D01*
X-4926Y-2906D01*
Y-2900D01*
Y-2899D01*
Y-2899D01*
X-4925Y-2881D01*
X-4922Y-2864D01*
X-4918Y-2850D01*
X-4914Y-2837D01*
X-4909Y-2826D01*
X-4905Y-2818D01*
X-4903Y-2813D01*
X-4902Y-2812D01*
X-4892Y-2798D01*
X-4883Y-2787D01*
X-4873Y-2777D01*
X-4865Y-2770D01*
X-4856Y-2764D01*
X-4850Y-2760D01*
X-4846Y-2758D01*
X-4844Y-2757D01*
X-4837Y-2754D01*
X-4830Y-2752D01*
X-4811Y-2748D01*
X-4792Y-2745D01*
X-4772Y-2743D01*
X-4755Y-2742D01*
X-4746Y-2741D01*
X-4521D01*
Y-3366D01*
D02*
G37*
G36*
X-3920D02*
X-3967D01*
X-3966Y-3379D01*
X-3964Y-3391D01*
X-3962Y-3401D01*
X-3960Y-3409D01*
X-3958Y-3415D01*
X-3955Y-3420D01*
X-3954Y-3423D01*
X-3953Y-3424D01*
X-3947Y-3431D01*
X-3941Y-3438D01*
X-3935Y-3443D01*
X-3927Y-3448D01*
X-3922Y-3451D01*
X-3916Y-3454D01*
X-3912Y-3455D01*
X-3911Y-3456D01*
X-3930Y-3506D01*
X-3947Y-3497D01*
X-3961Y-3487D01*
X-3973Y-3475D01*
X-3984Y-3464D01*
X-3991Y-3455D01*
X-3996Y-3448D01*
X-3999Y-3442D01*
X-4000Y-3441D01*
Y-3440D01*
X-4006Y-3426D01*
X-4010Y-3408D01*
X-4013Y-3390D01*
X-4016Y-3373D01*
X-4017Y-3357D01*
Y-3350D01*
X-4018Y-3344D01*
Y-3339D01*
Y-3335D01*
Y-3333D01*
Y-3332D01*
Y-3246D01*
X-3920D01*
Y-3366D01*
D02*
G37*
G36*
X70Y-1574D02*
X83Y-1575D01*
X107Y-1581D01*
X127Y-1587D01*
X144Y-1595D01*
X157Y-1604D01*
X162Y-1608D01*
X167Y-1611D01*
X170Y-1614D01*
X173Y-1617D01*
X174Y-1618D01*
X175Y-1618D01*
X183Y-1628D01*
X190Y-1637D01*
X202Y-1659D01*
X211Y-1682D01*
X217Y-1704D01*
X220Y-1716D01*
X223Y-1726D01*
X224Y-1735D01*
X226Y-1742D01*
X227Y-1749D01*
Y-1753D01*
X228Y-1757D01*
Y-1758D01*
X130Y-1771D01*
X128Y-1753D01*
X125Y-1739D01*
X121Y-1726D01*
X117Y-1715D01*
X111Y-1704D01*
X106Y-1697D01*
X99Y-1691D01*
X93Y-1685D01*
X86Y-1681D01*
X81Y-1679D01*
X70Y-1675D01*
X66Y-1674D01*
X62Y-1673D01*
X59D01*
X49Y-1674D01*
X39Y-1677D01*
X31Y-1679D01*
X24Y-1683D01*
X19Y-1688D01*
X15Y-1691D01*
X12Y-1693D01*
X11Y-1694D01*
X5Y-1703D01*
X0Y-1713D01*
X-3Y-1723D01*
X-5Y-1733D01*
X-6Y-1742D01*
X-7Y-1750D01*
Y-1754D01*
Y-1755D01*
Y-1756D01*
X-6Y-1770D01*
X-3Y-1784D01*
X0Y-1797D01*
X4Y-1808D01*
X8Y-1818D01*
X11Y-1826D01*
X14Y-1830D01*
X15Y-1832D01*
X19Y-1838D01*
X23Y-1844D01*
X34Y-1859D01*
X47Y-1875D01*
X61Y-1891D01*
X74Y-1907D01*
X80Y-1914D01*
X85Y-1920D01*
X89Y-1924D01*
X93Y-1928D01*
X95Y-1931D01*
X95Y-1932D01*
X110Y-1949D01*
X123Y-1965D01*
X136Y-1980D01*
X147Y-1994D01*
X157Y-2008D01*
X166Y-2020D01*
X174Y-2031D01*
X181Y-2041D01*
X187Y-2050D01*
X193Y-2058D01*
X196Y-2065D01*
X200Y-2071D01*
X203Y-2075D01*
X204Y-2078D01*
X205Y-2080D01*
Y-2081D01*
X215Y-2102D01*
X222Y-2123D01*
X229Y-2144D01*
X232Y-2161D01*
X235Y-2177D01*
X237Y-2183D01*
X238Y-2189D01*
Y-2194D01*
X239Y-2197D01*
Y-2199D01*
Y-2200D01*
X-106D01*
Y-2089D01*
X90D01*
X83Y-2077D01*
X77Y-2067D01*
X74Y-2063D01*
X71Y-2059D01*
X70Y-2058D01*
X70Y-2057D01*
X63Y-2048D01*
X55Y-2038D01*
X45Y-2027D01*
X34Y-2015D01*
X25Y-2004D01*
X17Y-1995D01*
X14Y-1991D01*
X11Y-1988D01*
X10Y-1987D01*
X9Y-1986D01*
X-8Y-1966D01*
X-23Y-1948D01*
X-36Y-1932D01*
X-46Y-1918D01*
X-53Y-1908D01*
X-59Y-1900D01*
X-62Y-1895D01*
X-63Y-1893D01*
X-70Y-1879D01*
X-77Y-1866D01*
X-83Y-1854D01*
X-88Y-1843D01*
X-90Y-1834D01*
X-93Y-1827D01*
X-95Y-1823D01*
Y-1821D01*
X-99Y-1807D01*
X-101Y-1794D01*
X-103Y-1781D01*
X-105Y-1770D01*
Y-1760D01*
X-106Y-1753D01*
Y-1748D01*
Y-1746D01*
Y-1733D01*
X-104Y-1721D01*
X-100Y-1699D01*
X-93Y-1679D01*
X-86Y-1661D01*
X-77Y-1646D01*
X-74Y-1640D01*
X-71Y-1635D01*
X-68Y-1631D01*
X-66Y-1629D01*
X-65Y-1627D01*
X-65Y-1626D01*
X-56Y-1617D01*
X-48Y-1608D01*
X-39Y-1602D01*
X-28Y-1595D01*
X-18Y-1590D01*
X-8Y-1586D01*
X11Y-1580D01*
X30Y-1576D01*
X37Y-1575D01*
X45Y-1574D01*
X50Y-1573D01*
X58D01*
X70Y-1574D01*
D02*
G37*
G36*
X720Y-2200D02*
X617D01*
Y-1939D01*
X584D01*
X573Y-1940D01*
X564Y-1941D01*
X557Y-1943D01*
X551Y-1944D01*
X548Y-1946D01*
X546Y-1947D01*
X545D01*
X538Y-1949D01*
X533Y-1954D01*
X524Y-1962D01*
X520Y-1966D01*
X517Y-1970D01*
X515Y-1972D01*
X514Y-1973D01*
X512Y-1976D01*
X508Y-1982D01*
X503Y-1987D01*
X499Y-1994D01*
X490Y-2010D01*
X481Y-2025D01*
X473Y-2040D01*
X469Y-2047D01*
X465Y-2052D01*
X462Y-2057D01*
X461Y-2060D01*
X459Y-2063D01*
Y-2064D01*
X385Y-2200D01*
X260D01*
X323Y-2079D01*
X329Y-2066D01*
X336Y-2053D01*
X342Y-2042D01*
X348Y-2032D01*
X353Y-2022D01*
X358Y-2014D01*
X366Y-2000D01*
X373Y-1990D01*
X378Y-1983D01*
X381Y-1978D01*
X382Y-1977D01*
X390Y-1967D01*
X400Y-1957D01*
X409Y-1948D01*
X417Y-1940D01*
X425Y-1934D01*
X431Y-1929D01*
X435Y-1925D01*
X437Y-1924D01*
X413Y-1919D01*
X394Y-1912D01*
X377Y-1902D01*
X363Y-1892D01*
X352Y-1884D01*
X343Y-1876D01*
X339Y-1871D01*
X337Y-1870D01*
Y-1869D01*
X325Y-1851D01*
X315Y-1831D01*
X309Y-1812D01*
X305Y-1793D01*
X303Y-1777D01*
X302Y-1769D01*
Y-1763D01*
X301Y-1758D01*
Y-1753D01*
Y-1752D01*
Y-1751D01*
X302Y-1729D01*
X304Y-1711D01*
X308Y-1693D01*
X312Y-1679D01*
X316Y-1667D01*
X320Y-1658D01*
X323Y-1653D01*
X324Y-1651D01*
X333Y-1636D01*
X343Y-1624D01*
X352Y-1614D01*
X362Y-1606D01*
X370Y-1600D01*
X377Y-1595D01*
X381Y-1593D01*
X383Y-1593D01*
X390Y-1590D01*
X399Y-1587D01*
X417Y-1582D01*
X437Y-1580D01*
X456Y-1577D01*
X474Y-1576D01*
X482D01*
X488Y-1575D01*
X720D01*
Y-2200D01*
D02*
G37*
G36*
X61Y1436D02*
X70Y1417D01*
X81Y1401D01*
X91Y1387D01*
X100Y1375D01*
X107Y1366D01*
X113Y1360D01*
X114Y1359D01*
X115Y1358D01*
X132Y1343D01*
X147Y1331D01*
X161Y1321D01*
X174Y1313D01*
X185Y1307D01*
X193Y1303D01*
X198Y1301D01*
X199Y1300D01*
X200D01*
Y1191D01*
X174Y1203D01*
X149Y1217D01*
X128Y1232D01*
X109Y1247D01*
X101Y1254D01*
X94Y1260D01*
X87Y1267D01*
X83Y1271D01*
X78Y1276D01*
X75Y1279D01*
X73Y1280D01*
X72Y1281D01*
Y829D01*
X-27D01*
Y1456D01*
X54D01*
X61Y1436D01*
D02*
G37*
G36*
X720Y829D02*
X617D01*
Y1090D01*
X584D01*
X573Y1089D01*
X564Y1088D01*
X557Y1086D01*
X551Y1085D01*
X548Y1084D01*
X546Y1083D01*
X545D01*
X538Y1080D01*
X533Y1075D01*
X524Y1067D01*
X520Y1063D01*
X517Y1059D01*
X515Y1058D01*
X514Y1057D01*
X512Y1053D01*
X508Y1047D01*
X503Y1042D01*
X499Y1035D01*
X490Y1020D01*
X481Y1004D01*
X473Y989D01*
X469Y983D01*
X465Y977D01*
X462Y973D01*
X461Y969D01*
X459Y966D01*
Y965D01*
X385Y829D01*
X260D01*
X323Y950D01*
X329Y963D01*
X336Y976D01*
X342Y987D01*
X348Y998D01*
X353Y1007D01*
X358Y1015D01*
X366Y1029D01*
X373Y1039D01*
X378Y1047D01*
X381Y1051D01*
X382Y1052D01*
X390Y1062D01*
X400Y1072D01*
X409Y1082D01*
X417Y1089D01*
X425Y1096D01*
X431Y1100D01*
X435Y1104D01*
X437Y1105D01*
X413Y1110D01*
X394Y1118D01*
X377Y1127D01*
X363Y1137D01*
X352Y1145D01*
X343Y1153D01*
X339Y1158D01*
X337Y1159D01*
Y1160D01*
X325Y1179D01*
X315Y1198D01*
X309Y1218D01*
X305Y1236D01*
X303Y1253D01*
X302Y1260D01*
Y1267D01*
X301Y1271D01*
Y1276D01*
Y1278D01*
Y1279D01*
X302Y1300D01*
X304Y1318D01*
X308Y1336D01*
X312Y1351D01*
X316Y1362D01*
X320Y1371D01*
X323Y1377D01*
X324Y1378D01*
X333Y1393D01*
X343Y1405D01*
X352Y1415D01*
X362Y1423D01*
X370Y1429D01*
X377Y1434D01*
X381Y1436D01*
X383Y1437D01*
X390Y1439D01*
X399Y1442D01*
X417Y1447D01*
X437Y1450D01*
X456Y1452D01*
X474Y1453D01*
X482D01*
X488Y1454D01*
X720D01*
Y829D01*
D02*
G37*
%LPC*%
G36*
X1235Y2715D02*
X1174D01*
X1158Y2714D01*
X1145Y2713D01*
X1134Y2712D01*
X1127Y2711D01*
X1122Y2710D01*
X1119Y2710D01*
X1118D01*
X1109Y2706D01*
X1100Y2703D01*
X1093Y2698D01*
X1086Y2694D01*
X1081Y2689D01*
X1077Y2685D01*
X1074Y2683D01*
X1074Y2682D01*
X1067Y2674D01*
X1062Y2665D01*
X1057Y2655D01*
X1054Y2645D01*
X1050Y2637D01*
X1049Y2630D01*
X1047Y2626D01*
Y2625D01*
Y2625D01*
X1044Y2610D01*
X1042Y2594D01*
X1040Y2578D01*
X1039Y2562D01*
Y2548D01*
X1038Y2542D01*
Y2536D01*
Y2532D01*
Y2529D01*
Y2527D01*
Y2526D01*
Y2505D01*
X1039Y2485D01*
X1040Y2469D01*
X1042Y2455D01*
X1044Y2444D01*
X1045Y2435D01*
X1046Y2430D01*
X1047Y2430D01*
Y2429D01*
X1050Y2416D01*
X1054Y2405D01*
X1058Y2395D01*
X1061Y2388D01*
X1064Y2382D01*
X1066Y2378D01*
X1068Y2375D01*
X1069Y2375D01*
X1079Y2364D01*
X1089Y2356D01*
X1094Y2353D01*
X1098Y2351D01*
X1100Y2350D01*
X1101Y2350D01*
X1109Y2347D01*
X1119Y2345D01*
X1130Y2343D01*
X1141Y2342D01*
X1151D01*
X1159Y2341D01*
X1235D01*
Y2715D01*
D02*
G37*
G36*
X3868Y-3343D02*
X3807D01*
X3791Y-3344D01*
X3778Y-3345D01*
X3767Y-3346D01*
X3760Y-3347D01*
X3755Y-3347D01*
X3751Y-3348D01*
X3751D01*
X3741Y-3352D01*
X3733Y-3355D01*
X3726Y-3360D01*
X3719Y-3364D01*
X3714Y-3369D01*
X3710Y-3372D01*
X3707Y-3375D01*
X3706Y-3376D01*
X3700Y-3384D01*
X3695Y-3393D01*
X3690Y-3403D01*
X3686Y-3412D01*
X3683Y-3421D01*
X3681Y-3427D01*
X3680Y-3432D01*
Y-3432D01*
Y-3433D01*
X3676Y-3447D01*
X3675Y-3464D01*
X3673Y-3480D01*
X3671Y-3496D01*
Y-3510D01*
X3671Y-3516D01*
Y-3522D01*
Y-3526D01*
Y-3529D01*
Y-3531D01*
Y-3532D01*
Y-3553D01*
X3672Y-3572D01*
X3673Y-3589D01*
X3675Y-3603D01*
X3676Y-3614D01*
X3678Y-3622D01*
X3679Y-3627D01*
X3680Y-3628D01*
Y-3629D01*
X3683Y-3642D01*
X3686Y-3653D01*
X3691Y-3662D01*
X3694Y-3670D01*
X3696Y-3676D01*
X3699Y-3680D01*
X3701Y-3682D01*
X3701Y-3683D01*
X3711Y-3694D01*
X3722Y-3701D01*
X3727Y-3705D01*
X3731Y-3706D01*
X3733Y-3707D01*
X3734Y-3708D01*
X3742Y-3711D01*
X3752Y-3713D01*
X3763Y-3715D01*
X3774Y-3716D01*
X3784D01*
X3791Y-3716D01*
X3868D01*
Y-3343D01*
D02*
G37*
G36*
X3934Y2854D02*
X3873D01*
X3856Y2853D01*
X3844Y2852D01*
X3833Y2851D01*
X3825Y2850D01*
X3820Y2850D01*
X3817Y2849D01*
X3816D01*
X3807Y2845D01*
X3799Y2842D01*
X3791Y2837D01*
X3784Y2833D01*
X3780Y2828D01*
X3775Y2825D01*
X3773Y2822D01*
X3772Y2821D01*
X3765Y2813D01*
X3760Y2804D01*
X3755Y2794D01*
X3752Y2785D01*
X3749Y2776D01*
X3747Y2770D01*
X3745Y2765D01*
Y2765D01*
Y2764D01*
X3742Y2750D01*
X3740Y2733D01*
X3739Y2717D01*
X3737Y2701D01*
Y2687D01*
X3736Y2681D01*
Y2675D01*
Y2671D01*
Y2668D01*
Y2666D01*
Y2665D01*
Y2644D01*
X3738Y2625D01*
X3739Y2608D01*
X3740Y2594D01*
X3742Y2583D01*
X3744Y2575D01*
X3745Y2570D01*
X3745Y2569D01*
Y2568D01*
X3749Y2555D01*
X3752Y2544D01*
X3756Y2535D01*
X3760Y2527D01*
X3762Y2521D01*
X3764Y2517D01*
X3766Y2515D01*
X3767Y2514D01*
X3777Y2503D01*
X3788Y2495D01*
X3793Y2492D01*
X3796Y2490D01*
X3799Y2490D01*
X3799Y2489D01*
X3808Y2486D01*
X3818Y2484D01*
X3829Y2482D01*
X3839Y2481D01*
X3849D01*
X3857Y2480D01*
X3934D01*
Y2854D01*
D02*
G37*
G36*
X4631Y3571D02*
X4625D01*
X4615Y3570D01*
X4605Y3569D01*
X4596Y3567D01*
X4587Y3563D01*
X4571Y3556D01*
X4558Y3547D01*
X4548Y3538D01*
X4540Y3531D01*
X4537Y3527D01*
X4535Y3525D01*
X4533Y3524D01*
Y3523D01*
X4527Y3514D01*
X4522Y3504D01*
X4513Y3481D01*
X4506Y3457D01*
X4502Y3434D01*
X4501Y3422D01*
X4499Y3412D01*
X4498Y3403D01*
Y3395D01*
X4498Y3388D01*
Y3383D01*
Y3380D01*
Y3379D01*
Y3361D01*
X4499Y3344D01*
X4501Y3329D01*
X4503Y3314D01*
X4506Y3301D01*
X4509Y3289D01*
X4513Y3278D01*
X4516Y3268D01*
X4519Y3260D01*
X4523Y3252D01*
X4526Y3246D01*
X4528Y3241D01*
X4531Y3237D01*
X4533Y3234D01*
X4533Y3232D01*
X4534Y3232D01*
X4541Y3223D01*
X4548Y3216D01*
X4556Y3210D01*
X4563Y3204D01*
X4571Y3200D01*
X4578Y3196D01*
X4593Y3190D01*
X4606Y3187D01*
X4611Y3186D01*
X4616Y3185D01*
X4620Y3184D01*
X4625D01*
X4635Y3185D01*
X4644Y3187D01*
X4653Y3188D01*
X4662Y3192D01*
X4678Y3199D01*
X4691Y3208D01*
X4702Y3217D01*
X4709Y3225D01*
X4712Y3228D01*
X4714Y3231D01*
X4715Y3232D01*
X4716Y3232D01*
X4723Y3242D01*
X4728Y3252D01*
X4737Y3276D01*
X4743Y3300D01*
X4748Y3323D01*
X4749Y3334D01*
X4751Y3344D01*
X4752Y3353D01*
Y3362D01*
X4753Y3368D01*
Y3373D01*
Y3377D01*
Y3377D01*
X4752Y3395D01*
X4751Y3412D01*
X4749Y3427D01*
X4747Y3442D01*
X4744Y3455D01*
X4742Y3467D01*
X4738Y3477D01*
X4735Y3487D01*
X4732Y3496D01*
X4728Y3503D01*
X4726Y3509D01*
X4723Y3514D01*
X4721Y3518D01*
X4719Y3521D01*
X4718Y3522D01*
Y3523D01*
X4711Y3532D01*
X4703Y3539D01*
X4696Y3545D01*
X4688Y3551D01*
X4680Y3556D01*
X4673Y3559D01*
X4658Y3565D01*
X4645Y3568D01*
X4639Y3569D01*
X4634Y3570D01*
X4631Y3571D01*
D02*
G37*
G36*
X-1047Y-5423D02*
X-1108D01*
X-1125Y-5423D01*
X-1137Y-5424D01*
X-1148Y-5425D01*
X-1156Y-5426D01*
X-1161Y-5427D01*
X-1164Y-5428D01*
X-1165D01*
X-1174Y-5431D01*
X-1182Y-5434D01*
X-1190Y-5439D01*
X-1196Y-5443D01*
X-1201Y-5448D01*
X-1206Y-5452D01*
X-1208Y-5454D01*
X-1209Y-5455D01*
X-1216Y-5463D01*
X-1221Y-5473D01*
X-1226Y-5483D01*
X-1229Y-5492D01*
X-1232Y-5500D01*
X-1234Y-5507D01*
X-1236Y-5511D01*
Y-5512D01*
Y-5513D01*
X-1239Y-5527D01*
X-1241Y-5543D01*
X-1242Y-5559D01*
X-1244Y-5575D01*
Y-5589D01*
X-1245Y-5595D01*
Y-5601D01*
Y-5605D01*
Y-5608D01*
Y-5610D01*
Y-5611D01*
Y-5633D01*
X-1243Y-5652D01*
X-1242Y-5668D01*
X-1241Y-5683D01*
X-1239Y-5693D01*
X-1237Y-5702D01*
X-1236Y-5707D01*
X-1236Y-5708D01*
Y-5708D01*
X-1232Y-5721D01*
X-1229Y-5733D01*
X-1225Y-5742D01*
X-1221Y-5749D01*
X-1219Y-5755D01*
X-1216Y-5759D01*
X-1215Y-5762D01*
X-1214Y-5763D01*
X-1204Y-5773D01*
X-1193Y-5781D01*
X-1188Y-5784D01*
X-1185Y-5786D01*
X-1182Y-5787D01*
X-1181Y-5788D01*
X-1173Y-5790D01*
X-1163Y-5793D01*
X-1152Y-5794D01*
X-1141Y-5795D01*
X-1132D01*
X-1124Y-5796D01*
X-1047D01*
Y-5423D01*
D02*
G37*
G36*
X-1601Y-5459D02*
X-1666Y-5668D01*
X-1539D01*
X-1601Y-5459D01*
D02*
G37*
G36*
X-4624Y-2846D02*
X-4723D01*
X-4733Y-2847D01*
X-4743D01*
X-4751Y-2848D01*
X-4764D01*
X-4768Y-2849D01*
X-4773D01*
X-4779Y-2850D01*
X-4781Y-2850D01*
X-4782D01*
X-4789Y-2852D01*
X-4794Y-2856D01*
X-4804Y-2863D01*
X-4807Y-2867D01*
X-4810Y-2870D01*
X-4811Y-2872D01*
X-4812Y-2873D01*
X-4817Y-2879D01*
X-4819Y-2887D01*
X-4823Y-2900D01*
X-4824Y-2907D01*
X-4825Y-2911D01*
Y-2915D01*
Y-2916D01*
X-4824Y-2927D01*
X-4822Y-2937D01*
X-4820Y-2946D01*
X-4818Y-2953D01*
X-4814Y-2959D01*
X-4812Y-2962D01*
X-4810Y-2965D01*
X-4809Y-2966D01*
X-4804Y-2972D01*
X-4796Y-2977D01*
X-4790Y-2981D01*
X-4783Y-2984D01*
X-4778Y-2985D01*
X-4773Y-2986D01*
X-4769Y-2987D01*
X-4765D01*
X-4761Y-2988D01*
X-4738D01*
X-4725Y-2989D01*
X-4624D01*
Y-2846D01*
D02*
G37*
G36*
Y-3094D02*
X-4731D01*
X-4741Y-3095D01*
X-4749D01*
X-4765Y-3096D01*
X-4777Y-3097D01*
X-4785Y-3099D01*
X-4791Y-3101D01*
X-4794Y-3102D01*
X-4795D01*
X-4803Y-3106D01*
X-4810Y-3109D01*
X-4816Y-3114D01*
X-4820Y-3119D01*
X-4824Y-3123D01*
X-4827Y-3126D01*
X-4829Y-3129D01*
X-4830Y-3130D01*
X-4834Y-3137D01*
X-4838Y-3145D01*
X-4840Y-3154D01*
X-4842Y-3162D01*
X-4842Y-3169D01*
X-4843Y-3174D01*
Y-3179D01*
Y-3180D01*
X-4842Y-3190D01*
X-4842Y-3200D01*
X-4840Y-3208D01*
X-4837Y-3215D01*
X-4834Y-3221D01*
X-4832Y-3225D01*
X-4831Y-3228D01*
X-4830Y-3229D01*
X-4826Y-3235D01*
X-4820Y-3241D01*
X-4816Y-3245D01*
X-4811Y-3249D01*
X-4806Y-3252D01*
X-4803Y-3254D01*
X-4801Y-3255D01*
X-4800D01*
X-4796Y-3255D01*
X-4792Y-3256D01*
X-4780Y-3258D01*
X-4767Y-3259D01*
X-4753Y-3260D01*
X-4741Y-3261D01*
X-4624D01*
Y-3094D01*
D02*
G37*
G36*
X617Y-1680D02*
X513D01*
X503Y-1681D01*
X487D01*
X479Y-1682D01*
X474D01*
X468Y-1683D01*
X461Y-1684D01*
X456Y-1685D01*
X453Y-1686D01*
X452D01*
X445Y-1689D01*
X438Y-1692D01*
X433Y-1697D01*
X428Y-1701D01*
X425Y-1704D01*
X422Y-1708D01*
X421Y-1710D01*
X420Y-1711D01*
X416Y-1718D01*
X413Y-1726D01*
X410Y-1741D01*
X409Y-1749D01*
X408Y-1754D01*
Y-1758D01*
Y-1759D01*
X409Y-1770D01*
X410Y-1779D01*
X412Y-1789D01*
X413Y-1795D01*
X416Y-1802D01*
X418Y-1805D01*
X419Y-1808D01*
X420Y-1809D01*
X425Y-1815D01*
X430Y-1821D01*
X435Y-1825D01*
X440Y-1828D01*
X445Y-1831D01*
X448Y-1833D01*
X450Y-1834D01*
X451D01*
X456Y-1835D01*
X461Y-1836D01*
X474Y-1837D01*
X488Y-1839D01*
X503D01*
X518Y-1839D01*
X617D01*
Y-1680D01*
D02*
G37*
G36*
Y1349D02*
X513D01*
X503Y1348D01*
X487D01*
X479Y1347D01*
X474D01*
X468Y1346D01*
X461Y1345D01*
X456Y1344D01*
X453Y1343D01*
X452D01*
X445Y1341D01*
X438Y1337D01*
X433Y1332D01*
X428Y1329D01*
X425Y1325D01*
X422Y1321D01*
X421Y1319D01*
X420Y1318D01*
X416Y1311D01*
X413Y1304D01*
X410Y1288D01*
X409Y1280D01*
X408Y1275D01*
Y1271D01*
Y1270D01*
X409Y1259D01*
X410Y1250D01*
X412Y1241D01*
X413Y1234D01*
X416Y1228D01*
X418Y1224D01*
X419Y1221D01*
X420Y1220D01*
X425Y1214D01*
X430Y1208D01*
X435Y1205D01*
X440Y1201D01*
X445Y1198D01*
X448Y1196D01*
X450Y1195D01*
X451D01*
X456Y1194D01*
X461Y1194D01*
X474Y1193D01*
X488Y1191D01*
X503D01*
X518Y1190D01*
X617D01*
Y1349D01*
D02*
G37*
%LPD*%
M02*
