M48
;Layer_Color=9474304
;FILE_FORMAT=4:3
METRIC,LZ
;TYPE=PLATED
T1F00S00C0.200
T2F00S00C0.500
T3F00S00C0.800
%
T01
X-0002835Y-0003484
X-0001741Y-0001553
X-0001846Y0000198
X-00019Y0001
X-0001383Y00032
X-0000038Y0003352
X0001699Y0003031
X00018Y00013
Y00005
Y-00003
X0001698Y-00011
X0000334Y-0002423
X-0000043Y0005515
X0001513Y0005636
X-0001561Y0005687
T02
X-0005641Y-000312
X-000115Y-00046
X000115
X0003Y-00025
X00055Y-0003
Y0003
X0003Y00025
X-0005246Y0002756
T03
X-0004828Y-00045
X00045Y-0004828
X0004828Y00045
X-00045Y0004828
M30
