M48
;Layer_Color=9474304
;FILE_FORMAT=4:3
METRIC,LZ
;TYPE=PLATED
T1F00S00C0.200
T2F00S00C0.300
T3F00S00C0.800
%
T01
X-000396Y-0005591
X-00033Y-0006016
X-00026Y-0006354
X-00018Y-0006623
X-000101Y-0004602
X0001013Y-0004172
X0001824Y-0004303
X00018Y-0006623
X00026Y-0006354
X00033Y-0006016
X0003836Y-0005688
X0006049Y-0002856
X000649Y-0002244
X0006754Y-0001198
X000582Y0002227
X0002773Y0001893
X0002051Y0001014
X0002055Y-000077
X-0000046Y-0000532
X0000077Y0000039
X-0000175Y0000592
X-0002077Y0000849
X-0002507Y0001569
X-0001115Y0002886
X-0000041Y000324
X0001274Y0003042
X0002331Y0004976
X0002321Y000649
X-0000043Y0005515
X-0001561Y0005687
X-0004554Y0002553
X-0002652Y-0003584
X0000327Y-0002249
T02
X-0001676Y-0001557
T03
X-0004828Y-00045
X00045Y-0004828
X0004828Y00045
X-00045Y0004828
M30
